<?xml version="1.0" encoding="UTF-8"?>
<svg id="uuid-a92432e4-38fe-476d-b7f7-5556ee00944c" data-name="Слой 1" xmlns="http://www.w3.org/2000/svg" viewBox="0 0 250 98.43">
  <defs>
    <style>
      .uuid-3ea69696-323a-4448-b6bb-08e8b84bca3d {
        fill: none;
      }

      .uuid-0d23dce4-576e-4a8b-82ad-59af5ed8283b {
        fill: #1d1d1b;
      }
    </style>
  </defs>
  <g>
    <g>
      <path class="uuid-0d23dce4-576e-4a8b-82ad-59af5ed8283b" d="M36.3,51.96h11.54v-5.49h-11.54v-8.43c0-5.21,4.23-9.44,9.44-9.44h13.63v-5.49h-15.54c-11.44,0-20.72,9.28-20.72,20.72v31.48h13.19v-23.35Z"/>
      <path class="uuid-0d23dce4-576e-4a8b-82ad-59af5ed8283b" d="M62.12,23.11v5.49h0v17.86h-11.54v5.49h11.54v8.43c0,5.21-4.23,9.44-9.44,9.44h-13.63v5.49h15.26c11.6,0,21-9.4,21-21v-31.2h-13.19Z"/>
    </g>
    <path class="uuid-0d23dce4-576e-4a8b-82ad-59af5ed8283b" d="M93.32,28.76c-1.12.98-1.69,2.42-1.69,4.32v2.2h11.18v4.03h-11.18v9.82h-4.76v-16.05c0-3.1.99-5.54,2.99-7.31,1.99-1.77,4.73-2.66,8.23-2.66,1.47,0,2.83.16,4.1.48,1.27.32,2.38.78,3.34,1.39l-1.5,3.88c-1.52-1.05-3.42-1.58-5.72-1.58s-3.86.49-4.98,1.47Z"/>
    <path class="uuid-0d23dce4-576e-4a8b-82ad-59af5ed8283b" d="M127.04,29.56v19.57h-4.36v-2.53c-.76.93-1.69,1.63-2.8,2.09-1.11.46-2.34.7-3.68.7-1.91,0-3.61-.42-5.11-1.25-1.5-.83-2.68-2-3.52-3.52-.84-1.51-1.26-3.27-1.26-5.28s.42-3.76,1.26-5.26c.84-1.5,2.02-2.67,3.52-3.5,1.5-.83,3.21-1.25,5.11-1.25,1.27,0,2.44.22,3.5.66,1.06.44,1.98,1.09,2.77,1.94v-2.38h4.58ZM120.88,43.78c1.1-1.12,1.65-2.6,1.65-4.43s-.55-3.31-1.65-4.43c-1.1-1.12-2.49-1.69-4.18-1.69s-3.07.56-4.16,1.69c-1.09,1.12-1.63,2.6-1.63,4.43s.54,3.31,1.63,4.43c1.09,1.12,2.47,1.69,4.16,1.69s3.08-.56,4.18-1.69Z"/>
    <path class="uuid-0d23dce4-576e-4a8b-82ad-59af5ed8283b" d="M144.37,29.34v4.36c-.39-.07-.75-.11-1.06-.11-1.78,0-3.18.52-4.18,1.56-1,1.04-1.5,2.54-1.5,4.49v9.49h-4.58v-19.57h4.36v2.86c1.32-2.05,3.64-3.08,6.96-3.08Z"/>
    <path class="uuid-0d23dce4-576e-4a8b-82ad-59af5ed8283b" d="M164.22,30.59c1.5.83,2.68,2,3.54,3.52.85,1.52,1.28,3.26,1.28,5.24s-.43,3.73-1.28,5.26c-.86,1.53-2.03,2.71-3.54,3.54-1.5.83-3.21,1.25-5.11,1.25-2.64,0-4.73-.88-6.27-2.64v9.49h-4.58v-26.68h4.36v2.57c.76-.93,1.69-1.62,2.8-2.09,1.11-.46,2.34-.7,3.68-.7,1.91,0,3.61.42,5.11,1.25ZM162.75,43.78c1.09-1.12,1.63-2.6,1.63-4.43s-.54-3.31-1.63-4.43c-1.09-1.12-2.47-1.69-4.16-1.69-1.1,0-2.09.25-2.97.75-.88.5-1.58,1.22-2.09,2.14-.51.93-.77,2-.77,3.23s.26,2.3.77,3.23c.51.93,1.21,1.64,2.09,2.14.88.5,1.87.75,2.97.75,1.69,0,3.07-.56,4.16-1.69Z"/>
    <path class="uuid-0d23dce4-576e-4a8b-82ad-59af5ed8283b" d="M176.84,48.11c-1.59-.85-2.83-2.05-3.72-3.57-.89-1.53-1.34-3.26-1.34-5.19s.45-3.65,1.34-5.17c.89-1.51,2.13-2.7,3.72-3.55,1.59-.85,3.37-1.28,5.35-1.28s3.8.43,5.39,1.28c1.59.86,2.83,2.04,3.72,3.55.89,1.52,1.34,3.24,1.34,5.17s-.45,3.66-1.34,5.19c-.89,1.53-2.13,2.72-3.72,3.57-1.59.86-3.38,1.28-5.39,1.28s-3.76-.43-5.35-1.28ZM186.37,43.78c1.1-1.12,1.65-2.6,1.65-4.43s-.55-3.31-1.65-4.43c-1.1-1.12-2.49-1.69-4.18-1.69s-3.07.56-4.16,1.69c-1.09,1.12-1.63,2.6-1.63,4.43s.54,3.31,1.63,4.43c1.09,1.12,2.47,1.69,4.16,1.69s3.08-.56,4.18-1.69Z"/>
    <path class="uuid-0d23dce4-576e-4a8b-82ad-59af5ed8283b" d="M198.43,48.77c-1.52-.42-2.72-.94-3.63-1.58l1.76-3.48c.88.59,1.94,1.06,3.17,1.41,1.23.35,2.45.53,3.65.53,2.74,0,4.1-.72,4.1-2.16,0-.68-.35-1.16-1.04-1.43-.7-.27-1.81-.53-3.35-.77-1.61-.24-2.93-.53-3.94-.84-1.01-.32-1.89-.87-2.64-1.67-.75-.79-1.12-1.9-1.12-3.32,0-1.86.78-3.34,2.33-4.45,1.55-1.11,3.65-1.67,6.29-1.67,1.34,0,2.69.15,4.03.46,1.34.31,2.44.71,3.3,1.23l-1.76,3.48c-1.66-.98-3.53-1.47-5.61-1.47-1.34,0-2.36.2-3.06.6-.7.4-1.04.93-1.04,1.59,0,.73.37,1.25,1.12,1.56.74.31,1.9.59,3.46.86,1.56.24,2.85.53,3.85.84,1,.32,1.86.86,2.58,1.61.72.76,1.08,1.83,1.08,3.23,0,1.83-.79,3.3-2.38,4.4-1.59,1.1-3.75,1.65-6.49,1.65-1.59,0-3.14-.21-4.65-.62Z"/>
    <path class="uuid-0d23dce4-576e-4a8b-82ad-59af5ed8283b" d="M226.91,48.07c-.54.44-1.19.77-1.96.99s-1.58.33-2.44.33c-2.15,0-3.81-.56-4.98-1.69-1.17-1.12-1.76-2.76-1.76-4.91v-17.56h4.58v4.47h5.24v3.66h-5.24v9.31c0,.95.24,1.68.71,2.18.48.5,1.14.75,2,.75,1.03,0,1.88-.27,2.57-.81l1.28,3.26Z"/>
    <g>
      <path class="uuid-0d23dce4-576e-4a8b-82ad-59af5ed8283b" d="M93.31,70.42c-.31.26-.69.45-1.14.57s-.92.19-1.41.19c-1.25,0-2.21-.33-2.89-.98-.68-.65-1.02-1.6-1.02-2.85v-10.18h2.66v2.59h3.04v2.13h-3.04v5.4c0,.55.14.97.41,1.26.28.29.66.44,1.16.44.6,0,1.09-.16,1.49-.47l.74,1.89Z"/>
      <path class="uuid-0d23dce4-576e-4a8b-82ad-59af5ed8283b" d="M103.6,67.7l1.4,1.64c-.5.61-1.13,1.07-1.91,1.38-.78.31-1.66.47-2.64.47-1.25,0-2.35-.25-3.29-.74-.95-.5-1.68-1.19-2.2-2.07-.52-.89-.78-1.89-.78-3.01s.25-2.1.75-2.99c.5-.89,1.2-1.58,2.08-2.07.89-.5,1.89-.74,3.01-.74s2.03.23,2.9.69c.87.46,1.56,1.12,2.07,1.98.51.86.77,1.86.77,3.01l-8.69,1.7c.27.65.7,1.15,1.3,1.49.6.34,1.31.51,2.15.51,1.23,0,2.26-.41,3.08-1.23ZM97.66,62.64c-.6.64-.9,1.5-.9,2.57v.02l6.42-1.23c-.18-.69-.56-1.25-1.12-1.68-.56-.43-1.24-.64-2.03-.64-.98,0-1.77.32-2.37.96Z"/>
      <path class="uuid-0d23dce4-576e-4a8b-82ad-59af5ed8283b" d="M110.36,70.44c-.94-.5-1.67-1.19-2.19-2.07-.52-.89-.79-1.89-.79-3.01s.26-2.12.79-3c.52-.88,1.25-1.57,2.18-2.06.93-.5,1.99-.74,3.18-.74,1.12,0,2.1.23,2.94.68.84.45,1.48,1.11,1.9,1.96l-2.04,1.19c-.33-.52-.73-.92-1.22-1.18-.49-.26-1.02-.39-1.6-.39-.99,0-1.81.32-2.47.97-.65.64-.98,1.51-.98,2.58s.32,1.94.97,2.58c.64.64,1.47.97,2.48.97.58,0,1.12-.13,1.6-.39.49-.26.9-.66,1.22-1.18l2.04,1.19c-.44.85-1.08,1.51-1.92,1.97-.84.46-1.82.69-2.92.69-1.18,0-2.23-.25-3.17-.74Z"/>
      <path class="uuid-0d23dce4-576e-4a8b-82ad-59af5ed8283b" d="M130.45,60.81c.86.84,1.3,2.08,1.3,3.72v6.5h-2.66v-6.16c0-.99-.23-1.74-.7-2.24-.47-.5-1.13-.75-2-.75-.98,0-1.75.29-2.32.88-.57.59-.85,1.43-.85,2.54v5.74h-2.66v-15.77h2.66v5.74c.44-.47.98-.83,1.63-1.07.64-.25,1.36-.37,2.16-.37,1.43,0,2.58.42,3.44,1.25Z"/>
      <path class="uuid-0d23dce4-576e-4a8b-82ad-59af5ed8283b" d="M145.01,60.81c.86.84,1.3,2.08,1.3,3.72v6.5h-2.66v-6.16c0-.99-.23-1.74-.7-2.24-.47-.5-1.13-.75-2-.75-.98,0-1.75.29-2.32.88-.57.59-.85,1.43-.85,2.54v5.74h-2.66v-11.35h2.53v1.47c.44-.52.99-.92,1.66-1.19.67-.27,1.42-.4,2.25-.4,1.43,0,2.58.42,3.44,1.25Z"/>
      <path class="uuid-0d23dce4-576e-4a8b-82ad-59af5ed8283b" d="M151.79,70.44c-.92-.5-1.64-1.19-2.16-2.07-.52-.89-.78-1.89-.78-3.01s.26-2.12.78-3c.52-.88,1.24-1.57,2.16-2.06.92-.5,1.96-.74,3.1-.74s2.2.25,3.12.74c.92.5,1.64,1.18,2.16,2.06.52.88.78,1.88.78,3s-.26,2.12-.78,3.01c-.52.89-1.24,1.58-2.16,2.07-.92.5-1.96.74-3.12.74s-2.18-.25-3.1-.74ZM157.31,67.94c.64-.65.96-1.51.96-2.57s-.32-1.92-.96-2.57c-.64-.65-1.45-.98-2.42-.98s-1.78.33-2.41.98c-.63.65-.95,1.51-.95,2.57s.32,1.92.95,2.57c.63.65,1.44.98,2.41.98s1.79-.33,2.42-.98Z"/>
      <path class="uuid-0d23dce4-576e-4a8b-82ad-59af5ed8283b" d="M164.49,70.22c-.66-.64-.99-1.55-.99-2.73v-12.22h2.66v12.03c0,1.13.53,1.7,1.59,1.7.35,0,.67-.07.96-.21l.13,2.13c-.5.18-1.03.28-1.59.28-1.18,0-2.09-.32-2.75-.97Z"/>
      <path class="uuid-0d23dce4-576e-4a8b-82ad-59af5ed8283b" d="M172.43,70.44c-.92-.5-1.64-1.19-2.16-2.07-.52-.89-.78-1.89-.78-3.01s.26-2.12.78-3c.52-.88,1.24-1.57,2.16-2.06.92-.5,1.96-.74,3.1-.74s2.2.25,3.12.74c.92.5,1.64,1.18,2.16,2.06.52.88.78,1.88.78,3s-.26,2.12-.78,3.01c-.52.89-1.24,1.58-2.16,2.07-.92.5-1.96.74-3.12.74s-2.18-.25-3.1-.74ZM177.95,67.94c.64-.65.96-1.51.96-2.57s-.32-1.92-.96-2.57c-.64-.65-1.45-.98-2.42-.98s-1.78.33-2.41.98c-.63.65-.95,1.51-.95,2.57s.32,1.92.95,2.57c.63.65,1.43.98,2.41.98s1.79-.33,2.42-.98Z"/>
      <path class="uuid-0d23dce4-576e-4a8b-82ad-59af5ed8283b" d="M195.41,59.69v9.63c0,4-2.04,5.99-6.12,5.99-1.09,0-2.13-.14-3.1-.41-.98-.28-1.79-.68-2.42-1.2l1.19-2c.5.41,1.12.74,1.88.99.76.25,1.53.37,2.31.37,1.25,0,2.16-.28,2.74-.85.58-.57.87-1.43.87-2.59v-.6c-.45.5-1.01.87-1.66,1.13-.65.26-1.37.38-2.15.38-1.08,0-2.05-.23-2.92-.69-.87-.46-1.56-1.11-2.06-1.95-.5-.84-.75-1.79-.75-2.87s.25-2.03.75-2.86c.5-.83,1.19-1.47,2.06-1.92.87-.45,1.85-.68,2.92-.68.82,0,1.57.13,2.24.4.67.27,1.24.68,1.69,1.23v-1.51h2.53ZM191.82,67.37c.64-.6.97-1.39.97-2.35s-.32-1.72-.97-2.32c-.65-.6-1.47-.89-2.48-.89s-1.85.3-2.5.89c-.65.6-.97,1.37-.97,2.32s.32,1.75.97,2.35c.64.6,1.48.9,2.5.9s1.83-.3,2.48-.9Z"/>
      <path class="uuid-0d23dce4-576e-4a8b-82ad-59af5ed8283b" d="M199.02,57.36c-.33-.3-.49-.68-.49-1.14s.16-.83.49-1.14c.33-.3.73-.46,1.21-.46s.89.15,1.21.44c.33.29.49.66.49,1.09,0,.47-.16.86-.48,1.18-.32.32-.73.48-1.22.48s-.89-.15-1.21-.46ZM198.89,59.69h2.66v11.35h-2.66v-11.35Z"/>
      <path class="uuid-0d23dce4-576e-4a8b-82ad-59af5ed8283b" d="M213.52,67.7l1.4,1.64c-.5.61-1.13,1.07-1.91,1.38-.78.31-1.66.47-2.64.47-1.25,0-2.35-.25-3.29-.74-.95-.5-1.68-1.19-2.2-2.07-.52-.89-.78-1.89-.78-3.01s.25-2.1.75-2.99c.5-.89,1.2-1.58,2.08-2.07.89-.5,1.89-.74,3.01-.74s2.03.23,2.9.69c.87.46,1.56,1.12,2.07,1.98.51.86.77,1.86.77,3.01l-8.69,1.7c.27.65.7,1.15,1.3,1.49.6.34,1.31.51,2.15.51,1.23,0,2.26-.41,3.08-1.23ZM207.57,62.64c-.6.64-.9,1.5-.9,2.57v.02l6.42-1.23c-.18-.69-.56-1.25-1.12-1.68-.56-.43-1.24-.64-2.03-.64-.98,0-1.77.32-2.37.96Z"/>
      <path class="uuid-0d23dce4-576e-4a8b-82ad-59af5ed8283b" d="M219.04,70.83c-.88-.24-1.58-.55-2.1-.91l1.02-2.02c.51.34,1.12.61,1.84.82.72.21,1.42.31,2.12.31,1.59,0,2.38-.42,2.38-1.25,0-.4-.2-.67-.61-.83-.4-.16-1.05-.3-1.94-.45-.94-.14-1.7-.3-2.29-.49-.59-.18-1.1-.51-1.53-.97-.43-.46-.65-1.1-.65-1.92,0-1.08.45-1.94,1.35-2.58.9-.64,2.11-.97,3.65-.97.78,0,1.56.09,2.34.27.78.18,1.42.41,1.91.71l-1.02,2.02c-.96-.57-2.05-.85-3.25-.85-.78,0-1.37.12-1.77.35-.4.23-.61.54-.61.92,0,.43.22.73.65.9.43.18,1.1.34,2.01.5.91.14,1.65.31,2.23.49.58.18,1.08.5,1.5.94.42.44.63,1.06.63,1.87,0,1.06-.46,1.91-1.38,2.55-.92.64-2.18.96-3.76.96-.92,0-1.82-.12-2.7-.36Z"/>
    </g>
  </g>
  <rect class="uuid-3ea69696-323a-4448-b6bb-08e8b84bca3d" width="250" height="98.43"/>
</svg>