<svg xmlns="http://www.w3.org/2000/svg" id="uuid-006acf4c-b9f6-4c09-af84-6ad622642645" viewBox="0 0 160 90.05"><defs><style>.uuid-7fb98374-1bea-45f8-9d5c-159014819b4c{fill:#a36248}.uuid-37510bf2-fc58-4c86-92f6-c35119d871df{fill:#a96f57}.uuid-a6b3492f-d42a-417a-ad7a-c9aed1ea3175{fill:#a4654d}.uuid-e89a5f60-7a59-47e2-b368-ba053bbaa0f0{fill:#a3644b}.uuid-84cbe6b7-e877-4b35-b6fc-319bc3f2c00e{fill:#f3e1d8}.uuid-e9eb3daa-2f3c-42de-917e-bbe98f2407d6{fill:#a46750}.uuid-fbf20dde-6559-4d15-ae92-a4d1ec9605de{fill:#9f573c}</style></defs><path d="M0 0h160v90.05H0zm83.03 12.27c-.06-1.07-.13-2.31-.08-3.06l1.75-1.86-2.8-.57-1.52-2.66-1.41 2.63-3 .58 2.02 2.24-.32 2.89c.46-.15 1.17-.41 1.51-.66 2.06-1.51 2.66 1.02 3.86.47Zm-26.95.05 2.55 1.27-.38-2.85 2.11-2.35-3.04-.62-1.43-2.59-1.38 2.62-3.03.59 2.05 2.18-.25 2.95 2.8-1.21Zm51.48 1.15c-.39-3.69-.87-2.28 1.56-5.07l-2.81-.62-1.52-2.56-1.34 2.53-3 .65 2.04 2.13-.37 2.93c.46-.11 1.01-.3 1.39-.54 2.15-1.34 1.97.22 4.06.54Zm-75.92.95c1.05.61 1.84 1.01 2.57 1.11-.07-1.08-.5-2.42-.11-2.93l1.69-2.13-2.9-.62-1.42-2.59-1.39 2.56-2.89.65 1.92 2.36-.33 2.72 2.85-1.15Zm97.91.18 2.41.97-.25-2.99 1.91-2.08-2.92-.67-1.41-2.52c-.66.95-.82 1.35-1.31 2.48l-2.99.75 1.95 2.17-.33 2.93c1.15-.37 2.3-1.31 2.94-1.05ZM29.15 55.28c-2.75-2.29-3.19-5.74-3.25-9.09-.09-4.49 1.92-8.26 6.13-10 2.96-1.22 6.06-1.47 9.33-1.47 6.09 0 13.55.93 15.56 7.72l5.13-.02c-.51-4.51-3.31-8.1-7.32-10.18-6.65-3.45-17.8-3.65-24.53-.69-4.68 2.06-8.19 5.88-9.13 10.94-1.53 8.22 1.08 15.64 9.04 19.12 9.47 4.13 30.41 3.23 31.99-11.04l-5.14-.06c-1.64 6.32-7.86 7.61-13.55 7.99-4.53.3-10.65-.22-14.25-3.22Zm67.15 1.98c2.74-3.42 4.01-6.78 3.61-10.79l-5.04.06c.02 3.13-.82 5.61-2.77 7.65l-9.94-7.47c3.84-1.28 9.39-2.13 10.29-6.84.25-1.3.34-3.08-.07-4.35-2.1-6.59-12.68-6.98-18.42-4.86-2.99 1.11-5.15 3.62-5.4 6.65s.49 5.43 3.09 7.54c-4.71 1.5-7.07 5.2-6.81 9.83.42 7.32 7.45 8.88 13.6 9.03 4.77.11 9.31-.69 13.54-3l3.81 2.92 8.63-.14zm37.6-9.88c-.02 3.3-1.24 6.37-3.55 8.48-2.1 1.93-4.94 2.43-7.67 2.62-6.69.46-12.09-1.38-13.54-8.53-.21-1.04-.42-2.14-.43-3.22l-.03-16.97-5.21.06.06 17.07c0 1.68.36 3.31.66 4.95 1.06 5.82 5.17 10.19 11.07 11.32s14.9.94 19.39-3.86c2.49-2.66 4.19-6.31 4.23-10.1l.19-19.43-5.04-.02-.13 17.62ZM30.18 76.93c2.83.05 1.73 2.91 3.6 1.41-.12-1.58-1.89-2.57-3.45-2.62s-2.82.16-3.5 1.39c-.58 1.04-.76 2.59.13 3.64 1.51 1.77 4.57 1.82 6.35.47.24-.18-.17-1.09-.46-1.16s-.79.11-1.14.41c-1.23 1.07-3.48.37-3.9-1.22-.37-1.38.94-2.34 2.37-2.32m103.09 3.77c.19.23.61.82.44.98-.95.91-1.66.44-1.63 1.12 0 .23.48.69.72.69 1.1-.04 1.95-.87 2.24-1.92l1.4-5.19-.8-.25c-.16-.05-.49.41-.56.62l-.94 2.9-2.38-2.89-1.12.66 2.64 3.3Zm-3.48.32c-.43-.01-1.09-.03-1.12-.27l-.09-.93c-.03-.28-.39-1.06-.13-1.11l1.14-.22c.27-.05.64-.62.62-.98-.03-.63-1.64.29-2.12-.32l-.72-.94-.98 1.43c-.22.18-.6.63-.56.86.03.19.51.31.84.42l.9 3.09c.8.46 2.51.33 3.15-.15.14-.11.11-.84-.07-.85zm-7.55 1.27-.58-5.23c-.04-.39-1.48-.41-1.43 0l.81 6.04c.04.33.97.54 1.08.29.09-.2.17-.7.13-1.09Zm-4.76-4.86c.03 2.12.24 4.56.44 6.18.04.33 1.05.42 1.18.18.58-1.06-.32-6.04-1.62-6.36m-79.56 5.86c1.46.1 2.21-.53 2.73-1.73.42-.99-.16-2.15-1.32-2.85-.77-.46-2.33-.67-3.33-.4-1.44.38-2 2.44-1.26 3.69.59 1 2.09 1.22 3.18 1.29m73.49-3.17-.18-.87c-.08-.38-.23-.82-.37-1.05s-1.08.19-1.05.49l.6 5.93c1.27-.11 2.06-.15 3.18-.07s2.4-.74 2.64-1.55c.36-1.24.07-2.51-.84-3.11-2.04-1.35-3.92.52-3.98.23m14.03 2.47-.61-4.09c-.04-.25-.91-.31-1.08-.12-.14.15-.3.71-.25.93l.74 3.48c.08.25 1.26.08 1.21-.21Zm-68.89-1.76c-.04-.2-.43-.31-.76-.4l-1.29-.34c.6-.73 2.26.03 2.17-.93-.02-.25-.55-.62-.84-.65-1.38-.16-2.05.4-2.94 1.26l-.82.8c-.18.18.65.65.76.88.68 1.45-.61 2.41.19 3.52.11.16.8.15.89-.02.37-.66.47-2.14.46-3.16.31-.71 2.39.18 2.16-.97Zm-6.99.57c.68 1.79-.86 2.61.22 3.48.2.16.97-.06 1.01-.32l.33-2.49c.08-.61-.21-1.59-.6-1.89-1.69-1.29-1.86.27-4.29-.67-.72-.28-1.97-.03-2.71-.13-.37-.05-1.4-.49-1.44-.07l-.37 3.73c-.04.42.19.95.57.98 1.23.09.22-2.17 1.67-3.5.26-.24 1.32-.16 1.57.1s.34.93.3 1.39l-.19 2.18c.27.12 1.15.18 1.18-.09l.15-1.14c.07-.53.42-1.37.71-1.74s1.68-.37 1.88.18Zm38.97 2.56c.57 1.96 1.99 2.22 3.51 2.14 1.73-.09 3.39-.85 3.3-2.89l-.15-3.38c-.16-.22-1.22-.13-1.28.16l-.12 3.64c-.02.63-1.08 1.32-1.64 1.4s-1.93-.38-2.02-.93c-.42-2.46.48-4.35-1.04-4.16-1.17.14-.7 3.52-.55 4.04Zm-16.21 1.08c-.36-.05-.87-.14-.89-.32l-.07-.91c-.03-.32-.08-1.28.24-1.31l1.23-.15c.22-.03.75-.41.66-.61-.45-.97-1.18.33-2.64-1.76l-1.78 1.44c-.13.1-.25.63-.09.67l.95.28.12 2.87c.59 1.22 2.52 1.25 3.39.57 0-.22.02-.6-.13-.62l-.98-.13Zm12.03-1.73c-.12-.06-.85-.25-1.16-.28-.26-.02-.57.52-.89.76-.24.18-1-.51-.98-.66.68-.48 1.49-1.42 1.25-1.93-.9-1.95-3.41-1.58-4.51-.38-.12.53.18 1.66.28 2.13-.39.34-1.18.87-1.24 1.33s.36 1.3.72 1.54c1.57 1.06 3.23.22 4.88.05.59-.06 1.9 1.05 2.2.06-.42-.42-.91-.87-1.06-1.19-.13-.28.26-.92.52-1.43Zm19.58-.65c-.24.03-.71.26-.82.48-.14.26-.13 1.02-.01 1.36.46 1.37 2.7 1 3.42.36.8-.71 1.78.67 2.7-.03l-1.02-3.89c-1.46-1.26-3.89-.99-5.32.62l1.05 1.09ZM62.82 84.6c.53-.75.59-1.88.22-2.51-.72-1.24-2.8-2.08-4.42-1.35-1.05.47-1.72 1.35-1.7 2.38.02.91.55 1.9 1.47 2.26 1.45.57 3.43.61 4.42-.78Zm34.07-1.38-.45 1.31c-.25.73.98 1.23 1.8 1.24 1.05 0 3.12.15 3.85-1.14.18-.32-.05-1.21-.18-1.62-.05-.17-.12-.55-.12-.83.03-.95-.71-1.47-1.86-1.51-.94-.03-2.47.23-3.08.8-.31.29-.18 1.37.04 1.75m-29.16-.85c.29-.03.66-.21.82-.38.12-.12-.05-.9-.22-.89-.55.02-1.62.18-2.18.26-.35.05-1.37-.49-1.41-.14l-.44 3.76c-.06.53.47 1.1.89 1.01 1.45-.31-.53-3.29 2.55-3.63Z" style="fill:#fdfdfc"/><path d="m96.3 57.26 8.12 6.23-8.63.14-3.81-2.92c-4.23 2.31-8.78 3.12-13.54 3-6.15-.15-13.18-1.71-13.6-9.03-.26-4.62 2.1-8.33 6.81-9.83-2.6-2.11-3.33-4.54-3.09-7.54s2.41-5.54 5.4-6.65c5.73-2.12 16.32-1.74 18.42 4.86.4 1.27.32 3.05.07 4.35-.91 4.71-6.46 5.56-10.29 6.84l9.94 7.47c1.95-2.04 2.79-4.52 2.77-7.65l5.04-.06c.41 4.01-.86 7.37-3.61 10.79M77.58 43.34c3.34-.7 10.34-1.29 10.2-5.52-.05-1.45-1.08-2.76-2.65-3.2-3.16-.89-10.14-1.13-11.26 2.33-.93 2.87 1.47 4.75 3.71 6.39m9.86 13.88-11.8-9.17c-1.88.31-3.56 1.09-4.68 2.54-.96 1.24-1.18 2.85-.66 4.41 1.53 4.63 13.28 4.21 17.15 2.22Z" style="fill:#9d5033"/><path d="M29.15 55.28c3.6 3 9.72 3.52 14.25 3.22 5.69-.38 11.91-1.67 13.55-7.99l5.14.06C60.51 64.84 39.57 65.74 30.1 61.61c-7.96-3.48-10.57-10.9-9.04-19.12.94-5.06 4.45-8.88 9.13-10.94 6.73-2.96 17.88-2.76 24.53.69 4.01 2.08 6.8 5.67 7.32 10.18l-5.13.02c-2.01-6.79-9.47-7.72-15.56-7.72-3.27 0-6.37.25-9.33 1.47-4.21 1.74-6.21 5.51-6.13 10 .06 3.35.5 6.8 3.25 9.09Z" style="fill:#9d5134"/><path d="m133.9 47.38.13-17.62 5.04.02-.19 19.43c-.04 3.79-1.74 7.43-4.23 10.1-4.48 4.8-13.53 4.98-19.39 3.86s-10.01-5.5-11.07-11.32c-.3-1.64-.65-3.27-.66-4.95l-.06-17.07 5.21-.06.03 16.97c0 1.08.21 2.18.43 3.22 1.45 7.14 6.85 8.99 13.54 8.53 2.72-.19 5.57-.69 7.67-2.62 2.3-2.11 3.52-5.18 3.55-8.48Z" style="fill:#9e5134"/><path d="m31.64 14.42-2.85 1.15.33-2.72-1.92-2.36 2.89-.65 1.39-2.56 1.42 2.59 2.9.62-1.69 2.13c-.4.5.03 1.85.11 2.93-.74-.1-1.52-.51-2.57-1.11Z" style="fill:#9e573c"/><path d="m56.08 12.32-2.79 1.21.25-2.95-2.05-2.18 3.03-.6 1.38-2.61 1.43 2.58 3.04.62-2.11 2.35.38 2.85z" class="uuid-fbf20dde-6559-4d15-ae92-a4d1ec9605de"/><path d="M129.55 14.6c-.64-.26-1.8.68-2.94 1.05l.33-2.93-1.95-2.17 2.99-.75c.49-1.12.64-1.52 1.31-2.48l1.41 2.52 2.92.67-1.91 2.08.25 2.99-2.41-.97Z" style="fill:#a0593f"/><path d="M83.03 12.27c-1.2.56-1.8-1.97-3.86-.47-.34.25-1.05.51-1.51.66l.32-2.89-2.02-2.24 3-.58 1.41-2.63 1.52 2.66 2.8.57-1.75 1.86c-.05.75.02 1.99.08 3.06Z" class="uuid-fbf20dde-6559-4d15-ae92-a4d1ec9605de"/><path d="M107.56 13.47c-2.09-.32-1.91-1.88-4.06-.54-.38.24-.93.43-1.39.54l.37-2.93-2.04-2.13 3-.65 1.34-2.53 1.52 2.56 2.81.62c-2.43 2.79-1.95 1.38-1.56 5.07Z" style="fill:#9e573b"/><path d="M84.35 83.31c-.25.51-.64 1.15-.52 1.43.15.33.65.78 1.06 1.19-.3.99-1.6-.13-2.2-.06-1.65.17-3.32 1.01-4.88-.05-.36-.24-.77-1.1-.72-1.54s.85-.99 1.24-1.33c-.1-.47-.4-1.6-.28-2.13 1.1-1.2 3.62-1.57 4.51.38.23.51-.58 1.45-1.25 1.93-.02.15.74.85.98.66.32-.24.63-.78.89-.76.31.02 1.04.22 1.16.28Zm-3.19-1.81c-.14-.31-.88-.56-1.15-.54s-.76.57-.66.88c.08.28.79.55 1.07.47.23-.07.85-.59.75-.81Zm.41 3.38-1.62-1.13c-.24-.17-.95.07-1.21.23-.2.12-.19.8 0 .95.74.56 1.99.45 2.82-.04Z" class="uuid-7fb98374-1bea-45f8-9d5c-159014819b4c"/><path d="M49.56 81.4c-.21-.55-1.6-.54-1.88-.18s-.64 1.21-.71 1.74l-.15 1.14c-.04.28-.91.21-1.18.09l.19-2.18c.04-.46-.05-1.13-.3-1.39s-1.31-.34-1.57-.1c-1.45 1.32-.44 3.58-1.67 3.5-.38-.03-.61-.56-.57-.98l.37-3.73c.04-.42 1.07.03 1.44.07.75.1 1.99-.15 2.71.13 2.42.93 2.59-.63 4.29.67.39.3.68 1.29.6 1.89l-.33 2.49c-.03.26-.81.48-1.01.32-1.09-.87.46-1.69-.22-3.48Z" style="fill:#a4634a"/><path d="M30.18 76.93c-1.43-.03-2.74.94-2.37 2.32.42 1.59 2.68 2.3 3.9 1.22.35-.3.84-.48 1.14-.41s.69.98.46 1.16c-1.78 1.35-4.84 1.3-6.35-.47-.89-1.05-.71-2.6-.13-3.64.68-1.23 1.98-1.44 3.5-1.39s3.33 1.04 3.45 2.62c-1.87 1.5-.77-1.36-3.6-1.41" style="fill:#a4644b"/><path d="M111.41 80.12c.06.29 1.94-1.58 3.98-.23.91.6 1.2 1.86.84 3.11-.23.81-1.57 1.63-2.64 1.55s-1.91-.03-3.18.07l-.6-5.93c-.03-.3.91-.72 1.05-.49s.29.67.37 1.05zm2.19 3.37c1.13-.22 1.6-1.02 1.33-2.03-.16-.59-1.2-1.09-1.95-.89-1.12.28-1.62.94-1.38 1.92.18.73 1.07 1.19 2 1" style="fill:#a5664d"/><path d="M88.53 83.96c-.15-.51-.61-3.9.55-4.04 1.52-.18.63 1.7 1.04 4.16.09.56 1.47 1.01 2.02.93s1.62-.77 1.64-1.4l.12-3.64c.06-.29 1.12-.38 1.28-.16l.15 3.38c.09 2.04-1.57 2.8-3.3 2.89-1.52.08-2.94-.17-3.51-2.14Z" style="fill:#a5644c"/><path d="M62.82 84.6c-.99 1.39-2.97 1.35-4.42.78-.92-.36-1.45-1.36-1.47-2.26-.02-1.02.65-1.9 1.7-2.38 1.62-.73 3.69.12 4.42 1.35.37.63.31 1.76-.22 2.51Zm-1.81-2.71c-.71-.15-1.52-.15-2.09 0-.44.12-.77 1.29-.6 1.71s.86.9 1.48 1.03c.71.15 1.66-.24 1.88-.72.28-.6.14-1.85-.67-2.03Z" class="uuid-e89a5f60-7a59-47e2-b368-ba053bbaa0f0"/><path d="M37.92 83.29c-1.09-.07-2.59-.29-3.18-1.29-.75-1.25-.19-3.31 1.26-3.69 1-.27 2.56-.06 3.33.4 1.17.69 1.75 1.86 1.32 2.85-.52 1.2-1.27 1.83-2.73 1.73m.35-3.9c-.7-.2-1.73-.12-2.12.19-.36.29-.52 1.18-.37 1.71.13.44.99.86 1.58.94.96.14 1.75-.34 1.94-1.19.11-.5-.27-1.44-1.03-1.65" style="fill:#a4644a"/><path d="m133.27 80.7-2.64-3.3 1.12-.66 2.38 2.89.94-2.9c.07-.2.39-.67.56-.62l.8.25-1.4 5.19c-.28 1.05-1.14 1.88-2.24 1.92-.23 0-.71-.45-.72-.69-.03-.67.68-.21 1.63-1.12.17-.16-.25-.74-.44-.98Z" style="fill:#a3644c"/><path d="m106.52 84.86-.29-.56 1.21-1.28h-1.54l.6-.65-2.56.29-1.05-1.09c1.43-1.61 3.86-1.88 5.32-.62l1.02 3.89c-.92.7-1.9-.68-2.7.03Z" class="uuid-37510bf2-fc58-4c86-92f6-c35119d871df"/><path d="M101.8 82.18c-.6-.02-1.26-.21-1.93-.47-.86-.33-2-.08-1.87.88 1.42.09 2.71.17 3.92.42.13.4.36 1.3.18 1.62-.73 1.29-2.8 1.14-3.85 1.14l-1.06-.65c-.22-.14-.59-.76-.37-.86 1.28-.53 1.65 1.11 3.67.4.21-.07.4-.77.2-.82-2.1-.53-1.99.11-3.8-.61-.22-.38-.35-1.46-.04-1.75.61-.57 2.15-.83 3.08-.8 1.15.03 1.89.56 1.86 1.51Z" class="uuid-e9eb3daa-2f3c-42de-917e-bbe98f2407d6"/><path d="M56.55 80.83c.23 1.15-1.85.26-2.16.97 0 1.02-.09 2.51-.46 3.16-.1.17-.78.18-.89.02-.8-1.11.49-2.07-.19-3.52-.11-.23-.95-.7-.76-.88l.82-.8c.89-.86 1.56-1.42 2.94-1.26.29.03.81.4.84.65.09.96-1.57.2-2.17.93l1.29.34c.32.08.72.2.76.4ZM129.79 81.02l.86.03c.18 0 .21.74.07.85-.65.49-2.35.61-3.15.15l-.9-3.09c-.32-.11-.81-.22-.84-.42-.04-.24.34-.68.56-.86l.98-1.43.72.94c.48.62 2.09-.31 2.12.32.02.36-.35.93-.62.98l-1.14.22c-.26.05.1.83.13 1.11l.09.93c.02.24.69.25 1.12.27M72.32 85.04l.98.13c.15.02.12.4.13.62-.87.68-2.8.65-3.39-.57l-.12-2.87-.95-.28c-.16-.05-.04-.57.09-.67l1.78-1.44c1.46 2.09 2.19.79 2.64 1.76.09.2-.43.58-.66.61l-1.23.15c-.31.04-.26 1-.24 1.31l.07.91c.01.18.53.27.89.32Z" class="uuid-a6b3492f-d42a-417a-ad7a-c9aed1ea3175"/><path d="M67.73 82.37c-3.09.34-1.1 3.32-2.55 3.63-.42.09-.95-.48-.89-1.01l.44-3.76c.04-.35 1.06.19 1.41.14.56-.08 1.63-.24 2.18-.26.17 0 .34.77.22.89-.16.16-.53.34-.82.38Z" style="fill:#a6654f"/><path d="M122.24 82.29c.04.39-.05.89-.13 1.09-.11.25-1.03.04-1.08-.29l-.81-6.04c-.05-.4 1.39-.39 1.43 0l.58 5.23Z" class="uuid-e89a5f60-7a59-47e2-b368-ba053bbaa0f0"/><path d="M117.48 77.43c1.29.32 2.2 5.29 1.62 6.36-.13.24-1.14.15-1.18-.18-.2-1.62-.41-4.06-.44-6.18M125.44 82.59c.04.29-1.13.46-1.21.21l-.74-3.48c-.05-.22.11-.78.25-.93.18-.19 1.05-.12 1.08.12l.61 4.09Z" class="uuid-e9eb3daa-2f3c-42de-917e-bbe98f2407d6"/><path d="m105.9 83.03-.27-.02-.61.25c-.23.09-.58.29-.76.45s.54.68.77.66l1.2-.07.29.56c-.73.64-2.96 1.01-3.42-.36-.12-.34-.13-1.1.01-1.36.12-.22.58-.45.82-.48l2.56-.29-.6.66Z" class="uuid-7fb98374-1bea-45f8-9d5c-159014819b4c"/><path d="M98.25 85.77c-.83 0-2.06-.5-1.8-1.24l.45-1.31c1.81.73 1.71.08 3.8.61.2.05 0 .75-.2.82-2.03.71-2.39-.93-3.67-.4-.23.09.14.72.37.86l1.06.65Z" style="fill:#f0d9cd"/><path d="M101.8 82.18c0 .29.06.66.12.83-1.21-.25-2.5-.33-3.92-.42-.13-.96 1.02-1.21 1.87-.88.67.26 1.33.45 1.93.47" style="fill:#e8d6cb"/><path d="M87.44 57.22c-3.87 1.99-15.62 2.4-17.15-2.22-.51-1.55-.3-3.17.66-4.41 1.12-1.45 2.8-2.23 4.68-2.54l11.8 9.17Z" style="fill:#fbf8f5"/><path d="M77.58 43.34c-2.24-1.64-4.64-3.51-3.71-6.39 1.12-3.46 8.1-3.22 11.26-2.33 1.57.44 2.61 1.75 2.65 3.2.13 4.22-6.86 4.82-10.2 5.52" style="fill:#fbf8f6"/><path d="M81.57 84.88c-.83.49-2.08.6-2.82.04-.2-.15-.21-.83 0-.95.26-.15.97-.4 1.21-.23l1.62 1.13Z" class="uuid-84cbe6b7-e877-4b35-b6fc-319bc3f2c00e"/><path d="M81.16 81.5c.1.22-.51.74-.75.81-.28.08-.99-.19-1.07-.47-.09-.31.39-.86.66-.88s1.01.23 1.15.54Z" style="fill:#eddad4"/><path d="M113.6 83.49c-.93.19-1.83-.27-2-1-.24-.98.26-1.63 1.38-1.92.75-.19 1.79.3 1.95.89.28 1.01-.2 1.8-1.33 2.03" style="fill:#f6efeb"/><path d="M61.01 81.89c.81.18.95 1.43.67 2.03-.22.47-1.17.86-1.88.72-.62-.13-1.32-.61-1.48-1.03s.16-1.6.6-1.71c.57-.15 1.38-.16 2.09 0Z" style="fill:#f8f1ed"/><path d="M38.27 79.39c.76.21 1.14 1.15 1.03 1.65-.19.85-.97 1.33-1.94 1.19-.59-.08-1.45-.5-1.58-.94-.15-.53 0-1.42.37-1.71.39-.31 1.42-.39 2.12-.19" style="fill:#f7f0eb"/><path d="m106.23 84.3-1.2.07c-.23.02-.94-.5-.77-.66s.53-.36.76-.45l.61-.25.27.02h1.54z" class="uuid-84cbe6b7-e877-4b35-b6fc-319bc3f2c00e"/><path d="m105.63 83.01-.61.25z" class="uuid-37510bf2-fc58-4c86-92f6-c35119d871df"/></svg>