<svg xmlns="http://www.w3.org/2000/svg" id="uuid-6105ba65-8620-49e2-aa6e-c1cc1585fa92" viewBox="0 0 160 90.05"><defs><style>.uuid-8f75de80-6f2b-4522-80dc-59a06957b10b{fill:#fefefe}.uuid-659327b9-bf82-4f93-a6b0-6c9429d97b9a{fill:#545454}.uuid-8cbba052-5a09-4eae-b928-691352e7add4{fill:#5e5e5e}.uuid-238ff2e5-93be-4ed6-9b69-fa995e61d29e{fill:#5b5b5b}.uuid-06ba637c-8cb5-4e08-a34c-90e3e75fd1c9{fill:#525252}.uuid-0543c584-4e99-4baf-9471-6d86e419ead6{fill:#5a5a5a}.uuid-f7e66004-6067-4ae9-96fa-84b11731a311{fill:#f5f5f5}.uuid-39e464cc-940c-45df-b5ce-bd53ac7fdbf2{fill:#5c5c5c}</style></defs><path d="M0 0h160v90.05H0zm80.41 11.34 2.6 1-.33-2.76 1.92-2.23-2.7-.56-1.51-2.47-1.59 2.62-2.68.4 1.99 2.2-.22 2.84c.82-.32 1.96-1.25 2.52-1.04m24.41.87 2.67 1.22-.39-2.86 1.98-2.11-2.83-.62-1.39-2.47-1.5 2.49-2.87.6 2.05 2-.34 2.99 2.62-1.25ZM56 12.28l2.61 1.21c-.07-1.09-.6-2.57-.14-3.1l1.7-1.98-2.81-.59-1.52-2.4-1.3 2.43-2.81.55 1.94 2.16-.38 2.88 2.72-1.16Zm-24.51 2.05 2.64 1.23-.39-2.89 1.96-2.12-2.8-.63-1.38-2.53L30.05 10l-2.77.52 1.66 1.97c.46.55-.02 1.9-.13 3.07l2.68-1.22Zm97.76-.04 2.69 1.35-.31-2.92 1.81-2.12-2.65-.63-1.48-2.59-1.47 2.58-2.81.59 1.95 2.19-.37 2.9 2.66-1.37ZM33.28 57.54c-4.77-1.38-7.39-5.22-7.38-10 0-2.32-.04-4.62 1.04-6.77 1.22-2.42 3.36-4.15 6.09-4.97 6.85-2.05 21.63-2.34 23.85 6.64l5.13-.04c-1.9-13.35-19.92-14.51-29.95-11.48C23.34 33.56 19.65 41 20.93 49.86c.85 5.84 4.8 10.39 10.49 12.25 10.17 3.33 28.78 2.29 30.62-11.42l-5.11-.03c-1.98 9.02-16.94 8.82-23.65 6.88m70.95 5.78-7.98-6.09c2.64-3.11 4.14-6.82 3.58-10.75l-4.88.03c-.14 2.99-.76 5.63-2.86 7.68l-9.99-7.48c5.32-1.62 10.79-2.62 10.56-9.37-.11-3.16-2.18-5.44-5.19-6.61-6.2-2.41-18.07-1.65-18.9 6.6-.31 3.05.71 5.4 3.05 7.6-4.5 1.36-6.78 4.86-6.76 9.15.02 3.91 2.06 7.04 5.91 8.32 6.61 2.19 14.84 1.64 21.25-1.66l3.65 2.74 8.55-.16ZM134 29.83c.03 6.44.21 12.14-.14 18.24-.19 3.25-1.59 6.61-4.31 8.42-3.44 2.28-7.72 2.4-11.7 1.85-6.68-.92-9.13-5.93-9.14-12.17l-.02-16.33-5.08-.08v16.69c-.02 7.14 2.76 14.31 10.36 16.32 5.16 1.37 10.71 1.34 15.78-.41 3.97-1.37 6.77-4.44 8.04-8.37.65-2.01 1.22-4.23 1.23-6.39l.04-17.83zM29.35 80.87c-1.26-.36-1.86-1.35-1.6-2.55.19-.87 1.11-1.6 2.27-1.56 2.24.09 1.89 1.81 3.27 1.77.23 0 .47-.52.38-.73-.9-2.1-4.04-2.38-5.75-1.66-1.27.53-1.76 2.27-1.47 3.41.35 1.35 1.48 2.04 2.88 2.45s3.31-.03 3.9-1.18c.12-.23-.44-.8-.65-.7-1.33.63-1.49 1.24-3.23.74Zm102.88 1.92c-.05.14.13.59.28.58l.72-.05c.56-.04 1.43-.78 1.6-1.4l1.58-5.66c-.29-.04-.88-.13-1.02.04s-.29.55-.38.86l-.78 2.62-2.01-2.53c-.22-.27-1.11-.22-1.46.02l2.41 3.11c.25.32.57.91.56 1.28-.03.72-1.27.52-1.5 1.13m-3.78-4.25 1.06-.29c.22-.06.52-.16.66-.21s-.09-.63-.23-.62l-.68.04-1.04.05c-.22.01-.35-.58-.48-.87-.48-1.07-.79.9-1.98 1.91 2.14.18.88 3.07 2.36 3.63.82.31 2.08.16 2.71-.47.11-.11-.18-.65-.24-.63-.58.09-1.37.21-1.74.08-.47-.17-.83-2.5-.41-2.62Zm-6.16 4.06-.73-5.03c-.04-.27-.53-.66-.77-.63-.18.02-.49.5-.46.71l.73 5.14c.04.25.54.73.75.63.17-.08.52-.6.49-.82Zm-82.83-3.77c-1.29-.68-2.89-.9-4.03-.13-.98.66-1.2 2.01-.7 3.08.37.79 1.55 1.41 2.62 1.48 1.36.09 2.59-.28 3-1.43.36-.99.27-2.39-.89-3m76.14 1.35c-1.21-1.15-3.06-.71-4.2.16l-.55-2.19-.92.19c-.11.02-.1.55-.09.68l.68 5.77c1.89-1.36 4.29.82 5.58-1.66.39-.76.3-2.19-.5-2.95m9.83 2.4-.7-4.25-1.18.14.67 4.27c.06.28 1.27.17 1.21-.17Zm-70.94-1.32c1.16.18 1.83.33 2.01-.35-.03-.42-1.25-.59-1.81-.65-.02-.1.02-.58.2-.59l.91-.08c.33-.03.6-.07.75-.15s.07-.61-.1-.65l-.63-.15c-1.8-.43-1.94.51-3.69 1.98-.15.13.52.46.8.62l.04 3.65c.2.16.99.04 1.03-.21l.48-3.41Zm-7.31.38c.06-.43.92-1 1.36-.99.38.01 1.28.5 1.25.91l-.17 2.31c-.03.4.02.84.27.85 1.7.04 1.06-3.73.89-4.04-.76-1.37-2.58-.95-3.65-.33-.86-1.07-2.06-1.31-3.29-.77l-1.56-.6-.45 3.99c-.03.25-.06.76.15.77l.91.03c.31.01-.2-1.54.73-3.09.29-.47 2-.44 2.14.09.22.84.05 2.23-.08 3.05-.04.26.7.64.89.48.16-.13.32-.48.35-.7l.27-1.97Zm72.04 1.19-.49-3.48c-.04-.25-.8-.37-.92-.19s-.25.65-.23.88l.38 3.1c.04.34.48.71.85.72.23 0 .47-.6.41-1.03m-30.63-1.36c.02 1.08-.1 2.55.49 3.37 1.33 1.83 4.84 1.73 5.83-.34.27-.56.74-4.83-.44-4.74-1.02.07-.46 1.82-.59 4.01-.05.85-1.37 1.28-1.99 1.28-.72 0-1.73-.4-1.82-1.25l-.34-3.51c-.03-.29-1.17-.3-1.16-.03zm-15.43 3.85c-.83-.09-1.9-.35-1.98-.86-.09-.56-.06-1.53.21-1.9s1.29-.36 1.98-.55c.04-1.05-1.71-.45-1.9-.93l-.43-1.1-2.11 1.81c2.21.68.24 3.06 1.49 3.97.34.24 1.29.43 1.71.38l1.04-.12c.18-.02.09-.57 0-.69Zm10.41-.48.57-1.53c-.46-.13-.98-.33-1.11-.15l-.7.98-1.19-.93 1.08-.93c.29-.25.27-1.43-.06-1.66-1.05-.76-3.18-.98-4.02.38l.27 2c-.53.42-1.1.89-1.24 1.27-.12.33.25 1.17.56 1.43 1.27 1.09 3.16.14 4.7.21l2.43.11-1.3-1.18Zm19.56-2.76.52.6-.55 1.06c-.17.32.35 1.22.73 1.36 1.14.44 2.6-.05 3.64-.59l.91.49c.19.1.7-.38.62-.6-.99-2.39-.26-3.16-1.04-3.68-.91-.6-4.85-.81-4.82 1.36Zm-40.86 2.96c1.01-.69 1.04-2.19.58-3-.56-.99-1.6-1.37-2.83-1.4s-2.24.41-2.77 1.38c-.43.79-.35 2.03.46 2.73 1.19 1.02 3.17 1.25 4.56.3Zm34.65-1.8c.09.22.13.64.03.85l-.22.44c-.13.27 1.3 1.86 4.08.97.77-.25 1.29-.78 1.39-1.66.06-.53-.2-.9-.74-1.32l.43-.45c-.23-1.74-2.98-1.58-4.36-.98-.82.36-1.03 1.36-.61 2.13Zm-28.7-.98.14-1.17c-.89.05-1.61.33-2.4.71l-.44-.71c-.11-.17-.87.09-.88.33l-.07 4.23c.24.13 1.07.21 1.09-.04l.07-1c.04-.62.21-1.47.67-1.88.35-.31 1.08-.41 1.82-.48Z" class="uuid-8f75de80-6f2b-4522-80dc-59a06957b10b"/><path d="m104.23 63.32-8.55.16-3.65-2.74c-6.41 3.3-14.64 3.86-21.25 1.66-3.85-1.28-5.89-4.4-5.91-8.32-.02-4.3 2.26-7.79 6.76-9.15-2.34-2.2-3.36-4.55-3.05-7.6.84-8.26 12.7-9.02 18.9-6.6 3.01 1.17 5.08 3.45 5.19 6.61.23 6.74-5.24 7.75-10.56 9.37l9.99 7.48c2.1-2.04 2.71-4.69 2.86-7.68l4.88-.03c.55 3.93-.95 7.64-3.58 10.75l7.98 6.09ZM77.58 43.33c3.34-.68 10.34-1.29 10.2-5.51-.15-4.55-8.19-4.14-11.43-3.12-1.11.35-2.12 1.26-2.41 2.05-1.12 3.07 1.25 4.81 3.63 6.58Zm9.88 13.89-11.73-9.09c-1.66-.04-3.54.98-4.64 2.29-1.62 1.93-1.46 4.93.6 6.43 3.16 2.29 11.9 2.33 15.77.37M33.28 57.54c6.71 1.93 21.67 2.14 23.65-6.88l5.11.03C60.2 64.4 41.59 65.44 31.42 62.11c-5.69-1.86-9.64-6.41-10.49-12.25-1.29-8.86 2.4-16.3 11.13-18.94 10.03-3.03 28.05-1.87 29.95 11.48l-5.13.04c-2.22-8.98-17-8.69-23.85-6.64-2.73.82-4.87 2.55-6.09 4.97-1.08 2.15-1.04 4.45-1.04 6.77 0 4.78 2.61 8.62 7.38 10M134 29.83l5.06-.06-.04 17.83c0 2.16-.58 4.38-1.23 6.39-1.27 3.93-4.07 7-8.04 8.37-5.06 1.75-10.62 1.78-15.78.41-7.6-2.01-10.38-9.18-10.38-16.32V29.76l5.09.08.02 16.33c0 6.24 2.46 11.25 9.14 12.17 3.98.55 8.26.43 11.7-1.85 2.72-1.81 4.13-5.17 4.31-8.42.35-6.1.17-11.8.14-18.24Z" class="uuid-06ba637c-8cb5-4e08-a34c-90e3e75fd1c9"/><path d="m129.25 14.29-2.66 1.36.38-2.9-1.95-2.19 2.81-.59 1.47-2.59 1.48 2.59 2.65.63-1.8 2.12.3 2.92zM80.41 11.34c-.56-.21-1.7.72-2.52 1.04l.22-2.84-1.99-2.2 2.68-.4 1.59-2.62 1.51 2.47 2.7.56-1.92 2.23.33 2.76zM56 12.28l-2.72 1.16.38-2.88-1.94-2.16 2.81-.55 1.3-2.43 1.52 2.4 2.81.59-1.7 1.98c-.46.53.07 2.01.14 3.1l-2.61-1.21ZM31.49 14.33l-2.68 1.22c.11-1.17.59-2.52.13-3.07l-1.66-1.97 2.77-.52 1.47-2.61 1.38 2.53 2.8.63-1.96 2.12.39 2.89-2.64-1.23Z" class="uuid-659327b9-bf82-4f93-a6b0-6c9429d97b9a"/><path d="m104.82 12.21-2.62 1.26.34-3-2.05-2 2.87-.59 1.5-2.5 1.39 2.47 2.83.62-1.98 2.11.39 2.85z" style="fill:#535353"/><path d="m83.57 84.84 1.3 1.18-2.43-.11c-1.54-.07-3.43.88-4.7-.21-.3-.26-.68-1.1-.56-1.43.14-.38.7-.84 1.24-1.27l-.27-2c.84-1.36 2.97-1.14 4.02-.38.33.24.35 1.41.06 1.66l-1.08.93 1.19.93.7-.98c.13-.18.65.02 1.11.15l-.57 1.53Zm-2.26-3.15c-.47-1.16-1.73-.7-1.96-.15-.14.33.61.97.87.82l1.09-.66Zm.21 3.18-1.22-.95c-.24-.18-.92-.27-1.22-.2s-.65.8-.46 1.02c.73.85 2.25.63 2.89.13Z" style="fill:#585858"/><path d="m47.18 81.64-.27 1.97c-.03.22-.2.58-.35.7-.19.16-.94-.22-.89-.48.14-.82.31-2.22.08-3.05-.14-.53-1.85-.57-2.14-.09-.94 1.55-.42 3.1-.73 3.09l-.91-.03c-.21 0-.18-.52-.15-.77l.45-3.99 1.56.6c1.23-.54 2.43-.31 3.29.77 1.06-.62 2.89-1.04 3.65.33.18.32.81 4.08-.89 4.04-.24 0-.3-.45-.27-.85l.17-2.31c.03-.41-.87-.89-1.25-.91-.44-.02-1.3.55-1.36.99Z" class="uuid-0543c584-4e99-4baf-9471-6d86e419ead6"/><path d="M115.6 80.18c.8.76.9 2.19.5 2.95-1.29 2.48-3.68.29-5.58 1.66l-.68-5.77c-.02-.13-.03-.65.09-.68l.92-.19.55 2.19c1.14-.88 2.99-1.31 4.2-.16m-1.95 3.3c.95-.19 1.62-1.12 1.35-1.84s-1.16-1.25-1.87-1.14c-1.1.17-1.67.85-1.62 1.77s.96 1.44 2.13 1.21Z" class="uuid-39e464cc-940c-45df-b5ce-bd53ac7fdbf2"/><path d="M29.35 80.87c1.74.5 1.9-.11 3.23-.74.21-.1.77.46.65.7-.59 1.15-2.56 1.57-3.9 1.18s-2.53-1.1-2.88-2.45c-.3-1.15.2-2.88 1.47-3.41 1.7-.72 4.85-.44 5.75 1.66.09.21-.16.73-.38.73-1.38.04-1.03-1.68-3.27-1.77-1.16-.05-2.08.68-2.27 1.56-.26 1.2.34 2.19 1.6 2.55Z" class="uuid-238ff2e5-93be-4ed6-9b69-fa995e61d29e"/><path d="m88.59 81.47-.02-1.21c0-.27 1.13-.26 1.16.03l.34 3.51c.08.85 1.1 1.25 1.82 1.25.62 0 1.94-.43 1.99-1.28.13-2.19-.42-3.93.59-4.01 1.18-.09.7 4.19.44 4.74-.99 2.08-4.5 2.17-5.83.34-.6-.82-.47-2.29-.49-3.37" class="uuid-0543c584-4e99-4baf-9471-6d86e419ead6"/><path d="m103.65 82.68 3.46-.68c-1.16-2.22-3.07.67-3.98.08-.04-2.17 3.91-1.96 4.82-1.36.78.52.06 1.29 1.04 3.68.09.21-.43.7-.62.6l-.91-.49c-1.03.55-2.5 1.03-3.64.59-.37-.14-.9-1.04-.73-1.36l.55-1.06Zm3.74.32c-1.27-.06-2.39.13-3.33.72 1.16 1.3 2.73.46 3.33-.72" class="uuid-8cbba052-5a09-4eae-b928-691352e7add4"/><path d="M39.46 78.83c1.16.61 1.26 2.01.89 3-.42 1.15-1.64 1.52-3 1.43-1.07-.07-2.25-.69-2.62-1.48-.51-1.08-.28-2.42.7-3.08 1.14-.77 2.74-.55 4.03.13m-.78.75c-.55-.35-1.52-.36-2.19-.19-.53.14-.92 1.23-.78 1.71.18.61.91 1.07 1.67 1.15s1.62-.31 1.88-.91c.18-.41-.02-1.4-.58-1.75Z" class="uuid-238ff2e5-93be-4ed6-9b69-fa995e61d29e"/><path d="M101.89 82.09c-.89.73-3.1-1.96-4.07.49l3.62.21.76 1.05c-.1.88-.62 1.41-1.39 1.66-2.77.89-4.21-.7-4.08-.97l.22-.44c1.2-.24 2.01 1.94 4.03-.04-1.04-.89-2.65-.03-4.05-.81-.41-.78-.2-1.78.61-2.13 1.38-.61 4.13-.76 4.36.98Z" style="fill:#616161"/><path d="M62.27 85.04c-1.4.96-3.38.73-4.56-.3-.81-.7-.88-1.94-.46-2.73.53-.97 1.59-1.41 2.77-1.38s2.28.41 2.83 1.4c.46.81.43 2.3-.58 3Zm-2.45-.39c1.41.14 1.98-.55 2.01-1.55.03-.94-.7-1.47-1.81-1.51-.96-.03-1.74.57-1.77 1.53-.02.67.71 1.45 1.57 1.53" class="uuid-238ff2e5-93be-4ed6-9b69-fa995e61d29e"/><path d="M132.23 82.79c.23-.61 1.47-.41 1.5-1.13.01-.37-.31-.97-.56-1.28l-2.41-3.11c.35-.24 1.25-.29 1.46-.02l2.01 2.53.78-2.62c.09-.3.24-.68.38-.86s.73-.09 1.02-.04l-1.58 5.66c-.17.61-1.04 1.36-1.6 1.4l-.72.05c-.15.01-.33-.44-.28-.58M54.49 81.26l-.48 3.41c-.04.26-.83.38-1.03.21l-.04-3.65c-.28-.16-.95-.5-.8-.62 1.76-1.47 1.89-2.41 3.69-1.98l.63.15c.17.04.25.57.1.65s-.42.12-.75.15l-.91.08c-.18.02-.22.49-.2.59.56.07 1.78.23 1.81.65-.18.69-.85.53-2.01.35ZM128.45 78.54c-.42.11-.06 2.45.41 2.62.36.13 1.16 0 1.74-.08.06-.02.35.52.24.63-.63.64-1.89.78-2.71.47-1.49-.56-.22-3.45-2.36-3.63 1.19-1 1.5-2.98 1.98-1.91.13.29.26.88.48.87l1.04-.05.68-.04c.15 0 .38.57.23.62s-.44.15-.66.21l-1.06.29Z" class="uuid-39e464cc-940c-45df-b5ce-bd53ac7fdbf2"/><path d="M73.16 85.32c.09.12.18.67 0 .69l-1.04.12c-.41.05-1.37-.14-1.71-.38-1.25-.91.72-3.28-1.49-3.97l2.11-1.81.43 1.1c.19.49 1.94-.12 1.9.93-.69.19-1.71.18-1.98.55s-.31 1.34-.21 1.9c.09.51 1.15.77 1.98.86Z" style="fill:#606060"/><path d="M68.22 82.26c-.74.07-1.47.17-1.82.48-.46.41-.63 1.26-.67 1.88l-.07 1c-.02.25-.85.16-1.09.04l.07-4.23c0-.24.77-.5.88-.33l.44.71c.78-.39 1.5-.66 2.4-.71l-.14 1.17Z" style="fill:#646464"/><path d="M122.29 82.6c.03.22-.32.74-.49.82-.21.11-.71-.38-.75-.63l-.73-5.14c-.03-.21.28-.69.46-.71.24-.03.73.37.77.63l.73 5.03Z" class="uuid-8cbba052-5a09-4eae-b928-691352e7add4"/><path d="M125.43 82.58c.06.34-1.15.45-1.21.17l-.67-4.27 1.18-.14.7 4.25Z" style="fill:#676767"/><path d="M119.22 82.83c.06.43-.18 1.04-.41 1.03-.37-.01-.81-.38-.85-.72l-.38-3.1c-.03-.22.1-.7.23-.88s.88-.06.92.19z" style="fill:#636363"/><path d="M96.95 84.09c.1-.2.06-.62-.03-.85 1.4.78 3.01-.08 4.05.81-2.01 1.98-2.83-.2-4.03.04Z" style="fill:#e3e3e3"/><path d="m101.89 82.09-.43.45c.54.41.8.79.74 1.32l-.76-1.05-3.62-.21c.97-2.46 3.18.24 4.07-.49Z" style="fill:#e0e0e0"/><path d="m103.65 82.68-.52-.6c.91.59 2.82-2.3 3.98-.08z" style="fill:#f1f1f1"/><path d="M87.46 57.22c-3.88 1.96-12.61 1.92-15.77-.37-2.06-1.49-2.21-4.49-.6-6.43 1.1-1.31 2.98-2.33 4.64-2.29z" style="fill:#fdfdfd"/><path d="M77.58 43.33c-2.39-1.77-4.75-3.51-3.63-6.58.29-.79 1.29-1.69 2.41-2.05 3.24-1.02 11.28-1.44 11.43 3.12.13 4.22-6.86 4.83-10.2 5.51Z" class="uuid-8f75de80-6f2b-4522-80dc-59a06957b10b"/><path d="M81.52 84.87c-.65.5-2.17.73-2.89-.13-.19-.22.17-.95.46-1.02.3-.07.98.01 1.22.2l1.22.95Z" style="fill:#e4e4e4"/><path d="m81.31 81.69-1.09.66c-.26.16-1.01-.49-.87-.82.24-.55 1.49-1 1.96.15Z" style="fill:#e1e1e1"/><path d="M113.65 83.48c-1.17.23-2.07-.3-2.13-1.21s.51-1.6 1.62-1.77c.7-.11 1.61.43 1.87 1.14s-.41 1.66-1.35 1.84Z" class="uuid-f7e66004-6067-4ae9-96fa-84b11731a311"/><path d="M107.39 83c-.59 1.19-2.17 2.02-3.33.72.94-.59 2.06-.78 3.33-.72" style="fill:#e6e6e6"/><path d="M38.68 79.58c.57.35.76 1.34.58 1.75-.26.6-1.11 1-1.88.91s-1.49-.54-1.67-1.15c-.15-.48.25-1.58.78-1.71.67-.17 1.63-.15 2.19.19Z" class="uuid-f7e66004-6067-4ae9-96fa-84b11731a311"/><path d="M59.82 84.65c-.86-.08-1.59-.86-1.57-1.53.03-.96.8-1.56 1.77-1.53 1.11.04 1.84.57 1.81 1.51-.03 1-.6 1.68-2.01 1.55" style="fill:#f7f7f7"/></svg>