<svg xmlns="http://www.w3.org/2000/svg" id="uuid-335eef72-4ba9-4072-bc8b-00563bf9b525" data-name="Слой 1" viewBox="0 0 160 63.22"><defs><style>.uuid-db457bd1-0275-4eea-9b3f-c54198fbbba2{fill:#010101}.uuid-96a3e6bc-17a2-45dd-b780-b3631506f25f{fill:#fcfcfc}.uuid-b54bc2d4-644f-4efb-a6b9-bcb58c88a89e{fill:#242122}.uuid-560a9f46-fec7-4e56-aa48-88054ebb91b1{fill:#221f20}.uuid-371e3e30-bddb-4e6c-b353-8ba44e090301{fill:#fbfbfb}.uuid-ad2f309c-64d8-48ea-90c1-924725603f6b{fill:#232021}.uuid-13cefeca-2d0c-4f1f-8695-9c15289ec0dd{fill:#090000}.uuid-9d4cc111-a342-4dac-ae46-f942278b18c1{fill:#312e2f}.uuid-73eeccd4-0c2d-478a-ae37-df39a7d3962f{fill:#252223}.uuid-d71f334b-623d-4f1f-bdb3-f688f183fbd5{fill:#fefefe}.uuid-31467286-0039-4bd1-99cf-c35b8e0af6ff{fill:#fdfdfd}</style></defs><path d="M0 20.78V0h160v63.22H0V43.28h24.73l11.65 9.13V20.82L18.19 6.66zm121.38 3.72 3.62 5.25-1.31 1.98-2.66 3.91h3.4l2.4-3.91.43-.76c.2.01.41-.18.62.11v4.48c0 .01.04.06.06.06.67.02 1.95.03 2.72 0h.05l.06-4.66h.6l.44.79 2.39 3.9h3.42l-2.67-3.92-1.33-1.96 3.68-5.3s-.04-.05-.1-.07h-3.11l-.06.01-2.68 4.26c-.18.05-.39.05-.6.01v-4.29h-2.89v4.29c-.24 0-.32.18-.67-.09-.62-.99-1.91-3.09-2.6-4.12 0-.01-.03-.03-.06-.06h-3.25c-.02 0-.01.03 0 .04l.07.06Zm17.12-.06v11.11s.04.06.06.06c.67.03 2.05.02 2.72 0 .02 0 .06-.04.06-.06.05-.78.04-2.32.03-3.12.2-.32.28-.43.46-.67l.3-.4.26.41 2.68 3.85h6.64l2.44-3.76 2.44 3.76h3.4l-2.64-3.94-1.24-1.88 3.52-5.32.04-.04s.07-.06.05-.06c-.03 0-.09-.02-.11-.02h-3.22l-.05.02c-.8 1.08-1.36 2.38-2.22 3.41l-2.16-3.38s-.03-.03-.06-.05h-3.26c-.07 0-.11 0-.02.06l3.57 5.38-1.26 1.89-2.49 3.68-2.82-3.69-1.59-2.1 4.2-5.12.04-.04s.07-.06.05-.06-.09-.02-.11-.02h-3.33l-.06.01-3.44 4.56-.06-4.56h-.05l-2.72-.01c-.02 0-.05.04-.06.06Zm-92.57.29v10.83s.04.06.06.06c.44.03 1.33.03 1.78 0 .02 0 .06-.04.06-.06V26.4l.05-.05h5.44s.06-.04.06-.06c.03-.37.04-1.1 0-1.5v-.05c-2.47-.09-4.99-.1-7.45 0Zm14.05 6.77h.06c.9-.02 1.78-.3 2.45-.95 1.44-1.39 1.32-4-.3-5.2-.63-.44-1.36-.68-2.15-.68h-4.91v10.96h1.91v-4.12h2.94Zm10.8 2.05.79 2.08h2.09l-1.51-3.88-2.78-7.09h-2.39l-2.76 7.06-1.51 3.9h2.08l.8-2.08h5.18Zm11.74-2.72v4.72s.05.06.07.06c.44.03 1.33.03 1.78 0 .02 0 .06-.04.06-.06V24.72s-.04-.06-.06-.06h-1.78s-.06.04-.06.06v4.38l-5.74.02v-4.47h-1.92v10.97h1.91v-4.81l5.74.01Zm6.17-4.49h5.44s.04-.02.05-.02c.09-.52.04-1.08.05-1.66h-7.48v10.97h7.47v-1.67h-5.56v-3.09h5.45v-1.69h-5.45l.02-2.84Zm9.6-1.51c-.05.14-.03.34-.05.5l-.31 3.79c-.08.99-.26 1.93-.51 2.88s-.81 1.98-1.92 1.96v1.88c1.29.02 2.22-.36 2.86-1.44.4-.67.66-1.4.84-2.17.26-1.13.43-2.24.53-3.4l.18-2.17c0-.09.04-.24.06-.33h.06l3.77.01v8.76l.05.52c.57.05 1.15.06 1.74 0 .06 0 .11 0 .13-.02s.04-.12.04-.17V24.7c-.06-.02-.09-.04-.11-.04h-7.14c-.15 0-.25.14-.19.17Zm14.73 10.79h.28c.8-.06 1.57-.37 2.15-.95 1.44-1.44 1.26-4.19-.48-5.32-.59-.36-1.25-.58-1.95-.58h-3.05v-4.09h-1.91v10.98l4.97-.02Zm-32.27 6.66v-2c-.19-.08-.42-.06-.68-.07l-.1.07v4.88c.25.05.5.05.79.04v-2.21h.85c.11 1.31 1.07 2.24 2.36 2.31.96.05 1.86-.38 2.32-1.24.42-.8.44-1.77.04-2.58-.46-.93-1.41-1.39-2.42-1.32-1.19.09-2.12.91-2.27 2.14-.31.03-.61.03-.88 0Zm30.5.44a2.57 2.57 0 1 0-5.14 0 2.57 2.57 0 1 0 5.14 0m26.49 1.78c-.77.3-1.59.1-2.19-.48-.15.15-.28.3-.41.48.72.91 2.42 1.04 3.31.38.43-.32.62-.83.49-1.34-.12-.46-.52-.79-1.05-.9.39-.14.76-.32.93-.72.24-.58-.03-1.23-.6-1.51-.99-.48-2.24-.31-2.99.51l.39.46c.59-.55 1.44-.75 2.17-.38.28.14.41.45.35.74-.16.74-1.44.57-2 .6v.65c.62.04 1.97-.17 2.09.67.05.34-.1.7-.48.84Zm-89.16-.1 2-4.17h-.83l-1.34 2.97-1.6-2.98h-.85l2.05 3.66c-.11.27-.26.54-.52.67-.21.11-.46.06-.7.01l-.19.6c.8.31 1.6.03 1.99-.77Zm2.62-4.12v4.88c.22.05.45.05.72.03v-4.32h2.76v4.23l.03.05c.21.06.47.06.7 0v-.05l.01-4.78v-.05c-1.39-.14-2.81-.02-4.22 0Zm7.59 2.99c.86-.01 1.46-.73 1.43-1.54 0-.84-.62-1.49-1.47-1.5h-2.21v4.97h.74v-1.91l1.5-.02Zm4.74.91h.05l.4 1.04h.82l-1.96-4.97-.94-.02-1.97 4.97.81.02.44-1.03h2.36Zm4.81-1.55c.48-.18.76-.54.8-1.02.07-.74-.46-1.37-1.23-1.38H65.4v4.97h2.56c.74 0 1.28-.59 1.27-1.31 0-.59-.34-1.08-.9-1.26Zm3.32-1.75h1.82v4.31q.375.03.75 0v-4.96h-3.22l-.21 2.31c-.09.54-.19 1.05-.4 1.55-.18.29-.39.49-.75.49v.72c1.9.23 1.83-3.21 2.01-4.41Zm5.53 2.39.92.03v1.91l.75-.01v-4.97h-2.32c-.85.11-1.42.75-1.36 1.6 0 .71.47 1.27 1.22 1.38l-1.26 1.98H76l1.19-1.93Zm10.33-2.99v4.88l5.94.05c.01.33 0 .62.06.89h.54s.07-.03.07-.05v-1.44s-.04-.06-.06-.06h-.49l-.05-.05v-4.21c.15-.09-.87-.09-.73 0v4.24l-1.89.02v-4.32h-.74v4.32h-1.9v-4.26c.13-.09-.86-.09-.72 0Zm8.06 3.89h2.4l.44 1.03.81-.02-1.97-4.97h-.94l-1.97 4.97.81.02.41-1.04Zm6.1-.9.92.02v1.91l.75-.01v-4.97h-2.22c-.89.04-1.52.72-1.47 1.59 0 .71.46 1.27 1.22 1.4l-1.26 1.98h.86l1.19-1.92Zm12.65 0c.92-.01 1.55-.79 1.45-1.66-.05-.77-.64-1.37-1.43-1.37h-2.25v4.96h.75v-1.9l1.48-.02Zm2.24-2.98v4.88c.22.06.48.06.71 0v-.05l.03-4.23h2.59v-.67zm4 3.88h2.39l.42 1.03h.81l-1.97-4.97h-.94l-1.97 4.96h.82c.15-.38.26-.7.44-1.02m5.05-1.85h-.06l-.03-2.1h-.74v4.96c.25.02.5.02.74 0v-2.21h2.76v2.22h.75v-4.98h-.74l-.04 2.09h-2.64Zm4.56-2.04v4.88c.22.05.46.05.71.03l2.74-3.89v3.89h.76v-4.97h-.77l-2.7 3.82v-3.83l-.73.06Zm12.83 3.9h.05l.41 1.04.81-.02-1.97-4.96h-.94l-1.97 4.95.8.02.44-1.03h2.35Zm6-3.85v-.05c-.17-.08-.39-.06-.63-.08l-.1.07v4.21l-.06.05h-2.54l-.05-.05v-4.21s-.06-.06-.08-.06h-.66v4.99h4.04l.02.93h.64v-1.57l-.58-.04zm1.33-.04v4.88c.21.05.47.05.71.03l2.79-3.81.02 3.78c.21.05.44.05.71.03v-4.98h-.77l-2.71 3.81s-.01-.07-.01-.1v-3.66c.13-.09-.86-.09-.72 0Zm8.82 4.87v-.05l.01-4.78v-.05c-.71-.12-1.47-.06-2.22-.05-.86.01-1.45.66-1.47 1.48-.01.75.42 1.36 1.22 1.5l-1.25 1.96.85.02 1.19-1.92h.93v1.92l.72-.04Z" class="uuid-d71f334b-623d-4f1f-bdb3-f688f183fbd5"/><path d="M94.14 46.06s-.05.06-.07.06h-.54l.05-.06z" class="uuid-db457bd1-0275-4eea-9b3f-c54198fbbba2"/><path d="m121.4 24.39-.02.11-.07-.06s-.01-.04 0-.04h.08Z"/><path d="M159.62 24.5v-.12s.07.02.1.02c.01 0-.04.05-.05.06l-.04.04ZM148.73 24.39l-.1.07c-.1-.05-.05-.05.02-.06h.09Z" class="uuid-db457bd1-0275-4eea-9b3f-c54198fbbba2"/><path d="M148.24 24.5v-.12s.07.02.1.02c.02 0-.04.05-.05.06l-.04.04ZM137.33 24.45l-.1-.07c.06.02.11.05.1.07"/><path d="M53.38 24.78c-.06-.02-.06-.03 0-.05zM84.42 24.72l-.06-.06s.06.04.06.06M82.52 24.72s.04-.06.06-.06z" class="uuid-db457bd1-0275-4eea-9b3f-c54198fbbba2"/><path d="m124.63 24.45-.06-.06z"/><path d="m151.95 24.44-.06-.05s.05.04.06.05" class="uuid-db457bd1-0275-4eea-9b3f-c54198fbbba2"/><path d="M134.06 24.4h.06s-.05.03-.06 0"/><path d="m141.28 35.62.06-.06s-.05.06-.06.06M141.28 24.39h.05c-.01.05-.03.04-.05 0M138.5 24.44s.04-.06.06-.06zM156.34 24.4l.05-.02s-.04.04-.05.02" class="uuid-db457bd1-0275-4eea-9b3f-c54198fbbba2"/><path d="M144.83 24.4h.06s-.05.03-.06 0"/><path d="M138.56 35.62s-.06-.05-.06-.06z" class="uuid-db457bd1-0275-4eea-9b3f-c54198fbbba2"/><path d="M141.28 24.39s.04.05.05.01l.06 4.56 3.44-4.56s.04.02.06-.01h3.33l.01.12-4.2 5.12 1.59 2.1 2.82 3.69 2.49-3.68 1.26-1.89-3.57-5.38.1-.07h3.17l.06.05 2.16 3.38c.86-1.03 1.42-2.33 2.22-3.41.01.02.03 0 .05-.02h3.22v.12l-3.51 5.32 1.24 1.88 2.64 3.93h-3.4l-2.44-3.75-2.44 3.76h-6.64l-2.68-3.85-.26-.41-.3.4c-.18.24-.26.34-.46.67.01.79.02 2.33-.03 3.12l-.06.06c-.67.02-2.05.03-2.72 0l-.06-.06V24.48l.06-.06h2.72ZM124.57 24.39l.06.06c.7 1.03 1.98 3.14 2.6 4.12.35.27.43.09.67.09v-4.29h2.89v4.29c.2.04.42.04.6-.01l2.68-4.26s.04.02.06-.01h3.11l.1.07-3.68 5.3 1.33 1.96 2.67 3.92h-3.42l-2.39-3.9-.44-.79h-.6l-.06 4.65c-.01-.04-.03-.03-.05.01-.78.03-2.05.02-2.72 0l-.06-.06v-4.48c-.21-.28-.43-.09-.62-.11l-.43.76-2.4 3.91h-3.4l2.66-3.92 1.31-1.98-3.62-5.25.02-.11h3.17Z" class="uuid-560a9f46-fec7-4e56-aa48-88054ebb91b1"/><path d="M127.96 35.62s-.06-.05-.06-.06zM130.73 35.61h-.05s.04-.04.05 0" class="uuid-13cefeca-2d0c-4f1f-8695-9c15289ec0dd"/><path d="M70.78 33.55H65.6l-.8 2.09h-2.08l1.51-3.92 2.76-7.06h2.39l2.78 7.09 1.51 3.88h-2.09l-.79-2.09Zm-.54-1.7-2.06-5.55-2.06 5.55z" style="fill:#231f21"/><path d="M94.19 26.33s-.03-.03-.05.01h-5.39c-.02-.06-.03-.07-.05 0l-.02 2.84h5.45v1.69h-5.45v3.09h5.56v1.68h-7.47V24.67h7.48c0 .58.04 1.13-.05 1.66Z" class="uuid-b54bc2d4-644f-4efb-a6b9-bcb58c88a89e"/><path d="M105.63 24.66V35.6c-.61-.07-1.11-.05-1.69-.04-.17 0-.04-.3-.04-.41v-8.81h-3.89c-.02-.05-.03-.06-.06-.01-.05 0-.15.09-.13.13l.07.2-.18 2.17c-.1 1.16-.27 2.27-.53 3.4-.18.77-.43 1.5-.84 2.17-.65 1.08-1.58 1.46-2.86 1.44v-1.88c1.1.02 1.66-1 1.91-1.96s.43-1.89.51-2.88l.31-3.79s.1 0 .11-.03v-.14c.02-.11 0-.27-.06-.33-.05-.02.04-.17.19-.17h7.14Z" class="uuid-560a9f46-fec7-4e56-aa48-88054ebb91b1"/><path d="M103.79 26.34h.12v8.81c0 .11-.13.41.04.41.57 0 1.08-.03 1.69.04V24.66s.05.02.11.04v10.73s-.03.15-.04.17-.06.01-.13.02c-.59.06-1.17.05-1.74 0l-.03-.52v-8.76ZM98.24 25.33c.01-.16 0-.36.05-.5.06.05.08.22.07.33v.14s-.08.03-.12.03M99.97 26.33c-.01.1-.05.24-.06.33l-.07-.2s.08-.14.13-.13" class="uuid-9d4cc111-a342-4dac-ae46-f942278b18c1"/><path d="m113.29 35.61-.14-.07c-.04-.02-.13.05-.14.07l-4.97.02V24.66h1.92v4.08h3.05c.71 0 1.37.22 1.95.58 1.74 1.13 1.92 3.88.48 5.32-.58.58-1.36.89-2.15.95Zm1.13-3.58c-.04-.93-.75-1.5-1.64-1.59h-2.83v3.53l2.82-.02c1.03 0 1.76-.88 1.64-1.91Z" class="uuid-ad2f309c-64d8-48ea-90c1-924725603f6b"/><path d="M113.29 35.61h-.28c.01-.02.1-.08.14-.07s.11.05.14.07" style="fill:#10080c"/><path d="M82.52 29.11c.07-.02.07-.03 0-.05v-4.33l.07-.06h1.78l.06.06v10.83l-.06.06c-.44.03-1.33.03-1.78 0l-.06-.06v-4.67c.07-.02.07-.03 0-.05h-5.74v4.8h-1.91V24.67h1.91v4.47l5.74-.02Z" class="uuid-ad2f309c-64d8-48ea-90c1-924725603f6b"/><path d="M82.58 35.62s-.06-.04-.06-.06zM82.51 30.89v-.05c.08.02.07.03 0 .05M82.52 29.11v-.05c.07.02.08.03 0 .05" class="uuid-db457bd1-0275-4eea-9b3f-c54198fbbba2"/><path d="M100.02 26.34h-.06s.04-.05.06 0M94.19 26.33s-.04.01-.05.01c.02-.04.04-.05.05-.01M88.75 26.34h-.05c.02-.07.03-.07.05 0"/><path d="m53.31 26.34.06-.06s-.04.06-.06.06" class="uuid-db457bd1-0275-4eea-9b3f-c54198fbbba2"/><path d="M53.37 24.72c-.06.02-.05.03 0 .05.04.4.03 1.13 0 1.5l-.06.06h-5.39c-.02-.06-.03-.05-.05 0l-.05.05c-.06.03-.06.03 0 .05v9.11l-.06.06c-.44.03-1.33.03-1.78 0l-.06-.06V24.76s.06-.04 0-.05c2.46-.1 4.98-.1 7.44 0Z" class="uuid-560a9f46-fec7-4e56-aa48-88054ebb91b1"/><path d="m47.76 35.62.06-.06s-.04.06-.06.06M45.98 35.62s-.06-.04-.06-.06zM47.82 26.44c-.06-.02-.05-.03 0-.05zM47.93 26.34h-.05c.03-.06.03-.06.05 0M45.93 24.78v-.05c.05.01.05.02 0 .05M84.36 35.62l.06-.06s-.04.06-.06.06" class="uuid-db457bd1-0275-4eea-9b3f-c54198fbbba2"/><path d="m70.24 31.85-4.12.01 2.06-5.56z" class="uuid-31467286-0039-4bd1-99cf-c35b8e0af6ff"/><path d="M114.42 32.03c.12 1.03-.61 1.9-1.64 1.91l-2.82.02v-3.53h2.83c.88.09 1.59.67 1.64 1.59Z" class="uuid-d71f334b-623d-4f1f-bdb3-f688f183fbd5"/><path d="M59.59 26.34h.17c.43.03 1.01.22 1.31.56.58.67.6 1.57.08 2.28-.26.35-.84.57-1.22.64h-.22l-2.67-.01v-3.46l2.56-.01Z" class="uuid-96a3e6bc-17a2-45dd-b780-b3631506f25f"/><path d="M60.03 31.5s-.03-.04-.06 0h-2.94v4.14h-1.91V24.67h4.91c.8 0 1.52.24 2.15.69 1.62 1.21 1.73 3.81.3 5.2-.67.65-1.55.93-2.45.94m-.44-5.16h-2.55v3.48l2.67.02.09.06s.13-.04.13-.07c.38-.08.96-.3 1.22-.64.52-.71.5-1.62-.08-2.28-.3-.34-.88-.53-1.31-.56 0-.02-.06-.09-.08-.07l-.08.07Z" class="uuid-560a9f46-fec7-4e56-aa48-88054ebb91b1"/><path d="M60.03 31.5h-.06s.03-.04.06 0"/><path d="M59.93 29.83s-.1.09-.13.07l-.09-.06h.22Z" class="uuid-db457bd1-0275-4eea-9b3f-c54198fbbba2"/><path d="M59.76 26.34h-.17l.08-.07s.08.06.08.07Z"/><path d="M79.98 45.16s.02-.03-.01-.05v-4.78s.06-.04 0-.05l.1-.07c.26.01.49 0 .68.07-.05.01-.05.02 0 .05v1.89c-.06.02-.06.03 0 .06.28.04.57.04.88 0 .15-1.22 1.08-2.05 2.27-2.14 1.01-.07 1.97.39 2.42 1.32.4.81.38 1.78-.04 2.58-.46.86-1.36 1.29-2.32 1.24-1.29-.06-2.26-.99-2.36-2.31h-.84v2.21c-.29.01-.54.02-.78-.04Zm5.55-1.3c.43-.73.43-1.66-.06-2.36-.62-.89-2.01-.94-2.69-.08-.58.74-.56 1.82-.03 2.56.35.48.89.67 1.46.64.49-.03 1.02-.26 1.31-.77Z" class="uuid-ad2f309c-64d8-48ea-90c1-924725603f6b"/><path d="M88.25 40.29c-.05.01-.05.02 0 .05v4.21h1.91v-4.32h.74v4.32l1.9-.02v-4.19c.06-.03.06-.04 0-.05-.14-.09.88-.09.72 0l-.07.06c.07 1.41-.07 2.8.08 4.16l.05.05c.03.06.03.06.05 0h.44l.06.06v1.44h-.56l-.05.05c-.07-.27-.05-.56-.06-.89l-5.93-.05s.02-.03-.01-.05v-4.78s.06-.04 0-.05c-.13-.09.86-.09.72 0Z" class="uuid-73eeccd4-0c2d-478a-ae37-df39a7d3962f"/><path d="M68.34 42.63c.56.18.9.66.9 1.26 0 .72-.53 1.3-1.27 1.3h-2.56v-4.98h2.51c.76.02 1.3.65 1.23 1.39-.04.48-.32.84-.8 1.02Zm-.62-.3c.46 0 .7-.42.66-.79s-.32-.65-.74-.65h-1.48v1.46zm-1.52 2.22c.02.06.03.06.05 0h1.5l.08.06s.04-.05.04-.06c.41-.12.65-.45.61-.86s-.39-.69-.84-.7h-1.48c0 .55-.03 1.06.04 1.55Z" class="uuid-560a9f46-fec7-4e56-aa48-88054ebb91b1"/><path d="M111.25 42.72a2.57 2.57 0 1 1-5.14 0 2.57 2.57 0 1 1 5.14 0m-1.17 1.19c.47-.72.46-1.66.01-2.36-.31-.49-.85-.73-1.38-.73s-1.07.2-1.39.67c-.49.71-.5 1.69-.04 2.41.31.49.84.73 1.38.73s1.09-.21 1.42-.72" class="uuid-ad2f309c-64d8-48ea-90c1-924725603f6b"/><path d="m130.19 45.16.05-.06v-4.76l-.06-.06.72-.06v3.83l2.72-3.82h.77v4.97h-.75l-.01-3.9-2.74 3.89c-.26.02-.49.02-.7-.03M101.68 43.27l-1.19 1.93h-.86l1.26-1.98c-.75-.12-1.21-.69-1.22-1.4-.05-.88.58-1.56 1.47-1.59h2.22v4.97h-.75v-1.9l-.92-.02Zm.92-.64v-1.75h-1.25c-.54 0-.93.36-.93.87 0 .47.34.88.87.88z" class="uuid-b54bc2d4-644f-4efb-a6b9-bcb58c88a89e"/><path d="M77.19 43.27 76 45.2h-.86l1.26-1.98c-.74-.11-1.21-.68-1.22-1.38-.06-.85.51-1.49 1.36-1.6h2.32v4.96h-.75v-1.89l-.92-.03Zm.92-.64v-1.75h-1.24c-.54 0-.93.36-.93.88 0 .46.36.87.88.87h1.3Z" class="uuid-73eeccd4-0c2d-478a-ae37-df39a7d3962f"/><path d="M151.06 40.28c-.05.01-.05.02 0 .05v3.61c-.05.03-.1.12.01.1l2.71-3.81h.77v4.97c-.27.01-.5.02-.71-.03l.06-.06-.07-3.72-2.79 3.81c-.24.03-.49.03-.69-.03.04-.01.02-.03-.01-.05v-4.78s.05-.04 0-.05c-.13-.09.86-.09.72 0Z" class="uuid-560a9f46-fec7-4e56-aa48-88054ebb91b1"/><path d="M159.17 40.29c-.05.01-.05.02 0 .05v4.78s-.05.04-.01.05l-.72.04v-1.92h-.94l-1.19 1.92-.85-.02 1.25-1.96c-.8-.14-1.23-.75-1.22-1.5.02-.83.61-1.47 1.47-1.48.75-.01 1.51-.07 2.21.05Zm-.73 2.32c.07-.01.07-.02 0-.05v-1.67h-1.26c-.51 0-.88.34-.91.82s.29.92.8.92h1.38Z" class="uuid-ad2f309c-64d8-48ea-90c1-924725603f6b"/><path d="M125.57 42.33c.02.07.03.06.06 0h2.64l.04-2.09h.74v4.98h-.73l-.01-2.23h-2.75v2.21c-.24.02-.49.02-.74 0v-4.96h.74l.03 2.1Z" style="fill:#272425"/><path d="m145.62 40.28-.07.06.08 4.15.05.05c.02.06.03.06.05 0h2.44c.02.05.03.05.05 0l.05-.05.08-4.16-.07-.06.1-.07c.24.01.46 0 .62.08-.05.01-.05.02 0 .05v4.19l.59.04v1.55l-.64.01-.02-.92h-4.04v-4.98h.66s.07.04.07.05Z" class="uuid-560a9f46-fec7-4e56-aa48-88054ebb91b1"/><path d="M143.06 44.17c-.02-.07-.03-.05-.05 0h-2.35l-.44 1.03-.8-.02 1.97-4.97h.94l1.97 4.97-.81.02-.41-1.04Zm-.21-.66-1.01-2.6-.99 2.61h2.01ZM122.96 44.17c-.02-.06-.03-.06-.06 0h-2.28c-.02-.07-.03-.06-.05 0-.18.31-.29.63-.44 1.02h-.82l1.97-4.97h.94l1.97 4.96h-.81l-.42-1.02Zm-.21-.66-1.01-2.6-.99 2.6h2.01ZM63.59 44.17c-.02-.07-.03-.06-.05 0h-2.36l-.44 1.03-.81-.02 1.97-4.97.94.02 1.96 4.96h-.82l-.4-1.03Zm-.23-.66-1.01-2.61-.99 2.61zM95.63 44.18c-.02-.06-.03-.07-.05 0l-.41 1.04-.81-.02 1.97-4.96h.94l1.97 4.96-.81.02-.44-1.03h-2.35Zm2.16-.67-1.01-2.61-.99 2.61h1.99Z" class="uuid-b54bc2d4-644f-4efb-a6b9-bcb58c88a89e"/><path d="M71.66 40.88c-.18 1.2-.11 4.63-2 4.41v-.72c.36 0 .57-.2.75-.49.21-.49.31-1.01.4-1.55l.21-2.31h3.22v4.96q-.375.03-.75 0v-4.31h-1.82Z" class="uuid-73eeccd4-0c2d-478a-ae37-df39a7d3962f"/><path d="M55.43 40.29c-.05.01-.05.02 0 .05v4.78s-.05.04-.01.05c-.23.06-.49.06-.7 0 .04-.01.02-.03-.01-.05v-4.23h-2.77v4.32c-.27.01-.5.02-.71-.03l.05-.06v-4.76l-.06-.06c1.41-.02 2.84-.14 4.22 0Z" class="uuid-ad2f309c-64d8-48ea-90c1-924725603f6b"/><path d="m114.33 43.27-1.48.02v1.91l-.75-.01v-4.97h2.25c.79 0 1.38.61 1.43 1.37.1.87-.53 1.65-1.45 1.66Zm-.23-.64c.55 0 .92-.39.92-.88s-.37-.87-.89-.87h-1.28v1.75z" class="uuid-560a9f46-fec7-4e56-aa48-88054ebb91b1"/><path d="m58.79 43.27-1.5.02v1.91h-.74v-4.98h2.21c.85 0 1.47.66 1.47 1.5.03.81-.57 1.53-1.43 1.54Zm-.22-.64c.57 0 .92-.43.89-.93s-.41-.82-.92-.82h-1.25v1.75z" class="uuid-b54bc2d4-644f-4efb-a6b9-bcb58c88a89e"/><path d="M137.74 44.5c.38-.15.53-.5.48-.84-.12-.83-1.47-.63-2.09-.67v-.65c.56-.03 1.84.14 1.99-.6a.67.67 0 0 0-.35-.74c-.73-.36-1.57-.16-2.17.38l-.39-.46c.76-.82 2-.99 2.99-.51.58.28.85.93.6 1.51-.17.4-.54.58-.93.72.53.11.94.44 1.05.9.13.5-.06 1.02-.49 1.34-.89.66-2.59.53-3.31-.38.14-.18.26-.33.41-.48.6.58 1.42.77 2.19.48Z" class="uuid-560a9f46-fec7-4e56-aa48-88054ebb91b1"/><path d="M48.58 44.4c-.38.8-1.18 1.09-1.99.77l.19-.6c.25.05.49.1.7-.01.26-.14.4-.4.52-.67l-2.05-3.66h.85l1.6 2.97 1.34-2.99h.83l-2 4.18ZM117.3 45.11s-.05.04-.01.05c-.23.06-.49.06-.7 0 .04-.01.02-.03-.01-.05v-4.78s.05-.04 0-.05l3.33-.07v.67h-2.6v4.23Z" class="uuid-ad2f309c-64d8-48ea-90c1-924725603f6b"/><path d="m51.21 45.16-.01-4.88.06.06v4.76zM130.19 45.16l-.01-4.88.05.06v4.76zM93.53 44.5c-.15-1.36-.01-2.75-.08-4.16l.07-.06v4.21ZM145.62 44.5l-.07-4.16.07-.06zM148.27 44.5l.01-4.22.07.06zM153.85 45.16l-.02-3.78.07 3.72z" class="uuid-13cefeca-2d0c-4f1f-8695-9c15289ec0dd"/><path d="M151.07 44.04c-.11.03-.06-.06-.01-.1 0 .02 0 .07.01.1M55.43 40.33s-.05-.04 0-.05zM79.97 40.33v-.05c.05.01.05.02 0 .05M80.75 40.33s-.06-.04 0-.05zM87.52 40.33v-.05c.05.01.05.02 0 .05M88.25 40.33s-.05-.04 0-.05zM92.8 40.33v-.05c.05.01.05.02 0 .05M116.57 40.33v-.05c.05.01.05.02 0 .05M149.01 40.33s-.05-.04 0-.05zM150.33 40.33v-.05c.05.01.05.02 0 .05M151.06 40.33s-.06-.04 0-.05zM159.17 40.33s-.05-.04 0-.05zM80.75 42.28c-.06-.03-.06-.03 0-.06zM125.57 42.33h.06c-.02.07-.03.07-.06 0M63.59 44.17h-.05c.02-.06.03-.07.05 0M95.63 44.18h-.05c.02-.06.03-.05.05 0M120.62 44.17h-.05c.02-.06.03-.06.05 0M122.96 44.17h-.06c.02-.06.03-.07.06 0"/><path d="M93.58 44.55h.05c-.02.05-.03.05-.05 0M94.14 44.61l-.06-.06s.06.04.06.06" class="uuid-db457bd1-0275-4eea-9b3f-c54198fbbba2"/><path d="M145.68 44.55h.05c-.02.06-.03.05-.05 0M148.17 44.55h.05c-.03.06-.03.06-.05 0M54.71 45.16v-.05s.04.04 0 .05M55.41 45.16s-.02-.03.01-.05v.05ZM79.98 45.16v-.05s.04.04 0 .05M87.54 45.16v-.05s.04.04 0 .05M116.58 45.16v-.05s.04.04 0 .05M117.28 45.16s-.02-.03.01-.05v.05ZM150.35 45.16v-.05s.04.04 0 .05M159.16 45.16s-.02-.03.01-.05v.05ZM143.06 44.17h-.05c.02-.06.03-.07.05 0"/><path d="M85.53 43.86c-.3.5-.82.74-1.31.77-.57.03-1.11-.16-1.46-.64-.54-.74-.55-1.82.03-2.56.68-.86 2.07-.82 2.69.08.48.69.49 1.62.06 2.36Z" class="uuid-31467286-0039-4bd1-99cf-c35b8e0af6ff"/><path d="M67.87 44.55h-1.66c-.08-.5-.04-1-.04-1.55h1.48c.45 0 .8.28.84.7s-.2.74-.61.86Z" class="uuid-371e3e30-bddb-4e6c-b353-8ba44e090301"/><path d="m67.72 42.33-1.56.02v-1.46h1.48c.41 0 .7.28.74.65s-.21.79-.66.79" class="uuid-96a3e6bc-17a2-45dd-b780-b3631506f25f"/><path d="M67.87 44.55s-.02.07-.04.06l-.08-.06h.11ZM66.2 44.55h.05c-.02.06-.03.05-.05 0" class="uuid-db457bd1-0275-4eea-9b3f-c54198fbbba2"/><path d="M110.08 43.91c-.33.51-.87.72-1.42.72s-1.07-.24-1.38-.73c-.46-.73-.45-1.7.04-2.41.32-.47.85-.67 1.39-.67s1.07.24 1.38.73c.45.7.45 1.64-.01 2.36M102.6 42.63h-1.31c-.53 0-.87-.4-.87-.88 0-.51.38-.87.93-.87h1.24v1.75ZM78.11 42.63h-1.3c-.52 0-.88-.41-.88-.87 0-.52.39-.88.93-.88h1.24v1.75Z" class="uuid-31467286-0039-4bd1-99cf-c35b8e0af6ff"/><path d="M158.43 42.56v.05h-1.37c-.51 0-.83-.47-.8-.92s.4-.82.91-.82h1.26v1.67Z" class="uuid-96a3e6bc-17a2-45dd-b780-b3631506f25f"/><path d="M158.44 42.61v-.05c.07.04.07.04 0 .05"/><path d="M142.85 43.51h-2.01l1-2.61zM122.75 43.51l-2 .01.99-2.61zM63.36 43.51h-1.99l.99-2.6zM97.79 43.51H95.8l.98-2.6z" class="uuid-371e3e30-bddb-4e6c-b353-8ba44e090301"/><path d="M114.1 42.63h-1.25v-1.75h1.28c.53 0 .89.38.89.87s-.37.88-.92.88M58.57 42.63h-1.28v-1.75h1.25c.52 0 .9.33.92.81s-.32.93-.89.93Z" class="uuid-31467286-0039-4bd1-99cf-c35b8e0af6ff"/><path d="M0 43.28v-22.5L18.19 6.66l18.18 14.16v31.59l-11.65-9.13zm3.84-3.79c7.27.12 14.91.08 22.21.02l6.54 5.09v-.11c.11-7.23.12-14.55 0-21.78l-14.4-11.25-14.4 11.23.04 16.8Z" style="fill:#ce3739"/><path d="M32.59 44.5V22.72c.11 7.23.1 14.54 0 21.78" style="fill:#cb2124"/><path d="M32.59 22.72v21.89l-6.54-5.09-22.21-.02-.04-16.8 14.4-11.21 14.4 11.25Zm-19.18 6.14c0-1.09-.88-1.97-1.97-1.97s-1.97.88-1.97 1.97.88 1.97 1.97 1.97 1.97-.88 1.97-1.97m6.75 0c0-1.09-.88-1.97-1.97-1.97s-1.97.88-1.97 1.97.88 1.97 1.97 1.97 1.97-.88 1.97-1.97m6.75 0c0-1.09-.88-1.97-1.97-1.97s-1.97.88-1.97 1.97.88 1.97 1.97 1.97 1.97-.88 1.97-1.97" style="fill:#fefdfd"/><path d="M26.05 39.51c-7.3.06-14.94.1-22.21-.02z" style="fill:#cc1b1f"/><circle cx="18.19" cy="28.86" r="1.97" class="uuid-560a9f46-fec7-4e56-aa48-88054ebb91b1"/><circle cx="24.94" cy="28.86" r="1.97" class="uuid-560a9f46-fec7-4e56-aa48-88054ebb91b1"/><circle cx="11.44" cy="28.86" r="1.97" class="uuid-560a9f46-fec7-4e56-aa48-88054ebb91b1"/></svg>