<svg xmlns="http://www.w3.org/2000/svg" id="uuid-7f5a784b-c2e2-4045-a54a-743f5978e2a5" viewBox="0 0 160 63.22"><defs><style>.uuid-6f9057bb-5eaf-4426-aba7-73913490c469{fill:#0b0b0b}.uuid-4b816437-cdc5-4e3b-9951-5b3bc11ab7db{fill:#fefefe}.uuid-ffc1de06-5ea8-43b1-a876-439268c1c6b0{fill:#444}.uuid-41fe5e88-b020-44ad-a692-2ff22d470ea2{fill:#020202}.uuid-a9b760da-c29e-4d70-b3f7-74c75273a027{fill:#030303}.uuid-ee9cea9e-aa50-413c-93d9-ef11604d7b3f{fill:#202020}.uuid-d86b4d2c-b7bc-47f3-9dda-84d7629f05a4{fill:#010101}.uuid-5b267d5a-e31e-4109-a8b3-d0fa457fa7bd{fill:#080808}</style></defs><path d="M0 20.76V0h160v63.22H0V43.24h24.73l11.65 9.12V20.8L18.19 6.66zm121.36 3.72c.85 1.24 2.73 3.92 3.62 5.19l-1.29 2.04-2.65 3.89h3.41l2.4-3.9.45-.78h.61v4.67h2.83l.06-4.66h.6l.44.79 2.39 3.89h3.42l-2.67-3.92-1.32-1.97 3.68-5.29-.03-.07h-3.23l-2.71 4.31h-.57v-4.32h-2.88v4.31c-.23 0-.41 0-.6-.02l-2.66-4.22-.06-.06h-3.27s.05.09.07.11Zm19.97 11.09.05-3.21.45-.6.3-.4.28.43 2.66 3.82h6.64l2.44-3.75 2.44 3.75 3.38-.02-2.61-3.9-1.26-1.89 3.55-5.31.07-.12-3.39.02-2.18 3.46-2.2-3.43c-1.12-.08-2.29-.1-3.33.02l3.57 5.37-1.26 1.89-2.49 3.68-2.77-3.66c-.57-.75-1.16-1.28-1.54-2.23.99-1.19 3.1-3.73 4.14-5 .02-.02.04-.07.07-.12h-3.5l-3.44 4.57-.06-4.56h-2.83v11.2h2.83Zm-95.4-10.86v10.87h1.89v-9.27h5.55V24.7l-.02-.06-7.43.06Zm9.22-.01v10.77c.52.3 1.4.03 1.83.11.02 0 .06-.05.06-.1v-4h3c.88 0 1.75-.29 2.41-.91 1.48-1.38 1.37-4.04-.27-5.23-.63-.46-1.34-.68-2.16-.68h-4.78s-.09.04-.09.05Zm15.62 8.82.8 2.09h2.09l-1.5-3.87-2.78-7.09h-2.39l-2.75 7.03-1.52 3.92h2.08l.81-2.08h5.17Zm4.15 2.06h1.83l.01-4.77h5.76v4.77h1.89V24.65h-1.89v4.44h-5.76l-.01-4.44h-1.82c-.15 3.54 0 7.3-.07 10.83 0 .1.05.1.07.1Zm11.89-.01h7.38c.09-.53.05-1.09.04-1.64h-5.55v-3.09h5.45v-1.68h-5.45l.02-2.84 5.5-.02c.09-.52.05-1.07.05-1.66h-7.49l.06 10.93Zm11.48-10.54-.3 3.51c-.1 1.17-.26 2.3-.57 3.43-.24.9-.79 2-1.92 1.95v1.88c1.28.02 2.21-.36 2.86-1.44.4-.67.66-1.4.83-2.16.26-1.14.41-2.17.53-3.38l.24-2.51h3.83l.06 9.26h1.88V24.64H98.3l-.02.39Zm15 10.55c1.9-.16 3.18-1.6 3.11-3.56-.04-.95-.38-1.83-1.1-2.45-.61-.53-1.4-.84-2.22-.84l-3.11-.02c-.06-1.41.07-2.76-.07-4.07h-1.83v10.94zm-32.53 6.7v-2.03c-.2-.08-.43-.06-.69-.07-.03 0-.1.04-.1.07v4.88c.24.05.49.05.79.04v-2.21h.85c.11 1.33 1.1 2.27 2.42 2.31.97.03 1.87-.44 2.3-1.33.37-.77.38-1.67.02-2.44-.44-.95-1.41-1.44-2.44-1.37-1.22.08-2.14.95-2.29 2.16h-.87Zm30.49.4c0-1.42-1.15-2.56-2.57-2.56s-2.57 1.15-2.57 2.56 1.15 2.56 2.57 2.56 2.57-1.15 2.57-2.56m26.49 1.77c-.77.3-1.61.1-2.2-.48l-.41.47c.7.89 2.28 1.04 3.2.47.48-.29.72-.81.61-1.36-.09-.47-.51-.85-1.07-.96.39-.14.76-.32.93-.72.24-.56-.02-1.21-.58-1.49-.99-.5-2.25-.33-3.02.48.13.18.24.32.41.46.58-.55 1.37-.71 2.08-.41.3.12.46.43.43.7-.09.84-1.41.65-2.01.68v.65c.61.04 1.96-.16 2.09.66.05.35-.1.7-.47.85Zm-89.16-.1 1.99-4.15h-.84l-1.33 2.99-1.6-2.99h-.86l2.05 3.65c-.1.26-.24.51-.47.65s-.49.09-.74.03l-.2.6c.81.32 1.61.02 2-.78m2.62-4.1v4.88c.22.05.45.05.72.03v-4.32l2.77.01.02 4.27c.22.06.48.06.7 0v-4.87c-.21-.1-4.21-.09-4.21 0m7.64 2.98c.84-.01 1.41-.74 1.38-1.54 0-.84-.63-1.49-1.47-1.49h-2.21v4.97h.74v-1.91l1.55-.02Zm2.31.9h2.44l.39 1.02c.31.02.54.02.82 0l-1.97-4.96h-.94l-1.97 4.97.81.02.41-1.03Zm7.17-1.53c.5-.18.77-.52.82-.97.11-.78-.44-1.38-1.22-1.44h-2.51v4.98h2.57c.74-.02 1.26-.6 1.26-1.31 0-.61-.37-1.11-.93-1.25Zm3.34-1.76h1.82v4.32h.75v-4.97h-3.22l-.22 2.42c-.1.52-.2 1.01-.41 1.48-.18.27-.38.44-.73.45v.71c1.9.25 1.83-3.22 2.01-4.4Zm5.52 2.39.92.03v1.91l.75-.02v-4.97h-2.31c-.86.1-1.44.76-1.37 1.62 0 .7.48 1.25 1.22 1.36l-1.26 1.98h.86l1.19-1.93Zm10.34-2.98v4.88l5.94.05c.01.33 0 .62.06.89h.61v-1.55h-.61v-4.27c.16-.09-.87-.09-.72 0v4.26h-1.9v-4.32h-.74v4.32h-1.9v-4.26c.14-.09-.88-.09-.73 0Zm8.06 3.88h2.44l.39 1.02c.31.02.54.02.82 0l-1.97-4.96h-.94l-1.97 4.96.81.02.41-1.04Zm6.1-.9.92.02v1.92l.75-.02v-4.97h-2.22c-.87.04-1.5.68-1.47 1.55-.02.73.45 1.31 1.22 1.44l-1.26 1.98h.86l1.19-1.92Zm12.64 0c.93-.01 1.54-.79 1.46-1.66-.07-.77-.64-1.37-1.44-1.38h-2.24v4.95l.75.02v-1.91l1.48-.02Zm2.25-2.98v4.87c.23.06.49.06.71 0l.02-4.26 2.55-.02c.07-.23.06-.42.04-.67l-3.33.07Zm3.95 3.89h2.44l.41 1.01c.29.03.54.02.82 0l-1.97-4.95h-.94l-1.97 4.96h.82zm7.77-1.85h-2.72c-.03-.51-.03-1.56-.03-2.06-.28-.05-.48-.04-.74-.03v4.97l.74-.01v-2.21h2.76v2.23h.75v-4.97h-.74l-.02 2.09Zm1.89-2.04v4.88c.22.05.46.05.71.03l2.72-3.87.02 3.87h.75V40.2h-.77l-2.71 3.84V40.2l-.73.06Zm10.44 3.89h2.44l.4 1.01c.3.02.54.02.82 0l-1.97-4.95h-.94l-1.97 4.96.81.02.4-1.03Zm8.39.37v-4.26c.14-.09-.89-.09-.73 0v4.27h-2.66v-4.27s-.02-.04-.04-.07h-.68v4.99h4.04l.02.92h.64v-1.56l-.58-.02Zm1.33-4.26v4.87c.22.05.45.05.72.04l2.74-3.89.02 3.88h.74v-4.97h-.77l-2.71 3.81v-3.75c.13-.09-.88-.09-.74 0Zm8.82 4.87v-4.87c-.69-.12-1.45-.06-2.2-.05-.86.01-1.45.65-1.47 1.48-.02.77.45 1.37 1.22 1.5l-1.25 1.97h.85l1.19-1.9h.93v1.92l.72-.04Z" style="fill:#fbfbfb"/><path d="M0 43.24V20.76l18.19-14.1 18.18 14.15v31.56l-11.65-9.12H0Zm3.79-20.59s-.08.1-.08.17c.06 5.57-.07 11.12.07 16.64 7.36.14 14.8 0 22.21.07.09 0 .06-.03.06-.05l6.54 5.07.07-.04V22.83c0-.1-.03-.14-.07-.17l-14.4-11.18z" style="fill:#565656"/><path d="M144.83 24.38s.03.02.07.05h3.2s.15.05.16.06c-1.04 1.27-3.15 3.81-4.14 5 .38.96.98 1.49 1.54 2.23l2.77 3.66 2.49-3.68 1.26-1.89-3.57-5.37 3.33-.02 2.2 3.43 2.18-3.46c1.01.07 2.12.03 3.15.04.05 0 .16.05.17.06l-3.55 5.31 1.26 1.89 2.61 3.9-3.38.02-2.44-3.75-2.44 3.75h-6.64l-2.66-3.82-.28-.43-.3.4-.45.6-.05 3.21-2.77-.05V24.43l2.77-.05.06 4.56 3.44-4.56ZM134.06 24.38l.06.04h3.2l-3.68 5.3 1.32 1.97 2.67 3.91h-3.42l-2.39-3.88-.44-.79h-.6l-.06 4.65-.06-.05h-2.72v-4.5l-.06-.1h-.61l-.45.77-2.4 3.9h-3.41l2.65-3.89 1.29-2.04c-.89-1.27-2.77-3.95-3.62-5.19 0 0 .12-.06.18-.06h3.09l2.66 4.22c.2.02.37.02.6.02v-4.3h2.89v4.31l.57.01 2.71-4.29ZM70.77 33.52H65.6l-.81 2.09h-2.08l1.52-3.93 2.75-7.03h2.39l2.78 7.09 1.5 3.86h-2.09l-.8-2.08Zm-.53-1.71-2.06-5.53-2.06 5.55zM76.76 29.08h5.76l.06-.1V24.7h1.78v10.82h-1.78V30.9c0-.05-.05-.09-.06-.09h-5.76l-.07.1v4.61h-1.72l-.05.06s-.07 0-.07-.1c.06-3.53-.08-7.29.07-10.83l.05.05 1.72.02v4.27c0 .07.05.1.07.1ZM94.19 26.3l-.06-.05H88.8l-.11.06-.02 2.84h5.45v1.68h-5.45v3.09h5.55c.01.55.05 1.11-.04 1.64l-.06-.05h-7.25l-.06.05-.06-10.93h7.49c0 .58.04 1.13-.05 1.66ZM103.86 35.57l-.06-9.26s-.05-.04-.12-.06h-3.63s-.08.05-.08.06l-.24 2.51c-.11 1.21-.27 2.24-.53 3.38-.18.76-.43 1.5-.83 2.16-.65 1.08-1.58 1.46-2.86 1.44v-1.88c1.13.05 1.67-1.05 1.92-1.95.31-1.13.46-2.26.57-3.43l.3-3.51.05.18.02-.51h7.27v10.82c-.61.02-1.21-.04-1.77.05ZM113.29 35.58l-5.17-.07V24.7c.61-.02 1.21.05 1.77-.06.15 1.31.01 2.66.07 4.07l3.11.02c.82 0 1.61.31 2.22.84.72.63 1.07 1.5 1.1 2.45.07 1.96-1.21 3.39-3.11 3.56Zm1.13-3.58c-.04-.93-.75-1.5-1.64-1.59h-2.83v3.52l2.82-.02c1.03 0 1.76-.88 1.64-1.91ZM60.03 31.47s-.06-.05-.09-.05H57.1l-.06.06v4c0 .06-.05.11-.07.1l-.05-.06H55.2V24.77l-.06-.07s.04-.06.09-.06h4.78c.82 0 1.53.23 2.16.69 1.64 1.19 1.75 3.85.27 5.23-.66.62-1.53.91-2.41.91m-2.99-5.15v3.48l.04.07h2.85l-.12-.07c.5 0 1.02-.26 1.34-.66.51-.64.5-1.6-.06-2.22-.32-.35-.85-.61-1.32-.61l.04-.05h-2.72zM53.37 24.7l-.06.05v1.49c-1.86.05-3.69-.06-5.5.07-.13 3.04 0 6.11-.07 9.21h-1.77V24.77l-.06-.06 7.43-.06.02.06ZM79.98 45.12l.05-.06V40.3l-.06-.06c0-.03.07-.06.1-.07.26 0 .49-.01.68.07l-.07.05c.06.69-.07 1.36.08 1.98h.87c.15-1.22 1.07-2.08 2.29-2.17 1.03-.07 2 .42 2.44 1.37.36.77.35 1.67-.02 2.44-.43.89-1.33 1.36-2.3 1.33-1.32-.04-2.31-.98-2.42-2.31h-.84v2.21c-.29.01-.54.02-.78-.04Zm5.55-1.3c.43-.73.43-1.66-.06-2.35-.62-.89-2.01-.94-2.69-.07-.58.74-.56 1.82-.03 2.55.35.48.89.67 1.46.64.49-.03 1.02-.26 1.31-.77ZM88.25 40.25l-.06.05v4.16l.06.04h1.9v-4.32h.74v4.32h1.89l.07-.04V40.3l-.06-.05c-.15-.09.88-.09.72 0l-.07.06.07 4.21c.16.07.35.06.56.06v1.45c-.25-.01-.42-.02-.55.04-.07-.27-.05-.56-.06-.89l-5.93-.05.05-.06v-4.76l-.06-.06c-.15-.09.87-.09.72 0ZM68.32 42.6c.56.14.92.64.93 1.25 0 .71-.52 1.3-1.26 1.3h-2.57v-4.97h2.51c.78.06 1.33.67 1.22 1.44-.05.45-.32.79-.82.97Zm-.6-.31c.46 0 .7-.42.66-.79s-.32-.65-.74-.65h-1.48v1.46zm.1 2.2c.48 0 .7-.49.65-.88s-.4-.65-.83-.65h-1.48v1.55zM130.19 45.12l.05-.06V40.3l-.06-.06.72-.06v3.84l2.72-3.84h.77v4.97h-.75l-.02-3.88-2.72 3.87c-.26.02-.49.03-.7-.03ZM77.18 43.23l-1.19 1.93h-.86l1.26-1.98c-.74-.11-1.21-.67-1.22-1.36-.07-.86.51-1.52 1.37-1.62h2.31v4.96l-.74.02v-1.91l-.93-.03Zm.93-.64v-1.75h-1.24c-.54 0-.93.36-.93.87 0 .47.36.88.88.88h1.3ZM111.25 42.68c0 1.42-1.15 2.56-2.57 2.56s-2.57-1.15-2.57-2.56 1.15-2.56 2.57-2.56 2.57 1.15 2.57 2.56m-1.18 1.2c.47-.72.46-1.67.02-2.37-.31-.49-.85-.73-1.38-.73s-1.07.2-1.39.67c-.49.71-.5 1.68-.04 2.41.31.49.84.73 1.38.73s1.08-.2 1.42-.71ZM101.68 43.23l-1.19 1.93h-.86l1.26-1.98c-.76-.13-1.23-.7-1.22-1.44-.04-.87.6-1.51 1.47-1.55h2.22v4.96l-.74.02v-1.92l-.93-.02Zm.92-.64v-1.75h-1.25c-.54 0-.93.36-.93.87 0 .47.34.88.87.88zM151.06 40.25l-.06.05v3.67l.07.03 2.71-3.81h.77v4.97h-.74l-.02-3.9-2.74 3.89c-.27.01-.5.01-.71-.04l.04-.06v-4.76l-.06-.05c-.14-.09.87-.09.72 0ZM159.17 40.25l-.06.05v4.76l.04.06-.72.04v-1.92h-.94l-1.19 1.92h-.85l1.25-1.98c-.78-.12-1.24-.73-1.22-1.5.02-.83.61-1.47 1.47-1.48.75-.01 1.5-.07 2.21.05Zm-.74 2.34v-1.74h-1.27c-.53 0-.91.37-.91.87 0 .46.35.87.86.87zM125.57 42.29c0 .13 2.47.03 2.72 0l.02-2.09h.74v4.96h-.74v-2.22h-2.76v2.22h-.74V40.2c.26-.01.46-.02.74.03 0 .5 0 1.55.03 2.06ZM145.62 40.25l-.07.06.07 4.21c.87.09 1.79.09 2.67 0l.07-4.21-.07-.06c-.16-.09.87-.09.72 0l-.06.05v4.16l.06.04.58.02v1.56h-.64l-.02-.92h-4.04v-4.97h.68s.05.04.05.05ZM71.66 40.84c-.18 1.18-.11 4.64-2 4.4v-.71c.34 0 .54-.18.73-.45.21-.47.31-.96.41-1.48l.22-2.42h3.22v4.98h-.75v-4.32h-1.82ZM63.59 44.13s-.08-.06-.1-.06l-2.34.06-.41 1.03-.81-.02 1.97-4.95h.94l1.97 4.95c-.28.02-.51.02-.82 0l-.39-1.02Zm-.23-.65-1.01-2.61-.99 2.6h2ZM143.06 44.13s-.08-.06-.12-.06l-2.32.07-.4 1.03-.81-.02 1.97-4.97h.94l1.97 4.96c-.28.02-.52.02-.82 0l-.4-1.02Zm-.22-.66-1-2.61-1 2.61zM98.02 44.14s-.07-.07-.1-.07l-2.34.06-.41 1.04-.81-.02 1.97-4.95h.94l1.97 4.95c-.28.02-.52.02-.82 0l-.39-1.01Zm-.23-.67-1.01-2.6-.99 2.6h1.99ZM122.96 44.13s-.08-.06-.11-.06l-2.33.07-.39 1.03h-.82l1.97-4.98h.94l1.97 4.96c-.28.02-.53.02-.82 0l-.41-1.01Zm-.21-.66-1-2.63-1 2.64h2.01ZM58.84 43.23l-1.55.02v1.91h-.75v-4.97h2.21c.84 0 1.47.65 1.47 1.49.03.8-.54 1.53-1.38 1.54Zm-.27-.64c.57 0 .91-.43.89-.92s-.41-.83-.93-.83h-1.25v1.75h1.28ZM55.43 40.25l-.06.05v4.76l.04.06c-.22.06-.48.06-.7 0l.05-.06v-4.11l-.06-.1h-2.77v4.3c-.27.01-.5.02-.71-.03l.05-.06V40.3l-.06-.06c0-.09 4-.1 4.22 0ZM114.32 43.23l-1.47.02v1.91l-.75-.02v-4.96h2.24c.8 0 1.37.61 1.44 1.38.08.87-.53 1.64-1.46 1.66Zm-.22-.64c.55 0 .92-.39.92-.88s-.37-.87-.89-.87h-1.28v1.75zM137.74 44.45c.37-.15.53-.5.47-.85-.12-.82-1.48-.62-2.08-.66v-.65c.59-.03 1.92.16 2.01-.68a.7.7 0 0 0-.43-.7c-.71-.29-1.5-.13-2.08.41-.16-.15-.28-.28-.41-.46.76-.81 2.03-.99 3.02-.48.56.28.81.93.58 1.49-.17.4-.54.58-.93.72.56.11.98.49 1.07.96.11.55-.13 1.06-.61 1.36-.93.57-2.5.42-3.2-.47l.41-.47c.59.57 1.43.78 2.2.48ZM48.58 44.35c-.39.8-1.19 1.1-2 .78l.2-.6c.25.05.53.11.74-.03s.37-.39.47-.65l-2.05-3.65h.86l1.6 2.99 1.33-2.99h.84z" class="uuid-ee9cea9e-aa50-413c-93d9-ef11604d7b3f"/><path d="M117.3 40.86s-.06.04-.06.07v4.12c.03.05.04.08.04.08-.22.06-.48.06-.7 0l.04-.06v-4.76l-.06-.05 3.33-.07c.02.25.03.44-.04.67l-2.55.02Z" style="fill:#212121"/><path d="M103.86 35.57c.56-.09 1.16-.04 1.77-.05V24.7h-7.27l-.02.51-.05-.18.02-.39h7.43v10.94h-1.88Z" style="fill:#0c0c0c"/><path d="M82.52 30.81s.06.04.06.09v4.62h1.78V24.7h-1.78v4.28l-.06.11v-4.44h1.9v10.93h-1.89v-4.77ZM47.82 26.31v9.27h-1.89V24.71l.06.06v10.75h1.77c.06-3.11-.07-6.17.07-9.21Z"/><path d="M109.9 24.64c-.56.11-1.16.03-1.77.06v10.81l5.16.07h-5.22V24.65h1.83Z" style="fill:#0a0a0a"/><path d="m141.34 24.38-2.78.05v11.09l2.77.05-2.82.01V24.37z" class="uuid-d86b4d2c-b7bc-47f3-9dda-84d7629f05a4"/><path d="M56.98 35.58c-.44-.09-1.31.19-1.83-.11V24.7l.05.07v10.75h1.72l.05.06Z" class="uuid-6f9057bb-5eaf-4426-aba7-73913490c469"/><path d="m130.73 35.57-2.83.01-.01-4.66.07.1-.01 4.5h2.72z" class="uuid-a9b760da-c29e-4d70-b3f7-74c75273a027"/><path d="M94.18 35.57h-7.37l.06-.05h7.25z" class="uuid-6f9057bb-5eaf-4426-aba7-73913490c469"/><path d="M47.82 26.31c1.8-.13 3.63-.01 5.5-.07v-1.49l.06-.05v1.61z" class="uuid-d86b4d2c-b7bc-47f3-9dda-84d7629f05a4"/><path d="m74.92 35.58.06-.06h1.72l-.01-4.61.07-.1-.01 4.77z" class="uuid-6f9057bb-5eaf-4426-aba7-73913490c469"/><path d="M76.76 29.08s-.07-.04-.07-.1v-4.27l-1.72-.02-.05-.05h1.82l.01 4.44ZM94.19 26.3l-5.5.02.11-.07h5.32z" class="uuid-5b267d5a-e31e-4109-a8b3-d0fa457fa7bd"/><path d="m87.54 45.12-.02-4.87.06.05v4.76z"/><path d="m116.58 45.12-.01-4.87.06.05v4.76z" class="uuid-a9b760da-c29e-4d70-b3f7-74c75273a027"/><path d="m130.19 45.12-.01-4.87.05.06v4.75z" class="uuid-41fe5e88-b020-44ad-a692-2ff22d470ea2"/><path d="m150.35 45.12-.01-4.87.05.05v4.76z" style="fill:#060606"/><path d="m55.41 45.12-.04-.06V40.3l.06-.05z" class="uuid-a9b760da-c29e-4d70-b3f7-74c75273a027"/><path d="m159.16 45.12-.05-.06V40.3l.06-.05z"/><path d="m51.21 45.12-.01-4.87.06.06v4.75z" style="fill:#070707"/><path d="m79.98 45.12-.01-4.87.06.05v4.76z"/><path d="m93.52 44.52-.06-4.21.06-.06z" class="uuid-41fe5e88-b020-44ad-a692-2ff22d470ea2"/><path d="M117.28 45.12s-.01-.02-.05-.08v-4.12s.05-.07.07-.07l-.02 4.26ZM54.71 45.12l-.01-4.26.06.1v4.1z" class="uuid-a9b760da-c29e-4d70-b3f7-74c75273a027"/><path d="m88.25 44.51-.06-.05V40.3l.06-.05zM92.79 44.51l.01-4.26.06.05v4.17z"/><path d="m145.62 44.52-.07-4.21.07-.06zM148.28 44.52v-4.27l.07.06z" class="uuid-41fe5e88-b020-44ad-a692-2ff22d470ea2"/><path d="m149.01 44.51-.06-.04V40.3l.05-.05zM103.79 26.32h-3.83s.05-.06.08-.06h3.63q.105.045.12.06M151.07 44l-.07-.03V40.3l.06-.05zM148.27 24.48s-.12-.06-.16-.06h-3.2s-.08-.05-.07-.05h3.5s-.05.09-.07.11M159.65 24.48s-.12-.06-.17-.06c-1.03-.01-2.14.03-3.15-.04l3.39-.02zM124.63 24.42h-3.09c-.06 0-.17.04-.18.05-.02-.02-.04-.07-.07-.11h3.27l.06.06ZM151.95 24.42l-3.33.02c1.04-.12 2.21-.09 3.33-.02M137.33 24.43l-3.21-.01-.06-.04 3.23-.02zM60.03 31.47h-2.99s.03-.02.06-.06h2.84s.12.06.09.06M128.29 42.29c-.25.04-2.71.13-2.72 0zM148.28 44.52c-.87.09-1.79.09-2.67 0zM93.53 46.06c.13-.06.3-.05.55-.04v-1.45c-.21 0-.4 0-.55-.06h.61v1.56h-.61ZM98.02 44.14h-2.44l2.34-.07c.03 0 .09.04.1.07M122.96 44.13h-2.44l2.33-.06c.03 0 .1.04.11.06M143.06 44.13h-2.44l2.32-.06c.05 0 .11.04.12.06M63.59 44.13h-2.44l2.34-.06c.03 0 .09.04.1.06M80.76 42.28c-.15-.62-.02-1.29-.08-1.98l.07-.05v2.03Z"/><path d="M32.58 22.65v21.9l-6.54-5.07H3.78l.02-16.83 14.4-11.18 14.4 11.18Zm-19.17 6.19c0-1.09-.88-1.97-1.97-1.97s-1.97.88-1.97 1.97.88 1.97 1.97 1.97 1.97-.88 1.97-1.97m6.75 0c0-1.09-.88-1.97-1.97-1.97s-1.97.88-1.97 1.97.88 1.97 1.97 1.97 1.97-.88 1.97-1.97m6.75 0c0-1.09-.88-1.97-1.97-1.97s-1.97.88-1.97 1.97.88 1.97 1.97 1.97 1.97-.88 1.97-1.97" class="uuid-4b816437-cdc5-4e3b-9951-5b3bc11ab7db"/><path d="M26.05 39.48s.03.06-.06.05c-7.41-.06-14.85.07-22.21-.07h22.27Z" style="fill:#404040"/><path d="M32.58 44.55v-21.9s.07.07.07.17V44.5l-.07.04ZM3.78 39.47c-.14-5.52 0-11.07-.07-16.64 0-.07.05-.17.08-.17l-.02 16.82Z" class="uuid-ffc1de06-5ea8-43b1-a876-439268c1c6b0"/><path d="m70.24 31.81-4.12.02 2.06-5.55zM114.42 32c.12 1.02-.61 1.9-1.64 1.91l-2.82.02V30.4h2.83c.88.09 1.59.66 1.64 1.59ZM59.77 26.31c.47 0 1 .26 1.32.61.56.61.57 1.57.06 2.22-.32.4-.84.66-1.34.66h-2.77v-3.48h2.73Z" class="uuid-4b816437-cdc5-4e3b-9951-5b3bc11ab7db"/><path d="m59.81 29.8.12.06-2.84.01-.05-.07zM59.77 26.31l-2.73.01.05-.07 2.72.01z"/><path d="M85.53 43.82c-.3.5-.82.74-1.31.77-.57.03-1.11-.16-1.46-.64-.54-.74-.55-1.82.03-2.55.68-.86 2.07-.82 2.69.07.49.69.49 1.62.06 2.35ZM67.82 44.49l-1.66.02v-1.56h1.48c.43 0 .78.26.83.65s-.17.88-.65.88ZM67.72 42.29l-1.56.02v-1.46h1.48c.41 0 .7.28.74.65s-.21.79-.66.79M78.11 42.59h-1.3c-.52 0-.88-.41-.88-.88 0-.51.39-.87.93-.87h1.24v1.74ZM110.07 43.88c-.33.51-.88.72-1.42.71s-1.06-.24-1.38-.73c-.46-.73-.45-1.7.04-2.41.32-.47.85-.67 1.39-.67s1.07.24 1.38.73c.45.7.46 1.64-.02 2.37ZM102.6 42.59h-1.31c-.53 0-.87-.4-.87-.88 0-.51.38-.87.93-.87h1.24v1.74ZM158.43 42.59h-1.32c-.51 0-.86-.42-.86-.87 0-.5.38-.87.91-.87h1.26v1.74ZM63.36 43.48l-1.99-.01.99-2.6zM142.84 43.47h-1.99l.99-2.6zM97.79 43.47H95.8l.98-2.6zM122.75 43.47h-2l1-2.63zM58.57 42.59h-1.28v-1.74h1.25c.52 0 .9.33.93.83s-.33.92-.89.92ZM114.1 42.59h-1.25v-1.75h1.28c.53 0 .89.38.89.87s-.37.87-.92.88" class="uuid-4b816437-cdc5-4e3b-9951-5b3bc11ab7db"/><circle cx="18.19" cy="28.84" r="1.97" class="uuid-ee9cea9e-aa50-413c-93d9-ef11604d7b3f"/><circle cx="24.94" cy="28.84" r="1.97" class="uuid-ee9cea9e-aa50-413c-93d9-ef11604d7b3f"/><circle cx="11.44" cy="28.84" r="1.97" class="uuid-ee9cea9e-aa50-413c-93d9-ef11604d7b3f"/></svg>