<svg xmlns="http://www.w3.org/2000/svg" id="a" viewBox="0 0 160 160"><defs><style>.b{fill:#fff}</style></defs><path d="M0 160V0h160v160zM111.02 49.03v35.86h3.31l-.03-39.08H45.77v39.1l3.2-.02V49.04h62.05Zm-50.76 62.05H48.97V88.23l-3.2.02v26.06h14.51v-3.25Zm50.76-22.86v26.11h3.3V88.22zm-37.79 21.36c-1.13 1.95-3.29 2.47-5.27 1.83-1.45-.47-2.52-1.57-2.7-3.16h11.77c.32-2.44-.33-4.75-1.86-6.44s-3.82-2.43-6.18-2.33c-4.3.19-7.2 3.51-7.1 7.71s2.92 7.21 7.11 7.46c3.43.2 6.62-1.52 7.68-5.04l-3.46-.03Zm31.56.02c-.86 1.57-2.39 2.15-4 2.05-1.95-.12-3.74-1.38-3.9-3.4h11.73c.34-2.32-.27-4.64-1.74-6.32-3.01-3.42-9.05-3.23-11.8.27-1.41 1.79-1.77 4.05-1.44 6.26.54 3.57 3.29 5.9 6.83 6.18s6.85-1.58 7.83-5.06l-3.5.02Zm-15.36-9.79-4.09 10.98-4.08-10.99-3.54.04 5.46 14.47h4.33l5.47-14.49h-3.56Z" class="b"/><path d="M111.02 49.03H48.97l-.01 35.85-3.2.02.01-39.09h68.53l.02 39.08h-3.3zM73.23 109.58l3.46.03c-1.07 3.53-4.26 5.25-7.68 5.04-4.18-.25-7.01-3.32-7.11-7.46s2.8-7.53 7.1-7.71c2.36-.1 4.61.61 6.18 2.33s2.18 4 1.86 6.43H65.27c.17 1.6 1.25 2.7 2.7 3.17 1.98.65 4.14.12 5.27-1.83Zm.42-4.29c-.62-2.03-2.36-2.78-4.14-2.77s-3.63.98-4.05 2.79l8.19-.03ZM104.79 109.6l3.5-.02c-.98 3.48-4.28 5.35-7.83 5.06s-6.29-2.62-6.83-6.18c-.33-2.21.03-4.48 1.44-6.26 2.76-3.5 8.8-3.69 11.8-.27 1.47 1.68 2.09 4 1.74 6.31H96.88c.17 2.03 1.95 3.28 3.9 3.41 1.61.1 3.14-.48 4-2.05Zm.46-4.31c-.64-2.02-2.33-2.75-4.1-2.77-1.83.03-3.55.91-4.15 2.79zM60.26 111.08l.01 3.25-14.51-.01V88.26l3.2-.02.01 22.83zM89.43 99.81l3.56.01-5.47 14.5h-4.33l-5.47-14.47 3.54-.05 4.08 10.99zM111.02 114.32V88.21h3.3v26.11z"/><path d="m73.65 105.29-8.19.03c.42-1.82 2.24-2.78 4.05-2.79s3.52.74 4.14 2.77ZM105.25 105.29l-8.25.02c.6-1.89 2.32-2.76 4.15-2.79 1.77.03 3.45.75 4.1 2.77" class="b"/></svg>