<svg xmlns="http://www.w3.org/2000/svg" id="uuid-e2ec2ee4-4fbb-4932-867d-c0483d97567a" viewBox="0 0 160 160"><defs><style>.uuid-1f1c2ef7-b40b-4268-bc7c-4ba8b826de13{fill:#fefefe}.uuid-563fe2f0-6c16-4cc7-9ad0-f2a89bfb6bcd{fill:#595959}</style></defs><path d="M0 160V0h160v160zM110.97 49.07v35.91l3.36-.02V45.77H45.72v39.17h3.3V49.07h61.96Zm-50.69 61.99H49.02V88.18l-3.3.03v26.12H60.3zm50.69-22.88v26.16h3.36V88.18zm-37.76 21.35c-.83 1.6-2.4 2.22-4.05 2.09-1.91-.14-3.62-1.35-3.86-3.34l11.79-.02c.2-1.77-.04-3.45-.84-4.97-1.49-2.82-4.5-4.15-7.65-3.81-2.57.28-4.88 1.65-5.97 4.05s-.99 5.15.24 7.45c1.29 2.42 3.77 3.6 6.46 3.71 3.42.13 6.43-1.8 7.41-5.12l-3.52-.03Zm31.62.01c-1.07 1.89-3.25 2.5-5.21 1.86-1.45-.47-2.57-1.55-2.71-3.13h11.74c.38-2.42-.32-4.84-1.92-6.55s-3.95-2.43-6.34-2.26c-4.2.3-7.02 3.59-6.92 7.73s3.06 7.32 7.34 7.5c3.43.14 6.56-1.72 7.52-5.16h-3.51Zm-12.41-8.24.56-1.41c-.11-.07-.47-.14-.68-.14l-2.88.04-4.06 10.93-4.07-10.93h-3.63l5.47 14.51h4.42l4.85-13Z" style="fill:#fdfdfd"/><path d="M110.97 49.07H49.02l-.01 35.87-3.3-.01.01-39.16h68.61v39.19l-3.35.02zM73.21 109.53l3.52.03c-.98 3.32-3.99 5.25-7.41 5.12-2.69-.1-5.17-1.29-6.46-3.71s-1.31-5.07-.24-7.45 3.4-3.77 5.97-4.05c3.16-.34 6.16 1 7.65 3.81.8 1.52 1.04 3.19.84 4.97l-11.79.02c.24 2 1.95 3.2 3.86 3.34 1.66.12 3.23-.49 4.05-2.09Zm.39-4.29c-.62-1.95-2.32-2.72-4.08-2.69s-3.44.82-4.07 2.68h8.14ZM104.83 109.54h3.51c-.96 3.43-4.09 5.29-7.52 5.15-4.28-.18-7.24-3.25-7.34-7.5s2.72-7.43 6.92-7.73c2.4-.17 4.72.53 6.34 2.26s2.3 4.13 1.92 6.54H96.92c.14 1.59 1.26 2.67 2.71 3.14 1.96.64 4.13.03 5.21-1.86Zm.37-4.31c-.55-1.81-2.14-2.64-3.86-2.69-1.89-.05-3.67.86-4.3 2.7h8.16ZM60.28 111.06l.01 3.27H45.7l.01-26.12 3.3-.03.01 22.87zM92.98 99.89l-1.04.08c.02.54.12 1.03.47 1.32l-4.85 13h-4.42l-5.47-14.53h3.63l4.07 10.94 4.06-10.93 2.88-.04c.21 0 .57.07.68.14ZM110.977 114.347l.005-26.16 3.36.001-.005 26.16z" class="uuid-563fe2f0-6c16-4cc7-9ad0-f2a89bfb6bcd"/><path d="m92.98 99.89-.56 1.41c-.35-.29-.45-.79-.47-1.32l1.04-.08Z" style="fill:#464646"/><path d="M73.6 105.24h-8.14c.63-1.86 2.29-2.65 4.07-2.69s3.46.73 4.08 2.69ZM105.2 105.23h-8.16c.63-1.83 2.41-2.74 4.3-2.69 1.71.05 3.3.88 3.86 2.69" class="uuid-1f1c2ef7-b40b-4268-bc7c-4ba8b826de13"/></svg>