<svg xmlns="http://www.w3.org/2000/svg" id="uuid-21f180b3-e06e-4826-b679-37ae11890fd8" data-name="Слой 1" viewBox="0 0 160 126.72"><defs><style>.uuid-fffe39dd-58b0-4d7b-8950-ecbb758fb04b{fill:#858689}.uuid-6a0c6c85-0b43-4451-b619-9d80cc700850{fill:#87888b}.uuid-aba625df-81ea-4a71-a2a2-5bd44bd12b72{fill:#fcfcfc}.uuid-9c2c814c-866f-4348-8e1c-a9d54d528f7e{fill:#868789}.uuid-c749eff3-b2c1-481b-b2d1-887b45078e63{fill:#fbfbfb}.uuid-6851dbf5-8f7e-48af-b0ac-b95b8e15423e{fill:#e88e48}.uuid-b298d3f8-1da5-4cfb-96a9-da85a2aa38ea{fill:#848588}.uuid-7483b923-5253-4205-96c3-2ad67c0d0d5e{fill:#1f4788}.uuid-781ec8d9-34e9-41f3-b305-7ad3a0c8708b{fill:#174084}.uuid-6f5a594c-2a79-44bb-9836-9d251faed6f0{fill:#fcfcfd}.uuid-90d14536-ae52-40b4-bf1c-e2da4a8d455f{fill:#fdfdfe}.uuid-d0dd3ea8-4609-47b1-88db-4e994a8a5299{fill:#fbfbfc}.uuid-cccce35e-60ff-4a62-b5d3-69dc5b67af81{fill:#f6f6f7}.uuid-f3cef211-ebfd-4efb-8945-57a06ee1b8f9{fill:#fcfdfd}</style></defs><path d="M74.84 0c-3.22.89-3.09 5.25-2.26 7.94.27.87.4 1.8.31 2.67-.57 1.17-.74 2.32-.81 3.62-3.74.38-7.25 1.01-10.81 1.96l-7.9-9.1c-1.5-1.73-3.05-3.25-4.66-4.84-1.48-1.23-3.68-2.63-5.43-1.4-.62.44-1.08 1.33-1.13 2.26-.16 3.02.8 5.94 2.25 8.6.32.59.56 1.19.45 1.87-.31 1.99.16 4.01 1.53 5.49 1.2 1.29.06 1.18.67 3.33-3.88 2.51-7.27 5.62-9.86 9.44-6.16 9.06-4.04 19.7 3.07 27.45 3.61 3.93 7.96 6.91 12.82 9.15 11.48 5.32 25.29 6.42 37.72 4.68 9.42-1.32 19.61-5.13 26.79-11.45 8.41-7.41 11.63-18.03 5.74-28.18-1.89-3.25-4.38-5.92-7.29-8.29-8.55-6.95-20.88-10.56-31.86-11.23-1.81-4.16-3.51-8.29-6.15-11.99-.72-.93-1.54-1.56-2.56-1.98H160v126.72h-59.53v-5.27c-.38-.03-.86-.03-1.16.06l-4.04 4.67-.07-4.54c0-.09-.2-.25-.28-.26s-.3.17-.3.26v5.09h-1.45v-5.24c-.31-.08-.92-.1-1.2.03l-4.04 4.65-.07-4.53c0-.09-.22-.25-.3-.26s-.3.17-.3.27v5.08h-1.49v-4.98c0-.08-.06-.26-.09-.32-.04-.09-.44.06-.44.15l-.04 2.14h-4.63l-.02-2.18c0-.14-.54-.13-.54.05v5.13h-.84l-2.63-5.19c-.25-.13-.72-.13-1-.03l-2.63 5.21h-.84v-5.31h-5.84v5.31h-1.51v-5.23c-.4-.09-.98-.11-1.3.06l-2.57 4.31-2.65-4.4-1.21-.03v5.29H55.1c.43-.46.76-1.01.74-1.7l-.06-2.32c-.02-.72-.62-1.34-1.36-1.34H51.1c-.83 0-1.47.62-1.48 1.44l-.02 2.37c0 .67.38 1.2.87 1.55H48.6c-.03-.06-.21-.3-.31-.37l-3.28-2.38 3.54-2.46c-.3-.09-.82-.14-1.01 0l-2.7 1.85c-.37.25-.87.43-1.32.27l-.05-2.05c0-.14-.55-.16-.55-.02v5.18h-3.93l-2.63-5.16c-.17-.18-.77-.17-1.01-.05l-2.63 5.21h-.86v-5.31h-5.81v5.31h-1.5v-5.31h-5.83v5.31h-4.26c.09-.1.5-.38.6-.55l2.8-4.6c-.05-.18-.61-.17-.7-.01l-2.1 3.51-2.16-3.37c-.17-.26-.52-.36-.79-.14l2.37 3.64c.09.14.16.56.06.66-.48.46-.92.23-.94.4l-.05.47H6.32l.02-2.17 3.61-.03c.92 0 1.3-.75 1.26-1.55-.04-.94-.59-1.55-1.57-1.55h-3.9v5.3H.57v-4.71l3.8-.01c.15 0 .19-.46.08-.57H0v-10.64l5.69.03.09-15.18 8.4 15.16h5.62l8.48-15.27.04 15.28h5.69V89.79h-8.22L17 105.22 8.51 89.79l-8.5-.08V0h74.84Zm31.15 107.22 1.89 3.59 6.58-.02-11.28-21.03h-8.35l-11.29 21.03h6.54l1.97-3.59zm-47.27.56c.75-2.37.7-6.89.14-9.31-.7-3.01-3.61-3.53-6.37-3.53h-8.9c-1.14 0-2.26.18-3.34.45-1.67.42-2.81 1.72-3.12 3.46-.49 2.74-.5 5.6.05 8.32.63 3.07 3.6 3.82 6.32 3.82h9.21c2.45 0 5.18-.61 6.01-3.22Zm65.77 3.1c2.62.08 5.13.07 7.7.01 3.07-.07 4.87-1.87 5.05-4.9.13-2.24.16-4.44 0-6.67-.17-2.36-1.94-4.08-4.32-4.25-2.93-.21-5.88-.17-8.81-.03-1.64.08-2.59 1.12-3.27 2.53l-.05-2.44-5.04.05v22.28l5.13-.02.05-9.07c.86 1.55 1.86 2.46 3.57 2.51Zm-41.96-.1V95.11h-5.18v5.83H66.42v-5.83l-5.15-.01v15.69l5.13.01.04-6.26h10.91l.02 6.26 5.17-.03Zm77.33-.05-7.51-8.5 5.9-7.07-5.9-.02-3.76 4.28-3.59-4.28-5.92.06 5.92 7.19-7.43 8.39 6.21.02 5.01-5.56 4.85 5.54 6.22-.06Zm-60.58 9.34c-.09-.05-.43-.13-.51-.03l-.35.43c-2.18 1.16-2.31-.87-2.83-.44-.2.48.32 1.09.83 1.16 1.08.15 2.71.28 2.85-1.11Z" class="uuid-90d14536-ae52-40b4-bf1c-e2da4a8d455f"/><path d="M31.32 126.72h-4.67l.01-4.72h4.65z" class="uuid-90d14536-ae52-40b4-bf1c-e2da4a8d455f"/><path d="M24 126.72h-4.65l.02-4.73 4.62.01zM71.5 126.72h-4.65l.02-4.73 4.62.01z" class="uuid-d0dd3ea8-4609-47b1-88db-4e994a8a5299"/><path d="M64.75 126.72h-.62c0-1.62.07-3.2-.12-4.95l-2.91 4.95h-.48c-.86-1.68-1.78-3.26-2.95-4.98l-.08 4.98h-.57v-5.29l1.21.03 2.65 4.4 2.57-4.31c.32-.17.9-.15 1.3-.06z" class="uuid-6a0c6c85-0b43-4451-b619-9d80cc700850"/><path d="M55.14 126.72h-4.61c-.5-.34-.88-.88-.87-1.55l.02-2.37c0-.82.65-1.44 1.48-1.44h3.32c.74 0 1.34.61 1.36 1.34l.06 2.32c.02.69-.32 1.24-.74 1.7Zm-.64-.56c.3 0 .77-.53.77-.81v-2.57c0-.38-.49-.84-.87-.84h-3c-.72-.01-1.16.48-1.16 1.18v1.91c0 .54.39 1.14 1 1.13z" class="uuid-b298d3f8-1da5-4cfb-96a9-da85a2aa38ea"/><path d="M93.18 126.72h-.61l-.07-4.87-4.2 4.87h-1.02v-5.08c0-.1.22-.27.3-.27s.3.17.3.26l.07 4.53 4.04-4.65c.28-.13.89-.1 1.2-.03v5.24Z" class="uuid-6a0c6c85-0b43-4451-b619-9d80cc700850"/><path d="M100.47 126.72h-.56l-.06-4.88-4.24 4.88h-1v-5.09c0-.09.22-.27.3-.26s.28.17.28.26l.07 4.54 4.04-4.67c.29-.08.78-.09 1.15-.06v5.27Z" class="uuid-b298d3f8-1da5-4cfb-96a9-da85a2aa38ea"/><path d="M85.26 126.72H80.6l.01-2.48h4.62z" style="fill:#fafafa"/><path d="M99.92 126.72h-4.3l4.24-4.88z" class="uuid-aba625df-81ea-4a71-a2a2-5bd44bd12b72"/><path d="M24.6 126.72H24l-.01-4.72-4.62-.01-.02 4.73h-.59v-5.31h5.83zM72.1 126.72h-.6l-.01-4.72-4.62-.01-.02 4.73h-.59v-5.31h5.83z" class="uuid-fffe39dd-58b0-4d7b-8950-ecbb758fb04b"/><path d="M92.57 126.72H88.3l4.2-4.87z" class="uuid-d0dd3ea8-4609-47b1-88db-4e994a8a5299"/><path d="M39.04 126.72h-.72c-.13-.43-.41-.99-.76-1.32h-3.39c-.34.34-.61.89-.73 1.32h-.67l2.63-5.21c.24-.12.84-.12 1.01.05zm-1.68-1.96-1.5-2.84-1.49 2.88c1.14.05 1.85.05 2.99-.04" class="uuid-9c2c814c-866f-4348-8e1c-a9d54d528f7e"/><path d="M6.35 126.72h-.58v-5.31h3.91c.98 0 1.53.62 1.57 1.55.03.8-.35 1.54-1.26 1.55l-3.61.03-.02 2.17Zm3.85-2.87c.69-.13.57-1.72-.07-1.77-1.29-.11-2.41-.08-3.77-.08v1.98c1.33 0 2.51.12 3.84-.12Z" class="uuid-6a0c6c85-0b43-4451-b619-9d80cc700850"/><path d="M48.66 126.72h-1c-.95-.83-2.04-1.6-3.12-2.38-.21-.15-.81-.13-.99-.01v2.39h-.59v-5.18c0-.14.55-.12.56.02l.05 2.05c.45.16.95-.02 1.32-.27l2.7-1.85c.19-.13.71-.08 1.01 0l-3.54 2.46 3.28 2.38c.1.07.28.32.31.37ZM79.21 126.72h-.71c-.16-.41-.39-.89-.65-1.32h-3.52c-.31.37-.58.89-.72 1.32h-.66l2.63-5.21c.28-.1.75-.1 1 .03l2.63 5.19Zm-1.66-1.94-1.49-2.86-1.49 2.87c1.13.06 1.92.06 2.98 0Z" class="uuid-9c2c814c-866f-4348-8e1c-a9d54d528f7e"/><path d="M31.9 126.72h-.58l-.01-4.72h-4.65l-.01 4.72h-.56l.01-5.31h5.8z" style="fill:#8a8b8d"/><path d="M85.8 126.72h-.54l-.03-2.48h-4.62l-.01 2.48h-.56v-5.13c0-.18.54-.19.54-.05l.02 2.16h4.63l.04-2.13c0-.1.4-.24.44-.15.02.06.09.24.09.32z" style="fill:#808183"/><path d="M14.51 126.72h-.92l.05-.47c.02-.17.46.06.94-.4.1-.1.04-.52-.06-.66l-2.37-3.64c.27-.22.62-.11.79.14l2.16 3.37 2.1-3.51c.09-.15.65-.17.7.01l-2.8 4.6c-.1.17-.51.46-.6.55Z" class="uuid-9c2c814c-866f-4348-8e1c-a9d54d528f7e"/><path d="M60.63 126.72H57.6l.08-4.98a44 44 0 0 1 2.95 4.98M64.13 126.72H61.1l2.91-4.95c.19 1.75.11 3.33.12 4.95" class="uuid-c749eff3-b2c1-481b-b2d1-887b45078e63"/><path d="M47.66 126.72h-4.12v-2.39c.18-.12.79-.14 1 .01 1.08.79 2.18 1.55 3.12 2.38" class="uuid-d0dd3ea8-4609-47b1-88db-4e994a8a5299"/><path d="M.57 126.72H0v-5.31h4.45c.11.12.07.58-.08.58H.58v4.73Z" class="uuid-fffe39dd-58b0-4d7b-8950-ecbb758fb04b"/><path d="M78.49 126.72H73.6c.14-.43.41-.95.72-1.32h3.52c.26.44.5.92.65 1.32" class="uuid-f3cef211-ebfd-4efb-8945-57a06ee1b8f9"/><path d="M38.31 126.72h-4.88c.12-.44.39-.99.73-1.32h3.39c.34.33.63.89.76 1.32" class="uuid-6f5a594c-2a79-44bb-9836-9d251faed6f0"/><path d="M99.28 120.07c-.14 1.39-1.77 1.26-2.85 1.11-.51-.07-1.04-.68-.83-1.16.51-.43.65 1.6 2.83.44l.35-.43c.08-.1.42-.01.51.03Z" class="uuid-6a0c6c85-0b43-4451-b619-9d80cc700850"/><path d="M54.5 126.16h-3.26c-.61 0-1-.59-1-1.13v-1.91c0-.7.44-1.19 1.17-1.19h3c.38.01.86.47.86.85v2.57c0 .28-.46.81-.77.81" class="uuid-aba625df-81ea-4a71-a2a2-5bd44bd12b72"/><path d="M37.36 124.76c-1.14.09-1.85.08-2.99.04l1.49-2.88z" class="uuid-cccce35e-60ff-4a62-b5d3-69dc5b67af81"/><path d="M10.2 123.85c-1.33.24-2.5.12-3.83.12v-1.98c1.36 0 2.47-.03 3.77.08.64.05.76 1.65.07 1.77Z" class="uuid-c749eff3-b2c1-481b-b2d1-887b45078e63"/><path d="M77.55 124.78c-1.07.06-1.85.06-2.98 0l1.49-2.87 1.49 2.86Z" class="uuid-cccce35e-60ff-4a62-b5d3-69dc5b67af81"/><path d="m103.63 102.79-9.21.02 4.65-8.55z" style="fill:#fdfcfb"/><path d="M130.24 106.91h-7.27c-1.02 0-1.83-.72-1.96-1.71-.2-1.53-.18-3.09 0-4.63.11-.95.86-1.66 1.84-1.66h7.43c.9.01 1.69.68 1.8 1.56.2 1.6.19 3.2-.04 4.8-.12.86-.8 1.63-1.79 1.63Z" class="uuid-f3cef211-ebfd-4efb-8945-57a06ee1b8f9"/><path d="M124.49 110.88c-1.71-.05-2.7-.96-3.57-2.51l-.05 9.07-5.13.02V95.18l5.04-.05.05 2.44c.68-1.41 1.63-2.45 3.27-2.53 2.93-.15 5.88-.19 8.81.03 2.38.17 4.15 1.9 4.32 4.25.16 2.23.14 4.43 0 6.67-.18 3.03-1.98 4.82-5.05 4.9-2.57.06-5.08.07-7.7-.01Zm5.75-3.97c.99 0 1.66-.78 1.79-1.63.23-1.6.24-3.2.04-4.8-.11-.88-.9-1.55-1.8-1.55h-7.43c-.97-.01-1.73.7-1.84 1.64-.18 1.54-.19 3.1 0 4.63.13.99.95 1.72 1.96 1.71h7.27Z" style="fill:#184185"/><path d="m159.86 110.73-6.22.07-4.85-5.55-5.01 5.56-6.22-.02 7.44-8.39-5.93-7.2 5.93-.06 3.59 4.28 3.76-4.28 5.89.02-5.89 7.07z" style="fill:#174185"/><path d="M0 110.78V89.69l8.5.08 8.49 15.43 8.79-15.43 8.22-.01v21.04h-5.68l-.05-15.28-8.47 15.28-5.63-.01-8.39-15.16-.09 15.18z" class="uuid-781ec8d9-34e9-41f3-b305-7ad3a0c8708b"/><path d="m105.99 107.22-13.94-.02-1.97 3.6h-6.54l11.29-21.04h8.35l11.28 21.03-6.58.02zm-2.36-4.43-4.56-8.53-4.64 8.55 9.21-.02Z" style="fill:#e6883e"/><path d="M58.72 107.78c-.82 2.6-3.56 3.21-6.01 3.21H43.5c-2.72 0-5.7-.75-6.32-3.81-.55-2.72-.54-5.58-.05-8.32.31-1.74 1.45-3.04 3.12-3.46 1.08-.27 2.2-.45 3.34-.45h8.9c2.76 0 5.67.52 6.37 3.52.56 2.41.61 6.94-.14 9.31m-6.35-.79c.92 0 1.54-.79 1.62-1.58.16-1.63.15-3.26 0-4.88-.09-.97-.85-1.62-1.82-1.62h-8.24c-.97 0-1.72.73-1.82 1.65-.18 1.63-.18 3.23 0 4.85.1.91.86 1.6 1.81 1.59h8.44Z" style="fill:#174085"/><path d="m82.53 110.78-5.18.04-.02-6.26-10.9-.01-.04 6.26-5.14-.01.01-15.7 5.15.01.01 5.83h10.92v-5.83l5.18.01z" class="uuid-781ec8d9-34e9-41f3-b305-7ad3a0c8708b"/><path d="M52.37 106.99h-8.44c-.95.01-1.7-.67-1.81-1.58a21.3 21.3 0 0 1 0-4.85c.1-.91.84-1.64 1.82-1.64h8.24c.97 0 1.72.63 1.82 1.61.16 1.62.16 3.25 0 4.88-.08.79-.7 1.58-1.62 1.58Z" class="uuid-6f5a594c-2a79-44bb-9836-9d251faed6f0"/><path d="M94.28 33.43c.16.3.37.58.63.87l.26.29c.05.06-.13.19-.17.23-3.08-1.72-5.67-.83-7.77 1.94-1.03 1.37-1.9 2.76-2.75 4.26-1.8 3.19-4.49 5.57-7.97 6.8-1.65.58-3.29.8-5.16 1.18 2.48.48 5.03.01 7.39-.89 3.24-1.24 5.68-3.55 7.3-6.57.89-1.66 1.83-3.22 2.93-4.71s2.89-2.37 4.63-1.81l-.06.15c-1.16.98-2.43 2.1-2.68 3.73 1.38-1.45 2.49-2.82 4.09-3.58l.55-.03c.12 0 .13-.28.14-.4 2.12-.88 4.3-1.08 6.74-1.02-2.31-.58-4.78-.44-6.95.38-.34-.25-.71-.6-1.02-.91-.24-.91-.56-1.92-1.09-2.72-1.22-1.86-3.36-2.14-5.16-.98-.91.59-1.86 1.27-2.91 1.6-2.96.94-5.98.37-8.71-1-2.21-1.19-4.14-2.63-6.02-4.33-2.89-2.62-5.49-5.34-8.17-8.44 3.35-1.02 6.6-1.63 10-2.08.69 1.03.71 2.13.3 3.22-1.75 4.4 1.72 5.82 2.78 9.92.1-.61.11-1.42-.14-1.95l-1.67-3.49c-.66-1.38-.56-2.77.17-4.11 1.62-2.96-1.4-2.99.38-7.75.93-2.49-1.45-5.41.04-8.34.2-.4.67-.84 1.03-.9.41-.06 1.01.2 1.31.55 1.11 1.33 1.97 2.71 2.8 4.27 2.61 4.97 4.9 10.02 6.83 15.29.87 2.38 1.06 4.8.63 7.15 1.45-2 .99-5.81.22-7.84l-2.4-6.33c13.15.8 29.41 6.21 36.54 18.01 4.38 7.26 4.14 15.17-.61 22.17-4.83 7.13-13.36 11.95-21.4 14.6-13.82 4.55-29.86 3.92-43.33-1.54-7.17-2.91-14.07-7.91-17.81-14.79-3.18-5.86-3.29-12.73-.25-18.67 2.35-4.6 6.16-8.19 10.4-10.97 1.14.82 2.23 1.43 3.44 1.98 2.51 1.13.2 3.47 2.92 5.88 1.61 1.42 3.45 2.42 5.46 3.24s3.73 2.05 5.52 3.34c-1.18-2.04-3.18-2.91-4.98-3.99-1.72-.91-6.01-2.85-6.32-4.92l-.37-2.48c-.14-.92-.67-1.53-1.44-1.96-1.37-.75-4.57-2.3-4.22-4.08.2-1.01.17-1.83-.6-2.55a4.49 4.49 0 0 1-1.3-4.23c.2-.92.11-1.76-.31-2.6-1.31-2.62-2.52-5.28-2.02-8.28.05-.28.29-.67.48-.81 1.49-1.08 5.96 3.76 7 4.94l7.95 9.07c4.24 4.84 8.97 10.05 14.42 13.51 4.76 3.01 9.83 4.11 14.59.49 1.6-1.22 3.77-.87 4.73.88l1.17 2.13Zm-2.26-.84c0-.27-.21-.48-.48-.48s-.48.21-.48.48.21.48.48.48.48-.21.48-.48M77.08 50.98l.83 2.3c.1.27-.07.95-.25 1.14-.72.75-2.13-.29-3.71 1.74-1 1.29-3.54.78-5.57 1.64-1.14.48-2.17 1.24-3.13 1.98-2.39 1.85-3.04-1.31-5.12-1.25-2.69.08-4.11 1.19-6.4-.22-1.19-.73-2.34-1.52-3.22-2.59-.95-1.14-.91-2.61.16-3.68 3.58-3.57 10.47-3.92 14.68-7.78.77-.7 1.59-1.51 1.53-2.72-3.62 5.5-13.64 5.62-18.32 9.8-.75.67-1.08 1.56-.91 2.6.28 1.63 2.54 1.98 2.93 2.61.71 1.14 1.31 2.19 2.28 3.05 2.44 2.17 4.75.38 7.32.51 1.46.08 2.95 2.86 5.39 1.18.99-.68 1.98-1.35 3.01-1.97 2.32-1.41 5.06-.54 6.14-2.36 1.19-2.01 2.51-.82 3.47-1.84.85-.9.01-3.42-1.11-4.15Zm27.13-1.49c.12.9-.29 1.6-.62 2.51.92-.42 1.74-1.14 2.26-2.05.57-1 .07-2.13-.98-2.65-2.89-1.44-7.99-.51-10.68.84l5.18-.6c1.39.02 4.57-.04 4.83 1.94Zm-20.74 6.76c1.51 1.14 3.28 1.73 5.14 2.14 5.07 1.12 10.33.76 15.21-.98 1.8-.64 3.36-1.53 4.72-2.74 2.14-1.91 2.55-4.79.75-7.25.12 4.07-3.14 6.99-7.06 8.62-4.54 1.89-9.53 2.36-14.37 1.49-1.53-.27-2.8-.84-4.39-1.29Zm5.24 3.78c5.74 2.48 16.43 2.74 21.19-1.67 1.09-1.01 1.75-2.39 1.51-3.91-1.79 2.26-3.97 3.8-6.57 4.8-2.07.78-4.19 1.2-6.42 1.34-3.26.4-6.26-.3-9.71-.57Z" style="fill:#fdfdfd"/><path d="m95.44 34.23.22.64c-.01.12-.02.4-.14.4l-.55.03-.03-.14.36-.07s-.13-.11-.16-.14l-.13-.14s.22-.17.17-.23l-.26-.29c-.26-.3-.47-.58-.63-.87l.14-.11c.31.31.68.66 1.02.91Z" style="fill:#627ba5"/><path d="M77.08 50.98c1.12.72 1.96 3.24 1.11 4.15-.96 1.02-2.28-.16-3.47 1.84-1.08 1.83-3.82.96-6.14 2.36a71 71 0 0 0-3.01 1.97c-2.44 1.68-3.93-1.1-5.39-1.18-2.57-.14-4.87 1.66-7.32-.51-.97-.86-1.57-1.91-2.28-3.05-.39-.63-2.65-.98-2.93-2.61-.18-1.04.16-1.93.91-2.6 4.68-4.18 14.7-4.3 18.32-9.8.06 1.21-.77 2.01-1.53 2.72-4.21 3.86-11.1 4.21-14.68 7.78-1.07 1.07-1.11 2.54-.16 3.68.89 1.07 2.03 1.86 3.22 2.59 2.29 1.4 3.71.29 6.4.22 2.08-.06 2.73 3.11 5.12 1.25.96-.75 1.99-1.5 3.13-1.98 2.03-.86 4.57-.35 5.57-1.64 1.57-2.04 2.99-1 3.71-1.74.19-.2.35-.87.25-1.14l-.83-2.3Z" style="fill:#1e4688"/><path d="M83.47 56.25c1.59.44 2.87 1.01 4.39 1.29 4.85.87 9.83.4 14.37-1.49 3.92-1.63 7.18-4.55 7.06-8.62 1.8 2.46 1.39 5.33-.75 7.25-1.36 1.22-2.92 2.1-4.72 2.74a27.64 27.64 0 0 1-15.21.98c-1.86-.41-3.63-1-5.14-2.14Z" style="fill:#e78c45"/><path d="m95 34.82.13.14s.21.13.16.14l-.36.07c-.42-.08-.93-.13-1.33-.16-1.75-.55-3.5.27-4.63 1.81s-2.04 3.05-2.93 4.71c-1.62 3.02-4.06 5.33-7.3 6.57-2.36.9-4.91 1.37-7.39.89 1.87-.38 3.51-.59 5.16-1.18 3.48-1.23 6.17-3.61 7.97-6.8.85-1.5 1.71-2.89 2.75-4.26 2.09-2.77 4.69-3.66 7.77-1.94Z" class="uuid-7483b923-5253-4205-96c3-2ad67c0d0d5e"/><path d="M88.71 60.03c3.46.26 6.45.97 9.71.57 2.23-.14 4.34-.57 6.42-1.34 2.6-.99 4.78-2.53 6.57-4.8.24 1.51-.42 2.9-1.51 3.91-4.75 4.41-15.44 4.15-21.19 1.67Z" style="fill:#e78d46"/><path d="M104.21 49.49c-.26-1.98-3.44-1.92-4.83-1.94l-5.18.6c2.69-1.35 7.79-2.28 10.68-.84 1.04.52 1.55 1.64.98 2.65-.52.91-1.34 1.63-2.26 2.05.32-.91.74-1.61.62-2.51ZM94.94 35.17l.03.14c-1.61.76-2.72 2.13-4.09 3.58.26-1.63 1.52-2.74 2.68-3.73l.06-.15c.39.03.91.08 1.33.16Z" class="uuid-6851dbf5-8f7e-48af-b0ac-b95b8e15423e"/><path d="m95.66 34.87-.22-.64c2.18-.82 4.65-.96 6.95-.38-2.43-.06-4.62.14-6.74 1.02Z" style="fill:#e99553"/><circle cx="91.54" cy="32.59" r=".48" class="uuid-7483b923-5253-4205-96c3-2ad67c0d0d5e"/><path d="M75.47 0c1.02.42 1.84 1.05 2.56 1.98 2.64 3.7 4.34 7.84 6.15 11.99 10.98.68 23.32 4.29 31.86 11.23 2.91 2.37 5.4 5.03 7.29 8.29 5.89 10.15 2.67 20.77-5.74 28.18-7.18 6.32-17.37 10.13-26.79 11.45-12.44 1.74-26.24.64-37.72-4.68-4.85-2.25-9.21-5.23-12.82-9.15-7.11-7.75-9.23-18.39-3.07-27.45 2.6-3.82 5.99-6.93 9.86-9.44-.61-2.15.54-2.04-.67-3.33-1.37-1.47-1.85-3.5-1.53-5.49.11-.68-.13-1.28-.45-1.87-1.45-2.66-2.41-5.58-2.25-8.6.05-.93.5-1.82 1.13-2.26 1.75-1.23 3.95.17 5.43 1.4 1.62 1.59 3.16 3.11 4.66 4.84l7.9 9.1c3.56-.95 7.07-1.58 10.81-1.96.07-1.3.24-2.45.81-3.62.08-.88-.05-1.8-.31-2.67-.83-2.7-.96-7.05 2.26-7.94h.62Zm18.95 33.32-.14.11-1.17-2.13c-.96-1.75-3.13-2.09-4.73-.88-4.75 3.62-9.83 2.52-14.59-.49-5.46-3.45-10.18-8.66-14.42-13.51l-7.95-9.07c-1.04-1.18-5.5-6.02-7-4.94-.19.14-.43.53-.48.81-.5 3.01.71 5.67 2.02 8.28.42.84.51 1.68.31 2.6-.34 1.56.16 3.17 1.3 4.23.77.72.8 1.53.6 2.55-.35 1.78 2.85 3.33 4.22 4.08.77.42 1.31 1.04 1.44 1.96l.37 2.48c.31 2.08 4.61 4.01 6.32 4.92 1.8 1.08 3.8 1.95 4.98 3.99-1.79-1.3-3.46-2.49-5.52-3.34s-3.85-1.82-5.46-3.24c-2.72-2.41-.42-4.75-2.92-5.88-1.21-.55-2.3-1.15-3.44-1.98-4.24 2.78-8.05 6.37-10.4 10.97-3.04 5.94-2.93 12.82.25 18.67 3.73 6.88 10.64 11.88 17.81 14.79 13.47 5.46 29.52 6.09 43.33 1.54 8.05-2.65 16.57-7.47 21.4-14.6 4.74-7 4.99-14.91.61-22.17-7.13-11.81-23.39-17.21-36.54-18.01l2.4 6.33c.77 2.03 1.22 5.84-.22 7.84.43-2.35.25-4.77-.63-7.15-1.94-5.27-4.22-10.32-6.83-15.29-.82-1.57-1.69-2.94-2.8-4.27-.29-.35-.9-.61-1.31-.55-.36.05-.83.49-1.03.9-1.49 2.93.89 5.85-.04 8.34-1.78 4.76 1.23 4.8-.38 7.75-.73 1.34-.83 2.73-.17 4.11l1.67 3.49c.25.53.24 1.34.14 1.95-1.07-4.1-4.54-5.52-2.78-9.92.41-1.1.39-2.2-.3-3.22-3.4.45-6.64 1.06-10 2.08 2.68 3.1 5.29 5.82 8.17 8.44 1.88 1.71 3.81 3.14 6.02 4.33 2.74 1.37 5.75 1.94 8.71 1 1.05-.33 1.99-1.01 2.91-1.6 1.8-1.16 3.94-.88 5.16.98.52.8.85 1.81 1.09 2.72Z" style="fill:#1d4688"/></svg>