<svg xmlns="http://www.w3.org/2000/svg" id="uuid-d663d0a7-9309-4141-880d-410d610a368f" viewBox="0 0 160 126.72"><defs><style>.uuid-571e5e3c-ea67-4d49-bd73-e7d2e118afe3{fill:#7b7b7b}.uuid-4f65ebe2-6788-4b6b-8297-7205242ee9d4{fill:#fefefe}.uuid-d3352ed8-5e31-4ae1-9d19-ea5c4282b0c3{fill:#838383}.uuid-005dc3c4-bb4a-47c3-b120-8a69433e3c91{fill:#848484}.uuid-9026c441-05f3-45a7-a7d5-29701c70810d{fill:#fbfbfb}.uuid-fda20ea5-68ff-4ccb-bf75-67b88d6b1f16{fill:#4b4b4b}.uuid-a5586a3f-ce5c-4510-899a-4f0ba38a1178{fill:#7e7e7e}.uuid-4f206f95-8bcc-4a07-baa7-6ae1b22ec8f1{fill:#7c7c7c}</style></defs><path d="M74.77 0c-3.28.88-3.11 5.58-2.15 8.22.18.86.29 1.7.16 2.52-.54 1.11-.74 2.21-.69 3.46-3.72.41-7.3 1-10.88 1.99l-4.9-5.7c-2.35-2.74-4.73-5.3-7.25-7.87-1.1-.91-2.14-1.78-3.5-2.13-1.58-.41-3.07.44-3.35 2.08-.54 3.23.9 6.86 2.45 9.71.58 1.06-.94 4.18 1.91 7.01.74.73-.05 1.46.4 3.11-3.9 2.5-7.23 5.62-9.82 9.4-6.58 9.62-3.66 20.89 4.28 28.66C54.7 73.43 77.35 75.87 94.75 72.28c9.49-1.96 20.04-6.75 26.23-14.38 3.32-4.09 5.31-9.04 5.21-14.34-.13-7.34-4.55-13.66-10.03-18.19-8.63-7.13-21.06-10.74-32.1-11.43-1.83-4.24-3.64-8.65-6.41-12.31-.64-.77-1.41-1.24-2.27-1.64h84.6v126.7H0v-.16l.56-.06.02-4.65h3.79c.14-.01.18-.49.06-.58H0v-10.62l5.68.03.05-15.24 8.44 15.23h5.58l8.49-15.26.04 15.26h5.68v-21h-8.21l-8.8 15.42-8.45-15.4-8.51.04V0h74.77Zm31.11 107.07 1.88 3.59 6.57-.02-11.27-21h-8.34l-11.28 21h6.54l1.96-3.59 13.93.02Zm-47.01-.19c.49-2.69.46-5.45.02-8.14-.54-3.32-3.48-3.93-6.45-3.93h-8.89c-1.26 0-2.52.2-3.68.57-3.03.98-3.11 4.55-3.12 7.28 0 2.97.05 6.76 3.47 7.7 1.11.3 2.3.48 3.48.48h8.74c2.94 0 5.83-.7 6.42-3.96Zm65.65 3.85c2.61.06 5.11.07 7.65-.02 3.14-.11 4.8-2.01 4.95-5.06.11-2.13.12-4.21 0-6.32-.14-2.44-1.91-4.24-4.38-4.41-2.94-.2-5.93-.19-8.86 0-1.59.1-2.55 1.14-3.15 2.56l-.07-2.48h-5.03v22.26l5.12.02.06-9.09c.89 1.64 1.93 2.5 3.72 2.54Zm-42.07-.1V94.98h-5.18v5.82H66.35v-5.82l-5.15-.01v15.67l5.13.01.03-6.25h10.9l.02 6.26zm77.28-.02-7.54-8.51 5.89-7.07-5.88-.03-3.75 4.29-3.6-4.29-5.92.04 5.93 7.22-7.42 8.36h6.22l4.98-5.53 4.85 5.55 6.24-.04Zm-60.68 9.22c-.22-.04-.49.23-.73.48-.45.46-1.68.47-2.11-.03-.19-.21-.59-.61-.69-.42-.26.5.34 1.06.85 1.15.87.15 3.01.24 2.68-1.18m-89 4.5c.81-.01 1.21-.7 1.19-1.4 0-.38-.16-.99-.37-1.23s-.81-.46-1.16-.46H5.79v4.98c0 .11.14.32.23.35s.34-.13.34-.23l.04-1.96 3.67-.05Zm7.86-3c-.17-.1-.63-.08-.73.09l-2.1 3.47-2.15-3.36c-.15-.24-.55-.37-.77-.16l2.54 3.98c-.07.5-.47.54-1.13.81-.08.03.11.36.21.38.42.09 1.16-.27 1.42-.71l2.72-4.49Zm6.09.5.02 4.58c0 .14.54.14.54 0v-5.16h-5.82v4.99c0 .13.13.36.22.33l.37-.11v-4.62H24Zm7.28 0 .02 4.59c0 .14.57.1.57-.04v-5.15l-5.81.01v5.22c.13.03.5 0 .54-.07l.03-4.57h4.64Zm6.38 3.39.51.97c.08.15.21.37.33.35l.48-.09-2.67-5.14c-.28-.05-.68-.04-.95.04l-2.6 5.04c.05.08.47.23.53.12l.2-.33.56-.95h3.62Zm7.34-1.45 3.55-2.43c-.45-.17-.91-.09-1.29.17l-2.32 1.61c-.44.3-.92.5-1.42.35l-.05-2.11c0-.13-.54-.1-.54.08v4.93c0 .16.56.19.56.02l.03-2.24c.37-.22.91-.06 1.26.2l2.52 1.88c.39.29.86.42 1.34.22l-3.63-2.67Zm9.58 2.76c.61 0 1.13-.55 1.17-1.08.11-1.45.46-4.18-1.27-4.24-1.16-.04-2.29-.04-3.45 0-.78.02-1.41.66-1.41 1.43v2.5c0 .76.65 1.39 1.41 1.39h3.54Zm9.49-.19c0 .19.57.24.57.07v-5.15l-1.19.03-2.63 4.39-2.64-4.4-1.2-.03v5.18c1.12 1.26.23-4.33.7-4.87l3.16 5.15 3.1-5.14c.22 1.64.13 3.04.13 4.76Zm7.39-4.51.02 4.55c0 .18.54.17.54 0v-5.13H66.2v4.99c0 .12.13.35.22.32l.37-.1v-4.62h4.67Zm6.34 3.4.5.95c.07.14.2.38.32.36s.42-.1.49-.13l-2.66-5.13c-.29-.02-.68 0-.93.05l-2.63 5.1c.13.05.47.17.53.09l.23-.36.61-.94 3.54.02Zm7.91 1.13v-4.78c0-.14-.15-.36-.25-.37s-.28.24-.28.34l-.02 2h-4.62l-.04-2.17c0-.14-.54-.14-.54.04v4.95c0 .18.54.18.54.03l.04-2.33h4.61l.04 2.35c0 .14.52.09.52-.06m7.34-.05v-4.99c-.37-.09-.91-.1-1.15.02L87.87 126l-.07-4.44c0-.14-.22-.37-.34-.36-.09 0-.26.25-.26.41v4.9c.31.06.88.09 1.06-.11l4.15-4.77.1 4.47.03.42c0 .1.53-.06.53-.2Zm7.33-.02v-4.97c-.32-.1-.94-.14-1.14.02l-4.07 4.68c-.26-.13.23-6.02-.5-4.79-.03.06-.14.28-.14.38v4.88c.32.07.88.09 1.04-.1l4.16-4.78.09 4.48.04.42c0 .1.51-.07.51-.21Z" style="fill:#fdfdfd"/><path d="M75.4 0c.86.4 1.63.86 2.27 1.64 2.78 3.66 4.59 8.08 6.41 12.31 11.04.69 23.47 4.3 32.1 11.43 5.48 4.53 9.9 10.85 10.03 18.19.1 5.29-1.89 10.24-5.21 14.34-6.19 7.63-16.74 12.42-26.23 14.38-17.39 3.58-40.05 1.15-53.32-11.82-7.94-7.76-10.86-19.03-4.28-28.66 2.59-3.78 5.92-6.89 9.82-9.4-.45-1.65.34-2.38-.4-3.11-2.85-2.83-1.34-5.95-1.91-7.01-1.55-2.86-3-6.48-2.45-9.71C42.5.94 44 .09 45.58.5c1.36.35 2.4 1.22 3.5 2.13 2.52 2.56 4.9 5.13 7.25 7.87l4.9 5.7c3.58-.99 7.16-1.58 10.88-1.99-.05-1.25.15-2.35.69-3.46.13-.82.02-1.66-.16-2.52C71.68 5.6 71.51.89 74.79.01h.62Zm18.88 33.06.05.29s-.05.05-.14.05l-1.18-2.18c-.98-1.81-3.21-2.03-4.81-.8-4.6 3.52-9.63 2.44-14.26-.42-5.67-3.5-10.53-8.97-14.91-13.95l-8.1-9.21a29 29 0 0 0-3.86-3.63 5.5 5.5 0 0 0-1.97-.97c-.57-.15-1.09.4-1.18.94-.51 3.14.71 5.62 2.03 8.33.4.82.5 1.64.3 2.54-.36 1.58.16 3.19 1.3 4.28.74.7.8 1.47.59 2.47-.39 1.84 2.86 3.39 4.3 4.18 1.66.92 1.32 2.37 1.74 4.4.47 2.24 4.72 4.02 6.6 5.06 1.69 1.03 3.57 1.89 4.67 3.82-1.84-1.4-3.62-2.6-5.79-3.48-1.91-.77-3.64-1.76-5.15-3.1-2.81-2.49-.26-4.82-3.19-6.02-1.13-.46-2.15-1.1-3.19-1.83-4.5 2.96-8.55 6.88-10.78 11.78-2.38 5.22-2.43 11.05-.11 16.3 3.42 7.71 11.06 13.31 18.73 16.38 13.39 5.37 29.31 5.98 43.03 1.49 8.02-2.63 16.45-7.36 21.34-14.4 5.26-7.58 5.1-16.14-.13-23.69-3.87-5.59-10.03-9.73-16.29-12.27s-12.65-3.93-19.36-4.38l2.41 6.36c.8 2.1 1.14 5.7-.13 7.66.28-2.42.13-4.7-.72-7.01-1.89-5.12-4.1-10.04-6.62-14.88-.84-1.62-1.73-3.08-2.86-4.48-.37-.46-1.05-.9-1.6-.68-.64.25-1.02.96-1.19 1.6-.77 2.92 1.12 5.37.27 7.58-1.81 4.67 1.21 4.71-.4 7.76-.66 1.26-.88 2.61-.25 3.92l1.32 2.72c.41.85.86 1.74.54 2.76-1.08-3.96-4.48-5.44-2.75-9.76.44-1.12.38-2.27-.31-3.24-3.42.46-6.71 1.08-9.98 2.08 2.79 3.22 5.56 6.15 8.68 8.89 3.85 3.38 8.82 6.55 14.14 4.9 1.05-.33 2.01-.98 2.92-1.58 1.75-1.16 3.82-.98 5.1.77.57.78.85 1.77 1.16 2.67ZM0 110.62v-20.9l8.51-.05 8.45 15.4 8.8-15.42h8.21v20.99l-5.68.01-.05-15.26-8.48 15.27-5.58-.02-8.45-15.22-.05 15.23z" class="uuid-fda20ea5-68ff-4ccb-bf75-67b88d6b1f16"/><path d="M0 126.54v-5.3h4.44c.12.1.08.58-.06.58H.59l-.02 4.66-.56.06Z" class="uuid-a5586a3f-ce5c-4510-899a-4f0ba38a1178"/><path d="m105.88 107.07-13.93-.02-1.96 3.6h-6.54l11.28-21.01h8.34l11.27 21-6.57.02-1.88-3.59Zm-2.35-4.42-4.56-8.52-4.64 8.54z" class="uuid-d3352ed8-5e31-4ae1-9d19-ea5c4282b0c3"/><path d="M124.52 110.73c-1.79-.04-2.82-.89-3.72-2.54l-.06 9.09-5.12-.02V95.01h5.03l.07 2.48c.61-1.43 1.56-2.46 3.15-2.56 2.93-.19 5.92-.2 8.86 0 2.47.17 4.24 1.97 4.38 4.41.12 2.11.11 4.19 0 6.32-.15 3.05-1.82 4.94-4.95 5.06-2.53.09-5.04.07-7.65.02Zm5.6-3.97c.97 0 1.66-.76 1.79-1.6.23-1.58.22-3.14.07-4.74-.08-.9-.87-1.63-1.83-1.63l-7.28-.03c-1.07 0-1.87.68-1.99 1.77a21.4 21.4 0 0 0 0 4.45c.11 1.03.93 1.79 1.98 1.79h7.27ZM58.87 106.88c-.6 3.26-3.49 3.96-6.42 3.96h-8.74c-1.18 0-2.37-.17-3.48-.47-3.41-.94-3.47-4.73-3.47-7.7 0-2.73.09-6.3 3.12-7.28 1.15-.37 2.42-.57 3.68-.57h8.89c2.97 0 5.9.6 6.45 3.92.44 2.68.47 5.45-.02 8.14Zm-6.55-.04c.92 0 1.54-.79 1.62-1.58.16-1.63.15-3.25 0-4.87-.09-.97-.85-1.62-1.82-1.62h-8.23c-.97 0-1.71.73-1.81 1.64-.18 1.63-.18 3.22 0 4.84.1.91.86 1.59 1.81 1.59zM82.45 110.63l-5.17.03-.02-6.25-10.9-.01-.03 6.25-5.14-.01.01-15.67 5.14.01.01 5.82h10.91l.01-5.82h5.17zM159.73 110.61l-6.24.03-4.85-5.55-4.97 5.54-6.22-.01 7.41-8.36-5.93-7.21 5.92-.05 3.6 4.29L152.2 95l5.88.03-5.89 7.07z" class="uuid-fda20ea5-68ff-4ccb-bf75-67b88d6b1f16"/><path d="M64.07 126.34c0-1.72.09-3.11-.13-4.76l-3.1 5.14-3.16-5.15c-.47.54.42 6.13-.7 4.87v-5.18l1.2.03 2.64 4.4 2.63-4.39 1.2-.03v5.15c0 .17-.58.12-.58-.07ZM54.58 126.53h-3.54c-.76 0-1.41-.63-1.41-1.39v-2.5c0-.77.63-1.4 1.41-1.43 1.16-.04 2.29-.03 3.45 0 1.73.06 1.38 2.79 1.27 4.24-.04.53-.56 1.08-1.17 1.08Zm-.23-.55c.39 0 .87-.45.87-.84v-2.47c0-.45-.48-.92-.94-.92h-3.03c-.57 0-1.06.45-1.06 1.02v2.22c0 .52.46.98.99.98h3.17Z" class="uuid-571e5e3c-ea67-4d49-bd73-e7d2e118afe3"/><path d="M93.05 126.31c0 .14-.52.29-.53.2l-.03-.42-.1-4.47-4.15 4.77c-.17.2-.74.17-1.05.11v-4.9c0-.15.16-.4.25-.41.12-.01.34.22.34.36l.07 4.44 4.03-4.66c.24-.13.78-.11 1.15-.02v4.99Z" class="uuid-4f206f95-8bcc-4a07-baa7-6ae1b22ec8f1"/><path d="m10.05 124.33-3.67.05-.04 1.96c0 .1-.25.26-.34.23s-.23-.24-.23-.35v-4.98H9.7c.36 0 .96.22 1.16.46s.36.85.37 1.23c.02.7-.38 1.39-1.19 1.4Zm.12-.64c.74-.13.58-1.73-.05-1.79-1.3-.11-2.39-.08-3.76-.08l.05 2c1.34-.06 2.44.09 3.76-.14Z" style="fill:#7d7d7d"/><path d="M100.38 126.29c0 .14-.5.31-.51.21l-.04-.42-.09-4.48-4.16 4.78c-.16.19-.72.17-1.03.1v-4.88c0-.1.1-.33.13-.38.73-1.22.24 4.67.5 4.79l4.07-4.68c.2-.16.81-.12 1.13-.02v4.97Z" class="uuid-4f206f95-8bcc-4a07-baa7-6ae1b22ec8f1"/><path d="M31.28 121.83h-4.64l-.03 4.57c-.04.07-.42.1-.53.07v-5.22l5.79-.01v5.15c.01.14-.56.18-.56.04l-.02-4.59Z" style="fill:#7f7f7f"/><path d="m77.8 125.23-3.54-.02-.61.94-.23.36c-.06.09-.39-.03-.53-.09l2.63-5.1c.25-.05.64-.07.93-.05l2.66 5.13c-.06.03-.37.11-.49.13s-.25-.22-.32-.36l-.5-.95Zm-.3-.61-1.51-2.88-1.5 2.87h3.01ZM37.66 125.22h-3.62l-.56.95-.2.33c-.06.11-.48-.04-.53-.12l2.6-5.04c.27-.08.67-.09.95-.04l2.67 5.14-.48.09c-.12.02-.25-.2-.33-.35l-.51-.97Zm-.31-.62-1.51-2.87-1.5 2.89 3.02-.02Z" class="uuid-571e5e3c-ea67-4d49-bd73-e7d2e118afe3"/><path d="m45 123.77 3.63 2.67c-.47.2-.95.07-1.34-.22l-2.52-1.88c-.35-.26-.89-.42-1.26-.2l-.03 2.24c0 .17-.56.14-.56-.02v-4.93c0-.18.54-.22.54-.08l.05 2.11c.5.15.99-.05 1.42-.35l2.32-1.61c.37-.26.84-.34 1.29-.17l-3.55 2.43Z" class="uuid-4f206f95-8bcc-4a07-baa7-6ae1b22ec8f1"/><path d="M71.46 121.83H66.8v4.63l-.37.1c-.09.03-.23-.2-.23-.32v-4.99h5.82v5.13c.01.18-.53.18-.53 0l-.02-4.55ZM24 121.83h-4.66l-.01 4.63-.37.11c-.09.03-.23-.2-.23-.33v-4.99h5.82v5.16c.01.14-.53.15-.53 0z" class="uuid-a5586a3f-ce5c-4510-899a-4f0ba38a1178"/><path d="M85.71 126.36c0 .15-.52.19-.52.06l-.04-2.34h-4.61l-.04 2.32c0 .15-.54.15-.54-.03v-4.95c0-.18.53-.18.54-.04l.04 2.17h4.62l.02-2c0-.1.19-.35.28-.34s.25.23.25.37zM17.91 121.33l-2.72 4.49c-.27.44-1.01.8-1.42.71-.1-.02-.29-.35-.21-.38.66-.28 1.06-.32 1.13-.81l-2.54-3.98c.22-.21.61-.08.77.16l2.15 3.36 2.1-3.47c.1-.17.57-.19.73-.09Z" class="uuid-4f206f95-8bcc-4a07-baa7-6ae1b22ec8f1"/><path d="M99.05 119.83c.33 1.42-1.8 1.33-2.68 1.18-.51-.09-1.11-.65-.85-1.15.1-.18.5.21.69.42.44.49 1.66.48 2.11.03.24-.24.51-.52.73-.48" style="fill:#818181"/><path d="M94.19 33.4c.46.84 1.13 1.15.94 1.24l-.22.1c-3.08-1.6-5.57-.86-7.69 1.89-1.07 1.39-1.96 2.82-2.82 4.35-1.98 3.5-5.07 6.02-8.98 7.09-1.34.36-2.64.55-4.13.85 2.83.5 5.71-.1 8.32-1.31s4.76-3.29 6.2-5.89c.87-1.58 1.74-3.07 2.76-4.55 1.33-1.93 2.72-2.59 4.93-2.35.04.01.03.25-.06.32-1.04.84-2.45 2.16-2.65 3.65 1.34-1.33 2.37-2.83 4.06-3.47.38-.14.67-.32.99-.5 1.94-1.11 4.07-.93 6.29-1.03-2.27-.57-4.61-.39-6.87.37-.33-.29-.85-.74-.98-1.11-.31-.9-.59-1.89-1.16-2.67-1.28-1.75-3.35-1.93-5.1-.77-.91.6-1.87 1.25-2.92 1.58-5.32 1.64-10.29-1.53-14.14-4.9-3.12-2.73-5.89-5.67-8.68-8.89 3.27-1 6.56-1.62 9.98-2.08.69.97.75 2.12.31 3.24-1.73 4.32 1.67 5.8 2.75 9.76.32-1.02-.13-1.91-.54-2.76l-1.32-2.72c-.63-1.31-.41-2.66.25-3.92 1.6-3.05-1.42-3.09.4-7.76.85-2.2-1.04-4.65-.27-7.58.17-.64.55-1.35 1.19-1.6.55-.22 1.23.22 1.6.68 1.13 1.4 2.01 2.86 2.86 4.48 2.52 4.84 4.72 9.76 6.62 14.88.85 2.31.99 4.58.72 7.01 1.27-1.96.92-5.56.13-7.66l-2.41-6.36c6.71.45 13.18 1.87 19.36 4.38s12.42 6.68 16.29 12.27c5.23 7.55 5.39 16.11.13 23.69-4.89 7.05-13.32 11.78-21.34 14.4-13.72 4.49-29.63 3.88-43.03-1.49-7.67-3.07-15.31-8.67-18.73-16.38-2.33-5.25-2.27-11.08.11-16.3 2.23-4.9 6.28-8.82 10.78-11.78 1.04.73 2.06 1.37 3.19 1.83 2.92 1.2.38 3.53 3.19 6.02 1.51 1.34 3.24 2.33 5.15 3.1 2.16.88 3.95 2.09 5.79 3.48-1.1-1.93-2.97-2.79-4.67-3.82-1.88-1.04-6.13-2.82-6.6-5.06-.42-2.02-.08-3.47-1.74-4.4-1.44-.8-4.69-2.35-4.3-4.18.21-1 .15-1.77-.59-2.47a4.52 4.52 0 0 1-1.3-4.28c.2-.89.1-1.72-.3-2.54-1.32-2.7-2.54-5.19-2.03-8.33.09-.55.61-1.09 1.18-.94.7.18 1.41.52 1.97.97 1.41 1.12 2.67 2.27 3.86 3.63l8.1 9.21C63.4 21 68.26 26.47 73.93 29.97c4.63 2.86 9.66 3.94 14.26.42 1.6-1.23 3.83-1.01 4.81.8l1.18 2.18Zm-2.27-.86a.47.47 0 1 0-.939-.001.47.47 0 0 0 .939.001m-14.91 18.4.86 2.3c.11.28-.08.95-.29 1.14-.6.54-2.38.1-3.22 1.2-1.56 2.06-3.17 1.12-5.77 2.06-1.28.46-2.4 1.32-3.45 2.13-2.24 1.72-3.01-1.22-4.87-1.28-2.7-.1-4.19 1.34-6.8-.35-1.12-.73-2.22-1.5-3.06-2.54-.94-1.17-.81-2.66.28-3.7 3.5-3.32 9.12-3.64 13.76-6.98 1.12-.81 3.08-2.78 2.37-4.28-.09 3.14-6.3 5.43-8.82 6.27-2.18.72-4.26 1.47-6.35 2.41-1.96.88-4.57 2.37-4.02 4.69.38 1.6 2.49 1.77 2.96 2.56.67 1.12 1.27 2.14 2.22 2.98 2.45 2.15 4.65.38 7.3.51 1.44.08 2.95 2.79 5.26 1.25l2.7-1.8c1.16-.77 2.41-1.09 3.8-1.24 3.77-.42 2.25-2.66 4.95-2.7.95-.01 1.75-.71 1.63-1.73s-.44-2.14-1.45-2.88Zm26.5 1.01c1.27-.67 2.88-2.12 2.38-3.52-1.13-3.14-9.42-1.75-11.87-.34 2.86-.15 6.38-1.25 9-.07 1.8.81.98 2.65.49 3.93m-20.17 4.21c1.69 1.25 3.52 1.71 5.46 2.23 5.97 1.28 15.07.38 19.71-3.88 2.09-1.92 2.42-4.84.69-7.07.01 4.21-3.25 6.78-6.7 8.38-4.16 1.8-8.67 2.37-13.19 1.88-2.11-.23-3.93-.91-5.97-1.54m4.22 3.38c5.94 2.84 17.17 3.32 22.15-1.19 1.11-1.01 1.84-2.39 1.59-3.95-1.82 2.31-4.07 3.86-6.75 4.85-2.06.75-4.14 1.13-6.36 1.29-3.63.29-7.09-.26-10.62-1Z" class="uuid-4f65ebe2-6788-4b6b-8297-7205242ee9d4"/><path d="M93.49 34.83c.57.06 1.12.19 1.76.3l-.34-.39.22-.1c.2-.09-.48-.4-.94-1.24.1 0 .15 0 .14-.05l-.05-.29c.13.36.65.82.98 1.11 2.26-.76 4.6-.94 6.87-.37-2.22.1-4.35-.08-6.29 1.03-.32.18-.61.36-.99.5-1.69.64-2.72 2.14-4.06 3.47.2-1.49 1.61-2.81 2.65-3.65.08-.07.1-.31.06-.32Z" style="fill:#868686"/><path d="m103.53 102.65-9.2.02 4.64-8.55zM130.12 106.76h-7.27c-1.05 0-1.86-.76-1.98-1.79-.16-1.47-.16-2.98 0-4.45.11-1.1.92-1.78 1.99-1.77l7.28.03c.96 0 1.74.73 1.83 1.63.15 1.6.17 3.16-.07 4.74-.12.85-.82 1.6-1.79 1.6ZM52.32 106.84h-8.43c-.95.01-1.7-.67-1.81-1.58-.19-1.62-.18-3.22 0-4.84.1-.91.84-1.63 1.81-1.63h8.23c.97 0 1.72.63 1.82 1.61.16 1.62.16 3.24 0 4.87-.08.79-.69 1.58-1.62 1.58ZM54.35 125.98h-3.17c-.53 0-.99-.46-.99-.98v-2.22c0-.57.48-1.02 1.06-1.02h3.03c.46 0 .94.46.94.92v2.47c0 .39-.48.84-.86.84ZM10.17 123.69c-1.32.22-2.42.08-3.76.14l-.05-2c1.38 0 2.46-.03 3.76.08.63.05.78 1.66.05 1.79Z" class="uuid-4f65ebe2-6788-4b6b-8297-7205242ee9d4"/><path d="M77.5 124.62h-3.01l1.5-2.88zM37.35 124.6l-3.02.03 1.51-2.89z" class="uuid-9026c441-05f3-45a7-a7d5-29701c70810d"/><path d="M77.01 50.94c1.01.74 1.33 1.85 1.45 2.88s-.68 1.72-1.63 1.73c-2.7.03-1.17 2.27-4.95 2.7-1.39.16-2.64.47-3.8 1.24l-2.7 1.8c-2.31 1.54-3.82-1.17-5.26-1.25-2.65-.14-4.85 1.64-7.3-.51-.95-.83-1.55-1.86-2.22-2.98-.47-.79-2.58-.96-2.96-2.56-.56-2.32 2.06-3.81 4.02-4.69 2.09-.94 4.16-1.68 6.35-2.41 2.52-.83 8.73-3.12 8.82-6.27.71 1.51-1.25 3.48-2.37 4.28-4.64 3.34-10.26 3.66-13.76 6.98-1.09 1.04-1.22 2.52-.28 3.7.83 1.04 1.93 1.81 3.06 2.54 2.61 1.69 4.1.25 6.8.35 1.86.07 2.62 3.01 4.87 1.28 1.05-.81 2.17-1.67 3.45-2.13 2.6-.94 4.21 0 5.77-2.06.83-1.1 2.62-.67 3.22-1.2.21-.19.4-.85.29-1.14l-.86-2.3Z" class="uuid-fda20ea5-68ff-4ccb-bf75-67b88d6b1f16"/><path d="M83.34 56.16c2.04.63 3.85 1.31 5.97 1.54 4.52.49 9.03-.08 13.19-1.88 3.46-1.59 6.72-4.17 6.7-8.38 1.74 2.22 1.41 5.15-.69 7.07-4.64 4.26-13.74 5.15-19.71 3.88-1.94-.51-3.77-.97-5.46-2.23" class="uuid-d3352ed8-5e31-4ae1-9d19-ea5c4282b0c3"/><path d="m94.91 34.74.34.39c-.64-.1-1.19-.24-1.76-.3-2.21-.24-3.6.42-4.93 2.35-1.02 1.49-1.89 2.97-2.76 4.55-1.44 2.6-3.47 4.63-6.2 5.89s-5.49 1.8-8.32 1.31c1.49-.31 2.79-.49 4.13-.85 3.92-1.07 7.01-3.59 8.98-7.09.87-1.53 1.75-2.96 2.82-4.35 2.12-2.75 4.61-3.49 7.69-1.89Z" class="uuid-fda20ea5-68ff-4ccb-bf75-67b88d6b1f16"/><path d="M87.56 59.54c3.53.74 6.99 1.29 10.62 1 2.23-.16 4.3-.54 6.36-1.29 2.68-.99 4.93-2.54 6.75-4.85.26 1.57-.48 2.95-1.59 3.95-4.97 4.51-16.21 4.03-22.15 1.19ZM103.51 51.95c.49-1.28 1.31-3.12-.49-3.93-2.62-1.18-6.14-.08-9 .07 2.45-1.4 10.74-2.8 11.87.34.5 1.4-1.1 2.85-2.38 3.52" class="uuid-005dc3c4-bb4a-47c3-b120-8a69433e3c91"/><circle cx="91.45" cy="32.54" r=".47" style="fill:#5e5e5e"/></svg>