<svg xmlns="http://www.w3.org/2000/svg" id="uuid-85d522be-1518-43da-bd2a-fcfb79cb7e36" viewBox="0 0 160 119.89"><defs><style>.uuid-defd377a-afa0-48e9-b4c6-e2fa8b815294{fill:#fff}.uuid-28640651-d355-4d2a-9a9d-b68e5530c430{fill:#595959}</style></defs><path d="M0 0h160v119.89H0zm51.23 37.28v22.71h8.43V30.01H29.88v29.98h8.42V37.27zm42.68 22.7V30.01h-7.59L72.37 47.56l-.02-17.55h-8.42v29.98h7.58l13.96-17.57.02 17.57h8.43Zm20.84-15.44 12.23-14.53h-9.88l-10.48 12.63-.03-12.64h-8.42v29.99h8.42l.02-12.26L118.6 60l11.41-.05zM70.17 88.99v-3.01c2.92-.17 5.04-1.93 5.04-4.91s-2.04-4.7-5.03-4.9v-4.05h-2.56v4.06c-3.09.18-5.1 1.95-5.05 5.11.04 2.95 2.22 4.54 5.05 4.71v2.99h2.56Zm-34.86-10 5.05-6.05-3.1-.02-4.43 5.46-.04-5.45h-2.91v12.85h2.92l.06-5.65 4.38 5.66 3.38-.03L35.31 79Zm14.41 2.08c0-2.76-2.24-5-5-5s-5 2.24-5 5 2.24 5 5 5 5-2.24 5-5m35.88 0c0-2.76-2.24-5-5-5s-5 2.24-5 5 2.24 5 5 5 5-2.24 5-5m3.46 7.91.02-4.51c.7.97 1.62 1.45 2.77 1.51 1.82.1 3.37-.93 3.97-2.66.46-1.46.5-3.04 0-4.49-.54-1.57-1.89-2.59-3.53-2.66-1.32-.06-2.47.53-3.19 1.61l-.04-1.39h-2.61v12.6h2.62Zm-30.03-3.19h2.54v-9.41h-3.21l-2.19 5.71-2.14-5.72h-3.44v9.42h1.97l.03-6.57 2.5 6.54h1.34l2.53-6.53.06 6.57Zm42.51-.02v-7.52l2.78-.02v-1.85h-8.17v1.85l2.78.02v7.54l2.61-.01Z" style="fill:#fdfdfd"/><path d="m93.91 59.98-8.43.01-.02-17.57L71.5 59.99h-7.58V30.01l8.42-.01.02 17.56 13.95-17.55h7.59zM51.23 37.28l-12.93-.01v22.72h-8.43l.01-29.98h29.77v29.98h-8.42zM114.75 44.54l15.27 15.41-11.41.05-11.99-12.27-.03 12.26h-8.42V30.01l8.42-.01.03 12.64L117.1 30l9.88.01z" class="uuid-28640651-d355-4d2a-9a9d-b68e5530c430"/><path d="M70.17 88.99h-2.55l-.01-3c-2.83-.17-5-1.75-5.05-4.71-.04-3.16 1.97-4.93 5.05-5.11v-4.06h2.56v4.05c2.99.2 5.04 1.8 5.04 4.9s-2.12 4.75-5.03 4.91v3.01Zm-2.55-4.95v-5.97c-1.05.02-1.9.67-2.21 1.66-.27.84-.26 1.76-.02 2.6.29 1.01 1.16 1.74 2.23 1.71m4.78-1.79c.22-.81.2-1.66 0-2.41-.28-1.03-1.12-1.73-2.21-1.76v5.99c1.08-.05 1.93-.74 2.22-1.81ZM35.31 78.99l5.3 6.77-3.38.03-4.38-5.66-.06 5.66-2.92-.01.01-12.86 2.91.01.03 5.45 4.44-5.45 3.1.01zM59.03 85.79l-.06-6.57-2.53 6.54-1.34-.01-2.5-6.54-.03 6.57-1.97.01v-9.41l3.44-.01 2.14 5.72 2.18-5.71h3.21v9.4zM89.06 88.98h-2.62v-12.6h2.61l.04 1.39c.72-1.08 1.87-1.67 3.19-1.61 1.65.07 3 1.09 3.53 2.66.5 1.45.47 3.04 0 4.49-.61 1.73-2.15 2.77-3.97 2.66-1.14-.06-2.06-.54-2.77-1.51l-.02 4.51Zm2.3-5.04c.92-.03 1.64-.52 1.91-1.36.33-1.02.34-2.18-.07-3.17s-1.34-1.36-2.34-1.21c-1.92.27-2.14 2.7-1.72 4.19.28 1.01 1.13 1.6 2.22 1.56Z"/><path d="M49.72 81.07c0 2.76-2.24 5-5 5s-5-2.24-5-5 2.24-5 5-5 5 2.24 5 5m-2.83 1.16c.21-.94.19-1.91-.16-2.77-.4-1-1.35-1.42-2.4-1.28-1.85.25-2.09 2.43-1.79 3.96.22 1.13 1.06 1.83 2.1 1.86s1.98-.61 2.25-1.77M85.6 81.07c0 2.76-2.24 5-5 5s-5-2.24-5-5 2.24-5 5-5 5 2.24 5 5m-4.9 2.92c.96-.04 1.68-.58 1.97-1.44.31-.92.31-1.97.02-2.9-.3-.98-1.15-1.53-2.16-1.51-.94.03-1.71.57-2.01 1.48s-.3 2.01.04 2.96 1.12 1.44 2.14 1.4ZM101.54 85.77l-2.6.01-.01-7.53-2.79-.02.01-1.85 8.16-.01.01 1.86-2.78.01z"/><path d="M67.62 84.04c-1.08.03-1.94-.7-2.23-1.71-.24-.84-.25-1.76.02-2.6.31-.99 1.16-1.64 2.21-1.66z" style="fill:#fefefe"/><path d="M72.4 82.25c-.29 1.07-1.14 1.76-2.22 1.81v-5.99c1.09.03 1.93.73 2.21 1.76.2.75.23 1.61 0 2.41ZM91.36 83.94c-1.09.04-1.94-.55-2.22-1.56-.42-1.49-.2-3.91 1.72-4.19 1.01-.14 1.95.25 2.34 1.21s.4 2.16.07 3.17c-.27.84-.99 1.33-1.91 1.36ZM46.89 82.23c-.27 1.16-1.17 1.8-2.25 1.77s-1.88-.73-2.1-1.86c-.29-1.53-.06-3.71 1.79-3.96 1.05-.14 2 .28 2.4 1.28.35.86.37 1.83.16 2.77M80.7 83.99c-1.02.04-1.82-.49-2.14-1.4s-.34-2.01-.04-2.96 1.06-1.46 2.01-1.48c1.01-.03 1.85.53 2.16 1.51.29.93.3 1.98-.02 2.9-.29.86-1.01 1.41-1.97 1.44Z" class="uuid-defd377a-afa0-48e9-b4c6-e2fa8b815294"/></svg>