<svg xmlns="http://www.w3.org/2000/svg" id="uuid-03b61d78-b617-4b33-9d3b-9244cf91af36" data-name="Слой 1" viewBox="0 0 160 119.89"><defs><style>.uuid-058c31d0-f6f9-4618-a3b6-c1503c89829d{fill:#fcfcfc}.uuid-c921fb59-17ca-49b2-8d93-f21795ee993b{fill:#fc4d03}.uuid-7b28e099-06ad-406b-bab3-e52830d1977a{fill:#030303}.uuid-101154f2-7602-4a84-a487-a3c249b28130{fill:#040404}</style></defs><path d="M0 0h160v119.89H0zm51.23 37.28v22.71h8.43V30.01H29.88v29.98h8.42V37.27zm42.68 22.7V30.01h-7.59L72.37 47.56l-.02-17.55h-8.42v29.98h7.58l13.95-17.54.03 17.55zm20.84-15.44 12.22-14.52h-9.88l-10.48 12.63-.03-12.63h-8.42v29.99h8.42l.02-12.26 11.99 12.27 11.42-.04-15.27-15.43ZM70.17 88.99v-3.01c2.99-.18 5.05-1.96 5.05-5.02s-2.14-4.61-5.03-4.82V72.1h-2.56v4.05c-3.08.15-5.18 2.04-5.04 5.17.08 2.95 2.2 4.46 5.03 4.64v3h2.56ZM35.31 79l5.06-6.08-3.09-.02-4.44 5.44-.05-5.42h-2.92v12.86h2.92l.04-5.66 4.37 5.65 3.41-.02L35.3 79Zm14.42 2.07c0-2.76-2.24-5-5-5s-5 2.24-5 5 2.24 5 5 5 5-2.24 5-5m35.87 0c0-2.76-2.24-5-5-5s-5 2.24-5 5 2.24 5 5 5 5-2.24 5-5m3.46 7.91v-4.47c.8.97 1.72 1.44 2.89 1.47 1.74.05 3.22-.93 3.83-2.58.51-1.51.54-3.18 0-4.69s-1.89-2.49-3.5-2.56c-1.3-.06-2.37.5-3.18 1.53l-.05-1.31h-2.6v12.61h2.62Zm-30.03-3.19 2.54-.02v-9.4h-3.21l-2.19 5.72-2.14-5.73h-3.44v9.42h1.97l.05-6.47 2.49 6.46h1.33l2.53-6.49.06 6.51Zm42.51-.02v-7.51l2.77-.02v-1.86h-8.16v1.85l2.78.03v7.53z" style="fill:#fff"/><path d="m93.91 59.98-8.43.01-.03-17.55L71.5 59.99h-7.58V30.01l8.42-.01.02 17.56 13.95-17.55h7.59zM51.23 37.28l-12.93-.01v22.72h-8.43l.01-29.98h29.77v29.98h-8.42zM114.75 44.54l15.28 15.42-11.42.04-11.99-12.27-.03 12.26h-8.42V30.01l8.42-.01.03 12.64L117.1 30l9.88.01z" class="uuid-c921fb59-17ca-49b2-8d93-f21795ee993b"/><path d="M70.17 88.99h-2.55l-.01-3.01c-2.83-.18-4.96-1.7-5.03-4.64-.14-3.14 1.96-5.02 5.04-5.17v-4.05h2.56v4.04c2.9.21 5.03 1.79 5.04 4.82s-2.05 4.83-5.03 5.02v3.01Zm-2.55-4.95v-5.97c-1.04.02-1.88.66-2.2 1.62-.28.86-.28 1.8-.02 2.67.3.99 1.16 1.71 2.22 1.68m4.78-1.79c.22-.81.2-1.66 0-2.41-.28-1.03-1.12-1.74-2.21-1.76v5.98c1.08-.05 1.93-.74 2.22-1.81Z" class="uuid-7b28e099-06ad-406b-bab3-e52830d1977a"/><path d="m35.31 79 5.31 6.75-3.41.02-4.37-5.65-.04 5.66h-2.93V72.93l2.92-.01.05 5.42 4.43-5.44 3.1.02z" style="fill:#020202"/><path d="m59.03 85.79-.06-6.5-2.53 6.49h-1.33l-2.49-6.46-.04 6.45-1.98.02v-9.41l3.44-.01 2.14 5.73 2.18-5.72h3.21v9.4zM89.06 88.98h-2.62v-12.6h2.6l.05 1.3c.81-1.03 1.88-1.59 3.18-1.53 1.61.07 2.94 1.03 3.5 2.56s.52 3.18 0 4.69c-.61 1.65-2.09 2.63-3.83 2.58-1.17-.03-2.09-.5-2.88-1.47zm2.3-5.04c.96-.03 1.68-.56 1.94-1.43.29-.98.3-2.07-.07-3.03s-1.28-1.4-2.28-1.3c-2 .22-2.25 2.66-1.81 4.2.28 1.01 1.13 1.59 2.22 1.56M49.73 81.07c0 2.76-2.24 5-5 5s-5-2.24-5-5 2.24-5 5-5 5 2.24 5 5m-4.98 2.91c.99.02 1.71-.55 2.04-1.4.33-.98.34-2.05 0-3.03-.31-.87-1.06-1.38-1.98-1.41-1.02-.03-1.88.54-2.17 1.54-.26.89-.26 1.89 0 2.78s1.07 1.55 2.11 1.52M85.6 81.07c0 2.76-2.24 5-5 5s-5-2.24-5-5 2.24-5 5-5 5 2.24 5 5m-2.88-1.32c-.29-1.03-1.14-1.64-2.19-1.61-.94.03-1.72.57-2.01 1.48-.31.98-.31 2.08.07 3.05s1.36 1.43 2.4 1.29c1.93-.27 2.15-2.72 1.73-4.21" class="uuid-101154f2-7602-4a84-a487-a3c249b28130"/><path d="m101.54 85.77-2.61.02v-7.53l-2.78-.03v-1.85l8.16-.01v1.86l-2.77.03z" class="uuid-7b28e099-06ad-406b-bab3-e52830d1977a"/><path d="M67.62 84.04c-1.06.03-1.93-.69-2.22-1.68-.26-.86-.26-1.81.02-2.67.32-.97 1.16-1.6 2.2-1.62z" style="fill:#f9f9f9"/><path d="M72.4 82.25c-.29 1.07-1.14 1.76-2.22 1.81v-5.98c1.09.03 1.93.73 2.21 1.76.2.75.23 1.61 0 2.41Z" style="fill:#fbfbfb"/><path d="M91.36 83.94c-1.09.03-1.94-.55-2.22-1.56-.43-1.53-.18-3.98 1.81-4.2 1-.11 1.91.33 2.28 1.3s.36 2.06.07 3.03c-.26.87-.98 1.4-1.94 1.43M44.75 83.98c-1.04.03-1.82-.59-2.11-1.52s-.27-1.89 0-2.78c.3-1 1.16-1.56 2.17-1.54.92.03 1.67.54 1.98 1.41.35.98.34 2.05 0 3.03-.33.85-1.05 1.42-2.04 1.4M82.72 79.75c.42 1.5.2 3.94-1.73 4.21-1.04.14-2-.28-2.4-1.29s-.38-2.07-.07-3.05c.29-.92 1.07-1.46 2.01-1.48 1.05-.03 1.9.58 2.19 1.61" class="uuid-058c31d0-f6f9-4618-a3b6-c1503c89829d"/></svg>