<svg xmlns="http://www.w3.org/2000/svg" id="uuid-2760983f-5a45-450d-944d-0be749987f4d" data-name="Слой 1" viewBox="0 0 160 95.98"><defs><style>.uuid-9e6b64da-e385-4476-ab01-a22924aee91d{fill:#fafcfe}.uuid-c9ed3f85-a0c1-4952-a23e-d83ba479f4a6{fill:#f9fbfd}.uuid-10ed712b-9881-4e74-b478-b5df92df528d{fill:#f9fcfd}.uuid-307e87e0-5b50-4b55-a02f-f4c73862aeaa{fill:#fdfdfd}.uuid-5ac51706-d3c3-4d11-b51c-612e75692fd3{fill:#036db1}</style></defs><path d="M0 0h160v95.98H0zm51.21 30.35-18.71.03v12.45l6.23-.01.02 34.97h41.26l.04-41.16h47.68l-.01-18.36H51.21z" style="fill:#fff"/><path d="m51.23 36.59 28.82.04-.04 41.16H38.75l-.02-34.97.03-6.22h12.47Zm3.65 21.23c3.01-1.68 3.64-5.03 2.9-8.02-.45-1.76-1.7-3.03-3.41-3.62-1.08-.34-2.18-.54-3.34-.54h-5.31V68h4.43l.03-10.31L54.1 68h4.67l-3.88-10.17Zm19.58-5.01c-.34-1.59-.95-2.98-1.93-4.25-1.44-1.74-3.49-2.9-5.81-2.91l-5.25-.03v22.36h4.29c1.33 0 2.59-.25 3.82-.69 1.65-.69 2.98-1.81 3.83-3.39 1.7-3.13 1.77-7.69 1.05-11.09" style="fill:#1a171b"/><path d="m80.04 36.63-28.82-.04-.02-6.24V18.27h76.51v18.34l-47.67.01Zm7.34-8.12 1.2.03c-.02.51-.05.98-.24 1.44-.16.38-.69.51-1.03.44-.36-.08-.7-.43-.77-.85a14.2 14.2 0 0 1 0-4.73c.09-.54.45-.9.94-.89.42 0 .85.26.95.74l.24 1.11 1.62-.33c-.08-.91-.27-1.77-.87-2.45-.69-.78-1.73-.99-2.8-.7-2.74.74-2.58 5.73-1.89 7.96.4 1.29 1.5 2.02 2.78 1.9.77-.08 1.28-.46 1.68-1.21l.27 1.04.85-.02v-5.08h-2.94v1.61Zm-27.58-.45-.22-.23c-.04-.49-.09-.93-.17-1.36l-.76-4.14H55.9v9.68h1.58l.05-7.11 1.41 7.1h1.27l1.11-5.32.39-2.21V32h1.88v-9.68h-2.67l-.75 3.52c-.16.75-.29 1.49-.38 2.21Zm8.5 1.88.39 2.08 1.99-.02-2.19-9.67H66.4l-2.2 9.68h1.76l.4-2.08h1.92Zm4.52-3.81h.19L75.12 32h1.64v-9.66l-1.63-.02.03 5.54-.5-1.56-1.43-3.98h-1.95v9.66l1.62.03-.08-5.89Zm8.64 3.81.39 2.08 2-.03-2.19-9.66h-2.08L77.38 32h1.77l.39-2.07h1.92Zm14.46-2.07v-1.6l-2.35-.02v-2.21h3.06v-1.71h-5.05v9.69h5.05v-1.69h-3.05v-2.4l2.34-.04Zm7.43 4.15 1.88-.02v-9.67l-2.68.01-.95 4.52-.27 1.76-.3-2.15-.75-4.14h-2.75V32h1.58l.02-7.42.19 1.09 1.25 6.33h1.27l1.26-6.13.22-1.29.02 7.44Zm7.72-4.14v-1.6l-2.35-.03v-2.2l3.06-.02v-1.7h-5.05v9.69h5.05v-1.69h-3.05v-2.41l2.34-.02Zm5.49-.25h-.11c-.09-.42-.21-.8-.34-1.17l-1.48-4.13h-1.95V32l1.62.03v-2.55l-.11-4.02.41 1.33 1.93 5.25 1.62-.02v-9.67h-1.63l.03 5.3Zm5.93 4.35v-7.81l1.63-.02v-1.82h-5.21v1.82l1.58.02v7.85l2.01-.04Z" class="uuid-5ac51706-d3c3-4d11-b51c-612e75692fd3"/><path d="m51.21 30.35.02 6.24-12.48.01-.03 6.22-6.23.01V30.38z" style="fill:#728ebe"/><path d="m54.88 57.82 3.88 10.17h-4.67l-3.92-10.3-.03 10.3h-4.43V45.62h5.31c1.16.02 2.27.22 3.34.56 1.71.6 2.96 1.86 3.41 3.62.74 3 .11 6.35-2.9 8.02Zm-1.23-6.6c-.31-1.69-1.97-2.07-3.5-1.93v5.93c.52.03 1.01.05 1.5-.01 1.83-.24 2.29-2.41 2-3.99M74.46 52.81c.73 3.39.65 7.96-1.05 11.09-.86 1.58-2.18 2.7-3.83 3.39-1.23.44-2.49.69-3.82.69h-4.29V45.61l5.25.03c2.32.02 4.37 1.18 5.81 2.91.98 1.27 1.59 2.66 1.93 4.25Zm-4.55.35c-.54-1.82-1.83-3.63-4.01-3.55v14.4c1.2.09 2.31-.46 3.03-1.45 1.78-2.47 1.82-6.54.98-9.39Z" class="uuid-307e87e0-5b50-4b55-a02f-f4c73862aeaa"/><path d="m103.35 32.02-.02-7.44-.23 1.3-1.26 6.12h-1.27l-1.24-6.33-.2-1.09-.02 7.43-1.58-.01v-9.67h2.75l.75 4.13.3 2.16.27-1.77.95-4.52 2.68-.01v9.67z" class="uuid-10ed712b-9881-4e74-b478-b5df92df528d"/><path d="M59.58 27.83c.03.34.02.64.08 1.09.16-.36.15-.59.14-.86.09-.72.22-1.45.38-2.21l.75-3.52h2.67V32h-1.89v-7.53l-.39 2.21L60.21 32h-1.27l-1.41-7.1-.05 7.1H55.9v-9.68h2.75l.76 4.15c.08.43.13.87.17 1.36m-2.13-3.13c.03-.26.03-.39.02-.44z" style="fill:#fafcfd"/><path d="m73.01 26.12-.17-.68-.02.69.08 5.89-1.62-.03v-9.66h1.95l1.43 3.98.5 1.56-.03-5.55 1.63.03V32h-1.63zM116.45 27.63l.17.78-.06-.78-.03-5.3h1.63V32l-1.62.02-1.93-5.25-.41-1.33.12 4.02v2.55l-1.63-.03v-9.66h1.95l1.48 4.13c.13.37.25.75.34 1.17ZM87.38 28.51V26.9h2.93v5.08l-.84.02-.27-1.04c-.39.74-.9 1.13-1.68 1.21-1.28.13-2.38-.61-2.78-1.9-.7-2.23-.85-7.22 1.89-7.96 1.07-.29 2.11-.08 2.8.7.6.68.79 1.54.87 2.45l-1.62.33-.24-1.11c-.11-.48-.53-.73-.95-.74-.49 0-.85.35-.94.89a14.2 14.2 0 0 0 0 4.73c.07.43.41.78.77.85.34.07.87-.06 1.03-.44.19-.45.22-.93.24-1.44l-1.2-.03Z" class="uuid-10ed712b-9881-4e74-b478-b5df92df528d"/><path d="m95.92 27.87-2.35.04.01 2.4 3.04.01.01 1.69h-5.06l.01-9.68 5.04-.01.01 1.72-3.05.01-.01 2.21 2.34.01z" class="uuid-c9ed3f85-a0c1-4952-a23e-d83ba479f4a6"/><path d="m111.07 27.88-2.35.03.01 2.41h3.06l-.01 1.69h-5.05v-9.69l5.06.01-.01 1.7-3.05.02v2.2l2.34.03z" class="uuid-10ed712b-9881-4e74-b478-b5df92df528d"/><path d="M68.3 29.94h-1.92l-.4 2.07h-1.76l2.2-9.67h2.09L70.7 32l-1.99.02-.39-2.08Zm-.23-1.62-.6-2.87-.13-1.08-.75 3.96h1.48ZM81.46 29.94h-1.92L79.15 32h-1.77l2.2-9.68h2.08l2.19 9.66-2 .03-.39-2.08Zm-.24-1.63-.78-3.84c-.02.18-.04.39-.06.53l-.62 3.34 1.47-.03Z" class="uuid-9e6b64da-e385-4476-ab01-a22924aee91d"/><path d="m122.49 31.98-2 .04-.01-7.85-1.57-.02-.01-1.82 5.21-.01v1.83l-1.62.01z" class="uuid-c9ed3f85-a0c1-4952-a23e-d83ba479f4a6"/><path d="M59.8 28.06c0 .27.02.5-.14.86-.06-.45-.05-.74-.08-1.09z" style="fill:#68a8d1"/><path d="M116.45 27.63h.11l.06.78z" style="fill:#8cbddc"/><path d="m73.01 26.12-.19.01.02-.69z" style="fill:#61a4cf"/><path d="M53.65 51.22c.29 1.58-.17 3.75-2 3.99-.49.06-.98.04-1.5.01v-5.93c1.54-.15 3.19.24 3.5 1.93" style="fill:#1d1a1e"/><path d="M69.91 53.16c.84 2.85.81 6.93-.98 9.39-.72.99-1.83 1.54-3.03 1.45V49.6c2.18-.08 3.47 1.74 4.01 3.55Z" style="fill:#1e1b1f"/><path d="m57.45 24.7.02-.44c.01.05 0 .18-.02.44" class="uuid-5ac51706-d3c3-4d11-b51c-612e75692fd3"/><path d="M68.07 28.32h-1.48l.75-3.96.13 1.08z" style="fill:#1175b6"/><path d="m81.22 28.31-1.47.03.62-3.34c.03-.13.04-.35.06-.53l.78 3.84Z" style="fill:#1277b7"/></svg>