<svg xmlns="http://www.w3.org/2000/svg" id="uuid-0ce391cd-0a13-4845-8f21-43fc5b6c4019" viewBox="0 0 160 95.98"><defs><style>.uuid-5d3d6f22-dd96-4721-8b37-007effdd3bfa{fill:#fff}.uuid-52f804e6-9371-4ddd-8620-4b60ce3529d0{fill:#191919}.uuid-f24f98d1-ed36-4b74-9cd3-16946bd5c60d{fill:#6d6d6d}</style></defs><path d="M0 0h160v95.98H0zm51.21 30.35-18.71.03v12.45l6.18.01v34.81l.12.14h41.15V36.57H38.72v41.22h41.21l.12-.15V36.61h47.67l-.02-18.34H51.21z" style="fill:#fefefe"/><path d="M51.02 36.57h28.93v41.22H38.72V36.57h41.23v41.22H38.72V36.57zm3.85 21.24c3.05-1.68 3.67-5.16 2.86-8.18-.47-1.63-1.63-2.8-3.21-3.4-1.12-.38-2.28-.6-3.5-.6h-5.31v22.36h4.43l.04-10.3 3.92 10.3h4.66zm19.57-5.06c-.36-1.64-1-3.07-2.06-4.35-1.44-1.64-3.43-2.73-5.67-2.74l-5.25-.04v22.37h4.44c1.24 0 2.41-.26 3.58-.65 1.73-.69 3.12-1.87 3.98-3.53 1.65-3.15 1.72-7.66.98-11.05Z" class="uuid-52f804e6-9371-4ddd-8620-4b60ce3529d0"/><path d="M79.93 77.79h.01V36.57H51.01c.11-.02.23-.22.23-.37l-.04-5.85V18.27h76.51l.02 18.34H80.06v41.03l-.12.15Zm7.45-49.28 1.19.03c-.01.53-.04 1.05-.27 1.5-.2.38-.74.46-1.09.35-.27-.08-.61-.43-.67-.8-.27-1.59-.27-3.19 0-4.77.09-.54.45-.9.94-.89s.87.29.98.82l.22 1.03 1.63-.33c-.09-.91-.27-1.77-.87-2.45-.69-.77-1.75-.98-2.8-.7-2.74.75-2.58 5.72-1.88 7.96.48 1.56 2.09 2.34 3.56 1.67.4-.18.64-.6.91-.95l.23.95c.19.08.6.07.86.02v-5.06h-2.94v1.61Zm-25.66-4.14V32l1.88-.01v-9.65h-2.66l-.97 4.61-.28 1.66-.2-1.63-.84-4.64h-2.74V32l1.58.02v-6.67c0-.35-.08-.7-.03-1.09.12.33.11.72.18 1.09l1.29 6.61c.45.07.86.07 1.3 0l1.27-6.19.22-1.39Zm6.58 5.57.4 2.08 1.99-.04-2.19-9.66h-2.08l-2.19 9.67h1.76l.41-2.07 1.91.02Zm4.58-3.07c0-.25.03-.58.14-.76l2.11 5.9 1.63-.02v-9.64l-1.63-.02.03 5.64c-.1-.32-.15-.65-.25-.93l-1.67-4.71h-1.96v9.68l1.63-.02zm8.58 3.07.39 2.09 1.99-.04-2.19-9.65h-2.09L77.37 32h1.77l.39-2.06h1.92Zm14.46-2.06v-1.6l-2.35-.02v-2.21h3.06v-1.71h-5.05v9.68h5.05v-1.69h-3.05v-2.41l2.34-.02Zm7.43 4.14 1.88-.03v-9.66h-2.67l-.94 4.44c-.14.64-.18 1.27-.28 1.95l-.29-2.17-.77-4.23h-2.75v9.65c.54.03 1.03.03 1.58 0l.02-7.51.21 1.3 1.23 6.23 1.28-.03 1.24-6.02.24-1.37.02 7.44Zm7.73-4.14v-1.6l-2.35-.03v-2.2l3.06-.02v-1.7l-5.05-.01v9.69h5.05v-1.68l-3.06-.02V27.9zm5.49-.7c0 .19-.04.42-.11.55-.07-.31-.11-.62-.2-.88l-1.62-4.53h-1.95V32h1.62l-.1-6.56.37 1.25 1.95 5.31h1.63v-9.69l-1.63.03.04 4.83Zm5.92 4.79v-7.8l1.63-.02v-1.82h-5.21v1.82l1.58.02v7.82c.69.03 1.33.03 2.01-.02Z" style="fill:#6b6b6b"/><path d="m51.21 30.35.04 5.85c0 .15-.12.35-.23.37h-12.3v41.22h.07l-.12-.14V42.84l-6.18-.01V30.38l18.71-.03Z" style="fill:#979797"/><path d="m54.87 57.81 3.89 10.17H54.1l-3.92-10.3-.04 10.29h-4.43V45.6h5.31c1.22.02 2.38.24 3.5.62 1.58.6 2.73 1.77 3.21 3.4.82 3.02.19 6.51-2.86 8.18Zm-1.22-6.59c-.31-1.69-1.97-2.07-3.5-1.93v5.93c.52.03 1.01.05 1.5-.01 1.83-.24 2.29-2.41 2-3.99M74.44 52.75c.74 3.39.67 7.9-.98 11.05-.87 1.66-2.25 2.84-3.98 3.53-1.16.4-2.34.65-3.58.65h-4.44V45.61l5.25.04c2.23.02 4.23 1.11 5.67 2.74 1.05 1.28 1.7 2.72 2.06 4.35Zm-4.56.33c-.54-1.79-1.84-3.55-3.98-3.47v14.4c1.2.09 2.31-.46 3.03-1.45 1.8-2.48 1.82-6.61.95-9.48M103.35 32.02l-.02-7.44-.24 1.37-1.24 6.02-1.28.03-1.23-6.23-.21-1.3-.02 7.51c-.55.03-1.04.03-1.58 0v-9.65h2.75l.77 4.23.29 2.17c.1-.68.15-1.31.28-1.95l.94-4.44h2.67V32l-1.88.03ZM61.72 24.37l-.22 1.39-1.27 6.19c-.44.07-.85.07-1.3 0l-1.29-6.61c-.07-.37-.06-.76-.18-1.09-.05.38.04.73.04 1.09v6.67l-1.59-.02v-9.66h2.74l.84 4.64.2 1.63.28-1.66.97-4.61h2.66v9.66h-1.89zM73.02 26.11l-.19-.67-.05 1.33.1.1.03 5.12-1.63.02v-9.68h1.95l1.67 4.71c.1.28.16.61.25.93l-.03-5.64 1.63.02v9.64l-1.63.02-2.11-5.9ZM116.45 27.73c.04.19.1.38.19.67l-.07-1.22-.04-4.83 1.63-.03V32h-1.63l-1.95-5.31-.37-1.25.1 6.55h-1.62v-9.66h1.95l1.62 4.52c.09.26.13.57.2.88ZM87.38 28.51V26.9h2.93v5.06c-.26.05-.68.06-.86-.02l-.23-.95c-.28.35-.51.77-.91.95-1.47.67-3.07-.11-3.56-1.67-.69-2.24-.85-7.22 1.88-7.96 1.06-.29 2.11-.08 2.8.7.6.67.78 1.54.87 2.45l-1.63.33-.22-1.03c-.11-.53-.51-.81-.98-.82s-.84.35-.94.89c-.27 1.57-.27 3.18 0 4.77.06.37.4.72.67.8.35.1.89.03 1.09-.35.23-.44.26-.97.27-1.5l-1.19-.03ZM95.92 27.88l-2.35.02.01 2.41 3.05.01-.01 1.69h-5.05l.01-9.68 5.04-.01.01 1.72-3.05.01-.01 2.2 2.34.03zM111.08 27.88l-2.35.02-.01 2.41 3.06.02v1.68h-5.05v-9.69l5.06.01-.01 1.7-3.05.02v2.2l2.34.03zM68.3 29.94l-1.91-.02-.41 2.08h-1.76l2.19-9.67h2.08l2.19 9.65-1.99.04-.4-2.08Zm-.23-1.62-.58-2.77-.16-1.09-.74 3.87h1.48ZM81.46 29.94h-1.92l-.39 2.07h-1.77l2.19-9.66h2.09l2.19 9.64-1.99.04-.39-2.09Zm-.24-1.63-.76-3.73-.71 3.75zM122.49 31.97c-.68.05-1.32.05-2 .02v-7.82l-1.58-.02v-1.82h5.2v1.82l-1.62.02z" class="uuid-5d3d6f22-dd96-4721-8b37-007effdd3bfa"/><path d="M73.02 26.11c-.1.18-.14.51-.14.76l-.1-.1.05-1.33z" style="fill:#969696"/><path d="M116.45 27.73c.08-.13.11-.36.11-.55l.07 1.22c-.09-.29-.15-.48-.19-.67Z" style="fill:#b4b4b4"/><path d="M53.65 51.22c.29 1.58-.17 3.75-2 3.99-.49.06-.98.04-1.5.01v-5.93c1.54-.15 3.19.24 3.5 1.93M69.88 53.08c.87 2.87.85 7-.95 9.48-.72.99-1.83 1.54-3.03 1.45v-14.4c2.14-.08 3.44 1.68 3.98 3.47" class="uuid-52f804e6-9371-4ddd-8620-4b60ce3529d0"/><path d="m68.07 28.32-1.49.01.75-3.86.16 1.08zM81.22 28.31l-1.47.02.71-3.75z" class="uuid-f24f98d1-ed36-4b74-9cd3-16946bd5c60d"/></svg>