<svg xmlns="http://www.w3.org/2000/svg" id="uuid-5f5dbcae-41e5-41a6-9d96-11b619c3d36d" data-name="Слой 1" viewBox="0 0 160 94.43"><defs><linearGradient id="uuid-2fa0fd0c-5f91-466d-8c4d-6b00588fe1bb" x1="795.32" x2="425.36" y1="60.25" y2="99.08" data-name="Безымянный градиент 3" gradientTransform="matrix(.13 0 0 .13 -.04 4.25)" gradientUnits="userSpaceOnUse"><stop offset="0" stop-color="#238cc8"/><stop offset=".68" stop-color="#0896f2"/><stop offset="1" stop-color="#10a2f0"/></linearGradient><linearGradient id="uuid-8da6c3bd-faee-44a2-b099-18af226533ac" x1="460.98" x2="715.98" y1="588.61" y2="588.74" data-name="Безымянный градиент 7" gradientTransform="matrix(.13 0 0 .13 -.04 4.25)" gradientUnits="userSpaceOnUse"><stop offset="0" stop-color="#e6df42"/><stop offset="1" stop-color="#62b245"/></linearGradient><linearGradient id="uuid-7e0d6be6-c6c4-4518-b33a-27a545fa8c65" x1="414.41" x2="363.75" y1="130.99" y2="205.38" data-name="Безымянный градиент 9" gradientTransform="matrix(.13 0 0 .13 -.04 4.25)" gradientUnits="userSpaceOnUse"><stop offset="0" stop-color="#24a7db"/><stop offset="1" stop-color="#49b5a3"/></linearGradient><linearGradient id="uuid-0cffa43e-3a0b-4351-8062-c5c3cb29b0a6" x1="828.14" x2="699.46" y1="533.78" y2="563.17" data-name="Безымянный градиент 13" gradientTransform="matrix(.13 0 0 .13 -.04 4.25)" gradientUnits="userSpaceOnUse"><stop offset="0" stop-color="#279c3d"/><stop offset="1" stop-color="#60b240"/></linearGradient><linearGradient id="uuid-f90fd8d7-f171-4d10-8a72-00fbcfda20b6" x1="363.35" x2="348.99" y1="188.5" y2="485.15" data-name="Безымянный градиент 14" gradientTransform="matrix(.13 0 0 .13 -.04 4.25)" gradientUnits="userSpaceOnUse"><stop offset="0" stop-color="#4ab4a2"/><stop offset=".53" stop-color="#accc3d"/><stop offset="1" stop-color="#e7e32f"/></linearGradient><style>.uuid-d0e4f90c-cafc-4d3d-b30d-ffea54f2bffc{fill:#359448}.uuid-21dad02e-6566-4421-b872-7abd7aa2329e{fill:#dff8e1}.uuid-5172afa1-fdad-452e-ba8c-2aa4e6f023f7{fill:#eee438}.uuid-cbf52dc2-ddf4-4514-ba0d-df37a0a76669{fill:#169ee9}.uuid-d36fad3f-0741-4551-8b3c-66674fe2548d{fill:#c4d433}.uuid-e60bb503-562d-4a43-9c23-9951606fe237{fill:#21993b}.uuid-ef136fcc-0d9c-461d-afb0-5926f2b3b739{fill:#34984a}.uuid-f48f564a-55b2-4997-bbf6-414bc379baf3{fill:#f3fcf5}.uuid-a4005966-0940-47ee-92af-a4091c82ce18{fill:#eee435}.uuid-78bd605c-c337-44b9-8e5e-adf2f7881127{fill:#269b3c}.uuid-7a486c21-3a16-48b6-98c9-b69deb9103ba{fill:#349a49}.uuid-6342d129-a3db-4148-8c6c-c69cea071b2c{fill:#ede534}.uuid-9034e38e-859b-4b00-8378-6c75e4c07b8a{fill:#f9faf3}.uuid-6ca424bd-e77e-45d4-b532-94f53f770f29{fill:#35904f}.uuid-5571c54c-2b8e-480a-be1c-16ac748716d5{fill:#fdfce6}.uuid-4b259d40-2591-4909-8d74-98342eb0529a{fill:#fcfdf2}.uuid-967b32cb-3622-4464-bae7-2759c5cf126c{fill:#2b9d3d}.uuid-042e42d2-866e-494b-a5df-ba46117e474d{fill:#fdfdf6}.uuid-01396ebb-9cc9-4490-a059-ec026c4a99e0{fill:#f6fcf8}.uuid-b4d8d568-6295-42b6-958f-3de751643ac5{fill:#379551}.uuid-6ea97a4f-6a57-4dfc-b485-f7898a9801e8{fill:#fcfcef}.uuid-71057865-48fa-4f67-8c03-ed6c0d07cba6{fill:#36994d}.uuid-f75b26b0-eb6c-4366-b603-1dc9292fb456{fill:#e9e232}.uuid-9c18ae82-c055-480c-a92b-528331ef8678{fill:#36984d}.uuid-a279b8e1-66ce-4eb2-8fb5-3b274d3542f1{fill:#379a4d}.uuid-71e0fb30-2dda-490d-82c8-12b963be6eb7{fill:#f0fafd}.uuid-dd6352b8-1409-4ce1-abd1-0bd16222c89b{fill:#f6fcf4}.uuid-dd2c556e-8211-4a63-a3a1-d7682913e5d6{fill:#fcfdf1}.uuid-64eeb2a2-2471-4876-8202-9307e0039b87{fill:#ebe43d}.uuid-49062557-076c-43d1-8d18-7eb782417ef7{fill:#effbfc}.uuid-59aa64c2-dc81-4d83-a1a2-cac3b367e39f{fill:#edfbfc}.uuid-34550871-ad65-415a-84b5-efb4f081a318{fill:#3b994f}.uuid-e2ad3d90-1066-4b91-8abc-d20d12883ac7{fill:#ddf2f6}.uuid-cc1fec8d-15a2-445d-bd12-c9cecee4c849{fill:#199a3f}.uuid-d9d3856f-5087-4b0f-84ab-3af8a81b8f6f{fill:#0995f0}.uuid-f08eae43-b05e-4f80-9ef7-814a5b063215{fill:#18a2e8}.uuid-e6900f01-d691-498c-87d5-f288effc2bd9{fill:#25a03b}.uuid-bb3b34ec-cf32-4bf6-9c90-13d53f185665{fill:#1fa6df}.uuid-e62ff321-4bef-4b39-8502-27439dbf37dc{fill:#fcfdee}.uuid-45acc738-655c-4763-ade3-1b3d753e39b0{fill:#f0fbef}.uuid-12205b5c-82e3-482f-a6ee-5d80b2322437{fill:#fdfdf2}.uuid-7c75fdba-7a5f-4a21-9834-ba7d2a6d9baf{fill:#0e90e5}.uuid-571d86ed-7139-44c6-bd7c-cbcd2b167c85{fill:#fdfbf1}.uuid-dfd2beae-63fa-4a22-abdb-ce6ad467a731{fill:#f4fbf7}.uuid-5bb98386-058b-40d7-80ea-71501a62cbb0{fill:#138cd9}.uuid-1d6dd611-1a46-4cc1-9352-d9ae0ba975b0{fill:#e5f7e7}.uuid-6bc658f7-4a19-4be0-9ad4-b463d685ff4e{fill:#f6fdfd}.uuid-dc765aca-725b-44e4-8777-8b63744c8abb{fill:#eafafa}</style></defs><path d="M0 0h160v94.43H0z" style="fill:#fdfdfd"/><path d="M112.39 22.32c.2.15.54.54.43.76.03.37.28.71.73 1.02.29.17.35.55.54.79l.22.55c.35.28.44.5.27.65q-.12.405.15.03c.02-.12.07-.13.14-.03.16.14.29.32.39.53.01.2.17.58.37.65l1.39 2.61c.09.23.22.6-.07.67-.28.46-1.08.87-1.56 1.04-.13.3-.3.44-.49.41-.3.11-.57.29-.81.53.05.2-.14.36-.31.23-.4.02-1.06.44-1.29.92-.06.22-.24.41-.53.58l-.88.65-.16-.06c-.33.18-.63.36-.86.66-.11.33-.58.9-.93.66-.34.17-.62.39-.82.67.1.22-.11.33-.24.11-.36.11-.63.35-.83.72-.16.21-1.59 1.32-1.7 1.32-.05 0-.09-.02-.14-.05-.29.2-.58.36-.87.49l-.03-.2-.1-.18c.8-.57 1.05-.76.76-.58l-.29-.08c-.49-.1-1.15.1-1.29.63.11.28-.08.72-.28.93-.18.15-.2.27-.05.36l-.49.57c.05.21-.1.29-.26.13-.59.14-1.13.71-1.55 1.17.07.09.1.19.01.25-.48.32-.97.65-1.47.95-.2.29-.5.54-.91.76-.21.34-.38.39-.51.16l-.73.49-.21-.23c-.04-.05-.06-.1-.05-.13.01-.04.67-.65 0 .02-.02.02-.01.08.01.15-.25.07-.42.19-.5.37.2.14.13.26 0 .41.02.12-.03.14-.13.09-.31.18-.53.19-.66.02-.33-.32.62-.35.58-.34-.49.07-1.29.23-1.28.84-.39.18-.58.44-.58.78q-.03.285-.57.45l-.35.38c.11.28-.55.69-.77.65-.34.07-.6.25-.81.53l.03.21c-.39.29-.8.56-1.22.82.06.14-.09.28-.44.41-1.01.75-2 1.53-2.97 2.35l-.2-.05c-.64.59-1.35 1.11-2.12 1.55-.45.46-.93.81-1.44 1.07l-.17-.09c-.67.55-1.38 1-2.11 1.34l-.39.49-1.12.67-1.21-.62c-.17.28-.49 0-.39-.26-.26-.37-.77-.71-1.55-1.02-1.44-.94-2.9-1.83-4.4-2.68-.11.12-.25.1-.4-.03l-2.44-1.57-.17-.14c-.28.03-.87-.18-.74-.5-.29-.07-.51-.21-.65-.41-.11-.04-.11-.08 0-.13l-.27-.3c-.53-.31-1.06-.58-1.61-.82-.17.09-1.04-.3-1.19-.44-.03-.03-.01-.1.02-.19-.26-.04-.35-.14-.26-.28-.27-.21-.26-.66-.13-.95.04-.11.08-.11.13 0l.09-10.22.09-.09.14-.11c.39.32.81.56 1.28.72.1-.06.13-.03.1.09l.3.2c.04.26.33.42.88.5.14.21.33.32.56.41 2.07 1.42 4.22 2.74 6.43 3.98.93.75 2.03 1.46 3.11 2l.12-.13c.5.31 1 .63 1.49.97.36.15.48.28.36.4.16.21.34.25.52.13.67-.42 1.27-.91 1.82-1.45.79-.44 1.54-.94 2.27-1.52l.13.07c.63.38.91.35.85-.08-.34.05-.52-.05-.52-.3-.18.02-.15-.03 0-.13-.05-.08-.09-.15-.08-.16.55-.58 1.48-1.25 2.21-1.54.31-.4.67-.66 1.09-.8.12-.13.29-.2.38-.37.89-.7 1.8-1.41 2.77-2.02q1.08-1.02 2.34-1.56.42-.225.66-.54l.06-.36c.06-.06 1.29-.83 1.42-.89.04-.02.11.02.2.08.49-.36.98-.72 1.46-1.07-.05-.08-.08-.14-.06-.18.06-.11 1.39-1.02 1.61-1.15.03-.02.09.01.16.06.63-.38 1.26-.82 1.86-1.3.27-.18.52-.23.76-.14.16-.05.2-.18.13-.39l-.08-.13.61-.42c-.29-.25.41-.53.65-.53.26-.1.47-.24.63-.43 1.14-.68 2.2-1.46 3.17-2.33-.16-.2-.07-.27.15-.12.59-.28 1.06-.63 1.4-1.04l.09-.29c1.28-.99 2.58-1.92 3.9-2.77l.23.05Z" style="fill:#299e3e"/><path d="M85.77 6.82c.09-.2.27-.17.39 0 1.35.23 2.74.38 4.05.78 1.45.24 2.86.73 4.21 1.32.12-.06.25-.11.37-.05.58.31 1.3.6 1.92.75l.19.35c.43.11.7.28.8.51.07.16 0 .21-.13.1.01.27-.1.33-.35.25.42.41.97.62 1.56.67.37.41.75.57 1.15.47-.16-.14-.32-.25-.53-.3-.23.25-.89-.14-.51-.43-.05-.11-.01-.14.1-.09.47.26 1.04.44 1.5.71.45.12.93.43 1.27.74l1.21.74c.22-.08.4.04.53.36.68.47 1.37.96 2.07 1.45l-.02.17c.04.06.07.12.06.17-.07.24-1.42 1.14-1.73 1.29q-.465.435-1.08.78c-1.22.74-2.33 1.68-3.49 2.51q-.435.51-1.08.78c-.11.15-.26.25-.39.37-.36.15-.75-.03-1.17-.52-.31.03-.74-.04-.72-.38-.33-.13-.62-.32-.85-.55-1.79-1.1-3.8-1.88-5.79-2.57.05-.07.19-.12.4-.15l.12-.28 2.41.05c-.06-.03-.11-.07-.12-.11-.22-1.25-.08-2.99.23-4.2.57-.15 1.17-.21 1.8-.17l.07-1.72q.27-.27.18-.51l.04-.53c-.67.13-1.34.21-2 .24.02.47-.12.77-.41.88-.53-.07-.99.03-1.39.29-.04.77-.13 1.53-.27 2.3.15.78-.04 1.29-.58 1.54-.05.37-.27 2.03-.66 2.02-.07 0-.13-.01-.2-.03-.24.23-1.32-.04-1.32-.39l-.34-.2c-.48-.03-.76-.18-.84-.46.01-.17.1-.17.25-.14-.52-.08-1-.04-1.43.13l-.06.12c-.42-.05-.84-.05-1.25 0l-.05.08c-.77-.15-1.54-.18-2.31-.08q-4.08 0-8.13.66c0 .04-.01.07-.03.07-.28.08-1.86.53-1.96.5-.05-.02-.08-.07-.11-.13-.24-.02-.3-.06-.17-.1-.42 0-2.35.79-2.87 1.01 0 0 .01.06.04.13l-.18.26c-1.14.49-2.27 1-3.39 1.51-.57.42-1.2.81-1.9 1.15-.21.46-.45.57-.73.34-.56.43-1.15.74-1.77.94-.38-.26-.22-.62.48-1.07l-.03-.19c-.25-.07-.45-.28-.6-.64l-.66-.71c-.63-.3-.98-.69-1.06-1.15-.57-.33-1.01-.85-1.4-1.37-.96-.32-1.56-.88-.75-1.79-.5.71-1.01.89-1.54.55-.03.11-.08.11-.14 0l-.22-.04c-.36.34-.74.64-1.15.9l-.19-.07c.22.45-.94 1.31-.83.52-.17-.14-.08-.27.29-.38.18-.3.4-.59.64-.88.61-.32 1.18-.72 1.73-1.22.09-.29.29-.42.59-.38.33-.48.73-.72 1.21-.72.18.01.2.08.06.19.07.25-.03.34-.28.26l-.54.39c.25.18.49.05.67-.27l.61-.1.29-.08c-.2-.09-.4-.31-.32-.52.06-.15 2.25-1.52 2.56-1.68.01 0 .06.06.11.14.63-.26.97-.32 1.64-.39.04 0 .03-.09.01-.2.35-.21.68-.45.98-.73-.06-.33.9-.67 1.21-.54l.63-.03c.21.51.71.45.88-.07.1-.14.3-.17.59-.1l.99.38.17-.15-.11-.26c-.61-.22-.81-.49-.57-.8l-.09-.16c.38-.12.72-.28 1.02-.47.58-.44 1.39-.61 2.1-.67 1.22-.15 2.43-.38 3.64-.69 1.13-.16 2.26-.27 3.4-.33l.16.15.44.11c.25-.1.45-.11.6-.01h.16c1.35.06 2.71.1 4.07.14.41-.23.91-.25 1.38-.21.03 0-.56.12-.35-.16l.07-.13c.94.07 1.89.15 2.83.24Z" style="fill:url(#uuid-2fa0fd0c-5f91-466d-8c4d-6b00588fe1bb)"/><path d="M64.91 75.26c.02-.06.05-.12.09-.15.05-.04 1 .37 1.11.54.07 0 .13-.01.18.01 1.59.74 3.31 1.51 5.05 1.85l.12-.14 1.2.31c4.97 1.31 10.45 1.25 15.38-.2q.825-.48 1.86-.57c.25-.19.48-.26.7-.21.48-.1.84.02 1.06.35.44 0 .71.15.82.45-.33.5-.39 1.1-.18 1.78.5-.04.78.36.94.79 0 1.09.24 2.06.75 2.92.14.39.16 1.21.05 1.58l-.06.3-1.33.32.2.3c.76.19.11.47-.41.43l-.26.24c0 .11-.01.24-.09.26-2.39.63-4.83 1.2-7.29 1.44l-.07-.14c-.99.16-1.95.2-2.89.13l-.05-.17q-.555.12-.87-.09-1.365-.03-2.7-.21l-.14-.31c-.56.19-1.05.19-1.49 0-.17.14-.41.22-.72.26l-.22.25c-1.62-.04-3.22-.25-4.82-.63l-.21.08c-1.72-.35-3.41-.88-5.04-1.54-1.19-.46-2.36-.97-3.58-1.52l-1.25-.57c-.37.06-.57-.02-.59-.24-.22-.2-.39-.38-.49-.55-.35-.25-.42-.46-.21-.65.47.06.84-.05 1.12-.31-.01-.68.02-1.35.11-2.01.17-.13.38-.2.61-.2-.09-.6.1-.94.56-1.03-.1-.69.11-1.04.8-1.07-.16-1.72.33-2.45 1.45-2.18l.22-.17c.24.17.44.26.59.26Z" style="fill:url(#uuid-8da6c3bd-faee-44a2-b099-18af226533ac)"/><path d="M118.15 58.77c-.1.26-.25.26-.35 0-.19.18-.18.29 0 .51.12-.19.23-.36.35-.51l.19-.12c.04-.7.13-1.37.28-2.03.27-.05.44-.25.49-.59.07-.13.3-.26.35-.19.31.45-.1 2.02-.29 2.56-.01.03-.04.06-.07.09-.11.25-.18.52-.13.79-.21 1.25-.59 2.46-1.16 3.63-.16.41-.38.78-.64 1.1-.23-.02-.26.07-.29.28-.16-.29-.09-.25.14-.03.17.22-.11.75-.38.78-.17 0-.21.1-.15.26.08.03.14.05.14.07-.01.23-.71 1.56-.89 1.82-.01.02-.09 0-.19-.05-.26.37-.48.76-.66 1.18.1.17.04.24-.13.13-.19.31-.34.37-.45.17-.1.28-.22.38-.36.28.07.3.08.59.01.87.18.19-.27.89-.5.65l-.85 1.17c.07.07.12.13.11.17-.1.34-.87 1.26-1.21 1.26-.04.08-.08.08-.13 0q.15-.54-.48.57c-.32-.08-.74-.94-.9-1.3-.09-.22-.11-.46-.13-.69-.79.13-1.14-.29-1.01-1.06-.81.15-1.19-.24-1.04-1.04-.83.14-1.19-.23-1.05-1.04-.73-.14-.88-.72-.44-1.73-.27.39-1.45.56-1.22-.12-.22-.09-.19-.31.08-.66.22-.09.39-.29.5-.62l-.15-.08.56-.84c.28-.5.59-.98.92-1.44.21-.47.47-.85.77-1.15.25-.16.43-.48.54-.94-.06-.05-.11-.1-.1-.13.24-.68.57-1.35.91-1.97v-.12l.12-.59c.57-1.28.98-2.61 1.22-4l.21-.26a.4.4 0 0 1 .18-.13c.28-.08.36 1.11.38 1.36.54-.07 1.08.06 1.64.38.35-.35.74-.5 1.17-.47.57.4 1.29.56 2.16.47.41.07.59.4.53 1l.9.16c.34-.38.75-.26.9.23.09.3-.21 1.68-.39 1.98Z" class="uuid-e60bb503-562d-4a43-9c23-9951606fe237"/><path d="M57.05 24c.06-.38.75-1.06 1-.54.2-.05.32.09.34.39.05-.35.17-.32.25.02l-.02.26c.1.06.06.14-.13.23.09.32-.24.63-.56.57-.59.8-1.33 1.54-2.05 2.18-.23.44-.53.82-.9 1.16-.19.39-.54.96-.8 1.31-.03.04-.09.04-.16.04-.51.71-.93 1.49-1.25 2.32l-.18.02c-.14.28-.37.63-.27.19-.71 1.05-1.54.86-1.49-.43-.91.09-1.74-.26-2.49-1.03-.69-.03-1.37-.24-2.06-.63-.48-.33-1.01-.58-1.6-.75-.1-.19-.21-.26-.34-.22-.27.67-1.08.46-.79-.24-.13.05-.13-.04 0-.28.06-.33.14-.66.23-1l.3-.04c.4-.82.86-1.65 1.43-2.37.14-.42.37-.77.67-1.04l1.17-1.57c.19-.25.39-.54.66-.66.47-.37.83-.79 1.07-1.27.35-.51.74-.9 1.18-1.16.16-.26.35-.49.58-.7l.15.12c.17-.17.25-.16.41-.06.25.15 1.19 1.46 1.4 1.78.97.13 1.69.97 2.06 1.83.81.23 1.36.87 1.85 1.52.09-.07.2-.06.33.01Z" style="fill:url(#uuid-7e0d6be6-c6c4-4518-b33a-27a545fa8c65)"/><path d="M120.66 44.59c-.04.11-.08.11-.13 0-.08-.01-.05-.15-.05-.14 0 1.26-.01 2.57-.08 3.81-.23.57-.32 1.24-.25 2-.22.44-.48.47-.73.03l-.11-1.69c-1.35.08-2.68 0-3.98-.21-.15-.49-.24-1-.28-1.55l-.45-.03c-.92-.83-1.23-.35-.94 1.43-.04.57-.22 1.87-.84.88-.14-.22-.19-.65.02-.82.09-.84.13-1.69.14-2.55l.28-.1c.16-.22.44-.34.85-.37.31-.07.97-.78.37-.4l-.25-.15c-.19-.14-.13-.31.2-.54l.73-.52c-.24-.16.04-.31.27-.4.06-.08.24-.08.26-.22.51-.44 1.04-.8 1.59-1.09.09-.06.17-.16.23-.24a.77.77 0 0 1 .28-.34c.22-.17 2.26-1.57 2.35-1.46.44.54.7 3.81.53 4.67Z" class="uuid-967b32cb-3622-4464-bae7-2759c5cf126c"/><path d="M60.83 20.95c.2.06.41.03.56.26-.26.01-1.04.66-1.01.74.21.53.86-.67 1.77-.68.19.11.1.23-.26.36-.06.08-.16.12-.24.17-.23.22-.63.51-.91.5l-.48.23c-.5.53-1.04.97-1.62 1.33l-.25-.02c-.4-.53.04-1.05.63-.89-.11-.12-.08-.22-.02-.32-.24-.01-.45-.13-.63-.37-.95-.48-1.84-1.17-2.08-2.25-.39-.12-.71-.37-.94-.76-.66-.23-1.23-.59-1.06-1.38-.48.13-1.45-.45-1.11-.89.06-.08.2-.09.31-.09-.11-.4.81-.88 1.19-1.03.04 0 .1-.02.14 0 .77.14.78.45.16.89.52.5 1.03 1 1.52 1.52.71-.5 1.36.12.85.79.41.42.82.83 1.22 1.25.61-.63 1.59.14.99.8h.2c.53-.46.88-.52 1.07-.16" style="fill:#19a3e5"/><path d="M64.4 36.17c.22-.17.33-.02.14.19.13.18.22.44-.02.53-.09 3.7-.11 7.39-.04 11.08l.17.19c.39.42.96.61 1.44.91.3.13 1.7.8 1.81.96.03.05.05.11.07.17-.01.04 0 .09 0 .13.21.08.19.17-.05.15-.67.02-.28-.37-1.52-.56-.23-.66-1.3-1.06-1.87-1.17 1.27-.53-.55 0-.35-.69.11-.39-.02-.72-.02-1.12l-.03-8.37c0-.35.06-.64.1-.98.05-.46-.32-1.18.17-1.41Z" class="uuid-45acc738-655c-4763-ade3-1b3d753e39b0"/><path d="M58.59 24.33c0 .12 0 .43.2.42s.37-.05.49.08c.06.07.27.21.12.29-1.52.09-.7.76-1.49 1.42-.62.23-1.2.57-1.3 1.27-.18-.18-.14-.36-.32-.42-.11.48-.09.91-.27 1.33-.3.23-.7.13-.93.39.24.09.23.2-.02.26-.11.02-.31.02-.34-.08-.05-.13-.03-.24-.03-.34.08-.28.23-.5.43-.67.18-.38.44-.72.79-1.03.69-.77 1.37-1.54 2.03-2.32.14-.24.29-.48.56-.57l.1-.03Z" style="fill:#fcfcf9"/><path d="M117.9 62.95c0 .13-.06.16-.17.11-.19.13-.08.42-.16.66-.18.61-.69 1.09-.83 1.72-.11.49-.5.75-.54 1.19.09.21.06.26-.13.13-.06.15-.19.37-.15.54-.05.29-.17.33-.37.11-.18 0-.1-.13 0-.26.05-.02 1.07-1.63.94-1.85-.22-.27-.2-.29.15-.26.24-.19.32-.49.38-.78-.24-.19-.15-.31.15-.25.76-1.5 1.32-3.11 1.79-4.73-.07-.18-.04-.45.13-.53.17-.75.34-1.5.5-2.24l.14-.12c-.05-.52-.03-1.17.3-1.54-.11-.73-.04-1.48.2-2.26l.29-.13.25-2.96.14-.06c0 .58.05 1.19-.02 1.84-.15 1.56-.58 2.43-.31 4.06-.23-.25-.02-.51-.24-.83-.29.29.1 1.46-.13 2.14-.23-.23.06-.45-.21-.57-.03.46-.17.73-.28 1.1-.04.15.14.39.06.52-.04.08-.24.14-.29.29-.21.71-.36 1.37-.57 2.07l-.54 1.82c-.1.35-.49.73-.49 1.07Z" class="uuid-f48f564a-55b2-4997-bbf6-414bc379baf3"/><path d="M85.11 6.43c.37-.04.68 0 .92.13.02.07.17.16.13.27-.13-.02-.26 0-.39 0-2.99-.33-6.06-.44-9.05-.26l-.26.14c-1.99.05-3.95.43-5.89.87l-.28-.09h-.39c.13-.29.48-.21.78-.27.92-.2 1.76-.5 2.69-.58.3-.03 3.67-.42 3.66-.42 1.9-.06 3.78-.06 5.69 0 .84.03 1.63.28 2.4.22ZM71.58 6.74c-.39.25-.89.26-.94.01.19-.34.73-.17.94-.01" class="uuid-49062557-076c-43d1-8d18-7eb782417ef7"/><path d="m81.98 56.39-.13-.14c.56-.4 1.12-.79 1.68-1.18l7.34-5.25c.15-.15.29-.19.4-.12 0 .48-.56.4-.79.6-.47.39-.85.82-1.39 1.17l-.7.46c-.79.51-.59 1.32-1.06.69-.32.88-1.57.98-2.56 1.98-.29.29-.31.74-.84.79-.68.05-1.41.97-1.38 1.02.05.08.17.1.18.24-.34.02-.51-.2-.77-.26Z" style="fill:#f0fcf2"/><path d="m114.36 44.07.05.13-1.82 1.47c-.25.3-.53.46-.84.49.04.08-.06.13-.29.14.2.14.09.34-.11.39.3 2.24.23 4.56-.41 6.76l-.25.34c-.35 1.66-.86 3.33-1.55 4.85-.15-.37 0-.72.24-1.06.4-.55 1.02-3.89 1.04-3.95.19-.49.25-.85.32-1.42.15-1.2.43-2.32.37-3.55-.02-.59.24-1.21.09-1.83-.19-.81 1.06-1.44 1.69-1.84.54-.34.95-.76 1.47-1.04.07.04.07.08 0 .13Z" style="fill:#e4fae9"/><path d="m60.06 11.41.06.16c-1.11.62-2.13 1.32-3.06 2.12l-.3-.12c-1.47.96-2.83 2.07-4.16 3.21h-.15c.04-.25 0-.53.07-.78.16.14.34.17.44.16.26-.02-.15-.6.11-.83.21-.18.39-.29.59-.19-.26.21-.52.38-.29.62.4-.19.65-.54.95-.81.22-.2.3-.42.25-.64 0-.1-.04-.23 0-.33.19-.45.46.35.79.29.17-.04.29-.1.37-.24-.13-.15-.24-.3-.27-.5.17-.06.51-.19.69-.14.41-.34.89-.6 1.44-.8.28-.31.69-.48 1.11-.57.16-.04.05-.33.14-.39.37-.22.84-.23 1.22-.2Z" style="fill:#f3fcfa"/><path d="M41.26 33.15c.15 0 .17.14.07.43.03.32.07.65 0 .96-.54 2.23-1.07 4.45-1.58 6.69-.07.31-.24.6-.41.87-.02.56-.11 1.04-.26 1.44-.04.11-.08.11-.13 0v-1.83c.14 0 .12.13.19.25.28-.3.07-.78.19-1.11.19-.5.27-.93-.23-1.26-.06-.19-.05-.55 0-.78.23.09.12.29.13.64.51-.62.64-1.36.69-2.22.02-.31.59-1.56.48-2.1.25.1-.03.37.28.43-.18-1.34.71-1.74.35-2.49.16-.05.18.05.23.08" class="uuid-dd6352b8-1409-4ce1-abd1-0bd16222c89b"/><path d="M120.92 45.25c.14 0 .14.05.14.15-.03.95-.07 1.92-.14 2.87v1.18c-.32 1.63.05.86-.39 3.02l-.26-.16c.03-.64.07-1.27.13-1.9.15-.03.24-.17.27-.43-.11-1.69-.11-3.64 0-5.38 0-1.38-.2-3.07-.55-4.65l-2.61 1.78c.09-.78.39-.18 1.49-1.32.19-.2.59-.22.81-.48.17-.2.44 0 .56.17.1.13.06.3.09.53l.38 2.51c.07.48.1.84 0 1.34-.05.23.09.55.09.77Z" style="fill:#e5f9e7"/><path d="M72.37 52.99c1.89 1.15 3.79 2.27 5.71 3.37l.24.33c.11.06.24.25.39.26.16.05 1.06.52 1.07.58s-.02.12-.05.18q.18.03 0 .12c-.51-.12-1.25-.38-1.55-.85-.32-.5-.8-.37-1.17-.61-.32-.21-.46-.53-.92-.68s-.95-.58-1.34-.83l-1.37-.87-1.93-1.21c-.7-.44-1.34-.95-1.9-1.4 1.04.34 1.82 1.21 2.84 1.61Z" style="fill:#ebfbed"/><path d="M93.38 85.9q.27-.12.39 0c-.16.05-.23.29-.52.24s-.55-.05-.87.11c.1.28.32.07.48.27-.86.12-3.35.64-4.21.92-.28.09-.63-.12-.9 0-1.12.49-4.09.71-5.26.7-.11-.04-.11-.08 0-.13.72-.13 1.47-.22 2.23-.26 1.48.07 5.91-1.02 7.46-1.57.14-.22.38-.31.72-.29.07-.28.38-.26.48.02Z" style="fill:#f6fcec"/><path d="M48.79 46.3a5.2 5.2 0 0 0 0 1.84c0 .76.12 3.17.26 3.8.13.14.09.41-.03.52-.14-.08-.28-.17-.34-.32-.24-.58-.37-2.85-.41-3.62-.14-3.02.3-6.12.97-9.06l.34-.24c.05-.13.12-.17.21-.13 0 .24 0 .57-.11.86-.37 1.01-.49 2.06-.58 3.13-.15 1.79-.32 0-.32 3.23Z" style="fill:#f5fced"/><path d="M97.93 10.31c-.32-.01-.67-.12-1.03-.33-.84-.3-1.73-.57-2.48-1.05q-.45-.15-.66-.42c.16-.1.38-.17.6-.08.11.04.11.19.18.18.11-.01.22-.04.34-.06-.01.22.07.3.25.38.19.09.14-.21.31-.27.36-.11.61.28.91.21.18-.04.33-.16.48-.17.12 0 .42.15.3.35-.21.33-.74.09-1.02.35l1.33-.04c.32 0 .41.67.48.96Z" style="fill:#f7fdfa"/><path d="M70.82 86.95c1.69.4 3.39.61 5.1.61l.18.11q3.195.405 6.39.33v.13l-5.5-.04-1.21-.1c-3.04-.25-5.96-.98-8.84-1.85-.54-.16-.95-.48-1.38-.65 1.67.42 3.47 1.26 5.25 1.46Z" style="fill:#f4f6c5"/><path d="M60.81 11.18c.14.01.14.05 0 .11.3.33-.56.58-.88.62.24-.17-2.4 1.33-2.43 1.59s.36.38.53.4c.18.02.39-.16.61-.2.26.15-.03.44-.15.55-.42.35-.75.05-1.21-.2-.28.24-.5.04-.46-.28-.06 0-.19-.14-.06-.19l3.31-2.16h.14c.04-.32.38-.48.62-.23Z" class="uuid-cbf52dc2-ddf4-4514-ba0d-df37a0a76669"/><path d="M81.57 15.87c1.06-.11 2.4 0 3.45.23.04 0 .07.08.09.16.28-.19 1.09-.07 1.18.26-.41.02-.85 0-1.29-.15-.38-.14-.73-.05-1.06-.09-.28.14-.82.08-1.05-.12-.08.03-.19-.05-.27-.03l-.79-.13-.04.14c-2.01-.05-3.98.03-5.99.26-.44-.19-1.55.2-2.36.26-.11-.04-.11-.08 0-.13.46-.1.85-.26 1.41-.33l2.43-.29z" style="fill:#ddf7fd"/><path d="M49.06 74h.24c.36.63.85 1.1 1.44 1.42.23.43.54.82.92 1.19.32-.11.67.35.69.64.19-.03.35.1.22.26.52.39 1.02.81 1.5 1.27l-.02.14q.12.075 0 .15c-.35-.27-.73-.53-1.1-.87-.21.03-.31.17-.52.13.08-.28.18-.51-.04-.68-.11-.09-.34 0-.6.05-.06-.21.15-.33.16-.62-.92-.35-.75-1.08-1.33-.48.27-.59-.41-.78-.68-1.15-.24-.33-.36-.89-.91-.96-.08-.21-.13-.48-.26-.65.08-.07.17 0 .28.18Z" class="uuid-571d86ed-7139-44c6-bd7c-cbcd2b167c85"/><path d="M86.79 40.81c.07.04.07.08 0 .13l-2.13 1.7c-.74.64-1.51 1.25-2.32 1.83l-.5.14c-.06.04-.11.04-.15-.03.19-.3.45-.6.87-.71-.36-.19 1.26-.98 1.4-1.11.42-.38.85-.69 1.34-1 .13-.08-.01-.43.29-.49.42-.08.85-.27 1.2-.46" style="fill:#ebfcee"/><path d="M58.73 82.08c.41-.36.77.18.93.53l1.08.79c-.21.02-.41.2-.67.21-.21 0 .01-.27-.01-.34-.16-.51-.75-.48-1.15-.48 0-.3-.34-.34-.52-.48-.65-.54-1.36-.88-2.06-1.33.75.48-2.53-2.11-2.27-1.9v-.15l.15-.05q2.25 1.605 4.53 3.21Z" class="uuid-5571c54c-2b8e-480a-be1c-16ac748716d5"/><path d="M94.65 74.81c.06.03.07.07.02.11-.06.11-.12.21-.2.3s-.15.17-.24.22c-1.08.58-2.42 1.3-3.62 1.26-.83.28-1.66.72-2.56.77 0-.51 1.41-.75 1.91-.6.22-.41.7-.28.98-.47.52-.34 1.03-.46 1.62-.63.74-.23 1.03-.94 2.09-.97Z" style="fill:#f1fbe8"/><path d="M95.85 46.17c.12 0 .12.04 0 .1.05.71-1.36.95-1.71 1.3-.27.27-.39.52-.8.66-.23.08-.29.51-.51.64-.52.33-1.1.45-1.54.82-.11.09-.3.05-.4.12.34-.4.8-.67 1.19-1.03.2-.27.47-.48.81-.53.21-.21.52-.5.77-.65.6-.52 1.26-1.07 1.96-1.47.08-.24.19-.23.24.02Z" style="fill:#eafbee"/><path d="M39.21 50.75c.12 1.04.21 2.09.26 3.15-.27-.19-.2-.55-.3-.93-.22.21.01.49-.15.82-.46-1.53.26-.32-.05-3.16l-.13-1.2c-.17-1.58.11-4.44.1-5.89h.13c-.06 2.4-.01 4.8.13 7.21Z" class="uuid-dd2c556e-8211-4a63-a3a1-d7682913e5d6"/><path d="M107.15 25.69c.17 0 .14.09-.08.26.15.17.04.31-.31.41-.04.04-.1.09-.15.12q-1.38 1.275-3.03 2.22c.01.29-.25.47-.77.54-.21.17-.56.2-.65.53-.25.26-.47.35-.66.26.11-.26.33-.58.65-.66.53-.12.72-.58 1.13-.83s1.58-1.28 2.21-1.7c.41-.27.69-.47 1-.79.14-.15.5-.25.65-.36Z" style="fill:#f1faf0"/><path d="M104.9 39.49c.27.29-1.83 1.54-1.97 1.66l-1.59 1.32c-.4.34-1.04.37-1.32.78-.19.2-.35.25-.49.16l1.46-1.19c.44-.56.96-.95 1.55-1.17.06-.05.18-.09.26-.13.47-.58 1.38-1.5 2.1-1.43" style="fill:#eafbeb"/><path d="M49.18 52.33c-.01.29-.09.66.28.84l.24-.72c.75 1.23-.98 1.02.33 3.32.38-.31-.04-.56.19-.89.42.72-.32 1.47-.04 1.75q-.03.18-.12 0l-.34-.11c-.41-.87-.87-2.84-.94-3.81l.24-.25c0-.17.07-.35.03-.52h.15c.26-.04.17.3-.02.39" class="uuid-4b259d40-2591-4909-8d74-98342eb0529a"/><path d="M81.84 16c.19.04.36.08.52.13-.09.2-.35.13-.53.14l-.04.17-3.75-.05-.4.13c-.62-.02-1.24.13-1.84-.13.71-.26 1.53-.37 2.35-.37l3.68-.02Z" style="fill:#f4fcf4"/><path d="M114.92 68.82c-.4.17-.44.64-.66 1.01l-.55.91c-.11.19-.37.18-.5.52s-2.15 3.07-2.63 3.21c-.06.06-.11.03-.14-.11-.13-.36.15-.79.54-.62q.18-.405.54-.72c.34-.41 1.03-.83 1.1-1.42l.85-1.17c.25-.15.4-.37.5-.65-.05-.29 0-.38.16-.26.15-.43.36-.79.64-1.06.02-.05.09-.09.13-.13.03-.2.06-.4.26-.26.26.1-.04.55-.23.76Z" style="fill:#e7fbeb"/><path d="M104.26 80.11c.12.04.07.13-.13.28-.51.17-1.84 1.44-2.56 1.87-.26.16-1.71.92-1.84 1.06-.2.22-.49.18-.72.2-.16.02-.19 0-.1-.08l.15-.29c1.56-.92 3.09-1.9 4.6-2.92l.59-.13Z" style="fill:#eafbe9"/><path d="M112.08 34.28c-.24.17-.34.36-.64.57l-1.36 1c-.16.12-.21.4-.42.47-.48.16-.87.42-1.15.84.12-.19-1.72 1.08-1.12.61-.12 0-.11-.02 0-.09-.03-.28.39-.65.7-.69.06.03.19-.07.24-.11.2-.29.47-.51.82-.67.4-.08.58-.5.93-.66.16-.28.44-.5.86-.66.31-.24.67-.48 1.03-.59h.11Z" style="fill:#eafaea"/><path d="M63.21 9.69c0 .08-.02.14-.05.16-.75.4-1.69.82-2.48 1.09-.06.23-.36.26-.34-.03-.15-.14-.41-.15-.53-.38.3-.3.62.04.88.03.56 0 .69-.96 2.1-1.37.16.21.24.4.42.5" class="uuid-042e42d2-866e-494b-a5df-ba46117e474d"/><path d="M69.25 76.59c.11.04.11.08 0 .13-.08.06-.15.11-.21.09-.93-.28-2.16-.77-2.95-1.29-1.01-.32-1.89-.92-2.72-1.54-.41-.1-.65-.28-.7-.53q-.045-.12.15 0c.1 0 2.14 1.21 2.27 1.26l.86.32c-.53-.2 1.65.87 1.93.99l1.36.57Z" style="fill:#f8f9d7"/><path d="m104.13 67.27-.54.66c-.32.83-1.32 1.78-2.07 2.33-.16.12-.36.14-.55.16h-.11c.13-.4.44-.65.79-.88.31-.21.36-.71.69-.9.61-.36.87-1.03 1.43-1.4.28-.19.28-.4.46-.66.23-.34.61-.54.81-.88.09-.12.18-.15.26-.11.22.21.16.49-.14.4-.02.48-.45 1.21-1.03 1.28" style="fill:#e8fbeb"/><path d="M51.44 59.8c.29-.05.4.14.36.42-.04.16-.04.31-.02.44.03.15.24.34.36.24l.34-.3c-.16.56-.34 1.14.14 1.52.34.28.36.67.53 1.05.21.46.66.73.72 1.2 0 .12-.04.12-.1 0-.1.18-.18.1-.26-.25-.09.04-.24.09-.28.03-.61-.85-1.67-2.81-1.99-3.75l.06-.47c-.11-.14-.11-.24 0-.28-.02-.25.08-.25.15 0 .01.03 0 .08 0 .12Z" class="uuid-e62ff321-4bef-4b39-8502-27439dbf37dc"/><path d="M102.83 12.97c.05.11.08.36.28.27.08-.04.2-.24.36-.22.24.02-.05.37 0 .48.1.2.47.23.66.28.3.05.48.2.55.44.11.78 1.25.6 1.02 1.11.02.23-.08.23-.16 0l-3.78-2.72c-.09-.06-.09-.1.01-.15.25-.39.88.29 1.06.51" class="uuid-59aa64c2-dc81-4d83-a1a2-cac3b367e39f"/><path d="M40.26 56.66c.12.03.11.08 0 .13l.07.19c.32.08.47 1.34.46 1.66 0 .04-.06.08-.13.12-.26-.11-.27-.42-.33-.73-.3-1.42-.65-2.76-.85-4.13-.08-.51-.06-1.04-.22-1.62-.14-.51.02-1.05-.04-1.53v-.26c.2-.22.35-.14.4.14.11 2.03.33 4.03.65 6.02Z" style="fill:#f1f4cc"/><path d="m69.25 17.84-.67.35c.08.45-.61.32-.84.41l-1.19.46c-.58.23-.98.79-1.62.73-.05.07-.1.07-.15-.01 1.15-.66 2.32-1.29 3.57-1.77-.09-.19.49-.39.63-.24.12 0 .21.02.27.08Z" style="fill:#e9f9f9"/><path d="M81.88 78.01c-.96.36-1.9.08-2.84-.07-.85-.14-1.66.09-2.48-.11.99-.38 1.93-.12 2.92-.21.15-.01.29.24.43.27.66.13 1.28-.15 1.98.13Z" class="uuid-042e42d2-866e-494b-a5df-ba46117e474d"/><path d="M81.83 16.27c.29.05.62.38 1.08.22-.39.6-.82.18-1.25.11-1.35-.2-2.7-.04-4.01-.08.03-.15.18-.27.39-.27l3.8.02Z" class="uuid-6bc658f7-4a19-4be0-9ad4-b463d685ff4e"/><path d="M53.8 30.19c-.12.41-.53.67-.72 1.1-.12.26.12.66-.18.83-.08-.08-.16-.16-.21-.13-.06.03-.13.13-.15.21-.16.64-.55 1.11-.83 1.66-.23.46-.21 1.11-.7 1.31l-.15-.3c.27-1.06.76-1.96 1.45-2.7-.47 1.01 1.95-3.3 1.7-2.53.18.15-.06.43-.22.56Z" style="fill:#e2faf7"/><path d="M110.57 74.47c-.2.18-.22.44-.41.76l.64.22c-.35.19-.52-.14-.82-.16l-.26.86c.09.08.14.09.15.13.03.1 0 .17-.05.17-.31.04-.54-.26-.6-.16-.04.06-.04.2-.18.31.11.29-.03.32-.08 0-.16-.11-.31.15-.49.14-.16-.1-.01-.2.13-.29-.31-.27.21-.59.51-.66-.22-.27-.15-.32.17-.2l.54-.54c-.19-.29-.09-.4.24-.28 0-.29.27-.39.53-.28Z" style="fill:#f4fcf8"/><path d="M43.54 28.86v.46q-1.02 1.95-1.8 4.02l-.4.24-.07-.43c-.01-.07.02-.15.02-.22-.04-.14.03-.34.15-.43.54-.71 1.04-2.23 1.44-3.09l.14-.37c.02-.2.2-.35.53-.46v.28Z" style="fill:#e7fbf6"/><path d="M40.89 59.16c.26.11.43.36.53.77l.03.66.31.1c.3 1.04.65 2.06 1.05 3.07l-.18.24c-.04.11-.09.11-.14 0-.12-.49-.51-.89-.68-1.39l-.75-2.3c-.18-.55-.48-.99-.41-1.55.15-.11.23.02.23.41Z" style="fill:#f8f9cd"/><path d="M50.26 19.49c-.29.44-.85.8-1.05 1.3-.29.74.04.59-1.2 1.13-.11-.52 1.52-1.83 1.82-2.37.12-.2.32-.51.55-.41.13.13.04.29-.12.35" style="fill:#33a8c0"/><path d="m102.83 12.97-1.06-.51c-.36-.08-.84-.35-1.03-.65 0-.12.02-.28.1-.33.22-.13 1.27.48 1.26.48.3.41.48.85 1.13.79-.13.19-.28.14-.41.22Z" style="fill:#fdfbf6"/><path d="M96.38 33.8c-.02.29-.24.52-.67.69-.62.31-1.1.79-1.68 1.17-.06.22-.31.43-.5.27.13-.23.17-.5.18-.83 1.74-.14 1.98-1.67 2.67-1.3" style="fill:#eefcef"/><path d="M54.3 65.03c.35.29.65.64.9 1.06.56.92 1.41 1.68 2.12 2.48l.13.15c.18.09.31.28.13.39-.04.11-.08.11-.13 0-.07.01-.14.01-.17-.02-.8-.72-1.85-2.06-2.52-2.95-.38-.51-.75-1.04-1.06-1.59-.02-.03.02-.1.07-.18h.1z" style="fill:#fbfac8"/><path d="M49.79 39.08c-.06.06-.13.1-.21.13l-.13-.51c.13-.65.9-3.14 1.31-3.42.08-.05.17-.09.26-.12.18.45-.03.84-.27 1.23-.31.49-.6 2.24-.96 2.69" style="fill:#effbf2"/><path d="m104.13 80.39.13-.28c-.06-.09-.13-.23-.08-.28.27-.26 2.48-2.1 2.64-2.15.1-.03.22.03.31.08 0 .72-.67.52-1.26 1.37-.14.2-1.5 1.17-1.75 1.26Z" style="fill:#effbee"/><path d="M87.61 16.41c.39.29.81.43 1.32.39.22-.3.67-.05.77.25-.09.13-.25.16-.4.15-.96-.33-2.01-.55-3.01-.68-.33-.3-.79-.18-1.18-.26-.33-.19-.19-.25.13-.26.01-.07.03-.13.04-.13.66-.04 1.76.21 2.32.54Z" style="fill:#1484c5"/><path d="M99.8 31.34c.15.03-.29.51-.41.6-.14.11-.33.2-.51.21-.51.45-1.27.72-1.71 1.27-.45.42-.7.49-.73.21.35-.22.56-.63.97-.83.95-.47 1.45-1.19 2.38-1.58.08.03.07.06 0 .11Z" style="fill:#e3fae6"/><path d="M73.44 16.52v.13c-.6.05-1.11.33-1.67.53-.4.15-.9-.02-1.32.29-.35.26-.87.18-1.21.36-.08-.01-.28.06-.27-.08.21-.27 1.96-.94 2.16-.9.07.01.14.06.21.11z" style="fill:#daf6fc"/><path d="M100.86 70.42s.07.01.11 0c-.03.12-.07.25-.12.36s-.11.22-.19.29c-1.43 1.4-3.49 2.81-5.26 3.74-.1.05-.22.07-.34.09s-.25.01-.38 0c-.07-.03-.07-.06-.02-.11.36-.43 1.56-.81 1.75-1.09s.54-.28.71-.45c.43-.44.83-.68 1.31-.94.51-.27.77-.97 1.42-1.07 0-.62.59-.68 1.02-.83Z" style="fill:#e8fae8"/><path d="M44.59 67.8v.13c-.29.22-.42.09-.4-.39-.1-.2-.14-.46-.25-.66-.32.18-.44 0-.37-.54-.02-.25-.27-.4-.36-.67-.14-.41-.15-.88-.73-.95.04.36.16.57-.04.85-.44-.74.29-.61.06-1.58h.14c.09-.05.24-.1.27-.04.33.53 1.74 3.13 1.84 3.59z" style="fill:#fcfce4"/><path d="M79.24 45.53c-.23-.09-.53-.14-.73-.38-.24-.28-.64-.31-.87-.46a51 51 0 0 1-4.08-2.54l.02-.19c.26-.08.45.07.69.22l1.28.84c.1.06.18.24.28.23.9-.07-.55.02 1.67.95.47.2.72.5 1.05.81.23.21.63.19.69.54Z" class="uuid-1d6dd611-1a46-4cc1-9352-d9ae0ba975b0"/><path d="M112.53 22.3c-.03.12-.07.13-.14.03-.19-.01-.37.07-.55.21-1.22.99-2.53 1.78-3.67 2.79-.04.34-.81.83-1.1.63.05-.07.07-.17.08-.26.04-.03 1.54-1.16 1.41-1.14.4-.07.59-.43.88-.56.84-.35.27-.17 1.21-.96.51.22.88-1.23 1.88-.75Z" style="fill:#edfaec"/><path d="M59.27 70.57c.4.45 2.94 2.41 3.56 2.88h-.15c-.12.05-.22.08-.3.04-.84-.45-1.88-1.24-2.42-2-.07.05-.12.09-.14.07-.36-.27-.9-.78-1.06-1.13v-.13c.17.02.34 0 .52-.04v.32Z" style="fill:#fafac4"/><path d="M64.78 19.78h.15c-.36.61-.49.16-1.52.98-.18.14-.62.14-.61.46 0 .18.29.37.04.56-.33-.25-.65-.25-.95-.15l.26-.36 2.63-1.5Z" style="fill:#e9fbfc"/><path d="m68.72 38.95 1.43.89c.04.05.12.07.16.13.21-.02.4.14.52.3.93.48 1.81 1.04 2.64 1.69.03 0 .09.02.12.01l4.06 2.73c-.5.12-.66-.21-.99-.45-.43-.32-.97-.38-1.36-.86-.17-.22-.79-.1-.8-.61-.55.09-.77-.35-1.16-.56-.82-.45-.39-.42-2.25-1.38-.39-.2-.83-.23-1.06-.73-.07-.15-.42-.19-.51-.35-.42-.7-.63.27-1.41-1.03l.62.23Z" style="fill:#359545"/><path d="M108.33 60.85c-.15.3-.27.62-.36.95h-.19c-.29.35-.37.9-.77 1.14.12-.57.51-1.03.78-1.6l1.12-2.41c.05-.12.14-.17.23-.18-.3 1.06-.43.84-.81 2.1" style="fill:#dcf7e7"/><path d="M69.21 7.09c-.22.25-.82.24-1.01-.01-.23-.46-.89 0-1.05-.5.71-.02 1.35.13 2.04.07.33-.03.71-.25.86.18-.35.02-.82-.1-.84.27Z" style="fill:#fefdf5"/><path d="m58.59 24.33-.1.03c.07-.05.07-.18.13-.23.48-.63 1.36-1.43 2.12-1.82.25-.21.63-.34.91-.5-.06.29-.38.34-.6.53l-.86.75c-.53.46-.96 1.03-1.59 1.24Z" style="fill:#e4f9fc"/><path d="m49.18 52.33.02-.4c.67-.21-.19-2.58.25-2.98.19.66.03 1.14.33 1.7-.02.21-.23 2.02-.6 1.68" class="uuid-12205b5c-82e3-482f-a6ee-5d80b2322437"/><path d="M91.15 7.61c.14.01.27.16.42.15.38 0 .68.08.89.25.37.32.87.32 1.31.51.26.11.44.28.66.42l-4.21-1.32s.09-.04.13-.03c.16-.17.68-.19.8.03Z" style="fill:#dff8fa"/><path d="M91.04 37.75c-.27.32-2.35 1.97-2.77 2.02.08-.16.18-.45.38-.53.75-.26.56-.76 2.38-1.49Z" style="fill:#e7fae8"/><path d="M72.67 77.67c-.41-.04-.92-.02-1.33-.17-.66-.06-1.47-.32-2.07-.6-.03-.01-.03-.09-.03-.18v-.13c.49.21 2.93.62 3.42 1.08Z" style="fill:#fafbda"/><path d="M58.74 83.45c-.39.11-.98.15-1.34-.11-.17-.13-.09-.52-.36-.59-.18-.05-.33-.12-.38-.22-.07-.15-.05-.54.11-.52.24.07.28.43.39.67.54.13 1.11.2 1.58.77" style="fill:#fefef5"/><path d="M57.81 69.01c0 .26 1.3 1.6 1.44 1.12l.13-.44c.02-.07.26 0 .4.03.6.15-.73.54-.51.84-.12-.14-.38-.16-.52-.27-.52-.13-1.05-.73-1.17-1.18-.07-.1-.03-.3-.13-.39.4-.13.68-.08.37.29Z" style="fill:#fdfeef"/><path d="M69.9 7.48h.39c-.07.27-.65.35-.91.25-.72.18-1.41.46-2.1.67-.44.28-1.25.68-1.7.52h-.13c-.18-.14 1.95-.91 2.17-.82.4-.31.85-.42 1.36-.35.29-.26.62-.27.94-.27Z" class="uuid-71e0fb30-2dda-490d-82c8-12b963be6eb7"/><path d="M46.9 70.92c.34-.09.37 0 .18.28.22-.08.29-.01.15.18.42.15.59.37.5.65.28-.09.43.07.43.47.33.13.77.55.49.84-.14.11-.31-.14-.39-.29-.35-.19-.69-.53-1-1.04-.29.09-.43-.1-.4-.57 0-.03 0-.08-.01-.11-.38-.34-.57-.68-.57-1.04.31-.16.52.05.62.63" style="fill:#ebe775"/><path d="M96.52 84.76c-.25.25-.68.46-1.08.59l-1.67.55h-.39c-.04-.1-.06-.23.01-.26.87-.33 1.75-.63 2.62-.93-.12-.33 0-.38.26-.13.2-.01.28.04.26.17Z" style="fill:#edfbe4"/><path d="M65.44 8.92h.13c.03.07.05.13.04.14-.36.26-1.07.6-1.49.65-1.04.49-2.08.97-3.12 1.43l-.14-.1c-.14.13-.22.09-.17-.1l1.11-.57c.5-.25.88-.6 1.42-.68.47-.07.93-.25 1.32-.61.35-.04.63-.11.91-.16Z" style="fill:#daf8fc"/><path d="M105.54 15.91c-.29-.1-.05-.48.18-.3.13.1.29.02.46-.12.08.17.11.59-.09.79-.14.14-.44.4-.69.3-.13-.05-.18-.2-.35-.25l.49-.43Z" style="fill:#fafcf4"/><path d="M52.44 16.8s.1 0 .15-.01c-.11.1-.16.29-.29.38.17.18.1.25-.12.12q-.285.48-.81.84l-.48.63c-.15.16-.28.19-.39.1l-.13.02.07-.52c-.02-.26.1-.27.2-.02.33.12.58-.37.64-.66-.25-.22.15-.48.38-.29.07-.06.29-.11.33-.26.02-.08-.05-.13-.08-.3.25-.02.39.03.53-.05Z" style="fill:#eaf7fb"/><path d="M107.38 37.68v.09L106 38.86c-.39.31-.69.48-1.1.63-.12-.21.28-.43.52-.52l1.84-1.27c.04-.14.07-.16.12-.03Z" style="fill:#e6fae6"/><path d="M117.11 30.56h-.14c.54-.05-1.33-2.87-1.32-3.28.2.07.26.06.35.34.36 1.07 1.64 2.45 1.11 2.94" style="fill:#ddf7e3"/><path d="M99.02 83.53c-.22.02-.28.42-.46.46l-.66.14c-.49.1-.88.54-1.38.63-.11 0-.22-.06-.26-.17.59-.62 1.8-1.12 2.66-1.14.08-.07.13 0 .1.08" style="fill:#ecfae4"/><path d="M81.84 44.61c.04.12-.09.24-.19.33-.38.34-1.71 1.53-2.05 1-.05-.16-.33-.23-.36-.4.45.17.71.11 1.15-.16l1.29-.79.15.03Z" style="fill:#e0f9e4"/><path d="M100.03 43.25c-.25.36-.84.7-1.31.96-.14.07-.18.47-.36.55-.12.05-.41-.02-.51.06l-.65.54c-.24.21-1.14.99-1.34.91v-.1c-.23-.28.34-.7.67-.68a.4.4 0 0 1 .13-.09v-.16c.49-.28.98-.59 1.47-.92.56-.17.88-.72 1.42-.92.16-.06.34-.08.49-.16Z" style="fill:#edfbeb"/><path d="M115.39 31.86c-.15.09-.23.35-.34.46-.41.13-.77.37-1.09.72-.16.18-.46.14-.63.23-.25-.31.16-.59.46-.49.06-.08.24-.17.31-.23.28-.31.55-.49.81-.53.14-.12.33-.34.49-.41.17-.02.16.07-.02.25Z" style="fill:#ebfae7"/><path d="M51.43 59.67h-.15c-.13-.02-.21-.11-.25-.25l-.68-1.72c-.39.04-.59-.87-.3-1.07h.12c.23.22.15.63.36.91.19.24.44.35.39.75-.01.13.12.39.25.42l.37.08c-.13.32-.24.61-.13.88Z" class="uuid-6ea97a4f-6a57-4dfc-b485-f7898a9801e8"/><path d="M93.38 36.07c.11.04.11.08 0 .13-.84.42-1.46 1.2-2.34 1.56.18-.22.33-.61.62-.73 1.29-.58.65-.71 1.72-.95Z" style="fill:#e2f8e4"/><path d="M72.41 76.22c.07.06-1.56.45-1.26.48q-.165-.015-.18-.18c0-.07.61-.58.71-.58.26 0 .54 0 .73.28" style="fill:#fdfef4"/><path d="M55.12 28.29c-.18.15-.01.74-.43.67-.24.2-.53 1.33-.89 1.23.05-.18.15-.39.22-.56.21-.5.56-.99.96-1.35.07-.16.11-.17.13 0Z" class="uuid-dc765aca-725b-44e4-8777-8b63744c8abb"/><path d="M44.06 27.27c.12-.01.13.08.02.27-.15.32-.31.75-.54 1.04l-.67.83c-.03-.16.13-.48-.04-.64s-.48-.13-.46-.38c.01-.12.03-.45.26-.42.29.04.09.55.3.71.18.14.55-.23.58-.42.02-.15.09-.41-.09-.53-.1-.07-.26-.05-.31-.11s-.07-.25-.02-.29c.26-.18.52-.04.73.21 0-.14.2-.21.25-.29Z" style="fill:#f4fdfb"/><path d="M100.18 20.43c-.11.27-.61.08-.76-.03.28-.28 1.1-.89 1.3-.8.47.21-.28.21-.54.84Z" style="fill:#fdfaf3"/><path d="M86.67 6.63c.29-.09 2.31-.25 2.39.34-.87-.08-1.57-.12-2.39-.34" style="fill:#fdf9f0"/><path d="M115.91 67.3c.1.4-.21.61-.5.91-.2.2-.2.58-.49.62.09-.23.22-.52.23-.76-.24-.18.15-.62.39-.66.09-.09.26-.08.37-.11" class="uuid-dfd2beae-63fa-4a22-abdb-ce6ad467a731"/><path d="M46.28 70.3c.03.43.49.62.57 1.04-.43-.08-.47-.67-.79-.93-.41-.33-.61-.63-.65-1.13.03-.08.08-.08.13 0 .37-.19.91.72.75 1.03Z" style="fill:#fbfad0"/><path d="M54.4 62.25c-.08.25-.25.37-.47.37-.28-.2-.42-.52-.32-.84.36.03.57.18.79.47" style="fill:#fefef3"/><path d="M54.84 81.42c-.08.33-.25.36-.32.01.33-.16.47-.46.65-.75.14-.08.46.06.58.26-.24.29-.57.26-.9.48Z" style="fill:#fefef2"/><path d="M57.59 12.58c-.19.21-.44.31-.7.5-.28.21-.42.49-.74.3 0-.13-.05-.3.02-.42-.02.03 1.36-.42 1.42-.37Z" class="uuid-01396ebb-9cc9-4490-a059-ec026c4a99e0"/><path d="M48.26 73.05v.13c-.47.05-.61-.75-1.09-1.15-.2.02-.25.24-.48.2-.01-.31.15-.53.17-.79l1.4 1.6Z" style="fill:#fcfce3"/><path d="M120.92 48.26v-3.02c.13-.09.08-.27.22-.4.14.57.02 1.06-.06 1.6s.1 1.93-.15 1.82Z" class="uuid-f48f564a-55b2-4997-bbf6-414bc379baf3"/><path d="M38.67 52.41c-.19-.74-.21-1.41.01-2.17.21.74.24 1.4-.01 2.17" class="uuid-dd2c556e-8211-4a63-a3a1-d7682913e5d6"/><path d="M105.71 15.61c-.07-.03-.16.13-.18.3.06-.39-2.02 1.49-1.67 1-.06-.04-.05-.08 0-.13.52-.55 1.25-.84 1.67-1.46h.16v.28Z" style="fill:#e0f7fc"/><path d="M66.89 37.78c.2.2.49.29.65.53-.32-.05-.7.22-1.01-.07-.16-.15-.05-.47-.17-.63.1-.2.41 0 .53.17" class="uuid-9c18ae82-c055-480c-a92b-528331ef8678"/><path d="M113.44 23.75c.05.11.07.24.11.36-.42-.1-.8-.32-1.04-.77.1-.14.22-.18.31-.25l.12-.06z" class="uuid-a279b8e1-66ce-4eb2-8fb5-3b274d3542f1"/><path d="M83.54 55.07c-.38.51-1.38.9-1.55 1.32l-.41.24c-.12.19-.34.38-.54.26.04-.21.04-.47.19-.65.23-.29.94.16 1.59-.84.23-.35.53-.21.72-.34Z" style="fill:#38994e"/><path d="M98.01 10.62c.28.05.73.39.99.53l-.1.09c-.33.4-1.64-.03-1.31-.65-.03-.1.05-.11.13-.1.09-.13.19-.09.3.13Z" style="fill:#1f83b0"/><path d="M101.38 30.16c.11.04.11.08 0 .13.18.18.1.25-.13.12.06.1.07.21 0 .25-.48.22-.85.42-1.28.75l-.15-.09v-.11c.07-.38.39-.52.75-.63.31-.1.51-.42.83-.43Z" style="fill:#def8e1"/><path d="M96.67 20.71c.1.04.09.08-.02.12-.3-.18-.71.38-1.1-.02.28-.13.47-.39.27-.52-.29-.2-.59.09-.82.16-.09-.06-.06-.23.02-.24.07 0 .15 0 .34-.04-.05-.16-.2-.25-.26-.39.51.31 1.15.49 1.58.94Z" style="fill:#f2faf7"/><path d="M44.59 67.93c.14.09.24.28.11.4-.08.08-.1.32-.2.34-.13.03-.35-.13-.42-.28-.13-.31.15-.57.11-.86.08.16.27.29.4.39Z" style="fill:#fafcf0"/><path d="M51.8 60.21a.46.46 0 0 1-.36-.42c.26.05.38-.24.54-.46.29.01.21.34.2.53 0 .2-.18.33-.38.35" style="fill:#fefdf2"/><path d="M104.68 14.21c-.09.02-.35-.05-.44-.14-.07-.06-.04-.18-.11-.31.07-.12.18-.22.41-.16s.41.06.38.35c-.01.1-.08.31-.25.25Z" style="fill:#fcfcf1"/><path d="M117.27 41.96c-.52.37-.99.87-1.59 1.09.04-.26.43-.28.57-.49.27-.4.56-.69 1.02-.6" style="fill:#e7f9e7"/><path d="M65.47 36.73q.045.18-.3 0c-.29.12-.83.08-.63-.38-.03-.07-.1-.12-.14-.19.1-.15.06-.37.22-.52.18.49.42.91.85 1.08Z" style="fill:#edfcf8"/><path d="m68.62 50.74.74.5c-.07.34-1.44-.23-1.27-.59.04-.14.21-.11.52.09Z" class="uuid-45acc738-655c-4763-ade3-1b3d753e39b0"/><path d="M117.11 30.56c-.15.14-.23.45-.4.53-.56.11-.88.52-1.32.77l.02-.25 1.56-1.04h.14Z" style="fill:#e9f9ec"/><path d="M57.81 69.01c0-.16-.24-.29-.37-.29l-.13-.15c.4.32 1.08-.5 1.31-.86.19.05.2.28.11.38-.05.05-.25.09-.27.17-.1.42-.32.59-.64.75Z" style="fill:#fdfef3"/><path d="M49.13 75.39c.08.1-.21.23-.28.19.11.07-.78-.92-.56-.91.29.21.62.44.84.72" class="uuid-571d86ed-7139-44c6-bd7c-cbcd2b167c85"/><path d="M83.94 16.28c.12.39-1.23.18-1.33.06.14-.11.25-.08.28-.18.37-.13.7.07 1.05.12" class="uuid-6bc658f7-4a19-4be0-9ad4-b463d685ff4e"/><path d="M107.02 62.95c-.11.56-.55 1.04-.92 1.44-.1-.37.16-.5.38-.79.2-.27.2-.61.53-.65Z" style="fill:#e3f8ec"/><path d="M108.59 76.43c-.06.08-.06.22-.13.29-.74.8-1.46 1.16-1.32 1.05-.29-.24-.1-.52.27-.39-.11-.4.87-1.42 1.18-.94Z" style="fill:#e6f8e5"/><path d="M50.93 57.28c-.24.02-.24-.22-.26-.3-.04-.13-.06-.39.24-.36.26.02.26.64.02.66" style="fill:#fcfeef"/><path d="M73.46 41.95c-.5-.16-.88-.56-1.37-.85-.44-.26-1-.44-1.27-.84-.11-.04-.11-.08 0-.13.82.41 1.53 1.03 2.44 1.39.17.07.18.33.2.43" style="fill:#ddf8e6"/><path d="M55.46 13.52c.11 0 .24.02.33.13.1.11 0 .26-.06.38-.28.1-.46-.11-.77-.33.17-.07.33-.11.51-.17Z" class="uuid-01396ebb-9cc9-4490-a059-ec026c4a99e0"/><path d="m113.44 23.75-.62-.66-.43-.76s.09-.03.14-.03c1.04 1.35.38.35.91 1.45" style="fill:#def7e5"/><path d="M105.69 65.32c.03.3-.12.42-.4.28-.07.06-.17.09-.26.11.28-.49.69-.9 1.07-1.31.03.35-.39.58-.41.92" style="fill:#edfaef"/><path d="M70.15 39.84c-.53-.19-1.01-.51-1.43-.89.54.2 1.08.42 1.43.89" class="uuid-21dad02e-6566-4421-b872-7abd7aa2329e"/><path d="M45.11 68.46c.4.15.64.4.42.81h-.13l-.69-.93a.7.7 0 0 1-.11-.4v-.13c.4-.2.71.29.52.66Z" style="fill:#fbf9cd"/><path d="M69.21 7.09c-.03.47-.71.29-.91.23-.08-.02-.11-.14-.09-.24.33.07.67.03 1.01.01Z" class="uuid-71e0fb30-2dda-490d-82c8-12b963be6eb7"/><path d="M97.83 21.23c-.1.09-.28.33-.47.21-.28-.18-.44-.48-.72-.61l.02-.12c-.21-.22 1.14.79 1.17.52" class="uuid-e2ad3d90-1066-4b91-8abc-d20d12883ac7"/><path d="M92.46 8c-.25-.08-.74.11-.89-.25.24-.18.54-.07.92-.01.18.02 0 .17-.03.26" class="uuid-9034e38e-859b-4b00-8378-6c75e4c07b8a"/><path d="M100.74 11.8c.31.22.67.48 1.03.65v.15l-1.28-.74c.09.11.17.01.25-.06" style="fill:#d6f3f9"/><path d="M87.9 40.14c-.32.34-.75.53-1.09.8v-.13c.27-.15.47-.52.74-.75.12-.02.24.06.36.08Z" class="uuid-1d6dd611-1a46-4cc1-9352-d9ae0ba975b0"/><path d="M52.22 56.75c-.07.32-.17.53-.27.75-.2-.04-.12-.79-.04-.83.08-.05.18-.07.32.09Z" class="uuid-6ea97a4f-6a57-4dfc-b485-f7898a9801e8"/><path d="m51.66 17.4-.38.29c-.16-.03-.3-.16-.24-.31.07-.18.26-.22.43-.2.09.01.21.06.19.22" style="fill:#fbfeef"/><path d="M45.51 25.18c-.5.77-.86 1.64-1.43 2.37.03-.07-.04-.19-.02-.27l.6-.96c.31-.49.51-.89.85-1.26v.13Z" style="fill:#ddf9f7"/><path d="M115.42 43.28c-.09.12-.21.26-.27.4-.23.29-.5.43-.79.39v-.13c.37-.2.55-.74 1.06-.66" style="fill:#e3f7e3"/><path d="M98.22 20.86c.27-.36.73-.53 1.08-.78-.13.45-.62.76-1.08.78" class="uuid-e2ad3d90-1066-4b91-8abc-d20d12883ac7"/><path d="M48.79 48.13c-.19.43-.19-2.26 0-1.84z" class="uuid-12205b5c-82e3-482f-a6ee-5d80b2322437"/><path d="M65.47 36.73c.23.09.35.27.59.44.3.2.73.23.83.62-.12-.11-.39-.07-.53-.17-.03-.02-.07-.07-.1-.09-.4-.13-1.07-.36-1.08-.78h.3Z" style="fill:#daf9e2"/><path d="M48.65 73.34c.32.09.75.29.41.67-.08-.07-.2-.11-.28-.18-.21-.18-.36-.42-.51-.64v-.13c.09.11.3.16.38.29Z" style="fill:#f3e98a"/><path d="M54.31 14.96c-.21-.28.24-.26.25-.64.08.05.35.09.31.23-.06.28-.42.28-.57.41Z" style="fill:#fcfbf1"/><path d="M52.75 61.14c.11-.09.3-.07.38 0 .1.1.09.39-.05.48-.1.06-.32.07-.46-.05-.09-.07.01-.34.13-.43" class="uuid-e62ff321-4bef-4b39-8502-27439dbf37dc"/><path d="M103.87 16.79v.13c-.31.42-.69.42-1.08.65.17-.44.81-.5 1.08-.78" style="fill:#daf3f8"/><path d="M79.72 57.83v-.12l.06-.15q.675-.15 1.26-.66c.16-.07.39-.17.54-.26.1.31-.7.5-.92.94-.19.38-.59.34-.93.25Z" style="fill:#e3f8e4"/><path d="M86.03 6.56c-.31 0-.65.04-.92-.13.29-.02.89-.37.92.13" style="fill:#fdf9ec"/><path d="M91.15 7.61c-.26-.02-.54 0-.8-.03-.08-.25-.33-.32-.65-.39.01-.16.19-.05.34-.24.21.8 1.21 0 1.11.65Z" class="uuid-9034e38e-859b-4b00-8378-6c75e4c07b8a"/><path d="m60.68 10.93.17.1c.1.07.09.12-.04.15-.23 0-.43.13-.62.24-.2-.19.05-.34.15-.52.08.07.25 0 .34.03" style="fill:#ddf5fc"/><path d="m97.93 10.31.07.31a.8.8 0 0 1-.3-.13l-.8-.51c.32.11.72.1 1.03.33" style="fill:#d1f2fa"/><path d="M45.51 25.18v-.13c.22-.24.18-.86.67-.91z" style="fill:#ddf7f8"/><path d="M43.93 66.89c-.28-.05-.36.39-.71.19.22-.28.41-.47.33-.73.02.22.27.37.37.54Z" style="fill:#fbfde7"/><path d="M113.33 33.27c.03.29-.23.29-.42.42l-.83.58h-.11c.15-.19.34-.44.53-.58-.01-.36.59-.78.83-.43Z" style="fill:#def8e4"/><path d="M57.75 67.19c.06-.14.29-.07.38-.06.07 0 .11.13.08.29-.01.07-.13.03-.29.04-.1 0-.24-.1-.17-.27" style="fill:#fefeed"/><path d="M116.07 66.75c.02-.05.1-.08.13-.13.06.21.45.19.56.4-.23.35-.53-.04-.69-.27" class="uuid-dfd2beae-63fa-4a22-abdb-ce6ad467a731"/><path d="M55.19 66.09c-.36-.27-.65-.67-.9-1.06.54.03.67.68.9 1.06" class="uuid-e62ff321-4bef-4b39-8502-27439dbf37dc"/><path d="M50.03 54.66c-.27-.12-.23-.51-.15-.76.28.11.3.61.15.76" class="uuid-4b259d40-2591-4909-8d74-98342eb0529a"/><path d="M50.5 18.87c.21.07.07.24-.12.27l-.55.41c.02-.31.28-.53.54-.66.04-.02.09-.01.13-.02" style="fill:#dbf4fb"/><path d="M54.59 13.09c.05-.13.19-.08.28-.07.08.01.08.15.04.27-.02.06-.09.06-.15.07-.11 0-.26-.05-.17-.27" class="uuid-01396ebb-9cc9-4490-a059-ec026c4a99e0"/><path d="M102.16 29.77c-.07.26-.39.33-.52.55-.04.27-.21.25-.26-.02v-.13l.13-.13.66-.26Z" style="fill:#3f9855"/><path d="M114.89 25.97v.13s-.1.01-.14.03c-.04.27-.15.25-.15-.03-.07-.89-.4.09-.49-1.2.28.34.46.77.78 1.08Z" class="uuid-a279b8e1-66ce-4eb2-8fb5-3b274d3542f1"/><path d="m68.62 50.74-.52-.09a.8.8 0 0 1-.18-.18l.05-.15c.27.05.44.27.65.41Z" style="fill:#ddf7e0"/><path d="M50.64 18.35c-.06-.02-.14.03-.2.02-.04-.14-.23-.48.06-.55.2.03.1.4.13.53Z" style="fill:#fcfaeb"/><path d="M93.38 36.2v-.13l.16-.14c.21-.01.34-.17.5-.27.07.43-.39.41-.66.54" style="fill:#419b56"/><path d="M120.84 56.65c-.08-.28-.1-.56 0-.93.13.24.12.5 0 .93" class="uuid-f48f564a-55b2-4997-bbf6-414bc379baf3"/><path d="M104.7 13.01c.03-.1.21-.02.21.04 0 .1.01.27-.05.32-.06.04-.32.03-.32-.05 0-.07.12-.2.15-.31ZM104.35 12.64c.06.05-.09.19-.17.21s-.33.05-.33-.13.27-.17.49-.08Z" class="uuid-59aa64c2-dc81-4d83-a1a2-cac3b367e39f"/><path d="M70.82 40.13v.13c-.17-.06-.41-.12-.52-.3-.01-.18.18-.08.28-.06.11.02.14.18.23.23Z" class="uuid-21dad02e-6566-4421-b872-7abd7aa2329e"/><path d="M115.28 26.63c-.22-.08-.3-.33-.39-.53-.02-.04.01-.09 0-.13.21.2.38.33.39.67Z" style="fill:#c0e3c4"/><path d="M97.18 33.42c-.3.38-1.02.99-1.46 1.07.23-.15.52-.46.67-.69.03-.05.03-.11.06-.17.27.16.46-.17.73-.21" style="fill:#3e9b50"/><path d="M82.62 16.13h-.26c-.18 0-.44.07-.52-.13.27 0 .58-.06.79.13Z" class="uuid-6bc658f7-4a19-4be0-9ad4-b463d685ff4e"/><path d="M55.06 29.38c0-.09 0-.17.02-.26.1 0 .4-.12.4.14 0 .2-.31.1-.41.12Z" class="uuid-dc765aca-725b-44e4-8777-8b63744c8abb"/><path d="M60.87 24.4c.02.35-.32.35-.3 0 0-.2.29-.2.3 0" style="fill:#e6f7f9"/><path d="M41.44 32.51c.03.16.03.36-.15.43-.09-.08-.13-.21-.09-.32.04-.1.18-.07.24-.11" class="uuid-dd6352b8-1409-4ce1-abd1-0bd16222c89b"/><path d="M55.77 81.6c.05-.07.21-.02.29-.03.06 0 .12.1.07.19-.05.11-.15.05-.2.07-.12.04-.28-.08-.16-.24Z" class="uuid-5571c54c-2b8e-480a-be1c-16ac748716d5"/><path d="M117.06 65.99c.09-.03.1.34 0 .37-.09.03-.18 0-.2-.07-.03-.1.03-.23.2-.3M117.73 63.06c.06-.04.11-.08.17-.11.07.14.28.37.05.54-.06-.22-.1-.34-.22-.43" class="uuid-dfd2beae-63fa-4a22-abdb-ce6ad467a731"/><path d="m65.17 36.74 1.08.78c-1.01.02-.95-.47-1.42-.61-.09.23-.14.18-.18-.06-.04 3.46-.09 6.91-.13 10.36 0 .32-.03.66.13.95-.08-.09-.27 0-.27-.29V36.73c0-.18.07-.3.16-.37.11.24.47.26.63.38" class="uuid-9c18ae82-c055-480c-a92b-528331ef8678"/><path d="M104.52 39.26c.28.05-1.1 1.05-1.19 1.06-.3 0-.21-.2 0-.32-.2-.21 0-.76.28-.93.03-.48.88-.65 1.29-.63.2-.28.78-.45 1.01-.29.08.05.07.25 0 .28-.04.02-.08-.04-.23-.09-.1.63-.96.46-1.16.94Z" style="fill:#24a13b"/><path d="m64.66 36.85.09.09-.09 10.27h-.13c.09-3.52-.17-7.06.13-10.36" style="fill:#1d9642"/><path d="M64.66 47.21V36.85l.18.06z" style="fill:#20a341"/><path d="M95.86 45.51c.15.25-.01.53-.26.64-.37.21-.71.42-1.03.64-.04-.28-.42-.04-.75-.17.3-.27.69-.41 1.09-.61-.04-.65.51-.94 1.11-.89.11 0 .21-.03.29-.02.55.09-.07.05-.45.41" class="uuid-e6900f01-d691-498c-87d5-f288effc2bd9"/><path d="M84.34 43.16c-.05-.18.16-.35.34-.39.26.1.63-.06.77.14.03.13 0 .45-.05.57-.11.29-.62.07-.8.27-.17.18-.34.38-.55.29-.11-.05-.35-.33-.13-.38.2-.04.48-.05.51-.18.02-.1-.05-.22-.09-.33Z" style="fill:#2c9e3a"/><path d="M78.32 56.68c-2.05-1.08-4-2.42-5.95-3.69 2.73 1.07 1.89 1.12 3.15 1.82.39.22.7.24 1.06.56.21.19.6.34.85.52-.17-.12 1.04.23.99.54-.01.09-.06.17-.1.24Z" class="uuid-d0e4f90c-cafc-4d3d-b30d-ffea54f2bffc"/><path d="M84.67 42.64c-.07.06-.1.11 0 .13-.12.1-.13.27-.34.39-.44.16-.77.52-1.15.83l-.76.63c-.09.07-.33-.04-.45.04s-.12.31-.25.4l-1.63 1.17c-.11.08-.27.05-.37 0-.09-.04-.1-.19-.13-.31.25.15.47.05.7-.13l1.54-1.2 2.83-1.96Z" style="fill:#36974a"/><path d="M106.62 26.48c.1.35-.35.41-.53.63-1.39 1.65-1.11.48-2.58 1.72.03.27.25.37.17.55-.4-.23-.6-.26-.86-.14 1.21-.98 2.47-1.95 3.8-2.76" style="fill:#349849"/><path d="M105.42 38.97c-.18.12-.38.35-.52.52-.8.29-1.35 1.04-2.1 1.43.08-.35.25-.69.53-.93-.94.78 1.73-1.13 1.19-.73.32.21.4-.31.9-.29" class="uuid-ef136fcc-0d9c-461d-afb0-5926f2b3b739"/><path d="M104.9 38.43c-.3.43-.86.37-1.29.63-.13-.06-.15-.21-.13-.31.06-.43 1.07-.65 1.3-.66.11 0 .12.27.13.33Z" style="fill:#309c3b"/><path d="M92.97 47.63c-.13-.36-.35-.44-.58-.62-.15-.12-.03-.31.06-.4.12-.12 1.17.3 1.14.59-.03.22-.38.37-.62.42Z" class="uuid-e6900f01-d691-498c-87d5-f288effc2bd9"/><path d="M81.04 56.9c-.03.13-1.06 1.05-1.32.81-.3-.27-.76-.45-1.01-.77.44-.04.8.25 1.21.45z" class="uuid-d0e4f90c-cafc-4d3d-b30d-ffea54f2bffc"/><path d="M113.79 32.78c-.13.16-.38.31-.46.49-.26.14-.59.25-.83.43-.45-.6 1.09-1.13 1.09-1.13.08.01.13.14.2.2Z" class="uuid-7a486c21-3a16-48b6-98c9-b69deb9103ba"/><path d="M102.54 41.05c-.43.48-.98.86-1.55 1.17-.49.09 1.14-1.29 1.12-1.29.14 0 .3.05.43.12" class="uuid-ef136fcc-0d9c-461d-afb0-5926f2b3b739"/><path d="M67.97 50.2c-.68-.26-1.26-.74-1.87-1.13.37.02.78-.08.88.44.51.09 1.15.22 1 .69Z" style="fill:#2e964b"/><path d="M108.17 25.32c-.07.14.04.23.15.32-.58.29-1 .74-1.55.72.11-.13.21-.27.31-.41.34-.19.8-.37 1.1-.63Z" style="fill:#37994b"/><path d="M101.51 30.71c-.12.27-.62.11-.76.26-.32.34-.57.57-1.05.71-.13.04-.11.42-.25.45-.22.05-.39.12-.57.02l.92-.81 1.45-.92c.23-.08.41.07.26.29" style="fill:#37984e"/><path d="M101.64 30.32c.25.12.83.37.59.69-.21.29-.57-.14-.72-.3-.09-.09-.2-.17-.26-.29.05-.03.07-.1.13-.12.08.03.19-.02.26.02" style="fill:#1fa43a"/><path d="m96.52 45.49-.67.68c-.07-.02-.17.01-.24-.02.01-.23.08-.47.26-.64.22-.05.46-.19.66-.02ZM98.12 44.33c.09.08-1.4 1.12-1.47 1.07-.07-.04-.11-.11-.1-.19s.07-.15.1-.22c.09-.28.56-.6.51-.22 0 .01-.1-.08.03-.19.1.02.34.16.44.04.17-.23.31-.24.5-.29Z" class="uuid-71057865-48fa-4f67-8c03-ed6c0d07cba6"/><path d="M114.59 26.1s.11.05.15.03c.09.17.14.53-.07.67-.17.12-.35-.21-.33-.38.01-.14.03-.42.25-.33Z" style="fill:#1ba343"/><path d="M95.6 46.15c-.55.59-1.27 1.05-1.96 1.47.25-.85.61-.37.93-.83.11-.17.64-.82 1.03-.64" style="fill:#37994d"/><path d="M110.94 34.88c-.29.23-.52.5-.86.66.04-.06.07-.14.02-.19-.03-.03-.09-.05-.19-.15.37-.06.69-.19 1.04-.32Z" style="fill:#3b974e"/><path d="M97.18 44.59c-.02.06.16.15.12.2s-.13.17-.19.18c-.03.01-.06-.18-.13-.18-.15 0-.23.16-.35.21-.31-.04 1.02-1.35 1.34-.86-.34.16-.71.16-.8.45Z" class="uuid-e6900f01-d691-498c-87d5-f288effc2bd9"/><path d="m108.09 36.99-.7.69s-.08.1-.12.03c0-.41.42-.89.83-.72Z" class="uuid-34550871-ad65-415a-84b5-efb4f081a318"/><path d="M114.92 32.02c-.23.19-.53.46-.81.53.04-.18.19-.3.38-.41.08-.1.01-.26.09-.27.14 0 .3.12.34.15" class="uuid-7a486c21-3a16-48b6-98c9-b69deb9103ba"/><path d="M92.88 48.27c-.23.24-.6.34-.81.53.16-.35.4-.67.81-.53" style="fill:#429956"/><path d="M109.14 36.2c-.13.27-.62.49-.82.67 0-.4.46-.6.82-.67" class="uuid-34550871-ad65-415a-84b5-efb4f081a318"/><path d="m94.44 9.56.03.22c-.19.09-.21.2-.07.32l1.22.33-1.15.14-.04 2.01-1.91.06c-.28 1.55-.18 2.44-.18 3.95.43.25.78.13 1.2.31-1.02.38-3.4.03-3.83.14-.28.07-.56-.17-.77-.25.48-.58.44-1.42.66-2.14 1.07-.71.13-.27.72-2.49.11-.42-.19-1.1.2-1.43.41-.35 1.14-.34 1.62-.3.04-.33-.03-.87.27-.92-.26.04 2.16-.01 2.05.04Z" style="fill:#168ad0"/><path d="M60.83 20.95c-.7-.2-.83 1.01-1.84.08l.58-.31c-.07-.26-.3-.34-.51-.43-.19-.08-.27.25-.4.3-.31-.04-.61-.34-.76-.62-.2-.39-.71-.52-.83-.95.04-.13.21-.27.21-.37 0-.15-.09-.29-.19-.33-.19-.08-.39.15-.52.25-.45-.12-.76-.67-1.1-1.02-.27-.28-.62-.43-.74-.82.1-.23.32-.34.49-.62-.18-.09-.32-.14-.41-.27.85.21 1.14-.76 1.53-.82.13-.02.26.06.27.14.1.43-.34.36-.38.88-.02.21.08.39.26.47l.8.37c-.1-.05.78 1.06 1.34 1.35.18.09.11.45.23.65.53 0 2.04 1.59 1.96 2.06Z" class="uuid-f08eae43-b05e-4f80-9ef7-814a5b063215"/><path d="M53.49 16.9c-.09.14-.08.3-.04.42.18.53 1.19 0 1.09.63-.12.73.41.84.91 1.07.24.11.39.64.77.7.45.07.35.46.49.75 1.08 1.68 1.75 1.1 2.3 2.17-.08.14-.08.25.02.32-.19.46-.58-.06-.63.89-.13 0-.34-.24-.34-.39-.34-.05-.57-.55-.5-.89-1.14-.41-1.88-1.1-2.21-2.08-.6-.56-1.27-.99-2-1.31-.67 0-.99-.2-.98-.56-.4-.41-.49-.71-.28-.91-.07-.1-.03-.24.11-.42.03-.04.07-.09.12-.12l.22.13c.15-.27.38-.46.61-.65.28-.2.36-.09.36.25Z" style="fill:#1da4e2"/><path d="M67.28 8.39c-.08.47-.62.22-.93.63-.04.24-.15.31-.37.33.38.13.89.36 1.05.74.01.08.08.17.09.24 0 .14-.09.16-.17.16s-.14-.11-.21-.13l-1.46-.4c.08.15-.05.24-.2.16-.28.15-.52.04-.57-.27-.14.23-.5.3-.74.22-.4.18-.94.18-1.21.54-.46.51-.97.82-1.54.94l-.21-.24c-.09-.03-.04-.06 0-.11.03-.04.02-.1.04-.15l4.72-2.12 1.7-.52Z" style="fill:#1097ed"/><path d="M76.72 6.56c.21-.11.59-.11.79 0 .14.29-.12.41-.26.13q-.345.045-.66.15c-.78-.08-1.54 0-2.35.23-.43.12-.95-.11-1.36.09s-.81.2-1.27.27c-.42.06-2.28.77-2.23.3.29-.07.63-.19.91-.25 2.13-.39 4.25-.92 6.43-.92" class="uuid-5bb98386-058b-40d7-80ea-71501a62cbb0"/><path d="M97.58 10.59c.33.59.71.43 1.31.65.07.27.3.33.51.43.2.04.39.15.53.3 0 .2-.18.31-.33.3-.66 0-.19-.46-1.04-.54s-1.75-.7-2.05-1.49c.57.02.69.47 1.06.35Z" style="fill:#188bcd"/><path d="M85.77 6.82c-.49-.04-1.02.06-1.56-.02-.48-.07-.91-.17-1.34-.08-.04.12-.07.11-.12 0-.35-.07-.7-.12-1.04-.15-1.28.11-2.74.11-4.07 0-.04.11-.08.11-.13 0h-.79s.05-.14.14-.14l6.24.05c-.64 0 3.37.3 2.67.36Z" style="fill:#278ac4"/><path d="M62.56 10.59c-.38.74-.81.53-.73.98.29-.08.33-.37.62-.39.25.82-1.38.53-1.7.64s-.55.25-.82.09l.88-.62c1.3-.11 1.15-.56 1.75-.7" style="fill:#0d9cf4"/><path d="M66.35 9.03c.22.68 1.33.45.68 1.06-.35.08-.57-.3-.91-.43-.4-.15-.78.17-1.3 0 .41-.32.97-.6 1.52-.64Z" style="fill:#0a9bf5"/><path d="M85.25 15.74c.2-.21.99-.25 1.18.01.44.15.97.26 1.18.66-.33-.19-.91-.06-1.29-.15L85.25 16c-.29.18-1.04.06-1.31-.13-.02-.09.12-.14.26-.13h1.06Z" style="fill:#0e8fe0"/><path d="M54.68 15.86c-.03.45-.88.77-1.19 1.03a.9.9 0 0 1-.36-.25c.62-.51 1.1-1.18 1.94-1.42-.06.18-.25.18-.38.29-.15.12 0 .22 0 .35Z" class="uuid-f08eae43-b05e-4f80-9ef7-814a5b063215"/><path d="M71.34 16.97c-.81.17-1.59.49-2.37.79l-.63.24c-.11-.03-.25.05-.42-.12l2.18-.82c.27-.1.55-.05.8-.31.07-.07.26-.02.34-.02.11 0 .1.15.1.25Z" class="uuid-d9d3856f-5087-4b0f-84ab-3af8a81b8f6f"/><path d="M81.7 6.69c.13-.12.5-.11.66 0 .13.09.15.17.02.24a63 63 0 0 0-4.76.01c-.31.22-.78.2-1.03-.1q.315-.105.66-.15c.1-.03.24 0 .26-.13h.13c1.36.04 2.72.09 4.07.13Z" style="fill:#0393f7"/><path d="M82.75 6.71s.08.02.12 0c.05.19.3 0 .54.18-.52.12-1.04.18-1.57.18-1.35-.04-2.71-.09-4.07-.13h-.16c.05-.06.15-.14.28-.14l3.91.05c.25 0 .44.07.55-.17.11-.1.27-.08.39.02Z" class="uuid-7c75fdba-7a5f-4a21-9834-ba7d2a6d9baf"/><path d="M83.93 15.87c.41.11.9.03 1.31.13l-.13.26c-.99-.21-2.52-.4-3.54-.39.1-.27 1.87-.13 2.36 0" style="fill:#1282c2"/><path d="M57.28 14.05c-.02.11-.02.23-.1.37-.72-.26-.35.32-1.09.24-.07 0-.12-.13-.09-.23l.54-.39c.06-.13.1-.27.28-.26.21 0 .31.2.46.28Z" style="fill:#0f9ef1"/><path d="M94.4 10.09c-.32-.09-.76.15-1.08-.09-.08-.49.9-.09 1.12-.45.07-.01.18.05.24.1.09.07.21.21.04.3-.09.05-.23.06-.32.13Z" style="fill:#1f88c3"/><path d="M81.84 7.08h-3.93c-.09 0-.15-.08-.14-.13h3.93c.09 0 .15.08.14.13" style="fill:#118dd6"/><path d="M86.43 15.75c-.35-.12-.82-.01-1.18-.01l-.13-.27c.72.04 1.33-.07 2.04.06-.18.39-.52.14-.73.22" style="fill:#1c89cf"/><path d="M73.42 15.97c.03.15-.24.09-.37.03-.12.02-.25-.02-.4-.14-.05-.04-.19-.01-.2-.09-.03-.23.67-.36.89-.26.12.05.1.31.09.46Z" style="fill:#1290f9"/><path d="M64.51 9.84c.11.31.23.4.57.27a.4.4 0 0 1 .2-.16c0 .06.14.15.16.21-.02-.11-.37.39-.57.4-.16 0-.24-.19-.39-.28-.25-.14-.6.03-.71-.23.2-.09.46-.39.74-.22Z" style="fill:#049cfc"/><path d="M73.05 16c.16.02.29.06.39.13-.05.22-.35.17-.5.05-.09-.07-.17-.21-.29-.32.15-.01.31 0 .4.14" class="uuid-d9d3856f-5087-4b0f-84ab-3af8a81b8f6f"/><path d="M67.66 17.72c.04.17-.51.22-.52-.02 0-.16.45-.26.52.02" style="fill:#1895e2"/><path d="M73.42 15.97c.14.03.3-.03.42.1-.16.12-.29.04-.4.06-.15.02-.3 0-.39-.13z" style="fill:#0997f3"/><path d="M72.59 16.4c-.17 0-.31-.15-.46-.19.14-.16.2-.25.26-.14.06.09.21.1.2.33" class="uuid-d9d3856f-5087-4b0f-84ab-3af8a81b8f6f"/><path d="M56.54 14.03c-.09.22-.3.39-.54.39.06-.23.3-.38.54-.39" class="uuid-cbf52dc2-ddf4-4514-ba0d-df37a0a76669"/><path d="M99.93 11.97c-.24.03-.36-.22-.53-.3.23-.02.53.03.53.3" style="fill:#1b89c7"/><path d="M109.45 75.19c.15.12-.05.28-.19.38-.04.08-.12.13-.17.2l-.61.43c-.69 0-.92.65-1.07 1.17-.12.08-.16.29-.27.39l-2.88 2.34c-1.62 1.32-3.51 2.3-5.34 3.33-.83.47-1.77.85-2.66 1.14-.09.03-.18.09-.26.13-.18.08-.31.08-.4 0-.12-.03-.11-.07 0-.13-.29-.2-.73-.14-1.32.17l-.24-.19c-.16-.33-.32-.66-.22-1.07s-.29-.57-.37-.85l-.3-1.07c-.28-1.02.19-1.29-.58-2.03-.11-.1-.2.12-.48.19-.06-.57-.27-1.33-.13-1.9.03-.11.47-.38.21-.43-1.34-.23-.05-.1-1.58-.7 1.41-.47 2.75-1.09 4.06-1.78 2.28-1.21 4.44-2.7 6.29-4.49.86-.83 1.8-1.61 2.62-2.5.08-.15.17-.27.27-.11.32-.08.4.12.24.59.64.03.77.31.74.91.62.5.24.93-.22 1.37-.03.07-.03.25.03.3.27.25 1.74.9 2.2.76.77.35.33.96-.33 1.15.47.14.93.34 1.36.6.13.65.41 1.05.83 1.2.53-1.05 1.2-.2.74.5Z" style="fill:url(#uuid-0cffa43e-3a0b-4351-8062-c5c3cb29b0a6)"/><path d="M62.04 73.43c.06-.05.12-.09.15-.08.35.15.9.5 1.16.76.23-.02 1.58.85 1.6.95 0 .06 0 .12-.04.19-.01.04-.03.11-.06.12-.05.02-.13 0-.24-.12-.35-.14-.51.15.02.18-.27.3-.43.07-.72-.08-.5-.26-.98.32-.98.81s.12.97-.08 1.38c-.08.15-.62 0-.69.21-.23.68.31 1.35-.03 2.04-.46-.32-.06-.79-.38-1.18-.31.27-.11.64-.22 1-.19.13-.41.08-.66.14-.06.65.06 1.27-.04 1.93-.04.26-.47.26-.45.52.2.05.25-.07.29-.09s.13.02.16.05c.04.05-.11.26-.18.25-.32-.06-.67-.28-1.06-.29-.08.2.04.33.08.47l-.93-.53c-.33-.31-.7-.57-1.11-.81l.09-.09c.12-.22.42-.3.91-.26-.33-.25-.73-.36-1.13-.25-.25-.54.05-.78.93-.71.1-.36.39-.53.87-.53v-1.56c.15-.47.57-.72 1.26-.77q.015-.945.36-1.71c.42-.05.58-.25.48-.61-.21-.49-.46-1.22.29-1.32.02-.18.15-.18.38-.02Z" style="fill:#e6e23e"/><path d="M76.59 87.07c.38.04.34.17 0 .28.08.16-.39.17-.39.14 0-.1 1.63.09 1.7.38l.28-.13c.78-.12 2.71-.07 3.57-.04.03 0 .06.07.09.17 1.39.08 1.43-.2 2.89-.13-.09.22-.41.1-.65.12L82.5 88c-2.4.21-9.24-.17-11.67-1.05.5-.06 1 .05 1.54.16 4.84.94 2.15-.29 4.23-.04Z" style="fill:#b4cc52"/><path d="M95.61 84.59c-.21.15-.44.28-.68.4-.31.23-1.62.81-1.95.67-.05-.02-.09-.09-.12-.17-.15 0-.27.16-.39.09 0-.26-.12-.38-.07-.48.18-.34.95-.25 1.65-.53.39-.16 1.89-.67 1.56.02" style="fill:#60b43e"/><path d="m69.25 76.72 2.1.78c-.18 0-.41.14-.63.07l-1.84-.64c-1.16-.8-2.43-.52-2.76-1.29l-.02-.11c.08.04.24-.02.36.04.91.54 1.87.81 2.8 1.15Z" style="fill:#d0da44"/><path d="M80.92 87.61c-.02.07-.04.13-.06.13-.53.03-2.15.08-2.61 0-.04 0-.06-.06-.09-.13-.27.16-1.18 0-1.49-.11-.04-.01-.06-.07-.08-.15v-.28c.91.11 1.1-.49 2.44-.18-.23.4-.54.05-.75.26.33.23.6-.03.94.1-.12.22-.36-.03-.54.18.1.15 2.42-.11 2.23.17Z" style="fill:#aacb4b"/><path d="M81.84 87.87h-3.93c-.22-.11-.13-.2.26-.26h2.75c.73 0 1.28-.22 1.99-.1z" style="fill:#a2c939"/><path d="M66.09 75.53s0 .08.02.11l-1.2-.38-1.56-1.14c-.1-.06-.09-.1.03-.13.62.18 1.12.63 1.74.95.36.19.74.3.98.59Z" style="fill:#d7dc42"/><path d="m96 84.72-2.63 1.18c-.4 0-.82.13-1.2.26 0-.14.05-.29.22-.38.1-.05.27.07.45.03.21-.04.05-.24 0-.33.72-.02 1.37-.41 2.07-.51.2-.14.45-.31.68-.27h.4Z" style="fill:#73ae56"/><path d="M66.82 84.88c-.22-.01-.32-.12-.28-.21.06-.15.32-.31.52-.2.05.03.09.08.1.18.01.12-.07.24-.34.23" style="fill:#d4dd38"/><path d="M113.3 45.35c.36.07.32.25-.04.3-.03.22-.07.42-.15.68-.15.5.05 1.02-.08 1.54-.12.49-.14.97.18 1.42.43-.82-.04-2.62.19-2.91.36-.46.91-.13 1.23.15.16.15.7-.1.72.18l.1 1.49c1.43.21 2.61.06 4.05.15.26.67.04 1.32.21 2.07.56-.41.18-2.5.68-2.17-.03.63.01 1.2.13 1.7.04-.11.08-.11.13 0 0 1.46-.15 1.23-.13 2.49l-.5 2.39c-.12-.32-.31.82-.34 1.14-.01.14 0 .27.03.41-.15.8-.29 1.63-.64 2.36-.12-.07-.08-.15 0-.26-.03-.29.18-.6.08-.94-.15-.23-.08-.51.13-.15.05-.44.28-.87.13-1.41-.21.22-.2.93-.67.75.03.72-.22 1.27-.21 2.25-.23.04-.27-.16-.4-.23-.05-.21-.14-.45-.05-.7.18-.5.41-1.71-.18-1.44-.19.09-.03.83-.3 1.15-.13-.34-.15-.7-.24-1.09-.32-.07-.59-.01-.92-.04-.02-.35.06-.67-.08-.99l-1.84-.12c-.26-.02-.38-.41-.65-.38-.25.03-.42.06-.62.28-.73.79-1.27-.96-2.31.18.1-.14-.09-2.08-.28-1.84.49-2.33.69-4.72.66-7.1.21-.05.3.07.25.38h.1c.04-.17.15-.23.31-.14-.02-.3.01-.55.26-.75-.11-.23-.03-.3.17-.13.13-.02.21-.11.25-.28-.32-.16.46-.77.62-.42Z" class="uuid-78bd605c-c337-44b9-8e5e-adf2f7881127"/><path d="M111.38 73.02c-.1.22-.24.46-.41.72-.2.16-.31.47-.54.62q-.33.15-.39.39c-.08.06-.12.24-.24.28-.12.2-.24.25-.34.16-.34.24.13-.87-.31-.79-.07.26-.22.62-.54.54-.61-.15-.76-.79-.88-1.28-.29-.05-.57-.27-.79-.37-.34-.16-.81-.08-.88-.63.46 0 .88-.1.98-.55-.32-.26-.76.04-1.05-.14-.67-.6-1.54-.47-1.64-1.03-.13-.7.69-.65.53-1.19-.03-.11-.27-.22-.29-.38-.03-.25.04-.47-.14-.63-.55-.47-.54.95-1.3.39.12-.4 1-.84.71-1.31-.01-.19.08-.37.27-.55.25-.45 1.05-1.2 1.16-1.67.13-.1.25-.21.4-.28.25.31-.03.69-.29.91-.2-.37-.23-.29-.28.09.11.1.31.05.3.16-.01.18-.16.34-.18.47.26-.18.42-.27.66-.12.15-.16.32-.46.61-.56.1-.19 0-.44.2-.63.12-.11.21.12.25.2.1.21-.97 1.81-.48 2.29.08.08.36.02.47.13.21.23-.08.68.15.89s.63.01.94.1c.11.3-.11.73.12.95s.64 0 .94.11c.1.31-.11.69.11.93s.63.03.92.11c-.01 1.35.47.88.53 1.73.01.19.21.3.34.3-.07 0 .84-1.74 1.25-1.67-.27.52-.69.83-.87 1.31" style="fill:#259c3d"/><path d="M114.31 68.63c.09.03.16.06.16.07-.06.28-.2.57-.35.82-.03.12-.12.17-.16.26.02-.06 0-.16-.06-.2-.03-.02-.08-.02-.19-.03.14-.46-.1-.78-.37-1.08-.16-.17-.14-.81.07-.87.35-.3.27 1.45.9 1.03" style="fill:#1f9943"/><path d="M110.51 58.66c-.48-1.28-.83-.3-.42-2.03.24.94.98 1.21.42 2.03" style="fill:#1d9e40"/><path d="M114.7 67.97c-.1.18-.28.45-.46.43-.22-.02-.15-.37-.11-.5.04-.15.24-.35.44-.3.14.04.22.19.13.37" style="fill:#199e37"/><path d="M116.62 65.04c-.07.05-.06.21-.15.26-.14-.07-.31-.13-.4-.21a.38.38 0 0 1-.06-.5c.06-.09.35-.1.46-.03s.08.34.15.48" class="uuid-cc1fec8d-15a2-445d-bd12-c9cecee4c849"/><path d="M112.61 71.59c.06-.5.35-.86.85-1.17-.15.45-.47.87-.85 1.17" style="fill:#248343"/><path d="M107.78 61.8c.23-.28.13-.83.54-.94-.13.42.07.96-.35 1.1-.07.02-.1-.15-.2-.16Z" style="fill:#2d9347"/><path d="M117.16 64.01c-.04.08-.1.18-.15.25l-.27.12c-.02-.36-.08-.54-.16-.87.29 0 .5.24.58.5" class="uuid-cc1fec8d-15a2-445d-bd12-c9cecee4c849"/><path d="m114.12 69.52.19-.89c.13-.09.32-.07.45-.17-.16.37-.31.82-.64 1.06" class="uuid-6ca424bd-e77e-45d4-b532-94f53f770f29"/><path d="M118.15 58.77c.03.1.01.31-.05.48-.03.09-.15.08-.29.03-.23 0-.23-.45 0-.51.12.01.24 0 .35 0Z" style="fill:#159f3d"/><path d="M110.01 58.3c.1-.06.15.07.2.12.08.08.09.23.03.28-.11.07-.22.1-.27.04-.11-.12-.12-.35.04-.44" style="fill:#2f9539"/><path d="M119.08 58.75c.04.2-.08.35-.13.53-.27-.19-.11-.62.13-.79 0 .09-.02.18 0 .26" style="fill:#1b8738"/><path d="M117.8 58.77v.51c-.06-.03-.26.05-.28-.06-.02-.12-.01-.25 0-.39 0-.11.19-.06.28-.05Z" style="fill:#309334"/><path d="M110.97 73.74c-.15-.34.31-.45.41-.72h.13c-.13.28-.28.51-.54.72" class="uuid-b4d8d568-6295-42b6-958f-3de751643ac5"/><path d="M115.54 67.41c-.18.17-.38.4-.39.66l-.26.26c-.09-.36.02-.52.28-.75.16-.14.18-.36.37-.43z" class="uuid-6ca424bd-e77e-45d4-b532-94f53f770f29"/><path d="m52.32 32.16-.7 1.49c-.23.5-.37 1.07-.6 1.52-.66 1.26-1.06 2.67-1.44 4.05-.71 2.56-1.3 7.3-.99 9.93.14 1.16.17 2.27.43 3.32.02.79.64 3.46 1.03 4.18.16.3.21.74.3 1.07l.93 2.24c.39.76.71 1.57 1.16 2.35l1.06 1.83c.18.23.17.35 0 .38v.1c-.17.3-.45.25-.52-.09-.35.04-.42.13-.33.5-.14.29-.42.37-.85.26-.33.3-.74.48-1.22.54q-.405.57-1.26.42c-.09.76-.59.94-1.53.57-.42.17-.82.26-1.21.28-.18.88-.41 1.11-.69.7-.12.26-.47.65-.77.66-.13-.24-.36-.47-.52-.66L42.64 64c-.22-.43-.28-1.04-.57-1.52-.37-.61-.41-1.31-.62-1.89-.16-.73-.16-3.09.85-1.71.35.12.64.02.88-.31l1.74-.46q1.395-.735 3.03-.72c.16-.85.69-.55.98.05-.05-.42-.1-.82-.14-1.2-.1.12-.19.13-.27-.03-.06.09-.15.16-.26.16-.24 0-1.7.05-1.8.13-.02.53-.23.79-.62.78-.88-.09-1.42-.12-2.12.46-.66-.08-1.31-.1-1.97-.03-.27-.19-.55-.25-.83-.18-.09.35-.12.72 0 1.06.36.18.35.4-.03.54 0-.12-.15-.32-.23-.41.07-.55-.47-1.52-.39-1.97.09-.04.18-.04.26 0 .04-.45 0-.91-.12-1.37l.22-.2c.13-.17.21-.13.24.11a.33.33 0 0 0-.24-.23l-.25.06.16.98-.13.12c.06.24 0 .37-.15.4-.34-1.05-1.04-4.81-.9-5.91.02-.12-.07-.27-.15-.26-.29-2.78-.16-5.63.13-8.39.44-2.9 1.16-5.71 1.99-8.52.76-1.55 1.22-3.28 2.21-4.72.09.15.23.54.42.35.14-.13.15-.42.29-.4.09.01.41-.02.44.08.18.53.92.35 1.19.59.35.31.55.39.98.55.48.17.92.58 1.52.43.27.16.67.42.9.63.91.86 1.53 0 1.84.61.1.2-.04.47-.06.72.78.41.88-.24 1.25-.26Z" style="fill:url(#uuid-f90fd8d7-f171-4d10-8a72-00fbcfda20b6)"/><path d="M52.35 18.62c0 .26.17.42.54.47 1.16 1.29 2.42 2.48 3.76 3.57.61.23.77.51.46.85.11.2.12.33-.07.49l-.34.4c-.53-.69-1.19-1.63-2.04-1.68-.09-.62-1.19-1.97-2.04-1.81-.17-.38-.42-.87-.82-1.13-.34-.22-.41-.77-.82-.87l-.12-.14.5-.64c.23-.29.46-.43.7-.43-.15.29.81.63.28.91Z" style="fill:#21a7dc"/><path d="M58.05 23.46c-.45-.03-.5.44-1 .54-.12-.21-.15-.47-.39-.6.22 0 .44-.16.37-.3-.43-.07-.67-.35-.96-.64-.2-.2-.84-.45-1.48-1.24-.23-.29-2.57-2.76-2.4-2.29-.05-.13.03-.24.16-.3.17.64.26-.11 1.64.53.32.15.47.42.72.59.35.24.7.26.89.73.14.34.28.87.61 1.05l1.51.85c.16.09-.02.43.07.52.2.2.23.34.24.56Z" class="uuid-bb3b34ec-cf32-4bf6-9c90-13d53f185665"/><path d="M48.41 22.89c-1.09.32-.29 1.24-1.17 1.33-.5-.57.35-1.21.53-1.82.13.24.34.29.64.49" style="fill:#30abc7"/><path d="m55.9 27.26-.02-.14c.57-.82 1.3-1.52 2.05-2.18-.18.32-.33.74-.62 1.02-.37.36-.79.61-1.07 1.07-.08.14-.24.2-.35.24Z" style="fill:#e3fbfd"/><path d="m60.74 22.31-2.12 1.82c-.07 0-.21.08-.26-.06-.02-.06.2-.07.28-.2.29-.45.87-.66 1.22-1.12.24-.32.47-.51.87-.44Z" style="fill:#2ca7d1"/><path d="M50.99 18.91c-.5.11-.5.74-.73.58.08-.11.1-.22.12-.35.01-.08.09-.2.12-.27.3-.2.54-.57.87-.74-.08.27-.26.52-.38.78" style="fill:#25a4ce"/><path d="M55.9 27.26c-.21.41-.44.73-.79 1.03-.04-.1-.07-.06-.13 0 .13-.49.63-.77.9-1.16l.02.14Z" style="fill:#dbf7fb"/><path d="M49.95 20.78c-.08.26-.41.21-.52.2-.05 0-.08-.11-.07-.16-.02.14.15-.26.4-.19.07.02.23 0 .19.15" style="fill:#38a3d8"/><path d="M56.69 25.54c.16.13 0 .2-.05.24-.1.09-.43.14-.38-.13.02-.09.29.05.43-.12Z" style="fill:#28a9d3"/><path d="m113.26 45.65.04-.3c-.21-.27.63-.82.92-.62.15-.13.37-.16.52-.42.11.19.31.38.24.54-.34.64-1.08.85-1.72.8" style="fill:#269f39"/><path d="M120.52 44.59c.11 1.69.11 3.64 0 5.38 0 .13.08.32-.11.41-.29-1.91-.08-1.36-.02-2.11.07-.85-.05-1.71-.1-2.6-.03-.48.23-.95.07-1.47.28.06.12.27.15.4Z" style="fill:#1d9f42"/><path d="M115.15 43.67c-.38.81-.58.24-.93 1.06-.29.25-.73.26-.92.62-.13 0-.25.02-.41.07-.15.04-.14.22-.21.36.06.21-.02.38-.25.28l-.17.13c-.06.45-.52.41-.52-.03l2.62-2.09c.21-.17.56-.3.79-.39Z" style="fill:#37964a"/><path d="M120.52 44.59h.13v5.38h-.13z" style="fill:#1b893c"/><path d="M115.5 45.94c-.3.42-.67.22-.88 0 .33.03.56-.28.88 0" class="uuid-78bd605c-c337-44b9-8e5e-adf2f7881127"/><path d="M54.45 17.31c-.22-.01-.25-.27-.38-.33.15-.14.3-.12.38-.07.09.06.13.41 0 .4" class="uuid-f08eae43-b05e-4f80-9ef7-814a5b063215"/><path d="M59 22.64s.09.08.13.13c.09.12-.08.13-.11.19-.07 0-.12 0-.17-.01-.07-.02-.17-.11-.11-.19s.15-.19.25-.12Z" class="uuid-bb3b34ec-cf32-4bf6-9c90-13d53f185665"/><path d="M120.03 54.85c-.11.51-.21 1.04-.3 1.54-.3-.3-.05-.77-.05-1.17 0-.38-.21-.74 0-1.07.16.31-.05.58.12.8.16-.17-.02-.35.12-.54.14.12.06.29.1.43Z" class="uuid-e60bb503-562d-4a43-9c23-9951606fe237"/><path d="M111.74 46.16c.17.05.38.13.52.03q.06 1.05-.18 2.1c-.24-.22-.05-1.29-.39-1.2-.12-.21-.19-.48-.23-.79.08-.08.15-.18.29-.14Z" style="fill:#2d9a3c"/><path d="M111.69 47.08c-.09.4.24.82-.1 1.28-.34-.61.11-1.19-.25-1.68-.09-.12.03-.32.11-.39.08-.01.27-.03.27.12 0 .26 0 .48-.04.67Z" style="fill:#189944"/><path d="M39.21 50.49c0 .09-.01.18 0 .26-.07.59-.24-2.31-.24-2.23-.11-2.29.12-2.94.11-4.99.09-.18.23-.49.12-.78s.11-.5.14-.66c.03.6-.12 1.19-.12 1.83v1.45c-.02 1.02-.23 2.02-.05 3.04.12.71 0 1.4.04 2.06Z" style="fill:#eaf3d3"/><path d="M49.66 74.35c.21-.07.28.07.3.28.34-.21.5.02.26.35.29-.04.58-.04.86 0 .67-.34.85.54-.06.58.29.13.42.31.4.54.26.04.52.33.25.5-.99-.72-1.72-1.75-2.61-2.6-.07-.25-.28-.43-.41-.67.01-.47-.36-.4-.49-.84.37-.67.89.14 1.02.67l-.07-.37c-.16-.2-.18-.38-.07-.55a.47.47 0 0 0-.26-.32c-.48-.07-.64-.22-.47-.43-.12-.03-.12-.08 0-.14.96-.64 2.25.81 1.95 1.89-.3.41-.5.78-.58 1.11Z" style="fill:#efe33b"/><path d="M53.06 77.71c.29-.18.52.18.58.44.25-.09.44.07.56.45.52.35 1.04.68 1.55.99l-.03.29c.36-.26 1.01.3 1.06.66q.705-.18.93.63c-.3-.17 1.45.93 1.02.9-2.41-1.37-3.39-2.42-4.68-3.16.02.01-1.21-1.11-1.47-1.41.06-.29.37 0 .48.2Z" style="fill:#e6e460"/><path d="M52.47 77.13c.05.12.02.16-.11.11-.27-.14-.55-.36-.69-.64-.08-.15-.06-.4-.25-.5-.08-.24.02-.27.16-.04.51-.28 1.43.66.89 1.06Z" style="fill:#e8e835"/><path d="M53.06 77.71c-.1-.15-.33-.17-.48-.2-.07-.08-.18-.16-.22-.26.04-.03.08-.07.11-.11.38-.38.95.19.59.58Z" style="fill:#eee555"/><path d="M110.43 74.36c.07 0 .22-.01.14.11-.18.05-.38.17-.53.28-.16-.14-.1-.26.07-.39.09-.07.2-.09.32 0" class="uuid-b4d8d568-6295-42b6-958f-3de751643ac5"/><path d="M62.68 73.45c.25.14.52.36.7.53l-.03.13c-.37-.27-.98-.31-1.31-.69-.38-.09-.75-.23-1.09-.41l-.09-.35c-.2.11-.26.04-.13-.16-.19.05-.44-.03-.39-.25-.69-.65-.82-.91-.38-.78.84.74 1.74 1.43 2.72 1.97Z" style="fill:#e2e03f"/><path d="M103.86 67.82c-.07.05-.21.05-.27.11.03-.31.29-.51.54-.66-.09.16-.04.45-.27.55" style="fill:#419650"/><path d="M53.76 64.37c.67 1.53 2.57 3.46 3.69 4.74.11.04.11.08 0 .13-.23.46-.54-.02-.68-.36-.24-.07-.33-.21-.26-.44q-.495.15-.66-.63c-.4-.11-.53-.34-.39-.67-.17.16-.34-.03-.52-.55-.27.17-.27.06-.12-.22-.35.11-.55-.11-.6-.65-.32-.37-.57-.78-.73-1.23 0-.13.01-.25 0-.38l.26.25Z" style="fill:#e4e25b"/><path d="M51.28 59.67v.28c-.33-.15-.83-1.87-.93-2.24.39.23.52 1.39.93 1.97Z" style="fill:#f1f3ae"/><path d="M40.52 56.79c-.03.06.06.22-.07.26-.07.02-.05-.18-.2-.26v-.13c.02-.14.06-.28.15-.4.26-.05.18.32.12.53" class="uuid-d36fad3f-0741-4551-8b3c-66674fe2548d"/><path d="m109.09 75.77-.51.66c-.42.04-.59.56-1.18.94l-.25-.37c1.1-1.55.63-.88 1.17-1.01.25-.06.46-.39.77-.22" style="fill:#2e9e3f"/><path d="M109.26 75.57c.06-.12.09-.28.19-.38.09-.09.24-.1.34-.16-.07.26-.25.5-.54.54Z" style="fill:#3c9d57"/><path d="M48.53 56.23c.19-.08.16.28.15.27-.02-.12-.03-.19.11-.24.3.56.62 1.2.19 1.86-.27-.33-.35-.77-.68-1.08-.08.25-.08.45-.2.57-.15.14-1.52.17-1.5.16-.39.14-.94.22-1.26.43-.38.25-.55.21-1.05.35l-1.02.28c-.21.06-.31.49-.6.37-.22-.09-.54.07-.63-.26-.05-.16-.1-.25-.24-.22-.37.07.11.54-.24 1.38-.08.18-.1.36-.11.51-.16-.45-.52-.89-.56-1.43q.03-.27.03-.54c-.13-.34-.09-.72 0-1.06.1-.17.17-.33.39-.44.18-.09.22.33.38.35.56.06 1.17-.16 1.74.03.4.13.55-.25.81-.38.59-.28 1.26.02 1.88-.11l.09-.73.84-.08c.53-.05 1.03-.27 1.48.03Z" style="fill:#cdd731"/><path d="M58.75 70.29v.13c-.2.08-.53 0-.62-.23-.29.05-.34-.06-.17-.3-.38-.04-.55-.11-.53-.53-.11-.04-.11-.09 0-.13v-.13h.13c.33.44.74.84 1.17 1.18Z" style="fill:#eee374"/><path d="m58.75 70.43 1.2 1.06s-.11.05-.18.17c.25.16.47.34.55.61-.09.18-.22.14-.4.07-.51-.65-1.09-1.24-1.67-1.78-.19.12-.26.04-.15-.15-.25-.06-.25-.16 0-.21.2.05.47.09.63.23Z" class="uuid-64eeb2a2-2471-4876-8202-9307e0039b87"/><path d="M55.46 67.16c.35.42.66.9 1.05 1.29.12.68-.93.73-1-.08-.11.11-.2.27-.28.5l-.02.21c.22-.05.36 0 .41.17.13-.35.56-.26.74.03l.16-.06q.27.48.63.9c.1-.29.21-.4.47-.2.2.03.41.29.5.49.16.25.08.43-.21.47.1.29.03.48-.19.57-.29.23-.61.11-.97-.34-.33.6-.94.76-1.85.51.01.84-.34 1.19-1.06 1.06-.13.47-.5.69-1.1.66.12.57-.24.96-1.08 1.18-.27.45-.57.6-.9.44-.17.17-.34.21-.52.03-.07-.12-.15-.26-.26-.35.02-.2-.08-.29-.3-.28-.06-.07-.14-.14-.15-.24-.01-.09.09-.17.11-.28.02-.13-.34-.2-.1-.26.06-.01.28.07.33 0 .21-.3.27-1.1-.02-1.4-.76-.79-.84-.87-1.53-.81-.17-.13-.35-.23-.55-.28-.08.2-.3.24-.66.13-.09-.07-.11-.19-.18-.28-.17-.17-.12-.2.16-.1-.1-.43.43-.93.81-1.06-.04-.23.07-.43.33-.61.8-.15 1.62-.22 2.47-.21.61 0 1.1-.21 1.47-.61.04-.42.19-.69.44-.82.45.11.75-.07.92-.55l.77.04c.44-.6.75-.56.94.1l.24.05Z" class="uuid-a4005966-0940-47ee-92af-a4091c82ce18"/><path d="M52.96 64.52c.08.21.09.44 0 .64.21.9.63 2.1 1.58 1.02l.26.21.65.76c-.03.16-.32.37-.4.18-.1-.21.05-.49-.17-.72-.23.12-.28.55-.59.59-.2.03-.41-.08-.59-.06-.22.02-.17.35-.33.51-.22.22-.59.05-.9.14.17 1.7-2.54 1.4-3.98 1.48-.22.01-.4.5-.64.48-.4.2-.83.5-.81 1.06-.04.05-.11.06-.16.1-.2-.24-.39-.43-.62-.63-.32-.27-.47-.7-.75-1.03-.18-.21-.28-.57-.42-.81.33-.17.51-.33.77-.66.43.18.23-.72.48-.93.13-.12.45.07.57 0 1.48-.96 1.7.82 2.21-.79.34-.14.66-.04 1.02-.1.17-.56.69-.42 1.06-.58.28-.12.39-.52.87-.32.45.19.21-.65.69-.78.09-.02.11.19.17.24Z" class="uuid-f75b26b0-eb6c-4366-b603-1dc9292fb456"/><path d="M48.29 71.35v.14c.35.04-.26.72-.31.73-.08.03-.19-.11-.26-.2-.25-.13-.34-.42-.5-.65-.02-.16.09-.2.32-.14l.19-.17c.39-.11.04-.66.22-.73.45-.2-.11.26 1.23.51-.18.53-.93-.12-.9.51Z" class="uuid-6342d129-a3db-4148-8c6c-c69cea071b2c"/><path d="M49.04 72.24q-.195.255-.57-.06c-.03.19-.11.26-.32.31-.21-.08-.35-.27-.43-.47.3-.02.4-.32.58-.54.18.32 1.01.34.74.75Z" class="uuid-a4005966-0940-47ee-92af-a4091c82ce18"/><path d="M47.74 71.07c.02.1.04.19.09.26.07.1-.02.14-.16.27-.07-.18-.26-.26-.44-.23-.08-.03-.09-.13-.15-.18.15-.2.44-.1.66-.13Z" class="uuid-f75b26b0-eb6c-4366-b603-1dc9292fb456"/><path d="M52.07 17.7c-.21.21-.46.31-.7.43.11-.4.56-.53.81-.84-.02.13-.01.31-.11.42Z" style="fill:#30aacb"/><path d="M65.07 10.11c-.09.12-.33.17-.47.14-.19-.05-.09-.3-.1-.41.18.11.31.35.57.27" style="fill:#0a99f4"/><path d="M77.25 6.69c-.11.23-.44.1-.66.15.11-.3.45-.09.66-.15" class="uuid-7c75fdba-7a5f-4a21-9834-ba7d2a6d9baf"/><path d="M81.7 6.56c.11.04.11.08 0 .13h-3.93c-.09 0-.15-.08-.14-.13z" style="fill:#038deb"/><path d="M82.75 6.71c-.13 0-.26-.02-.39-.02h-.66v-.13c.11 0 1.27-.07 1.04.15Z" class="uuid-5bb98386-058b-40d7-80ea-71501a62cbb0"/><path d="M95.61 84.59s.01.09 0 .13c-.2.24-.46.24-.68.27.13-.26.38-.45.68-.4" style="fill:#57ae43"/><path d="M59.74 73.38c.26-.11.6-.14 1-.09.23-.22.82-.17.93.17-.66.97.24.71-.08 2.03l-.59.11-.21 1.73c-.45.09-.85.15-1.23.38l-.03 1.77c0 .28-.52.25-.74.31-.16.15-.07.31-.16.38-.32.22-1.25-.08-1 .28s.61-.1.99.49l-.22.08q-.435-.12-.69.18c-.32-.17-.58-.51-.93-.63-.04-.2-.17-.42-.42-.66.27-.75.16-1.48-.31-2.18.13-.3.4-.43.82-.37.62.09 1.2.07 1.74-.07-.17-1.46-.17-2.92.02-4.36.65-.03 1.02.13 1.11.47Z" class="uuid-64eeb2a2-2471-4876-8202-9307e0039b87"/><path d="M62.04 73.43c-.12-.01-.26.03-.38.02l-1.93-.07c-.58-.4.2-.37.59-.2.12-.21.29-.38.53-.51.42.24.86.39 1.18.76Z" class="uuid-5172afa1-fdad-452e-ba8c-2aa4e6f023f7"/><path d="M58.62 80.92c-.24.31-.59.26-.91.26.02-.21-.15-.3-.1-.47.39-.11.67.16 1.01.21" style="fill:#e7e632"/><path d="M76.59 87.35c1.27-.07.63.26 1.57.26l-.26.26c-.6 0-1.2-.24-1.81-.38.19-.09.34-.13.5-.14" style="fill:#b0ce3f"/><path d="M112.43 46.05c0-.15.21-.19.25-.28.17-.14.17 2.64-.03 2.61-.33-.2.05-2.3-.23-2.32Z" class="uuid-967b32cb-3622-4464-bae7-2759c5cf126c"/><path d="M111.4 50.36c-.09-.24-.09-.48 0-.79.13.19.12.41 0 .79" style="fill:#148c33"/><path d="M54.81 66.39c-.44 0-.3.46-.97.51-.44.03-1.33-1.08-.88-1.74.06-.2.18-.27.34-.14-.11-.2-.05-.31.16-.41 0-.03 0-.07.01-.1.32.45.97 1.45 1.33 1.88Z" style="fill:#eae138"/><path d="M53.47 64.61c.18 1.07.88.86.65 1.58-.44.08-.77-.22-.81-.66-.03-.27-.18-.32-.35-.36-.12-.03-.21-.22-.22-.32 0-.12.08-.29.21-.33.17.02.36-.01.51.09Z" style="fill:#e8e328"/><path d="M40.63 55.09c.11.02.1.07 0 .12.1.5.13 1.12-.1 1.57.07-.21-.05-.36-.12-.53-.2-.52-.42-1.08-.12-1.67.21.13.18.38.34.51" style="fill:#c1d727"/><path d="M45.88 67.8c0 .17.09.3.24.44.2.18.2.5-.11.65l-.19-.63c-.14.14-.24.28-.37.28-.11 0-.21-.1-.33-.08.14-.27.44-.8.77-.66Z" style="fill:#e9e328"/><path d="M51.67 62.63c-.09.08-.13.25-.19.26-.36.05-.06-1.12.16-1.28.42.28.38.72.03 1.03Z" style="fill:#e1e225"/><path d="M40.62 55.21v-.12c.07-.18-.1-.44.2-.61.16.35.09.63.06 1-.14-.1-.13-.24-.27-.28Z" style="fill:#c0d142"/><path d="M45.13 67.48c-.09.03-.34-.05-.45-.08-.08-.18.04-.23.11-.23.11 0 .23-.01.34.3Z" style="fill:#e2df2f"/><path d="M48.79 56.26c.05.17.19.52-.17.52-.18-.01-.08-.42-.09-.55.05-.04.12-.08.18-.07.05.01.06.06.08.1" style="fill:#ccd345"/><path d="M40.92 58.62c-.26-.28-.19-.76 0-1.06z" class="uuid-d36fad3f-0741-4551-8b3c-66674fe2548d"/><path d="M42.17 61.98c.02-.17.26-.08.31-.02.03.05-.1.12-.12.26s-.22.01-.18-.24Z" style="fill:#d7db2f"/><path d="m57.71 71.44.02.32c-.73.99-1 2.18-.83 3.58l-.1.33c-.57.16-1.17.19-1.82.11-.28.18-.52.22-.7.13l-.31.09c.46.56.45 1.67.02 2.26-.11.15-.25.02-.37-.12-.29.02-.44-.22-.58-.44-.08-.29-.29-.52-.59-.58 0-.52-.49-.79-.89-1.06-.22-.1-.4-.27-.55-.5.1-.12.13-.18.36-.2.07 0 .02-.25-.05-.22.49-.22-.81.1-.76.12-.17-.08-.28-.16-.36-.3.21.03.27-.2.46-.33.11-.08.26.1.41.24.34-1.12 1.65-.63 1.41-1.4-.06-.18 0-.33.09-.38.32-.19.7.02.85-.18.06-.08.04-.33.15-.42.26-.22.62-.06.95-.11l.04-1.04c.59-.09 1.6.28 1.74-.09l.19-.49c.13-.34.97.83 1.19.67Z" class="uuid-5172afa1-fdad-452e-ba8c-2aa4e6f023f7"/><path d="M49.04 72.24c.32.27.43.69.39 1.05-.02.17-.3.16-.41.1-.25-.15-.16-.72-.47-.83a.8.8 0 0 0-.4-.06c-.02-.23.1-.64.33-.58.17.05.43.22.55.33Z" class="uuid-6342d129-a3db-4148-8c6c-c69cea071b2c"/><path d="M49.97 74.63c-.06-.05-.22.02-.26-.08-.03-.06-.01-.16-.04-.2.26-.14.62-1.12 1.28-.87-.34.46-.65.8-.97 1.15Z" class="uuid-5172afa1-fdad-452e-ba8c-2aa4e6f023f7"/><path d="m51.58 76.07-.16.04c-.2-.1-.59-.31-.4-.54.18 0 .37-.01.59.03-.04.18-.05.33-.03.47" style="fill:#ebe82b"/><path d="M58.27 70.55c.06.01.12.03.16.07.27.26.95.97 1.03 1.26.07.25.07.55-.13.74l.24.04.9.25c.06.13 0 .22-.14.28-.19.03-.41-.05-.64.03-.07.03 0 .19.04.17-.31-.01-.42-.36-.95-.36-.1 1.36-.03 2.71.1 4.08.1.98-1.97.24-2.67.6.62.49.51 1.63.39 2.16 0 .26.52.2.61.35.12.21-.26.34-.44.33-.41-.15-.68-.46-1.06-.66-.05-.09-.1-.22-.04-.29.53-.65.66-.96-.38-1.34-.63-.22-.31.07.19.13.09.05.05.23-.02.34-.05.24-.32.28-.79.11-.23.03-.4-.13-.18-.27-.12-.05-.19-.21-.22-.47-.01-.37 0-.76.06-1.17-.11-.37-.13-.7-.06-.98.64-.71 1.12-.26 2.35-.39 0-1.35-.1-3.26 1.07-4.09l-.1-.84c.23-.02.55.04.51-.19.05.02.15.08.15.15Z" style="fill:#ece43a"/><path d="M54.29 75.92c.43.33.43 1.9 0 2.15.05.16.12.32.22.47-.01.12.07.23.18.27.19-.06.4-.02.61.13l.19-.23c-.16-.3-.6-.08-.75-.36-.04-.09-.15-.39.09-.42.53-.06 1.17.29 1.45.74.32.52-.15.95-.55 1.21-.27-.15-.43-.37-.7-.61-.44-.41-1.13-.57-1.39-1.11.62.01.42-1.72.23-1.88-.23-.24-.59-.39-.85-.62.51-.38.91-.01 1.28.27Z" style="fill:#eee33e"/><path d="M60.34 72.27c.15.05.31.1.39.25.23.61-.81.29-1.16.14-.2.19-.45.37-.8.23-.16-.06-.15-.43 0-.48.09-.03.23.04.45.08.16-1.3-.95-1.07-.96-1.93.13-.01.33 0 .47.14l.87.85c.27.26.39.6.73.72Z" class="uuid-5172afa1-fdad-452e-ba8c-2aa4e6f023f7"/><path d="M60.73 72.52s.14.08.13.16c-.02.15.05.4-.09.47s-.31.02-.43.04c.23-.25-.87-.03-.76-.52.34-.33 1.12.23 1.16-.14Z" class="uuid-64eeb2a2-2471-4876-8202-9307e0039b87"/><path d="M56.51 68.45c.17.17.47.19.55.55.04.18.25.26.39.25v.13c.28.19.16.4-.14.51-.49.19-.88-.82-.83-.78.13.12.08.17-.12.16-.23.07-.51.02-.74-.03-.2-.04-.33-.17-.38-.38l-.29-.56c.35-.05.61-.22.72-.5.36.23.06.6.18.82.17.3.5-.06.66-.16Z" class="uuid-6342d129-a3db-4148-8c6c-c69cea071b2c"/><path d="M57.43 69.38c.24.1.4.3.53.53-.04.32-.25.31-.34.01-.17 0-.21.25-.23.46-.45.33-.85-.82-1.04-1.1.23-.82.24.12.66.33.23.11.41.04.42-.22Z" class="uuid-5172afa1-fdad-452e-ba8c-2aa4e6f023f7"/><path d="M57.96 69.9c.05.1.18.16.17.3 0 .07-.02.14 0 .21-.14-.04-.35 0-.45-.13-.08-.09-.04-.26-.05-.36h.34Z" style="fill:#ece729"/><path d="M47.87 69.76c-.09.45-.51.73-.81 1.06-.18-.02-.23-.21-.23-.33 0-.22.5-.78.6-.81.14-.04.3 0 .43.08Z" style="fill:#eee528"/><path d="M55.23 68.86c.09 0 .19 0 .27.05.11.07.12.21.11.33-.13-.03-.3.1-.48.04-.16-.05-.21-.2-.15-.34.03-.07.16-.06.24-.08Z" class="uuid-5172afa1-fdad-452e-ba8c-2aa4e6f023f7"/><path d="M55.48 78.72c.07.13.23.54 0 .56-.35.01-.56-.34-.8-.45.16-.27.53-.1.79-.11Z" style="fill:#ede530"/><path d="M54.51 78.55c-.09 0-.26.02-.31-.08-.04-.09 0-.34.09-.4.17-.04.27 0 .26.16z" style="fill:#eee42b"/><path d="M57.86 72.49c.03-.17.22-.08.3-.09.11-.01.06.18.07.31 0 .05-.13.11-.17.09-.07-.03-.24-.11-.2-.3Z" class="uuid-5172afa1-fdad-452e-ba8c-2aa4e6f023f7"/></svg>