<svg xmlns="http://www.w3.org/2000/svg" id="uuid-f748a513-7f8f-49ec-b73a-7684f638f02f" viewBox="0 0 160 94.43"><defs><style>.uuid-5c123494-9c6d-45e0-a95f-beb7a9a6fc6b{fill:#919191}.uuid-5784a35e-9f02-4927-b48b-5351fa6cd9bb{fill:#a6a6a6}.uuid-2dac7928-b79b-4494-8601-77de24b58a68{fill:#9f9f9f}</style></defs><path d="M0 94.43V0h160v94.43zm69.63-86.7c-2.96.65-5.88 1.81-8.53 3.28-7.08 3.54-13.02 9.42-16.89 16.38-4.09 7.35-5.8 15.75-4.88 24.02.18 2.67.78 5.34 1.6 7.89.06.53.35 1.05.49 1.56.62 2.22 2.49 5.85 3.67 7.61 1.84 3.3 4.37 6.2 7.19 8.83 3.17 2.94 6.75 5.33 10.65 7.02 1.82.79 4.16 1.97 6.31 2.26 2.2.79 7.06 1.58 9.45 1.44 2.62.28 5.34.04 7.87-.52.48-.04.99-.19 1.44-.26 1.25-.19 2.46-.55 3.66-.91s2.51-.75 3.67-1.34c.66-.34 1.55-.46 2.24-.86l1.67-.97c1.66-.97 3.31-1.93 4.88-3.04s3.04-2.42 4.44-3.79c7.11-6.9 11.47-16.35 12.12-26.32.12-3.41.12-6.65-.58-10.09l-8.79 6.46a31.3 31.3 0 0 1-9.59 23.43c-.76.74-1.61 1.63-2.46 2.24-1.35.97-2.79 1.88-4.21 2.76-1 .62-2.22 1-3.26 1.56-.62.33-1.46.6-2.15.79l-1.97.55c-.22.06-.65.16-.87.19l-3.34.56c-.54.09-1.13.11-1.65.11h-4.58l-5.77-1.05c-1.42-.44-3.95-1.45-5.24-2-4.12-1.99-9.21-6.12-11.76-9.96l-2-3c-.19-.75-.82-1.4-1.07-2.11-.58-1.65-1.42-3.27-1.82-4.97-.5-2.13-.93-4.37-1.03-6.55-.48-10.16 3.49-20.37 11.87-26.28l3.83-2.71c1.96-1.04 4-1.89 6.14-2.66.42-.15.86-.31 1.19-.51.41.11.81-.1 1.26-.19 1.5-.3 3.92-.72 5.31-.71h3.57l3.96.41c4.26.94 8.34 2.49 11.98 5.02l7.93-5.88c-5.59-4.5-12.05-7.39-19-8.52-.36.03-.6 0-.82-.07-1.81-.42-3.9-.43-5.9-.42h-2.25c-2.7.02-5.39.61-7.99 1.32Zm-5.24 40.33 15.55 9.75 37.22-27.43c-1.32-2.93-2.91-5.54-4.89-8.15L79.93 46.05l-15.54-9.74z" style="fill:#fdfdfd"/><path d="M64.39 48.06V36.31l15.54 9.74 32.34-23.82c1.98 2.61 3.57 5.22 4.89 8.15L79.94 57.81z" style="fill:#6a6a6a"/><path d="m64.26 19.93-3.83 2.71c-8.38 5.92-12.35 16.12-11.87 26.28-.31.31.2 2.69-.03 2.62-.42.91-.29-.5-1.35.25-.55.39-1.68-.21-2.79-.08l-.63.45-2.7.03-.2 1.05-1.24-.07c-.01-.2.09-.62.02-.81l-.33-.94c-.92-8.27.79-16.66 4.88-24.02 3.87-6.96 9.81-12.84 16.89-16.38l.51.17.58-.42c.36-.26.78-.47 1.2-.63l1.32-.51v.43c-.02.1.42-.04.51.01l1.18.76c-.08.17-.16.34-.14.29-.3-.5-.46-.71-.95-.62-1.15.2-.8-.45-1.74-.25.05.57.28 1.04.64 1.47l.86 1.05c.33-.06.66-.14.77-.03.28.29-.01.58.29.92.12.14.85-.04.88.28.04.35.03 1.12-.04 1.45-.47.18-.81.82-.46 1.17.21.22.76.42 1.12.57l-.08.27c-.1.32-1.19-.57-1.73-.24-.17.09-.12.67.02.82l1.11-.38.56.45c-.45.13-.87.36-1.29.59l-1.1.61c-.37.2-.78.37-.87.69Z" style="fill:#9a9a9a"/><path d="M108.58 76.31s-.11 0-.14-.01c-.04 0 .04-.13.07-.17l.38-.45-.49.07c-.71-.37-.52-.2-1.06.03-.49-.66-.96-.98-1.63-1.46-.32-.23-.14-.78.15-1.1l-2.01-.58c.6-.67.26-1.06.1-1.62l-.21-.7c-.49-.06-.84-.27-.96-.65-.08.11-.17.24-.22.22-.07-.03-.23-.2-.28-.16l-.34.24c-.06.04-.24-.14-.19-.17 6.33-6.1 9.84-14.6 9.59-23.43l8.79-6.46c.69 3.44.7 6.68.58 10.09-.65 9.97-5 19.42-12.12 26.32Z" style="fill:#686868"/><path d="M66.24 75.51c-.24-.1-.67-.1-1.2-.24l.48.86-1.06.58-.1 1.63c-.08.14-.54.32-.71.4-.27 2.35-.72 1.29-1.12 2.74l-1.06.45.86.35c.2.08.02.58-.21.64-.64.17-1.11-.55-1.35-.31-.09.09-.26.32-.31.4.47.16.75.2 1.12.2l.48.29c.17-.17.67-.31.73-.12.1.29.13.65.14.92-3.9-1.69-7.48-4.08-10.65-7.02-2.82-2.62-5.35-5.52-7.19-8.83.89 1.33.61.25 1.28 1.55l.49-.59c.06-.08.23-.22.31-.26.1-.05.31.09.44.18l-.66.86-.13.25c-.03.07.38.16.44.1.34-.36.93-1.1 1.27-1.55.23-.09.69-.18.82-.33l.36-.45c.18-.23.6.31 1.18.38.13.02.32-.22.33-.34-.32-.11-.61-.19-.74-.26s-.05-.42-.03-.56c.1-.77 1.13.44 2.11-.64.09-.1.51.08.56-.02l.27-.56.77-.14-.74-1.48-.49-.98c-.19-.37-.37-.71-.46-1.06l2 3c2.56 3.84 7.64 7.97 11.76 9.96Z" style="fill:#b2b2b2"/><path d="M85.77 6.83c.21.07.46.1.82.07 6.95 1.13 13.42 4.02 19 8.52l-7.93 5.88c-3.65-2.54-7.72-4.09-11.98-5.02.36.04.91-.08 1.4-.12l.91.47.29-.87c-.6.36-1.25.41-1.73-.14.49-.22 1.06-.15 1.61-.05.07-.02.24-.39.16-.5l-.39-.48-.19-.86c-.13-.61-.04-.91.2-1.49.19-.45-.05-1.17.29-1.69.28-.43 1.24.27 1.34-.45.08-.62-.57-.64-.6-1.24-.01-.21.17-.65.35-.7l.92-.26h-.92c-.6-.31-1.22-.46-1.94-.58l-1.56-.24c-.21-.03-.54-.14-.86-.24l.8-.02Z" style="fill:#878787"/><path d="M75.65 15.89c-1.11.13-2.94.23-4.06.87-.34.19-.77.36-1.19.51-2.14.76-4.18 1.62-6.14 2.66.08-.32.5-.49.87-.69l1.1-.61c.42-.23.84-.46 1.29-.59l-.56-.45-1.11.38c-.14-.14-.19-.72-.02-.82.54-.33 1.64.56 1.73.24l.08-.27c-.36-.15-.91-.35-1.12-.57-.34-.35 0-1 .46-1.17.08-.32.08-1.1.04-1.45-.04-.32-.76-.14-.88-.28-.3-.34 0-.64-.29-.92-.11-.11-.45-.03-.77.03l-.86-1.05c-.36-.43-.59-.9-.64-1.47.95-.2.59.45 1.74.25.49-.09.65.12.95.62-.03.06.06-.12.14-.29l-1.18-.76c-.08-.05-.52.08-.52-.01v-.43l-1.3.51c-.42.16-.85.38-1.2.63l-.58.42-.51-.17c2.65-1.47 5.56-2.63 8.53-3.28.34.16.75.22 1.08.02.57-.34 1.33-.32 1.99-.48.61-.15 1.18-.25 1.77-.07-.48.91-1.17.01-1.58.33-.16.12-.17.42-.11.63.29 1.01.03 2.04.09 3.06l.35 1.06.33 1.03c.15.45.26.83.35 1.37.19.19.62.57.83.71h.68c.14 0 .21.37.23.49Z" style="fill:#969696"/><path d="m85.77 6.83-.8.02c.32.1.65.2.86.24l1.56.24c.72.11 1.34.27 1.94.58h.92l-.92.25c-.18.05-.36.5-.35.7.03.6.68.61.6 1.24-.09.72-1.05.02-1.34.45-.34.52-.11 1.24-.29 1.69-.24.58-.33.88-.2 1.49l.19.86.39.48c.09.11-.08.48-.16.5-.55-.1-1.12-.18-1.61.05.48.55 1.13.5 1.73.14l-.29.87-.91-.47c-.49.04-1.04.16-1.4.12l-3.96-.4c.06.01-.24-.14-.33-.14h-2.92c-.07 0-.37.14-.31.13-1.38 0-3.8.41-5.31.71-.45.09-.86.29-1.26.19 1.12-.64 2.95-.74 4.06-.87 1-.12 1.94-.31 3.12-.32l-.41-.48 1.14-.09 1.27-.09c-.1-.77-.15-1.33-.15-2.07l.02-4.68c.14-.13.43-.35.37-.47l-.28-.59-2.05-.1 2.9-.09c.33-.01.66.38 1.05-.04-1.38-.67-3.87.17-5.01-.45h2.25c2-.02 4.09-.01 5.9.41Z" style="fill:#8c8c8c"/><path d="M77.62 6.42c1.14.62 3.63-.22 5.01.45-.4.42-.72.03-1.05.04l-2.9.09 2.05.1.28.59c.06.12-.23.34-.37.47l-.02 4.68c0 .73.05 1.3.15 2.07L79.5 15l-1.14.09.41.48c-1.18 0-2.12.2-3.12.32-.02-.11-.09-.48-.23-.48h-.68c-.21-.15-.64-.53-.83-.72-.09-.54-.2-.92-.35-1.37l-.33-1.03-.35-1.06c-.06-1.02.2-2.06-.09-3.06-.06-.21-.05-.51.11-.63.41-.32 1.1.58 1.58-.33-.59-.18-1.16-.08-1.77.07-.66.16-1.42.14-1.99.48-.34.2-.74.14-1.08-.02 2.61-.7 5.29-1.29 7.99-1.31Z" class="uuid-5c123494-9c6d-45e0-a95f-beb7a9a6fc6b"/><path d="M49.59 55.46c-.19 1.31.2 1.54.24 2.26 0 .04-.13.09-.16.06l-.13-.22s-.06-.03-.08 0c-.03.04-.11.14-.11.14-.05-.21-.1-.53-.19-.67l-.54-.94-.4 1.21-.95.06-.03.57-1.98.33-.31.57-1.28.04c.14-.15.37-.37.28-.42l-.34-.19c-.08-.04-.33 0-.42.04s-.16.21-.09.28l.37.37-1.18.44-.49.53-.13-1.18c-.01-.1-.07-.33-.16-.32s-.26.25-.25.36l.1 1.02-.44-.5c-.82-2.55-1.43-5.22-1.6-7.89l.33.94c.07.19-.03.6-.02.81l1.24.07.2-1.05 2.7-.03.63-.45c1.11-.13 2.24.47 2.79.08 1.06-.75.93.66 1.35-.25.23.08-.28-2.31.03-2.62.1 2.18.53 4.42 1.03 6.55Z" style="fill:#a1a1a1"/><path d="M66.24 75.51c1.29.55 3.83 1.56 5.24 2h-1.55v2.19c-.64.05-.7.35-.88.8l-.34.83c.35.65.28 1.32-.14 1.98l.15 1.2c.1.79-1.3.44-.62 1.23l.47.55c.22.1.5.24.66.3-2.14-.29-4.48-1.47-6.31-2.26 0-.26-.03-.63-.14-.92-.07-.19-.56-.06-.73.12l-.48-.29c-.36 0-.64-.05-1.12-.2.05-.08.22-.31.31-.4.23-.24.71.48 1.35.31.23-.06.41-.56.21-.64l-.86-.35 1.06-.45c.4-1.45.85-.38 1.12-2.74.17-.08.63-.26.71-.4l.1-1.63 1.06-.58-.48-.86c.53.14.96.14 1.2.24Z" style="fill:#adadad"/><path d="M52.48 62.55c.09.35.27.69.46 1.06l.49.98.74 1.48-.77.14-.27.56c-.05.1-.48-.08-.56.02-.98 1.08-2.01-.13-2.11.64-.02.15-.1.49.03.56s.42.15.74.26c0 .12-.19.36-.33.34-.59-.08-1-.61-1.18-.38l-.36.45c-.13.16-.59.24-.82.33-.34.45-.93 1.19-1.27 1.55-.05.05-.47-.04-.44-.1l.13-.25.66-.86c-.12-.09-.34-.23-.44-.18-.08.04-.25.18-.31.26l-.49.59c-.67-1.3-.39-.22-1.28-1.55-1.17-1.76-3.05-5.39-3.67-7.61.08.04.26.24.3.36l.45 1.33.39-.27c-.29.78.28 1.91.39 1.86l.32-.12c-.18.51-.08 1.05.43 1.36l.44-1.41c.65.18.73-.09 1.05-.48.38-.46 1.55.34 1.85.02.39-.42-.27-.54 1.94-1.31l.98-.34c.44-.16.52-.72.42-1.2.53-.18.33.81 1.06.73l-.04-.95c.25.71.88 1.36 1.07 2.11Z" style="fill:#acacac"/><path d="m71.48 77.51 5.77 1.04c-1.82 0-1.58-.25-2.99.16l1.11.56-.37.44c.03.85-.02 1.65-.12 2.54-.18 1.52.31 2.87-.57 2.55l-.25 1.45c-.02.13.08.52-.04.57-.54.22-.85-.14-.95.04l-.23.41 1.25.1c.58.05 1.09-.14 1.66.22.35.23 1.14.23 1.62.28l1.32.14c-2.39.14-7.25-.65-9.45-1.44-.16-.06-.44-.2-.66-.3l-.47-.55c-.68-.78.72-.44.62-1.23l-.15-1.2c.42-.66.49-1.33.14-1.98l.34-.83c.19-.45.25-.75.88-.8v-2.19h1.54Zm2.84 6.52c.22-.82.18-1.42-.04-2.01-.17.74-.09 1.4.04 2.01" class="uuid-5784a35e-9f02-4927-b48b-5351fa6cd9bb"/><path d="M104.14 80.1c-1.57 1.11-3.23 2.07-4.88 3.04l-.36-.24c.32-.63.36-1.47.06-2.08-.28.16-.66.39-.74.33.25-2.41-.54-1.08-.83-3.27l-1.35-1.65c-.13-.15.04-.79-.13-.87-.18-.09-.46-.21-.7-.31l-.24-.09c-.05-.02.07-.12.11-.16 1.42-.87 2.86-1.78 4.21-2.76l.63.15c-.17.16-.38.38-.37.53 0 .12.2.33.31.39l.73.43c.14 0 .49-.1.52.02l.15.56c.03.11.15.37.25.43s.27-.06.47-.1c.72.28-.07 1.65.65 2.92.24.41.82.81 1.1 1.2.16.22.55.73.62.72l.42-.05-.9.86.27.02Z" style="fill:#727272"/><path d="m51.41 60.43.04.95c-.73.08-.53-.91-1.06-.73.1.48.02 1.04-.42 1.2l-.98.34c-2.21.77-1.55.9-1.94 1.31-.3.32-1.47-.48-1.85-.02-.33.39-.4.66-1.05.48l-.44 1.41c-.51-.31-.61-.85-.43-1.36l-.32.12c-.11.04-.68-1.08-.39-1.86l-.39.27-.45-1.33a.9.9 0 0 0-.3-.36c-.14-.51-.43-1.03-.49-1.56l.44.5-.1-1.02c-.01-.1.16-.35.25-.36s.15.23.16.32l.13 1.18.49-.53 1.18-.44-.37-.37c-.06-.06 0-.24.09-.28s.34-.08.42-.04l.34.19c.09.05-.14.27-.28.42l1.28-.04.31-.57 1.98-.33.03-.57.95-.06.4-1.21.54.94c.08.14.14.47.19.67 0 0 .08-.11.11-.14.02-.02.06-.03.08 0l.13.22s.16-.01.16-.06c-.04-.72-.43-.94-.24-2.26.4 1.7 1.24 3.32 1.82 4.97Z" class="uuid-5784a35e-9f02-4927-b48b-5351fa6cd9bb"/><path d="M108.58 76.31c-1.4 1.36-2.84 2.65-4.44 3.79l-.27-.02.9-.86-.42.05c-.07 0-.46-.5-.62-.72-.28-.4-.86-.79-1.1-1.2-.73-1.27.07-2.63-.65-2.92-.2.05-.38.17-.47.1s-.22-.32-.25-.43l-.15-.56c-.03-.12-.39-.02-.52-.02l-.73-.43c-.1-.06-.3-.27-.31-.39-.01-.14.2-.37.37-.53l-.63-.15c.85-.61 1.7-1.51 2.46-2.24-.05.03.13.22.19.17l.34-.24c.06-.04.22.14.28.16.05.02.13-.12.22-.22.12.38.47.59.96.65l.21.7c.17.57.5.96-.1 1.62l2.01.58c-.28.32-.46.87-.15 1.1.67.48 1.14.8 1.63 1.46.54-.23.36-.4 1.06-.03l.49-.07-.38.45s-.11.16-.07.17c.03 0 .13 0 .14.01Z" style="fill:#6b6b6b"/><path d="M95.07 74.79s-.16.14-.11.16l.24.09c.25.1.52.22.7.31.17.08 0 .72.13.87l1.35 1.65c.29 2.19 1.08.86.83 3.27.09.06.46-.17.74-.33.3.62.26 1.46-.06 2.08l.36.24-1.67.97c-.69.4-1.58.53-2.24.86l-.62-.42.55-.49c-.14-.6-.38-1.54-.77-2.02-.51.09-1.14-1.74-1.23-2.07l-.61-2.11c-.17-.07-.53-.16-.48-.27.07-.14.21-.33.32-.38l.34-.18c.09-.04-.14-.36-.23-.39-.17-.05-.42.25-.61.46-.02-.28-.05-.55-.19-.76 1.04-.56 2.25-.94 3.26-1.56Z" style="fill:#7b7b7b"/><path d="M86.82 77.89c-.45.25-1.05.36-1.57.45.31.12.58.27.76.46l.3.33c.05.05-.23.18-.28.23l-.23.2c-.22.19.59.11.5 1.22-.04.47.1.92.16 1.34l.3 2.11c.15 1.08.7.73.68 1.1l-.02.66c0 .13.31.35.25.46-.36.56-.9.08-1.18.73l1.52.04c-.45.07-.96.22-1.44.26l-3.19.27c-.16.01-4.23.33-3.78-.13l1.69.04 1.72-.33c-.2-.28-.21-.79-.31-1.03-.14-.32-.44-.65-.39-1.05l.24-1.74c.1-.73.11-1.58.03-2.33-.06-.51-.72-1.06-.32-1.59.08-.1.36-.29.29-.39-.06-.08-.3-.33-.41-.32-.31.02-1.87.28-1.63-.2h1.04c.06 0 .3-.13.28-.13.51 0 1.1-.02 1.65-.11l3.34-.56Z" class="uuid-5c123494-9c6d-45e0-a95f-beb7a9a6fc6b"/><path d="M80.52 78.69c-.24.49 1.32.23 1.63.2.1 0 .35.24.41.32.07.1-.22.29-.29.39-.41.53.26 1.08.32 1.59.08.75.07 1.6-.03 2.33l-.24 1.74c-.05.4.25.73.39 1.05.1.24.11.74.31 1.03l-1.72.33-1.69-.04c-.45.46 3.62.14 3.78.13l3.19-.27c-2.53.56-5.25.8-7.87.52l-1.32-.14c.24-.56.9.05 1.49-.61l-.59-.68c.87-.87.14-1.85.04-3.31-.07-.99-.05-2.27.01-3.17.02-.23.39-.75.2-.92-.15-.14-.4-.25-.75-.45l2.73-.05Z" style="fill:#999"/><path d="M89.66 77.14c-.02.06-.05.14 0 .17l.17.14c-.16.08-.43.21-.43.33s.03.38.06.5l.47 1.41c.16.47.32.84.21 1.39-.13.65.2.58.61 1.96.29.97.27 1.96.24 3.05.18.08.49.19.68.25-1.21.36-2.41.72-3.66.91l-1.52-.04c.28-.65.82-.17 1.18-.73.07-.11-.25-.33-.25-.46l.02-.66c.01-.38-.53-.02-.68-1.1l-.3-2.11c-.06-.42-.2-.87-.16-1.34.09-1.12-.72-1.03-.5-1.22l.23-.2c.05-.05.33-.18.28-.23l-.3-.33c-.18-.2-.45-.34-.76-.46.52-.1 1.13-.21 1.57-.45.22-.04.65-.13.87-.19l1.97-.55Z" style="fill:#898989"/><path d="M77.26 78.54h4.58s-.21.15-.28.15h-1.04l-2.73.05c.36.2.61.31.75.45.18.17-.19.69-.2.92-.06.9-.08 2.18-.01 3.17.1 1.47.83 2.45-.04 3.31l.59.68c-.59.66-1.25.05-1.49.61-.48-.05-1.26-.05-1.62-.28-.57-.37-1.08-.18-1.66-.22l-1.25-.1.23-.41c.1-.18.4.18.95-.04.12-.05.02-.44.04-.57l.25-1.45c.88.31.39-1.03.57-2.55.1-.89.15-1.69.12-2.54l.37-.44-1.11-.56c1.41-.41 1.17-.16 2.99-.16Z" class="uuid-2dac7928-b79b-4494-8601-77de24b58a68"/><path d="M91.81 76.35c.14.21.18.48.19.76.2-.21.44-.52.61-.46.09.03.32.34.23.39l-.34.18c-.11.05-.25.24-.32.38-.05.11.3.21.48.27l.61 2.11c.09.32.72 2.16 1.23 2.07.39.48.63 1.42.77 2.02l-.55.49.62.42c-1.17.6-2.41.97-3.67 1.34-.19-.06-.5-.17-.68-.25.03-1.08.05-2.08-.24-3.05-.41-1.38-.75-1.31-.61-1.96.11-.55-.05-.92-.21-1.39l-.47-1.41c-.04-.11-.07-.38-.06-.5s.27-.24.43-.33l-.17-.14s-.01-.1 0-.17c.69-.19 1.53-.46 2.15-.79Z" style="fill:#828282"/><path d="M81.72 15.87h-3.57c-.06 0 .24-.14.31-.14h2.92c.09 0 .4.15.33.14Z" class="uuid-5c123494-9c6d-45e0-a95f-beb7a9a6fc6b"/><path d="M74.32 84.03c-.13-.61-.2-1.27-.04-2.01.21.6.26 1.19.04 2.01" class="uuid-2dac7928-b79b-4494-8601-77de24b58a68"/></svg>