<svg xmlns="http://www.w3.org/2000/svg" id="uuid-4a94c63b-64be-40a1-9ce4-d17f5526a40d" viewBox="0 0 160 62.5"><defs><style>.uuid-ea693a5c-f098-4e80-b947-52eef0743747{fill:#fefefe}.uuid-dfac2a8b-8c42-46db-ae76-eb1d6520bd95{fill:#e2e2e2}.uuid-c4a618e0-e3aa-413b-8ebb-ecda151b3577{fill:#e0e0e0}.uuid-0080394a-62d8-4ee5-af62-6e587566a23b{fill:#eaeaea}.uuid-6a2a82f4-6925-4ffa-81d7-dca9bae7a82a{fill:#e7e7e7}.uuid-d87dbf7d-4dac-44a5-99b8-6f94bce6ad7a{fill:#404040}.uuid-bb09c114-4b8a-4a0d-b9b5-c0cba621b11d{fill:#979797}.uuid-9f55e592-f6d9-4cb3-b56f-3991990c0eb1{fill:#dcdcdc}.uuid-c462b7ac-67f2-4f91-b3aa-1a1742954df9{fill:#f9f9f9}</style></defs><path d="M160 .3v62.21H.3V.3zM26.1 44.22l.75-3.13c.31-.39 1.88-.83 2.35-.55l2.33 2.33 2.86-1.72-1.01-3.31 1.72-1.71 3.39.97 1.61-3.01-2.41-2.11c-.03-.62.34-2.04.63-2.57l3.25-.71v-3.4l-3.21-.79c-.55-.16-.99-1.91-.59-2.32l2.27-2.14-1.57-2.88-3.22.8c-.62.09-1.95-1.26-1.78-1.87l.85-3.09-2.9-1.7-2.34 2.54c-.58.03-1.84-.26-2.3-.6l-.73-3.23-3.42-.03c-.25 1.03-.53 2.26-.82 3.13-.18.54-1.75.82-2.24.75l-2.33-2.47-2.91 1.8.99 3.19c-.26.54-1.32 1.54-1.84 1.74l-3.24-.89-1.61 2.95 2.41 2.18c.08.57-.29 1.86-.63 2.23l-3.24.75v3.39l3.29.74c.31.51.69 1.96.61 2.54l-2.38 2.17 1.66 2.98 3.38-.99 1.71 1.72-1.08 3.32 2.95 1.68 2.44-2.63 2.2.62.78 3.34 3.38-.02Zm36.18-24.86.03 19.62 4.55-.02V15.3l-19.18.02-.03 10.63 4.54 12.84.07-19.42h10.02Zm24.19 9.47-.02-3.74-9.94-.04.06-5.67h11.5l-.02-4.06-16.16.02v23.68l16.5-.02-.04-4.02-11.82-.03v-6.08l9.94-.02ZM107.41 39l3.87-.07-4.91-14.05-9.71-.02-.02-9.51-4.63-.02v23.64l4.62.01.03-10.07h10.72L107.4 39Zm13.77-.03v-19.6l7.49-.03-.03-4.04h-19.66l-.02 4.04 7.64.03.02 19.6zm21.53-5.81 1.9 5.85 4.72-.13-8.26-23.55h-5.12l-8.7 23.62 4.67.06 2.05-5.92 8.74.08Zm-30.47 10.68c.05.89.01 2.07.31 2.83.38-1.37.38-2.42.33-3.67l-2.84.05c-.08 1.22-.2 2.16.27 3.41l.41-2.74c.13-.31 1.46-.25 1.52.13Zm4.53.39c0-.43-.61-1.27-1.04-1.25l-1.86.07.15 3.58c1.28-2.21 2.79-.72 2.76-2.4Zm3.58 2.11c-.44-1.28-.91-2.29-1.71-3.61-.97 1.33-1.56 2.5-1.67 3.68.7-.42 1.3-.97 1.66-.85.38.14.81.35 1.72.77Zm3.35-.67c0-.69-.1-1.57-.21-2.22s-2.03-.69-2.5-.29v2.97c.46.52 2.71.51 2.71-.46m7.31.91.02-3.43c-.66-.38-2.1-.31-2.67.42-.8 1 .82 1.08.11 2.68-.03.08.29.05.35 0l.31-.31c.2-.2.8-.57.99-.36l.88 1.01Zm2-1.63c.71 1.13 1.47 1.59 2.44 1.26.67-.23 1.21-1.07 1.12-1.89-.07-.66-1.01-1.4-1.76-1.44-.62-.03-1.35.76-1.83 1.37l-.75-1.49c-.26 1.45-.26 2.15-.02 3.66l.79-1.49Zm13.01 1.46c-.54-1.39-.93-2.25-1.79-3.69-.94 1.38-1.36 2.35-1.8 3.69.81-.4 1.47-.95 1.87-.82.37.13.8.37 1.72.82m2.88.13v-3.4c-.65-.47-2.3-.16-2.76.57l.61 2.54c.35-.29.94-.96 1.13-.76zm-22.05-2.99c.03 1.29-.13 2.06.41 3.16l.26-3.55-2.3.02-.88 3.21c1.27-.19 1.27-1.43 1.02-2.84zm14.04 2.18-.96-.06-.46-2.78c-.94.03.41 2.97-.75 2.97-1.53 0-.14-2.35-1.21-2.94-.11 1.21-.1 2.23-.08 3.36l3.91.18.61.49c.08.06.12-.46.09-.57l-.89-3.5-.27 2.84Zm-19.94 5.5c-.17-.32-.59-.85-.48-1.06l.49-.9c.04-.08.18-.43.21-.53.03-.08-.24-.06-.29 0l-.31.41c-.36.48-1.13.82-1.94 1.12 2.71.87 1.25 1.5 2.56 1.58.07 0 .07-.06.04-.13l-.28-.52Zm1.24-1.85c-.09.55-.08 1.38.2 2.11s1.88.54 2.36.1c.74-.67.78-1.87-.01-2.56-.67-.58-1.92-.49-2.54.35Zm4.56.74.75.83c-.05-1.09-.42-1.83-1.3-2.33-.17 1.34-.18 2.43.17 3.54l.37-2.05Zm2.76 1.98c.3-1.37.28-2.24.03-3.51-.45.43-.86.94-1.01 1.28l.98 2.24Zm3.51-2.74c.08 1.26-.02 2.09.53 2.98.13-1.39.14-2.36.13-3.67h-2.86c-.06 1.3-.17 2.26.26 3.71l.39-3.17c.37.02 1.37.12 1.56.15Zm4.79 2.69c-.43-1.36-.8-2.24-1.71-3.72-.87 1.38-1.27 2.29-1.77 3.59.79-.33 1.48-.73 1.86-.68s.82.38 1.61.8Zm7.16.15c.72-1.42.56-2.44.17-3.77l-1.9 2.24-.49-2.17c-.41 1.35-.36 2.25-.08 3.67l1.98-2.17.32 2.21Zm3.93-.02.02-3.54c-.87-.07-1.84-.07-2.45.37-.54.39-.18 1.58.17 1.96l-.09.96c.52-.3 1.11-1 1.34-.78l1.02 1.02Z" class="uuid-d87dbf7d-4dac-44a5-99b8-6f94bce6ad7a"/><path d="M.3 62.5H0V0h160v.3H.31z" class="uuid-ea693a5c-f098-4e80-b947-52eef0743747"/><path d="m26.1 44.22-3.38.02-.78-3.34-2.2-.62-2.44 2.63-2.95-1.68 1.08-3.32-1.71-1.72-3.38.99-1.66-2.98 2.38-2.17c.08-.59-.31-2.04-.61-2.54l-3.29-.74v-3.39l3.24-.75c.34-.38.71-1.67.63-2.23L8.62 20.2l1.61-2.95 3.24.89c.52-.21 1.58-1.2 1.84-1.74l-.99-3.19 2.91-1.8 2.33 2.47c.49.08 2.06-.2 2.24-.75.28-.87.57-2.1.82-3.13l3.42.03.73 3.23c.46.34 1.72.64 2.3.6l2.34-2.54 2.9 1.7-.85 3.09c-.17.61 1.16 1.95 1.78 1.87l3.22-.8 1.57 2.88-2.27 2.14c-.4.41.03 2.16.59 2.32l3.21.79v3.4l-3.24.71c-.29.53-.65 1.95-.63 2.57l2.41 2.11-1.61 3.01-3.39-.97-1.72 1.71 1.01 3.31-2.86 1.72-2.33-2.33c-.48-.28-2.04.16-2.35.55l-.75 3.13Zm9.84-17.09c0-6.4-5.2-11.59-11.62-11.59S12.7 20.73 12.7 27.13s5.2 11.59 11.62 11.59 11.62-5.19 11.62-11.59" class="uuid-ea693a5c-f098-4e80-b947-52eef0743747"/><path d="m86.47 28.83-9.93.02-.01 6.08 11.82.03.04 4.02L71.9 39l-.01-23.68 16.16-.02.03 4.05-11.5.02-.07 5.67 9.95.04zM142.71 33.16l-8.74-.08-2.05 5.92-4.67-.06 8.7-23.61h5.12l8.26 23.54-4.72.13-1.9-5.85Zm-1.17-3.35-3.25-9.51-3.26 9.56zM62.28 19.36l-10.02.01-.08 19.42-4.53-12.85.03-10.62 19.17-.02.01 23.66-4.55.02zM107.41 39l-.02-10.08-10.72-.01-.04 10.07-4.62-.01V15.33l4.63.02.02 9.51 9.7.02 4.92 14.05zM121.18 38.97l-4.56.01-.02-19.6-7.64-.03.02-4.04h19.66l.03 4.04-7.49.02z" class="uuid-bb09c114-4b8a-4a0d-b9b5-c0cba621b11d"/><path d="M123.7 45.67c0 .97-2.25.97-2.7.46v-2.97c.46-.4 2.38-.36 2.49.29s.21 1.53.21 2.22" style="fill:#dedede"/><path d="m133.01 44.95-.79 1.49c-.24-1.51-.24-2.22.02-3.66l.75 1.49c.48-.62 1.21-1.41 1.83-1.37.74.04 1.68.78 1.76 1.44.09.81-.45 1.66-1.12 1.89-.97.33-1.73-.14-2.44-1.26Zm2.97-.28c0-.61-.5-1.11-1.11-1.11s-1.11.5-1.11 1.11.5 1.11 1.11 1.11 1.11-.5 1.11-1.11" class="uuid-6a2a82f4-6925-4ffa-81d7-dca9bae7a82a"/><path d="m140.89 45.73.27-2.84.89 3.5c.03.11-.01.63-.09.57l-.61-.49-3.91-.18c-.03-1.13-.04-2.15.08-3.36 1.07.59-.31 2.94 1.21 2.94 1.16 0-.19-2.94.75-2.97l.46 2.78.96.06Z" class="uuid-0080394a-62d8-4ee5-af62-6e587566a23b"/><path d="m131.01 46.58-.88-1.01c-.18-.21-.79.17-.99.36l-.31.31c-.06.06-.38.08-.35 0 .7-1.6-.91-1.68-.11-2.68.58-.72 2.01-.79 2.67-.42l-.02 3.43Z" style="fill:#eee"/><path d="m148.9 52.18-1.02-1.02c-.22-.22-.82.48-1.34.78l.09-.96c-.35-.39-.71-1.57-.17-1.96.61-.44 1.59-.44 2.45-.37l-.02 3.54ZM148.9 46.54l-1.02-1.05c-.19-.19-.78.47-1.13.76l-.61-2.54c.46-.73 2.11-1.04 2.76-.57z" class="uuid-0080394a-62d8-4ee5-af62-6e587566a23b"/><path d="M116.77 44.23c.04 1.69-1.47.19-2.76 2.4l-.15-3.58 1.86-.07c.44-.02 1.03.82 1.04 1.25Z" style="fill:#e9e9e9"/><path d="M112.24 43.84c-.05-.37-1.39-.43-1.52-.13l-.41 2.74c-.47-1.25-.35-2.19-.27-3.41l2.84-.05c.05 1.26.05 2.3-.33 3.67-.3-.76-.26-1.95-.31-2.83Z" style="fill:#d2d2d2"/><path d="M146.02 46.41c-.92-.45-1.35-.7-1.72-.82-.4-.14-1.06.41-1.87.82.43-1.34.85-2.31 1.8-3.69.86 1.44 1.25 2.31 1.79 3.69" class="uuid-dfac2a8b-8c42-46db-ae76-eb1d6520bd95"/><path d="m144.97 52.2-.32-2.21-1.98 2.17c-.27-1.41-.33-2.32.08-3.67l.49 2.17 1.9-2.24c.39 1.32.55 2.34-.17 3.77Z" style="fill:#ebebeb"/><path d="M137.81 52.05c-.8-.42-1.23-.75-1.61-.8s-1.07.35-1.86.68c.5-1.31.9-2.21 1.77-3.59.91 1.48 1.28 2.35 1.71 3.72Z" class="uuid-c4a618e0-e3aa-413b-8ebb-ecda151b3577"/><path d="M120.35 46.34c-.91-.42-1.33-.63-1.72-.77-.35-.13-.96.43-1.66.85.11-1.19.69-2.35 1.67-3.68.8 1.31 1.27 2.33 1.71 3.61Z" class="uuid-6a2a82f4-6925-4ffa-81d7-dca9bae7a82a"/><path d="M133.02 49.36c-.18-.04-1.19-.13-1.56-.15l-.39 3.17c-.44-1.45-.33-2.41-.26-3.7h2.86c0 1.31 0 2.28-.13 3.67-.54-.89-.45-1.72-.53-2.98Z" class="uuid-dfac2a8b-8c42-46db-ae76-eb1d6520bd95"/><path d="M122.39 51.49c-.27-.73-.29-1.55-.2-2.11l.98-.17c.38-.07 1.14.21 1.4.54s-.01 1.52-.47 1.57l-1.72.17Z" style="fill:#4c4c4c"/><path d="m122.39 51.49 1.72-.17c.45-.05.73-1.23.47-1.57s-1.02-.6-1.4-.54l-.98.17c.62-.83 1.87-.93 2.54-.35.79.69.75 1.89.01 2.56-.48.44-2.08.65-2.36-.1" style="fill:#dfdfdf"/><path d="M126.85 43.55h-1.49c.25 1.41.25 2.65-1.02 2.84l.88-3.21 2.3-.02-.26 3.55c-.54-1.1-.38-1.87-.41-3.16" class="uuid-0080394a-62d8-4ee5-af62-6e587566a23b"/><path d="m129.51 52.1-.98-2.24c.15-.33.56-.85 1.01-1.28.25 1.27.27 2.14-.03 3.51Z" class="uuid-c462b7ac-67f2-4f91-b3aa-1a1742954df9"/><path d="m120.95 51.23.28.52c.03.06.03.13-.04.13-1.31-.09.15-.72-2.56-1.58.81-.3 1.58-.65 1.94-1.12l.31-.41c.05-.07.32-.09.29 0-.04.09-.17.45-.21.53l-.49.9c-.11.21.31.74.48 1.06Z" style="fill:#dbdbdb"/><path d="m126.75 50.12-.37 2.05c-.35-1.12-.34-2.21-.17-3.54.88.5 1.24 1.24 1.3 2.33l-.75-.83Z" class="uuid-c462b7ac-67f2-4f91-b3aa-1a1742954df9"/><path d="M35.94 27.13c0 6.4-5.2 11.59-11.62 11.59S12.7 33.53 12.7 27.13s5.2-11.59 11.62-11.59 11.62 5.19 11.62 11.59m-7.79-2.44.86.2c1.02.24-.03 3.84-.06 3.96-.65 2.54-.14 5.22-.3 8.08l.6-.31.3-.3c.54-2.35.2-4.94.34-7.4l.84-.3 1.15-.03.08 5.93c.55-.28.94-.83.94-1.49l.03-4.4c0-.22.63-.2.74-.09-.07 1.15-.06 2.26.09 3.71.78-.67 1.26-3.66.83-3.77l-.61-.16c-.65-.51-1.58-.68-2.41-.45l-1.45.4c-.36-.9-.3-2.29-.35-3.53l-1.68-.61c-.28-.1-.89-.52-1.18-.41l-2.36.88-.11-2.85c-.06-.31-.87-.54-1.16-.65-.63-.26-1.67-.78-2.23-.14.21.46.45 1.07.45 1.66v14.49c0 1.55 2.91-.52 4.79 0l1.32.37c.29.08.52-.82.52-1.15l-.02-6.62.04-5.03ZM17.16 34.8l.1-6.1c0-.21.39-.62.51-.74.08-.07.45.3.45.45v7.48c.68.45 1.27.75 2.14 1.12l.09-8.17c0-.39-.59-1.13-.83-1.46l-.39-5.36-.28 5.21c-1.36.23-2.91.7-4.08 1.35-.14 1.55-.06 3.04.54 4.5l.14-3.91c0-.26.95-.65.95-.36l.06 5.15c0 .37.34.98.59.85ZM141.54 29.81l-6.51.05 3.27-9.56z" class="uuid-d87dbf7d-4dac-44a5-99b8-6f94bce6ad7a"/><circle cx="134.87" cy="44.67" r="1.11" style="fill:#4a4a4a"/><path d="m23.28 21.1.03.44c-.42.98-.35 2.18-.26 3.48l.81-.31c.18-.02.53-.04.69-.1l2.36-.88c.29-.11.9.31 1.18.41.02.15.06.42.06.56l-.04 5.03.02 6.62c0 .33-.23 1.23-.52 1.15l-1.32-.37c-1.88-.53-4.79 1.55-4.79 0V22.64c0-.59-.24-1.21-.45-1.66.57-.64 1.6-.12 2.23.14Zm3.39 3.96c-1.34-.3-2.95.38-3.86 1.53 1.4-.07 2.75-.32 3.86-1.53m-2.74 3.21c-.41.17-.81.7-.99 1.34 1.54-.24 2.36-.48 3.88-1.26l-1.46-.68c.55-.23.99-.54 1.14-1.35-1.38.35-2.25.66-3.72 1.25.54.45.81.59 1.16.7Zm2.37 1.86c3.51-1.44-3.86-.26-3.43.59.89.34 2.66-.28 3.43-.59m.41 1.04c-1.46-.39-2.88-.02-3.95 1.06 1.4.19 2.93.02 3.95-1.06m-.01 1.57c-1.34-.48-2.88-.03-3.92.9 1.4.25 2.73.11 3.92-.9m-2.46 2.72c-.34.08-.87.53-1.42 1.06 1.25.35 2.42.07 3.64-.35-.02-.32-.3-.88-.52-1.11l.63-1.14c-1.5.17-2.24.31-3.89.79.8.55 1.04.61 1.55.75Z" style="fill:#fcfcfc"/><path d="M17.16 34.8c-.25.13-.58-.48-.59-.85l-.06-5.15c0-.28-.94.1-.95.36l-.14 3.91c-.6-1.46-.68-2.95-.54-4.5 1.17-.65 2.72-1.11 4.08-1.35l.28-5.21.39 5.36c.24.33.83 1.08.83 1.46L20.37 37c-.87-.36-1.46-.67-2.13-1.12V28.4c-.02-.15-.39-.52-.47-.45-.12.11-.51.53-.51.74l-.1 6.1Z" style="fill:#fafafa"/><path d="M30.12 28.27c.11.12.43.34.61.34l-.84.3-.36.48.02 6.92-.3.3c-.01.08-.3-.49-.3-.64v-7.13c.03-.11 1.08-3.72.06-3.96l-.86-.2c0-.14-.04-.4-.06-.56l1.68.61c.05 1.24 0 2.62.35 3.53Z" class="uuid-c4a618e0-e3aa-413b-8ebb-ecda151b3577"/><path d="m33.98 28.32-.31.22c-.11-.11-.74-.14-.74.09l-.03 4.4c0 .66-.39 1.2-.94 1.49l-.08-5.93-1.15.03c-.19 0-.51-.22-.61-.34l1.45-.4c.83-.23 1.76-.06 2.41.45Z" style="fill:#f6f6f6"/><path d="m33.67 28.54.31-.22.61.16c.42.11-.05 3.11-.83 3.77-.15-1.45-.16-2.56-.09-3.71" style="fill:#f7f7f7"/><path d="m29.25 36.61-.6.31c.16-2.86-.35-5.53.3-8.08v7.13c0 .15.29.71.3.64M24.55 24.61c-.16.06-.5.08-.69.1l.06-2.16c0-.3-.37-.9-.61-1.01l-.03-.44c.29.12 1.1.35 1.16.65l.11 2.85ZM29.55 36.31l-.02-6.92.36-.48c-.14 2.46.2 5.05-.34 7.4" class="uuid-9f55e592-f6d9-4cb3-b56f-3991990c0eb1"/><path d="M25.94 35.06c.22.23.5.8.52 1.11-1.22.42-2.39.7-3.64.35.56-.53 1.08-.98 1.42-1.06z" style="fill:#4e4e4e"/><path d="m25.94 35.06-1.7.4c-.52-.14-.75-.21-1.55-.75 1.64-.48 2.38-.61 3.89-.79l-.63 1.14Z" style="fill:#696969"/><path d="m23.93 28.27 1.42-.6 1.46.68c-1.52.78-2.34 1.02-3.88 1.26.19-.63.58-1.16.99-1.34Z" style="fill:#555"/><path d="m25.35 27.67-1.42.6c-.35-.11-.62-.25-1.16-.7 1.47-.6 2.34-.9 3.72-1.25-.15.81-.59 1.12-1.14 1.35" style="fill:#5a5a5a"/><path d="M26.67 25.06c-1.12 1.21-2.47 1.47-3.86 1.53.92-1.15 2.52-1.84 3.86-1.53" style="fill:#575757"/><path d="M26.71 31.17c-1.03 1.08-2.56 1.25-3.95 1.06 1.08-1.08 2.49-1.45 3.95-1.06" style="fill:#505050"/><path d="M26.7 32.74c-1.18 1.01-2.52 1.15-3.92.9 1.04-.93 2.58-1.38 3.92-.9" style="fill:#565656"/><path d="m23.86 24.71-.81.31c-.09-1.3-.16-2.5.26-3.48.24.11.62.7.61 1.01z" style="fill:#444"/><path d="M26.3 30.13c-.76.31-2.54.93-3.43.59-.43-.85 6.93-2.03 3.43-.59" style="fill:#535353"/></svg>