<svg xmlns="http://www.w3.org/2000/svg" id="uuid-0cff2bc6-bac1-4d8d-b841-e16d9a647696" data-name="Слой 1" viewBox="0 0 160 62.5"><defs><style>.uuid-68de850b-e230-41fb-9478-4c67e57a4259{fill:#dddfe2}.uuid-75ad8d6b-a5e5-4a8f-9a47-1290d9be0683{fill:#e0e1e4}.uuid-de0cf6ef-d4a9-44b2-92cb-af9592ec9252{fill:#303d4f}.uuid-8f2e246b-9792-4ed2-b710-7c25dd6f0cc3{fill:#feb71c}.uuid-bb4e2dd3-d198-412b-8160-d2afab4d892d{fill:#fefefe}</style></defs><path d="M160 .3v62.21H.3C.12 41.83.07 21.06.16.19 53.48.06 106.76.1 160 .3" class="uuid-de0cf6ef-d4a9-44b2-92cb-af9592ec9252"/><path d="M.3 62.5H0V0h160v.3H.31z" class="uuid-bb4e2dd3-d198-412b-8160-d2afab4d892d"/><path d="M25.98 44.01c-.69.64-2.29.12-3.21.18-.56-1.06-.28-2.23-.95-3.19-.32-.46-1.53-.66-2.07-.6-.94.52-1.49 1.75-2.46 2.43-1.02-.36-1.89-1.02-2.88-1.6l.98-3.4c-.54-.39-1-1.38-1.73-1.49-1.14-.17-2.13.64-3.3.81-.6-.89-1.17-1.9-1.63-2.97.55-.92 1.71-1.2 2.22-2.21.28-.56-.13-2.03-.6-2.43-.78-.66-2.3-.2-3.01-.91-.54-.78-.15-2.28-.13-3.25l3.14-.87c.5-.14.82-1.57.58-2.1-.46-1.01-1.66-1.3-2.24-2.28.37-.98.97-1.95 1.53-2.84l3.23.73c.55.13 1.66-1.08 1.73-1.66.15-1.18-.81-2.08-.8-3.22.84-.65 1.83-1.16 2.76-1.7l2.44 2.3c.42.4 1.91-.12 2.19-.62.58-1.02.39-2.09.85-3.11 1.12-.1 2.32-.19 3.4.06.43.97.26 2.17.82 3.09.29.48 1.69.84 2.2.57l2.37-2.36c1.01.42 2.07 1 2.88 1.74-.06 1.16-.97 2.03-.8 3.22.08.6 1.15 1.73 1.7 1.61l3.27-.72c.58.87 1.06 1.81 1.53 2.77-.5.98-1.66 1.23-2.24 2.23-.31.52.03 2.1.59 2.24l3.16.84c.17 1.15.21 2.31-.02 3.37-.95.4-2.24.26-3.04.78-.55.36-.91 1.91-.62 2.5.42.82 1.62 1.24 2.2 2.1-.31 1.06-.98 2.01-1.54 2.99l-3.36-.91c-.41.51-1.4.99-1.55 1.73-.21 1.09.76 2.05.76 3.22-.78.69-1.79 1.17-2.73 1.71l-2.44-2.26c-.45-.41-1.87.1-2.25.55-.61.73-.11 2.15-.92 2.9Z" class="uuid-bb4e2dd3-d198-412b-8160-d2afab4d892d"/><path d="m86.44 28.81-9.87.06-.02 6.03 11.76.07c.13 1.31.16 2.58-.01 4.02H71.92l-.02-23.66 16.12-.03c.14 1.34.14 2.59 0 4.03l-11.42.03c-.12 1.89-.11 3.76-.01 5.67l9.84.06c.12 1.2.1 2.23.02 3.71ZM142.73 33.24 134 33.1l-2.11 5.86c-1.53.05-2.87.09-4.62-.03l8.67-23.56c1.79-.11 3.35-.11 5.13 0l8.24 23.47c-1.56.31-3.09.14-4.71.11zM62.28 19.41l-10.01-.05-.1 19.41-4.47-12.6.02-10.86 19.14.03v23.6c-1.54.09-2.88.09-4.53.01zM107.45 38.95l-.07-10.02H96.69l-.07 10.01c-1.57.07-3.01.09-4.61 0l.02-23.58c1.61-.09 3-.08 4.57 0l.08 9.48 9.67.06 4.91 14.01c-1.2.15-2.21.12-3.81.05ZM121.18 38.9c-1.52.19-2.87.11-4.53.05l-.08-19.58-7.56-.03c-.11-1.41-.11-2.67 0-4.03h19.58c.14 1.32.14 2.59 0 4.02l-7.41.06z" class="uuid-8f2e246b-9792-4ed2-b710-7c25dd6f0cc3"/><path d="M140.75 45.77c.63-.14-.2-2.82.75-2.84 0 1.6.78 3.71.43 4.06-.19.19-.37-.33-.58-.42-1.27-.51-2.57-.03-3.87-.3l-.15-2.85c-.01-.26.32-.48.55-.56.13 1.03-.03 1.9.23 2.8.07.25.66.17.85.11.57-.17-.07-2.42.54-2.82.95.57-.51 3.22 1.25 2.82" style="fill:#d9dbde"/><path d="M133 44.84c-.57.59-.06 1.22-.76 1.48-.33-1.12-.27-2.26-.04-3.45.77.35.32.98.77 1.45.6-.76 1.06-1.47 1.83-1.42 1.02.07 1.73.75 1.78 1.64s-.55 1.54-1.34 1.72c-.94.22-1.63-.29-2.23-1.43Z" class="uuid-75ad8d6b-a5e5-4a8f-9a47-1290d9be0683"/><path d="M128.91 50.27c-.49.25-.4.88-.88 1.33-.7-.23-.67-.93-1.26-1.28-.23.56.17 1.23-.51 1.71-.32-1.15-.28-2.28 0-3.43.85.49.99 1.27 1.6 2.07.69-.6.74-1.52 1.67-2.07.3 1.13.31 2.29 0 3.46-.68-.34-.18-.82-.62-1.79" style="fill:#d2d5d9"/><path d="M123.63 45.62c-.14 1.04-1.84.7-2.53.62a9.8 9.8 0 0 1 0-3.15c.65-.06 2.11-.37 2.32.46.12.46.28 1.48.2 2.06Z" style="fill:#d9dbdf"/><path d="M145.03 52.16c-.59-.64-.04-1.36-.37-2.15l-2.03 2.07c-.23-1.2-.33-2.36.05-3.53.71.68.14 1.41.54 2.13.83-.71.93-1.51 1.97-2.17.27 1.13.53 2.36-.16 3.65" style="fill:#e9eaec"/><path d="M137.81 52.06c-.91-.29-.99-.8-1.55-.84-.72-.05-.94.37-1.84.85.26-1.32.71-2.49 1.68-3.64.91 1.21 1.32 2.28 1.71 3.62Z" class="uuid-68de850b-e230-41fb-9478-4c67e57a4259"/><path d="M145.87 46.4c-.89-.33-.99-.82-1.55-.85-.73-.05-.92.43-1.85.87.34-1.31.76-2.48 1.75-3.61.91 1.14 1.37 2.22 1.66 3.59Z" class="uuid-75ad8d6b-a5e5-4a8f-9a47-1290d9be0683"/><ellipse cx="123.56" cy="50.32" class="uuid-68de850b-e230-41fb-9478-4c67e57a4259" rx="1.74" ry="1.73"/><path d="M130.01 45.46c-.76-.14-.75.75-1.44.9-.17-.4.23-.63.22-1.04-.48-.52-.75-1.4-.17-1.93.46-.42 1.98-.67 2.24-.15.48.94.05 2.16.15 3.04-.71.24-.49-.72-.99-.82Z" style="fill:#ecedef"/><path d="M148.78 52.07c-.65-.31-.4-.95-.86-1.01-.52-.07-.77.59-1.23.88-.57-.11.12-.57.02-.97-.49-.55-.76-1.55-.02-2.02.54-.35 1.71-.48 2.15-.12.22 1.02.22 2.2-.06 3.25Z" style="fill:#e7e9eb"/><path d="M120.34 46.35c-1.06-.29-1.08-.8-1.69-.8-.77 0-.89.55-1.74.97.19-1.46.82-2.53 1.7-3.72.91 1.15 1.32 2.22 1.74 3.56Z" style="fill:#e6e7e9"/><path d="M133.01 49.5c-.13-.45-1.23-.43-1.53-.18-.53.85.32 1.97-.48 3-.55-1.22-.1-2.29-.22-3.56.97-.2 1.79-.12 2.84-.07.02 1.2.31 2.3-.09 3.61-.85-.84-.2-1.72-.52-2.82Z" style="fill:#e0e2e4"/><path d="M112.27 43.8c-.12-.42-1.36-.46-1.53-.11-.39.79-.11 1.81-.34 2.73-.85.26-.33-2.98-.26-3.37 1.03-.06 1.85-.13 2.77.02-.06 1.28.19 2.35-.3 3.59-.83-.89-.01-1.71-.34-2.86" style="fill:#f0f1f2"/><path d="M126.76 43.72c-.14-.31-.7-.24-.94-.15-.58.21.18 2.97-1.62 2.78.68-1.04.89-1.98.78-3.25.84-.18 1.51-.09 2.45-.05-.05 1.18.27 2.31-.2 3.63-.85-.98 0-1.94-.47-2.95Z" class="uuid-68de850b-e230-41fb-9478-4c67e57a4259"/><path d="M148.85 46.38c-.77-.18-.46-.77-.71-.87-.4-.16-.68.11-1.23.47-.23-.52-.66-1.19-.67-2.03-.01-.93 2.12-1.35 2.52-.72.52.82.11 2.23.09 3.15" style="fill:#dcdee1"/><path d="M141.19 48.67c.31.99.43 2.35-.07 3.33-.49-.47-.14-1.1-.49-1.37-.28-.21-.87-.21-1.29-.03s-.01.88-.63 1.49c-.36-1.17-.31-2.39-.02-3.55.6.53.28 1.05.5 1.26.37.37.91.24 1.3.2.53-.05.08-.78.7-1.35Z" style="fill:#e1e2e5"/><path d="m120.49 50.15.76 1.84c-.96-.2-.9-1.15-1.83-1.55-.43.54.07 1.19-.67 1.62-.29-1.14-.25-2.26-.04-3.44.78.26.3 1.01.7 1.51.89-.28.89-1.14 1.69-1.51.27.61-.82 1.05-.62 1.53Z" style="fill:#dfe0e3"/><path d="M115.67 45.31c-.98-.14-1 .47-1.45 1.15-.53-1.21-.26-2.33-.17-3.44 1.08-.06 2.48-.1 2.59.9.07.66-.07 1.22-.97 1.38Z" style="fill:#e6e8ea"/><path d="M109.22 43.07c-.14.83-1.72 4.36-2.69 3.11.23-.32.87-.33.9-.66-.09-.91-.98-1.44-.95-2.46.89.16.84 1.05 1.35 1.68.78-.37.48-1.34 1.4-1.67Z" style="fill:#d7d9dc"/><ellipse cx="24.32" cy="27.13" class="uuid-de0cf6ef-d4a9-44b2-92cb-af9592ec9252" rx="11.62" ry="11.59"/><path d="M141.51 29.73c-2.18.31-4.12.14-6.44.09l3.22-9.45z" style="fill:#313d4e"/><circle cx="134.87" cy="44.67" r="1.11" style="fill:#3a4657"/><path d="M121.85 44.63h1.04v1.49h-1.04z" style="fill:#434e5f" transform="rotate(-87.8 122.373 45.379)"/><path d="M121.84 43.24h.93v1.36h-.93z" style="fill:#495564" transform="rotate(-88.66 122.304 43.916)"/><circle cx="123.52" cy="50.32" r="1.16" style="fill:#3d495a"/><circle cx="129.74" cy="44.24" r=".76" style="fill:#444f5f"/><circle cx="147.66" cy="49.88" r=".76" style="fill:#475362"/><circle cx="147.67" cy="44.23" r=".76" style="fill:#354153"/><circle cx="115.27" cy="44.19" r=".72" style="fill:#515c6b"/><path d="M23.28 21.1c.49.23.57.3.03.44.16.89.2 1.84.13 2.85l.41.32c.08-.83.26-.82.69-.1l2.38-.89c.46-.17.85.26 1.17.42.48.24.62.4.06.56l.02 11.33c0 .66 0 1.22-.58 1.44-1.25.48-.25-1.41-4.73.18-.36.13-1.32.1-1.33-.46l-.1-15.84-1.74.68c-.42.4-.52.23-.3-.3 2.59-1.03 1.46-1.62 3.88-.63Z" style="fill:#fbfcfc"/><path d="M19.7 22.03c-1.19 3.04.73 7.41.52 6.05.45 2.92.05 5.82.16 8.86-.87-.18-2.05-.53-2.06-1.22l-.2-7.61c-1.63-1.02-.57 5.61-.97 6.76-.34.02-.57-.31-.58-.67l-.1-5.36c0-.3-.53-.14-.67-.06-.7.43.08 3.87-.51 4.28-.28-1.27-.93-3.19-.26-4.33s2.76-1.15 3.85-1.47c.47-1.3-.17-5.26.5-5.52-.04.2.12.3.3.3Z" style="fill:#fafafa"/><path d="M29.25 28.6c.13-.54.25-.88.63-.34.31 0 3.99-1.2 4.66.33.55 1.24-.17 2.6-.72 3.63-.57-.94.18-3.51-.54-3.8-1.11-.45.58 5.99-1.33 6.06l-.09-5.9c-.73-.1-1.4.15-2.14.5l-.06 6.94c0 .33-.21.58-.39.71-.09.06-.32.14-.44-.03l-.09-7.25c0-.47.25-.73.51-.86Z" style="fill:#f5f5f6"/><path d="M29.89 28.26c-.22 0-.42.3-.63.34-.17-1.06.57-3.22-.27-3.73-.2-.12-.53-.15-.83-.18l-.06-.56c.39.19 1.4.14 1.58.69.37 1.14.02 2.36.21 3.43Z" style="fill:#dedfe3"/><path d="M24.55 24.61c-.21.08-.49 0-.69.1l-.39-.14q0-1.56-.15-3.03l-.03-.44c.31.13 1.13.12 1.15.63z" style="fill:#d8dbde"/><path d="M26.5 27.04c-1.24.28-2.34 1.23-3.68.83-.78-.34 5.54-2.59 3.68-.83" style="fill:#737c88"/><path d="M26.5 35.48c.11 1.31-2.8 1.32-3.42 1.11-.32-.41.46-.85.8-.84.55-.48 2.16-.93 2.61-.27Z" style="fill:#434f5f"/><path d="M23.17 26.61c-1.69.07 3.31-2.53 3.3-1.44 0 .76-2.75 1.41-3.3 1.44" style="fill:#4a5565"/><path d="m26.32 27.79.27.88-3.45 1.03-.27-.88z" style="fill:#4b5666"/><path d="M26.71 31.24c-1.24 1.06-2.57 1.19-3.95.97 1.06-1.02 2.63-1.55 3.95-.97" style="fill:#485464"/><path d="M25.97 33.34c-.26.49-1.49.59-2.09.52-.17-.05-.52.01-.68.01-.1 0-.26-.53-.17-.58 1.04-.56 5.24-1.5 2.95.05Z" style="fill:#4b5766"/><path d="M23.86 24.71c-.19.1-.3.29-.45.3-.74.05-.44-3.52-.09-3.47.4.13.61.51.59 1.06z" style="fill:#344152"/><path d="M26.5 33.99c-.02.28-.12.55-.25.79-.58.63-2.38.88-3.22.31-.1-.66.65-.74 1.16-.83.46-.62 1.72-.84 2.32-.27Z" style="fill:#414d5d"/><path d="M26.38 30.09c-1.18.36-2.3 1.04-3.6.66.14-1.19 7.44-1.85 3.6-.66" style="fill:#4e5968"/><path d="M26.24 34.78c.08.22.23.48.25.7-.88-.22-1.72.29-2.61.27-.2-.33-.81-.22-.86-.66 1.09.21 2.14-.18 3.22-.31" style="fill:#e3e4e7"/><path d="M25.97 33.34c.18.12.54.41.52.65-.78-.16-1.54.14-2.32.27-.06-.12-.15-.36-.3-.4.57-.36 1.45-.46 2.09-.52Z" style="fill:#d7dadd"/></svg>